<svg xmlns="http://www.w3.org/2000/svg" viewBox="0 0 128 40"><defs><style>.cls-1{fill:#feffff;}.cls-1,.cls-2,.cls-3,.cls-4,.cls-5,.cls-6{fill-rule:evenodd;}.cls-2{fill:#007aa8;}.cls-3{fill:#dd040b;}.cls-4{fill:#aeaeb3;}.cls-5{fill:#002d53;}.cls-6{fill:#fbffff;}</style></defs><title>1001</title><path d="M4.23 0l28.1 2.3.13 1.38 94.92-.06c-13.73 23.34-24 11.84-39.75 23-15.75 13.87-25.8 14-43.77 13L30 34.12l-2.46 4.42L17 28.24l-4 3.48L7.8 19l-5.07 2z" class="cls-1"/><path d="M121.15 5.4h-90.4L31 6.45l.76-.2 1.6 2.34.92-.7 2.38 1.6.8-1.4 6.23 1.34v27.9l.23.58h9.8c7.4.07 12.8-1 17.9-3.27l5-2.7c1.93-1.2 3.88-2.6 6-4.2v-10a7.33 7.33 0 0 1-12.63 3C67.5 23.4 62.9 24.2 60 22v3.6l-7.24 2.17v-11l-1.9 1.07-3-5.37 12.2-7.08v4.36c2.88-2.14 7.46-1.26 10 1.5a7.1 7.1 0 0 1 10.76-.34l8.94-5.54v17.9c14.48-8 17.5 0 31.44-17.9" class="cls-2"/><path d="M64.23 11.85c1.3 0 2.4 1.72 2.4 3.88s-1.1 3.93-2.4 3.93S62 18 62 15.74s1-3.88 2.27-3.88m11.2 0c1.27 0 2.32 1.72 2.32 3.88s-1 3.93-2.33 3.93-2.35-1.67-2.35-3.93 1.03-3.9 2.3-3.9zm-5.5 1.92A6 6 0 0 0 64.3 10a6.12 6.12 0 0 0-5.58 3.66V7.84l-8.9 5.3 1.6 2.86 2.82-1.37v11.3l4.47-1.38v-6.33a6 6 0 0 0 5.6 3.7 6.1 6.1 0 0 0 5.63-3.7A6 6 0 0 0 81.53 16s0 0 0-.07L84 14.58v11.34l4.5-1.35V7.84l-8 4.82A6.07 6.07 0 0 0 75.45 10a5.93 5.93 0 0 0-5.53 3.77z" class="cls-3"/><path d="M8.8 17l4.88 11.85L17.05 26l10.25 9.7 1.88-3.83 14.78 6V9l-6.72-1.36-.76 1.22-2.2-1.38-.87.6-1.5-2.17-.66.2-.47-2.43L5.9 1.87l-1.36 16.6z" class="cls-4"/><path d="M124.6 5.4c-9 11.56-15 12.32-22 13.33 5.4-1.13 10-2.46 18.44-13.34z" class="cls-5"/><path d="M29.22 5.46L7.12 4.14l-.85 12.2L29.8 8.37l-.58-2.9zm-18.9 11.5l21.27-7.9 1 1.77L14.3 26.5l-3.97-9.55zm24.48-6.72l2.46 1.7-10.5 21.25-8.72-7.8 16.94-14.24-.17-.93zm3.14-.78l4.06 1.2v24.72l-12.2-4.74 9.48-19.3a.56.56 0 0 0-.1-.64z" class="cls-6"/></svg>