<svg xmlns="http://www.w3.org/2000/svg" viewBox="0 0 400 125" enable-background="new 0 0 400 125"><style type="text/css">.st0{fill:#CF6B30;} .st1{fill:#581A17;} .st2{fill:#98FF97;} .st3{fill:#FFFFFF;} .st4{fill:#838383;} .st5{fill:#2C2C2C;} .st6{fill:#D5D5D5;}</style><path d="M162.6 67.2H141v-5.5h23.1z" class="st0"/><path d="M165.4 51.3l-14.3 43.1h-5.8l14.3-43.1s.5-2.9-3-2.6c-3.4.3-4.1 2.6-4.1 2.6l-14.3 43.1h-5.8l9-27.3h-7.8l-4.2-5.5h13.9l3.4-10.3s3.6-9.3 12.4-8.1c0 .1 7.6-.5 6.3 8.1z" class="st1"/><path d="M389.7 67.2H216.4v-5.5H393z" class="st0"/><path d="M231.8 94.5H226l16.8-51.2h5.8zM244.9 87.3h10.2l-1.9 7.2h-16.5l16.8-51.2h5.8zM235.3 51.3l-14.2 43.1h-5.8l14.2-43.1s.5-2.9-3-2.6c-3.4.3-4.1 2.6-4.1 2.6l-14.2 43.1h-5.8l9-27.2h-4.5l-4.2-5.5h10.6l3.4-10.3s3.2-8.8 12.4-8.1c-.1 0 7.4-.6 6.2 8zM290.7 51.3l-14.2 43.1h-5.8l14.2-43.1s.5-2.9-3-2.6c-3.4.3-4.1 2.6-4.1 2.6l-14.2 43.1h-5.8L272 51.3s2.3-8.7 12.4-8.1c0 .1 7.6-.5 6.3 8.1zM325.3 43.3L320 59.5s-3.5-11-16.6-14.9l-5.4-1.4-16.6 51.2h5.8l14-43.1s15.8 5.4 13.6 24l-6.2 19.1h7l16.8-51.2h-7.1zm-5.5 16.9c0-.1.1-.2.1-.3l-.1.3zM347.7 44c-.1 0-.2-.1-.4-.1-.2-.1-.4-.1-.7-.2-.2 0-.4-.1-.6-.1-.1 0-.2 0-.3-.1-.3 0-.5-.1-.8-.1-.1 0-.3 0-.4 0-.3 0-.6-.1-.8-.1-.6 0-1 0-1 0h-5.8L320 94.5h5.8c.3 0-.3 0 0 0 10.4-.3 31.4-9.5 33.6-31.4 0-.2 0-.5.1-.7.8-12.7-6.6-17-11.8-18.4zm4.9 21.3C346.5 88.4 328.3 87 328.3 87l12.3-36.9c16 .6 12 15.2 12 15.2zM359.8 94.5H354l17.1-51.2h5.8zM396.9 51.3l-14.2 43.1h-5.8l14.2-43.1s.5-2.9-3-2.6c-3.4.3-4.1 2.6-4.1 2.6l-14.2 43.1H364l14.2-43.1s3.7-8.7 12.4-8.1c0 .1 7.6-.5 6.3 8.1zM209 58.3c.2-.7-1.6-2.8-1.9-3.3-1.7-2.2-4-4-6.6-5-14.1-4.9-30.4 10.8-31.1 24.5-.1 2.5.4 4.9 1.6 7 .7 1.2 1.7 2.3 2.8 3.2 2.3 1.9 4.3 2.9 7.3 3 3.8.2 7.6-.6 11.1-2.1 1.8-.8 3.5-1.8 5.1-2.9.9-.6 1.8-1.3 2.7-2.1.5-.4 2.7-2 2.7-2.6 0 .1-2.8 9.7-2.8 9.7s-13.5 10.6-26.8 5C155 85.1 165.1 61 176 52c5.3-4.4 11.6-7.5 18.5-8.7 2.9-.5 6.3-.2 9.2.6 3.6 1 5.7 2.9 8.3 5.5-.2.3-3 8.9-3 8.9z" class="st1"/><path d="M343.8 43.3c.2 0 .5 0 .8.1-.3-.1-.6-.1-.8-.1zM345 43.4c.2 0 .5.1.8.1-.3 0-.6 0-.8-.1zM359.4 62.3c.9-12.6-6.5-16.9-11.7-18.3 5.2 1.4 12.7 5.7 11.7 18.3z" class="st2"/><path d="M186.4 101.4H171v-4.6h16.8zM68 82.4c-6.9 0-12.5 5.7-12.5 12.6 0 6.9 5.6 12.6 12.5 12.6s12.5-5.7 12.5-12.6c0-6.9-5.6-12.6-12.5-12.6zM54.6 24.1l-2-.1c-.7 0-1.6 0-3 0-.8 0-1.8 0-2.9 0 .6 3.4 2.2 10.2 5.7 17.3 6.4 13 15.8 20.6 27.9 22.8h21.5c-3.2-4.3-6.4-8.6-9.6-12.9-2.3-3.1-4.6-6.2-6.8-9.2-2.1-2.9-4.3-5.8-6.4-8.7l-.7-.9c0-.1-2.4-3.3-8.1-5.7-1.1-.5-2.3-.9-3.6-1.2-3.7-1.1-7.7-1.5-12-1.4zM8.1 53.7c.8.8 2 1.9 3.3 3.2.2.2.4.4.6.5.1.1.2.2.4.3.3.2.6.5.8.7.2.2.4.4.7.5 3.1 2.5 5.9 4.1 8 4.8.1 0 .3.1.4.1.2 0 .3.1.5.1.1 0 .2 0 .3 0 .1 0 .3 0 .4 0 .1 0 .2 0 .2 0h44.6c-8.1-4.2-14.7-11.4-19.4-21.2-3.9-8-5.5-15.6-6.1-18.9-2.7 0-5.7 0-8.5 0-1.4 0-2.8 0-4.2 0h-.4c-.6 0-1.1 0-1.7 0-1.6 0-3.1 0-4.3 0-1 0-1.8 0-2.4 0-7.2 8.5-12 18.5-13.7 29.4.1.1.2.2.3.3.1.1.2.1.2.2z" class="st0"/><path d="M19.7 20.2l-.6.6c.2-.2.4-.4.6-.6zM14.3 64.1c-2.8-1.9-5.4-4.2-7.3-6 1.1 1 2.4 2.2 3.8 3.4 1.2.9 2.4 1.8 3.5 2.6zM16.3 24.2l2.8-3.3c-1 1-1.9 2.1-2.8 3.3zM3.5 54.4c0-.3.1-.6.1-.9l-.1.9zM21.4 24.1c.6 0 1.4 0 2.4 0-1 0-1.8 0-2.4 0zM21.9 63.8c-2.1-.6-4.9-2.3-8-4.8 2.7 2.1 5.6 4.1 8 4.8zM4.2 49.5l-.6 4c.2-1.3.4-2.6.7-3.9l-.1-.1zM11.5 56.9c-1.4-1.2-2.5-2.4-3.3-3.2.8.9 2 2 3.3 3.2zM44.4 20.2c.6 0 1.2 0 1.7 0h-1.7zM64.1 1C47.3 1 31.2 8 19.7 20.2c-.2.2-.4.4-.6.6l-2.8 3.3c-5.9 7.5-10 16.1-12 25.4-.3 1.3-.5 2.6-.7 3.9 0 .3-.1.6-.1.9-.4 2.8-.5 5.5-.5 8.2 0 1.2 0 2.4.1 3.6.6 10.7 4 21 9.8 30C24.2 113.6 43.4 124 64.1 124c33.7 0 61.1-27.6 61.1-61.5S97.7 1 64.1 1zM7.6 53.2c1.7-10.8 6.5-20.8 13.8-29.1.6 0 1.4 0 2.4 0 1.2 0 2.7 0 4.3 0 .5 0 1.1 0 1.7 0h.4c1.3 0 2.7 0 4.2 0 2.8 0 5.8 0 8.5 0 .6 3.3 2.2 10.8 6.1 18.9 4.8 9.8 11.4 16.9 19.4 21.2H23.7c-.1 0-.2 0-.2 0-.1 0-.3 0-.4 0-.1 0-.2 0-.3 0-.1 0-.3-.1-.5-.1-.1 0-.3-.1-.4-.1-.1 0-.3-.1-.4-.1-2.2-.7-4.7-2.3-7-4.2-.2-.1-.4-.3-.6-.5-.2-.2-.4-.4-.7-.5-.3-.2-.6-.5-.8-.7-.1-.1-.3-.2-.4-.3-.2-.2-.4-.4-.6-.5C10.1 56.1 9 55 8.1 54c-.1-.1-.1-.1-.2-.2-.1-.4-.2-.5-.3-.6zm62.5-26.6c5.7 2.4 8.1 5.6 8.1 5.7l.7.9c2.1 2.9 4.3 5.8 6.4 8.7 2.3 3.1 4.6 6.2 6.8 9.2 3.2 4.3 6.4 8.6 9.6 12.9H80.3c-12.2-2-21.5-9.7-27.9-22.7-3.5-7.1-5.1-13.9-5.7-17.3 1.1 0 2.1 0 2.9 0 1.3 0 2.3 0 3 0l2 .1c4.3-.2 8.3.3 11.9 1.2 1.3.4 2.5.8 3.6 1.3zm-2.5-4.8c3-2.7 10.4-6.2 17.2-2.8 5.3 2.6 6.5 8.1 6.8 10.2.1.4-.3.8-.7.8-.4 0-.7-.2-.8-.6-.3-1.8-1.4-6.8-6-9.1-6.2-3.1-12-.2-14.7 2.3l-1.8-.8zM6.8 62.5c0-1.5.1-3 .2-4.4 1.1 1 2.4 2.2 3.8 3.4 1.2 1 2.4 1.9 3.5 2.7.2.1.4.3.6.4-.2-.1-.4-.3-.6-.4H6.9c-.1-.6-.1-1.2-.1-1.7zm.3 5.5h97.5c.8 1.1 1.6 2.1 2.4 3.2H95.1v2.4h13.5c.3.6.5 1.3.6 2H97V78h12.5c.1.6.1 1.1.2 1.7h-9.9v2.4h10c-.1 3.5-1.2 6.3-3.1 8.4-1.5 1.6-3 2.5-3.5 2.5H84.3c-1-8.2-7.9-14.6-16.3-14.6S52.7 84.8 51.7 93H15.6c-4.8-7.5-7.7-16.1-8.5-25zm73.4 27c0 6.9-5.6 12.6-12.5 12.6S55.5 101.9 55.5 95c0-6.9 5.6-12.6 12.5-12.6S80.5 88.1 80.5 95zm-16.4 25.1c-18.2 0-35.1-8.6-45.8-23.1h33.5c1 8.2 7.9 14.5 16.3 14.5s15.3-6.4 16.3-14.5h18.9c2.5 0 5.1-2.4 6.4-3.8 3.5-3.7 4.7-9 3.8-15.7l-.1-.5c-.2-1.8-.5-3.6-1.4-5.5 0-.1-.1-.2-.1-.3-.3-.6-.7-1.1-1.1-1.6l-.1-.1c-1.1-1.5-2.3-3.1-3.4-4.6-3.9-5.3-7.9-10.7-11.9-16-2.3-3.1-4.6-6.2-6.8-9.2-2.1-2.9-4.3-5.8-6.4-8.7l-.9-1c-.1-.2-2.7-3.7-8.7-6.5 2.5-1.3 6-1.7 8.6-1.1 3 .7 5.7 3.7 6.2 7.9.2 1.7 1.4 3.1 3.1 3.4l.4.1c2.3.3 4.4-1.6 4.2-4-.3-2.9-1.2-5.7-2.8-8.1-2.2-3.5-5.7-5.9-9.4-6.8-6.2-1.5-14.8.2-18.9 6.1-3-.5-6.2-.7-9.5-.6h-.2c-.1 0-.4 0-.6 0-.5 0-1.2 0-2.2 0-1.4 0-3.3 0-5.5 0-.6 0-1.1 0-1.7 0-4.5 0-9.9 0-14.4 0-.6 0-1.2 0-1.7 0H28c-.6 0-1.1 0-1.6 0-.4 0-.7 0-1.1 0 10.5-10 24.4-15.5 38.8-15.5 31.6 0 57.2 25.8 57.2 57.6s-25.7 57.6-57.2 57.6zM14.8 64.5c-.2-.1-.4-.3-.6-.4.2.1.4.2.6.4z" class="st1"/><path d="M84.1 20.3c4.6 2.3 5.7 7.3 6 9.1.1.4.4.6.8.6s.7-.4.7-.8c-.3-2.1-1.5-7.6-6.8-10.2-6.9-3.4-14.3.1-17.2 2.8l1.9.8c2.6-2.5 8.5-5.4 14.6-2.3z" class="st3"/></svg>