<svg xmlns="http://www.w3.org/2000/svg" viewBox="0 0 540 168" enable-background="new 0 0 540 168"><style type="text/css">.st0{fill:#637EC4;} .st1{fill:#FFFFFF;}</style><path d="M0 0h540v168H0z" class="st0"/><path d="M23.9 102.4h15.3v8.1h11.6V61.4H36.5L5.3 109.7h13.8l4.8-7.3zm5.4-8.5l9.9-15.2v15.2h-9.9zM166.1 102.4h15.3v8.1H193V61.4h-14.3l-32.2 49.1h14.8l4.8-8.1zm5.4-8.5l9.9-15.2v15.2h-9.9zM273.3 102.4h15.3v8.1h11.6V61.4h-14.3l-31.1 49.1h13.8l4.7-8.1zm5.5-8.5l9.9-15.2v15.2h-9.9zM390.5 102.4h15.3v8.1h11.6V61.4H403l-31.1 49.1 3.9-.1c5.9-.2 11.3-3.1 14.7-8zm5.4-8.5l9.9-15.2v15.2h-9.9zM91.8 82.1H76.4v8.7h14.1c-2.4 4.4-7.2 7.4-12.8 7.4-1 0-2-.1-2.9-.2-.4-.1-.9-.2-1.4-.3-.9-.2-1.7-.6-2.6-1.1-.4-.2-.8-.4-1.2-.6-.8-.5-1.5-1.1-2.2-1.6-.7-.6-1.2-1.3-1.7-2s-.9-1.5-1.3-2.3c-.7-1.6-1.1-3.4-1.1-5.3 0-7.4 6.5-13.5 14.4-13.5 4.4 0 8.3 1.9 11 4.9h14C98.8 66.7 89.1 60 77.7 60c-7.4 0-14.2 2.8-19 7.4-1.2 1.1-2.3 2.4-3.3 3.7-.5.6-.9 1.4-1.4 2.1-1.6 2.8-2.8 6.1-3.1 9.5-.1.9-.2 1.7-.2 2.6 0 7 3 13.4 7.9 17.9 1.2 1.1 2.6 2.2 4 3.1.7.5 1.5.9 2.2 1.3 3 1.5 6.5 2.6 10.1 2.9.9.1 1.8.2 2.8.2 14.9 0 26.9-11.3 26.9-25.3 0-1.1-.1-2.1-.3-3.2l-12.5-.1zM383.4 92.3c-2.4 4.4-7.9 5.9-13.5 5.9-1 0-2-.1-2.9-.2-.4-.1-.9-.2-1.4-.3-.9-.2-1.7-.6-2.6-1.1-.4-.2-.8-.4-1.2-.6-.8-.5-1.5-1.1-2.2-1.6-.7-.6-1.2-1.3-1.7-2s-.9-1.5-1.3-2.3c-.7-1.6-1.1-3.4-1.1-5.3 0-7.4 6.5-13.5 14.4-13.5 13 0 14.9 11.6 14.9 11.6l7.4-11.8C383.7 61.1 380.3 60 370 60c-7.4 0-14.2 2.8-19 7.4-1.2 1.1-2.3 2.4-3.3 3.7-.5.6-.9 1.4-1.4 2.1-1.6 2.8-2.8 6.1-3.1 9.5-.1.9-.2 1.7-.2 2.6 0 7 3 13.4 7.9 17.9 1.2 1.1 2.6 2.2 4 3.1.7.5 1.5.9 2.2 1.3 3 1.5 6.5 2.6 10.1 2.9.9.1 1.8.2 2.8.2 14.9 0 26.9-11.3 26.9-25.3 0-1.1-.1-2.1-.3-3.2l-13.2 10.1zM142.5 61.3h-12v32.8h-.2c-.1 3.3-2.8 6.1-6.1 6.1-3.4 0-6.1-2.7-6.1-6.1h-.1V61.3h-12v32.9h.1c1 9.2 8.8 16.3 18.2 16.3s17.2-7.2 18.2-16.3h.2V61.3h-.2zM146 61.3h12.1v49.2H146zM257.6 93c5.3-2.8 8.9-8.4 8.9-14.9 0-9.3-7.6-16.8-16.9-16.8-.7 0-1.2.1-1.9.1h-7.2l-.1-.2-.2.2h-7.6v49.5h11.6V94.1c.3.1.7.2 1.1.3l7.7 16h14L257.6 93zm-10-8.8h-3.8V71.9h3.8c3.4 0 6.1 2.8 6.1 6.1s-2.7 6.2-6.1 6.2zM330.5 62.3v24.4l-15.7-24.4v-.2h-12.4v48.3h12.4V85.5l9.9 15.4 5.8 9.6v.1H343V62.3zM222.7 85.6c3.7-2.3 6.2-6.4 6.2-11.1 0-6.7-5.2-12.3-11.7-13h-19.1v48.8h18.4c7.2 0 13.1-5.9 13.1-13.1.2-5-2.7-9.4-6.9-11.6zM210 80.1v-7.8h2.8c2.5 0 4.4 2 4.4 4.4 0 2.4-2 4.4-4.4 4.4H210v-1zm3.2 19h-2.8v-8.8h2.8c2.5 0 4.4 2 4.4 4.4-.1 2.4-2 4.4-4.4 4.4zM504.8 78.3h-88.9V61.4h121.6c-4 10-13.7 16.7-24.5 16.8l-8.2.1zM472.1 95.2h-56.2V79.6h88.9c-4 9.2-13.7 15.3-24.5 15.4l-8.2.2zM449.6 110.5h-41.4v-14h65.4c-3 8.3-10.1 13.8-18.1 13.9l-5.9.1z" class="st1"/></svg>