<svg id="Camada_1" data-name="Camada 1" xmlns="http://www.w3.org/2000/svg" viewBox="0 0 400 125"><defs><style>.cls-1{fill:#009809;}</style></defs><path class="cls-1" d="M119.53,82.34c-1.64-3.71-25.89-53.15-25.89-53.15C67.93-23,39.17,14.61,34.31,23.85c4.38-2.19,12.51-2.73,18.83,11.62l15.78,32C79.07,86.43,103.92,90.41,119.53,82.34Z"/><path class="cls-1" d="M56.17,63.27C51.66,53.3,46.55,42,42,36.21c-5-6.37-11.54-6.33-15.92,2.21L3.61,82.34C32.93,93.89,49.76,78.54,56.17,63.27Z"/><path class="cls-1" d="M394.39,30.73a3,3,0,0,1,2.22-.88,3.13,3.13,0,0,1,2.22,5.32,3.2,3.2,0,0,1-4.43,0,3.2,3.2,0,0,1,0-4.44Zm.31,4.14a2.77,2.77,0,1,0-.77-1.92A2.59,2.59,0,0,0,394.7,34.87Zm3.19-2.65a.93.93,0,0,1-.27.69,1.28,1.28,0,0,1-.72.34L398,34.68h-.51l-1-1.42h-.53v1.42h-.43V31.45a.24.24,0,0,1,.27-.27h.9a1.36,1.36,0,0,1,.91.28A.94.94,0,0,1,397.89,32.22Zm-2-.64v1.28h.72a1,1,0,0,0,.6-.17.56.56,0,0,0,.22-.47c0-.43-.27-.64-.81-.64Z"/><path class="cls-1" d="M154.11,57.72l-1.66-5.15h-9.08l-1.65,5.15h-7.27l9.23-25.51q.76-2.14,4.23-2.15t4.27,2.15l9.2,25.51Zm-8.85-11.08h5.27l-2.62-8.23Z"/><path class="cls-1" d="M190.5,30.14a5.12,5.12,0,0,1,2.67.63,2.07,2.07,0,0,1,1.06,1.91v25h-7V43.06l-4.77,9.31H176l-4.77-9.31V57.72h-7v-25a2.12,2.12,0,0,1,1.06-1.92,5.08,5.08,0,0,1,2.67-.65,5,5,0,0,1,2.79.59,7.37,7.37,0,0,1,1.83,2.52l6.66,12.89,6.65-12.89a7.51,7.51,0,0,1,1.83-2.52A5,5,0,0,1,190.5,30.14Z"/><path class="cls-1" d="M216.7,57.72,215,52.57H206l-1.65,5.15H197l9.23-25.51q.76-2.14,4.23-2.15t4.27,2.15L224,57.72Zm-8.85-11.08h5.27l-2.62-8.23Z"/><path class="cls-1" d="M241.28,57.72l-5.35-9.54h-2v9.54H227V33a2.62,2.62,0,0,1,.79-2,2.75,2.75,0,0,1,2-.77h8.89a9.86,9.86,0,0,1,7.12,2.45,8.62,8.62,0,0,1,2.54,6.52q0,6.3-5.47,8.19l6.24,10.31Zm-7.39-21.66V42.6h4q3.23,0,3.23-3.34a3.32,3.32,0,0,0-.79-2.31,3.07,3.07,0,0,0-2.4-.89Z"/><path class="cls-1" d="M272.17,36.18H260.09v4.73h10.77v5.92H260.09v5h11.73v5.92H252.89V33a2.62,2.62,0,0,1,.79-2,2.79,2.79,0,0,1,2-.77h16.47Z"/><path class="cls-1" d="M279.05,57.72a2.71,2.71,0,0,1-2-.77,2.63,2.63,0,0,1-.79-2V30.25h7.16V51.91h11.27v5.81Z"/><path class="cls-1" d="M298.06,57.72V30.25h7.19V57.72Z"/><path class="cls-1" d="M327,30.25h6.54V55.91a1.72,1.72,0,0,1-1,1.54A5,5,0,0,1,330,58a6.29,6.29,0,0,1-2.63-.42,4.38,4.38,0,0,1-1.6-1.47l-9.81-14V57.72h-6.62V32.87c0-1.82,1.24-2.73,3.7-2.73a5.33,5.33,0,0,1,2.83.57A9.86,9.86,0,0,1,318,33.1l9,12.66Z"/><path class="cls-1" d="M337.61,57.72V30.25h7.2v11h9.42v-11h7.2V57.72h-7.2V47.49h-9.42V57.72Z"/><path class="cls-1" d="M378.9,58.15a13.2,13.2,0,0,1-14-14,14.33,14.33,0,0,1,3.87-10.46,15.26,15.26,0,0,1,20.49,0c2.56,2.61,3.84,6.08,3.84,10.38a13.77,13.77,0,0,1-3.88,10.24A14,14,0,0,1,378.9,58.15ZM379,52a6.34,6.34,0,0,0,5.08-2.06A8.85,8.85,0,0,0,385.86,44a9,9,0,0,0-1.77-6,7.28,7.28,0,0,0-10.19,0,8.94,8.94,0,0,0-1.78,6,8.8,8.8,0,0,0,1.78,5.94A6.36,6.36,0,0,0,379,52Z"/><path class="cls-1" d="M14.33,115.56a8.67,8.67,0,0,1-.54,3.19,6.51,6.51,0,0,1-1.48,2.31,6,6,0,0,1-2.23,1.39,8.15,8.15,0,0,1-2.78.47,8,8,0,0,1-2.73-.47,6.4,6.4,0,0,1-2.24-1.39,6.58,6.58,0,0,1-1.51-2.31,8.66,8.66,0,0,1-.55-3.19,8.24,8.24,0,0,1,.57-3.18,6.92,6.92,0,0,1,1.54-2.32,6.37,6.37,0,0,1,2.24-1.4,7.56,7.56,0,0,1,2.68-.47,7.68,7.68,0,0,1,2.73.47,6.12,6.12,0,0,1,2.24,1.4,6.71,6.71,0,0,1,1.51,2.32A8.44,8.44,0,0,1,14.33,115.56Zm-10.78,0a6.42,6.42,0,0,0,.26,1.88,4.34,4.34,0,0,0,.73,1.44,3.28,3.28,0,0,0,1.17.92,3.71,3.71,0,0,0,1.59.33,3.66,3.66,0,0,0,1.58-.33,3.23,3.23,0,0,0,1.18-.92,4.36,4.36,0,0,0,.74-1.44,6.43,6.43,0,0,0,.25-1.88,6.48,6.48,0,0,0-.25-1.88,4.31,4.31,0,0,0-.74-1.45,3.13,3.13,0,0,0-1.18-.92A3.66,3.66,0,0,0,7.3,111a3.57,3.57,0,0,0-1.59.34,3.31,3.31,0,0,0-1.17.93,4.3,4.3,0,0,0-.73,1.45A6.43,6.43,0,0,0,3.55,115.56Zm6.93-9.45-1.12,1.34-2-1.56-2,1.56L4.1,106.11l3.21-2.79Z"/><path class="cls-1" d="M16.78,112.28a15.15,15.15,0,0,1,2-.41,16.42,16.42,0,0,1,2.57-.2,6.17,6.17,0,0,1,2.27.36,3.35,3.35,0,0,1,1.44,1,3.93,3.93,0,0,1,.75,1.55,8.12,8.12,0,0,1,.23,2v6H23V117a4.2,4.2,0,0,0-.38-2.08,1.59,1.59,0,0,0-1.45-.61l-.69,0-.66.07v8.27h-3Z"/><path class="cls-1" d="M32.1,108.82a1.64,1.64,0,0,1-.54,1.31,1.93,1.93,0,0,1-2.55,0,1.64,1.64,0,0,1-.54-1.31A1.69,1.69,0,0,1,29,107.5a2,2,0,0,1,2.55,0A1.69,1.69,0,0,1,32.1,108.82Zm-.29,13.81h-3V111.92h3Z"/><path class="cls-1" d="M44.63,117.28a6.57,6.57,0,0,1-.38,2.32,4.84,4.84,0,0,1-1.09,1.77,4.68,4.68,0,0,1-1.75,1.13,6.45,6.45,0,0,1-2.36.4c-.37,0-.75,0-1.15-.05l-1.19-.13c-.38-.06-.75-.12-1.11-.2s-.66-.15-.93-.23v-15l3-.49v5.34a5.69,5.69,0,0,1,1.06-.34,5.34,5.34,0,0,1,3.2.27,4.09,4.09,0,0,1,1.47,1.13,5.32,5.32,0,0,1,.9,1.76A8.21,8.21,0,0,1,44.63,117.28Zm-3.1-.09c0-2-.72-2.93-2.16-2.93a3.57,3.57,0,0,0-.92.12,2.65,2.65,0,0,0-.75.31v5.52a5.53,5.53,0,0,0,.57.07c.23,0,.49,0,.76,0a2.17,2.17,0,0,0,1.87-.85A3.75,3.75,0,0,0,41.53,117.19Z"/><path class="cls-1" d="M56.12,122.27a15.34,15.34,0,0,1-2,.41,16.2,16.2,0,0,1-2.56.2,6,6,0,0,1-2.27-.37,3.3,3.3,0,0,1-1.44-1,3.89,3.89,0,0,1-.75-1.57,8.55,8.55,0,0,1-.23-2v-6h3v5.6a4.47,4.47,0,0,0,.38,2.12,1.56,1.56,0,0,0,1.45.65l.69,0,.66-.07v-8.27h3Z"/><path class="cls-1" d="M62.05,120.45a3,3,0,0,0,1.18-.16.63.63,0,0,0,.35-.63.77.77,0,0,0-.45-.64,7.91,7.91,0,0,0-1.36-.62c-.48-.18-.91-.36-1.3-.55a4,4,0,0,1-1-.69,2.78,2.78,0,0,1-.63-.94,3.53,3.53,0,0,1-.22-1.33,2.85,2.85,0,0,1,1.12-2.38,4.84,4.84,0,0,1,3.08-.88,9.49,9.49,0,0,1,1.87.18,9,9,0,0,1,1.43.37l-.53,2.37a9.14,9.14,0,0,0-1.15-.33,6,6,0,0,0-1.4-.14c-.95,0-1.43.26-1.43.79a.63.63,0,0,0,.31.6,3,3,0,0,0,.5.29c.21.1.48.22.8.34a11.1,11.1,0,0,1,1.65.73,4,4,0,0,1,1,.77,2.42,2.42,0,0,1,.53.93,3.83,3.83,0,0,1,.16,1.18,2.71,2.71,0,0,1-1.2,2.4,6,6,0,0,1-3.37.81,9.83,9.83,0,0,1-2.37-.24,11,11,0,0,1-1.32-.41l.51-2.47a9.08,9.08,0,0,0,1.59.48A7.47,7.47,0,0,0,62.05,120.45Z"/><path class="cls-1" d="M86.32,115.56a8.24,8.24,0,0,1-.57,3.2A5.85,5.85,0,0,1,84.13,121a6.88,6.88,0,0,1-2.56,1.35,11.77,11.77,0,0,1-3.38.45c-.57,0-1.24,0-2-.07a16.75,16.75,0,0,1-2.24-.3V108.7a18.61,18.61,0,0,1,2.29-.28c.8,0,1.48-.07,2.05-.07a12.39,12.39,0,0,1,3.29.41A6.76,6.76,0,0,1,84.12,110a5.7,5.7,0,0,1,1.63,2.24A8.52,8.52,0,0,1,86.32,115.56Zm-9.19,4.49.52,0h.7a4.71,4.71,0,0,0,3.54-1.2A4.62,4.62,0,0,0,83,115.56a4,4,0,0,0-4.59-4.5h-.67l-.65.05Z"/><path class="cls-1" d="M101.34,115.56a8.06,8.06,0,0,1-.58,3.2A5.73,5.73,0,0,1,99.15,121a7,7,0,0,1-2.56,1.35,11.82,11.82,0,0,1-3.38.45c-.57,0-1.24,0-2-.07a16.53,16.53,0,0,1-2.24-.3V108.7a18.38,18.38,0,0,1,2.29-.28c.8,0,1.48-.07,2-.07a12.45,12.45,0,0,1,3.29.41A6.84,6.84,0,0,1,99.14,110a5.68,5.68,0,0,1,1.62,2.24A8.33,8.33,0,0,1,101.34,115.56Zm-9.19,4.49.52,0h.7a4.71,4.71,0,0,0,3.54-1.2,4.49,4.49,0,0,0-3.44-7.83H92.8l-.65.05Z"/><path class="cls-1" d="M113.11,108.35a8.84,8.84,0,0,1,4.85,1.11,4,4,0,0,1,1.69,3.64,4.09,4.09,0,0,1-1.71,3.68,8.89,8.89,0,0,1-4.89,1.13h-1v4.72h-3.17V108.72a18,18,0,0,1,2.2-.29C111.85,108.38,112.53,108.35,113.11,108.35Zm.21,2.71-.69,0-.58,0v4.08h1a5.42,5.42,0,0,0,2.49-.45,1.72,1.72,0,0,0,.83-1.67,2,2,0,0,0-.21-1,1.65,1.65,0,0,0-.61-.62,2.71,2.71,0,0,0-1-.33A8.11,8.11,0,0,0,113.32,111.06Z"/><path class="cls-1" d="M131.51,117.26a7.08,7.08,0,0,1-.36,2.31,5.06,5.06,0,0,1-1.06,1.79,4.81,4.81,0,0,1-1.66,1.15,5.42,5.42,0,0,1-2.17.41,5.32,5.32,0,0,1-2.15-.41,4.63,4.63,0,0,1-1.66-1.15,5,5,0,0,1-1.08-1.79,7,7,0,0,1,0-4.62,5.33,5.33,0,0,1,1.11-1.77,4.77,4.77,0,0,1,1.67-1.14,5.66,5.66,0,0,1,4.23,0,4.73,4.73,0,0,1,1.66,1.14,5.13,5.13,0,0,1,1.09,1.77A6.78,6.78,0,0,1,131.51,117.26Zm-3.1,0a3.8,3.8,0,0,0-.56-2.22,1.83,1.83,0,0,0-1.59-.8,1.88,1.88,0,0,0-1.62.8,3.88,3.88,0,0,0-.57,2.22,4,4,0,0,0,.57,2.23,1.85,1.85,0,0,0,1.62.82,1.8,1.8,0,0,0,1.59-.82A3.88,3.88,0,0,0,128.41,117.26Z"/><path class="cls-1" d="M138.14,122.84a7.29,7.29,0,0,1-2.15-.29,3.13,3.13,0,0,1-1.31-.74,2.43,2.43,0,0,1-.65-1.16,6.1,6.1,0,0,1-.17-1.54v-11.8l3-.49V118.5a4.07,4.07,0,0,0,.06.73,1.2,1.2,0,0,0,.24.55,1.23,1.23,0,0,0,.5.37,2.64,2.64,0,0,0,.87.18Z"/><path class="cls-1" d="M140.19,109.25l3-.49v3.16h3.64v2.52h-3.64v3.77a3,3,0,0,0,.33,1.53,1.46,1.46,0,0,0,1.36.57,5.92,5.92,0,0,0,1-.09,5.83,5.83,0,0,0,.94-.25l.43,2.36a8.34,8.34,0,0,1-1.22.39,7.09,7.09,0,0,1-1.65.16,5.31,5.31,0,0,1-2.06-.34,3.15,3.15,0,0,1-1.3-.93,3.47,3.47,0,0,1-.69-1.46,8.55,8.55,0,0,1-.19-1.9Z"/><path class="cls-1" d="M155.8,114.61l-1-.22a5.62,5.62,0,0,0-1.86-.06,4.78,4.78,0,0,0-.6.11v8.19h-3V112.49a17.57,17.57,0,0,1,1.93-.54,11,11,0,0,1,2.47-.26l.59,0,.7.09q.34,0,.69.12a2.76,2.76,0,0,1,.59.17Z"/><path class="cls-1" d="M167.76,117.26a6.83,6.83,0,0,1-.37,2.31,4.79,4.79,0,0,1-1.06,1.79,4.63,4.63,0,0,1-1.66,1.15,5.89,5.89,0,0,1-4.32,0,4.81,4.81,0,0,1-1.66-1.15,5.26,5.26,0,0,1-1.08-1.79,7.12,7.12,0,0,1,0-4.62,5.47,5.47,0,0,1,1.1-1.77A4.91,4.91,0,0,1,160.4,112a5.35,5.35,0,0,1,2.1-.41,5.43,5.43,0,0,1,2.13.41,4.73,4.73,0,0,1,1.66,1.14,5.11,5.11,0,0,1,1.08,1.77A6.55,6.55,0,0,1,167.76,117.26Zm-3.1,0a3.8,3.8,0,0,0-.56-2.22,1.83,1.83,0,0,0-1.6-.8,1.87,1.87,0,0,0-1.61.8,3.8,3.8,0,0,0-.57,2.22,3.88,3.88,0,0,0,.57,2.23,1.84,1.84,0,0,0,1.61.82,1.8,1.8,0,0,0,1.6-.82A3.88,3.88,0,0,0,164.66,117.26Z"/><path class="cls-1" d="M170.1,112.28a15.34,15.34,0,0,1,2-.41,16.23,16.23,0,0,1,2.57-.2,6.17,6.17,0,0,1,2.27.36,3.47,3.47,0,0,1,1.44,1,3.93,3.93,0,0,1,.75,1.55,8.14,8.14,0,0,1,.22,2v6h-3V117a4.08,4.08,0,0,0-.39-2.08,1.58,1.58,0,0,0-1.45-.61l-.69,0-.65.07v8.27h-3Z"/><path class="cls-1" d="M186,111.63a6.88,6.88,0,0,1,2.24.31,3.4,3.4,0,0,1,1.43.87,3.27,3.27,0,0,1,.77,1.39,6.8,6.8,0,0,1,.22,1.81v6.32c-.43.09-1,.21-1.81.33a17.18,17.18,0,0,1-2.81.2,9.12,9.12,0,0,1-1.89-.18,4.34,4.34,0,0,1-1.45-.6,2.79,2.79,0,0,1-.94-1.1,3.67,3.67,0,0,1-.33-1.65,3.17,3.17,0,0,1,.38-1.59,2.85,2.85,0,0,1,1-1,4.37,4.37,0,0,1,1.44-.56,7.91,7.91,0,0,1,1.7-.18c.39,0,.74,0,1,0a6.29,6.29,0,0,1,.75.13v-.28a1.67,1.67,0,0,0-.47-1.24,2.24,2.24,0,0,0-1.63-.47,11,11,0,0,0-1.53.11,6.68,6.68,0,0,0-1.3.32l-.39-2.45.66-.17c.27-.06.56-.12.87-.16l1-.13C185.25,111.65,185.6,111.63,186,111.63Zm.24,8.89c.3,0,.58,0,.86,0a4.66,4.66,0,0,0,.65-.06v-2.3c-.12,0-.31,0-.55-.08a5.56,5.56,0,0,0-.67,0,6.77,6.77,0,0,0-.81,0,2.44,2.44,0,0,0-.66.19,1.23,1.23,0,0,0-.45.39,1.07,1.07,0,0,0-.16.61,1,1,0,0,0,.48,1A2.66,2.66,0,0,0,186.2,120.52Z"/><path class="cls-1" d="M196.45,120.45a3,3,0,0,0,1.18-.16.63.63,0,0,0,.35-.63.77.77,0,0,0-.45-.64,8.08,8.08,0,0,0-1.37-.62c-.47-.18-.9-.36-1.29-.55a3.64,3.64,0,0,1-1-.69,2.78,2.78,0,0,1-.63-.94,3.53,3.53,0,0,1-.22-1.33,2.85,2.85,0,0,1,1.12-2.38,4.81,4.81,0,0,1,3.07-.88,9.59,9.59,0,0,1,1.88.18,8.88,8.88,0,0,1,1.42.37l-.53,2.37a8.26,8.26,0,0,0-1.15-.33,6,6,0,0,0-1.39-.14c-.95,0-1.43.26-1.43.79a.88.88,0,0,0,.06.33.69.69,0,0,0,.25.27,2.65,2.65,0,0,0,.5.29c.21.1.47.22.8.34a11.1,11.1,0,0,1,1.65.73,4,4,0,0,1,1,.77,2.42,2.42,0,0,1,.53.93,4.18,4.18,0,0,1,.15,1.18,2.7,2.7,0,0,1-1.19,2.4,6,6,0,0,1-3.37.81,10,10,0,0,1-2.38-.24,10.13,10.13,0,0,1-1.31-.41l.51-2.47a8.59,8.59,0,0,0,1.59.48A7.41,7.41,0,0,0,196.45,120.45Z"/><path class="cls-1" d="M217.78,119.91v2.72h-9.43V108.51h3.18v11.4Z"/><path class="cls-1" d="M219.11,117.36a6.61,6.61,0,0,1,.43-2.5,5.49,5.49,0,0,1,1.16-1.78,4.6,4.6,0,0,1,1.64-1.08,5,5,0,0,1,1.9-.37,4.76,4.76,0,0,1,3.61,1.4,5.76,5.76,0,0,1,1.32,4.1c0,.18,0,.37,0,.58s0,.4,0,.56h-6.89a2,2,0,0,0,.88,1.49,3.51,3.51,0,0,0,2.08.55,8.93,8.93,0,0,0,1.64-.15,6.11,6.11,0,0,0,1.31-.38l.41,2.47a4.16,4.16,0,0,1-.65.24c-.27.08-.58.15-.91.22s-.69.11-1.07.15a10.88,10.88,0,0,1-1.14.06,6.63,6.63,0,0,1-2.51-.43,4.62,4.62,0,0,1-2.82-2.93A7.09,7.09,0,0,1,219.11,117.36Zm7.13-1.16a3.9,3.9,0,0,0-.13-.76,2,2,0,0,0-.35-.65,1.83,1.83,0,0,0-.59-.47,2,2,0,0,0-.89-.18,2.08,2.08,0,0,0-.87.17,1.93,1.93,0,0,0-.62.46,2.13,2.13,0,0,0-.37.66,4.15,4.15,0,0,0-.2.77Z"/><path class="cls-1" d="M234.84,108.82a1.64,1.64,0,0,1-.54,1.31,1.89,1.89,0,0,1-1.28.48,1.84,1.84,0,0,1-1.27-.48,1.64,1.64,0,0,1-.54-1.31,1.69,1.69,0,0,1,.54-1.32A1.88,1.88,0,0,1,233,107a1.93,1.93,0,0,1,1.28.47A1.69,1.69,0,0,1,234.84,108.82Zm-.29,13.81h-3V111.92h3Z"/><path class="cls-1" d="M237.3,109.25l3-.49v3.16H244v2.52h-3.64v3.77a3,3,0,0,0,.33,1.53,1.46,1.46,0,0,0,1.36.57,5.92,5.92,0,0,0,1-.09A5.83,5.83,0,0,0,244,120l.43,2.36a8.34,8.34,0,0,1-1.22.39,7.09,7.09,0,0,1-1.65.16,5.31,5.31,0,0,1-2.06-.34,3.15,3.15,0,0,1-1.3-.93,3.47,3.47,0,0,1-.69-1.46,8.55,8.55,0,0,1-.19-1.9Z"/><path class="cls-1" d="M256.07,117.26a6.83,6.83,0,0,1-.37,2.31,4.92,4.92,0,0,1-1.06,1.79,4.63,4.63,0,0,1-1.66,1.15,5.89,5.89,0,0,1-4.32,0,4.63,4.63,0,0,1-1.66-1.15,5.26,5.26,0,0,1-1.08-1.79,6.59,6.59,0,0,1-.39-2.31,6.33,6.33,0,0,1,.4-2.31,5.15,5.15,0,0,1,1.1-1.77A5,5,0,0,1,248.7,112a5.69,5.69,0,0,1,4.24,0,4.82,4.82,0,0,1,1.66,1.14,5.26,5.26,0,0,1,1.08,1.77A6.55,6.55,0,0,1,256.07,117.26Zm-3.1,0a3.88,3.88,0,0,0-.56-2.22,1.84,1.84,0,0,0-1.6-.8,1.87,1.87,0,0,0-1.61.8,3.8,3.8,0,0,0-.57,2.22,3.88,3.88,0,0,0,.57,2.23,1.84,1.84,0,0,0,1.61.82,1.81,1.81,0,0,0,1.6-.82A4,4,0,0,0,253,117.26Z"/><path class="cls-1" d="M273.33,117.26a7.08,7.08,0,0,1-.37,2.31,4.92,4.92,0,0,1-1.06,1.79,4.72,4.72,0,0,1-1.66,1.15,5.42,5.42,0,0,1-2.17.41,5.32,5.32,0,0,1-2.15-.41,4.63,4.63,0,0,1-1.66-1.15,5.26,5.26,0,0,1-1.08-1.79,6.59,6.59,0,0,1-.39-2.31,6.33,6.33,0,0,1,.4-2.31,5.15,5.15,0,0,1,1.1-1.77A4.87,4.87,0,0,1,266,112a5.44,5.44,0,0,1,2.11-.41,5.5,5.5,0,0,1,2.13.41,4.82,4.82,0,0,1,1.66,1.14,5.26,5.26,0,0,1,1.08,1.77A6.55,6.55,0,0,1,273.33,117.26Zm-3.1,0a3.88,3.88,0,0,0-.56-2.22,2,2,0,0,0-3.21,0,3.8,3.8,0,0,0-.57,2.22,3.88,3.88,0,0,0,.57,2.23,2,2,0,0,0,3.21,0A4,4,0,0,0,270.23,117.26Z"/><path class="cls-1" d="M284.82,122.27a15.34,15.34,0,0,1-2,.41,16.33,16.33,0,0,1-2.57.2,6,6,0,0,1-2.27-.37,3.33,3.33,0,0,1-1.43-1,3.9,3.9,0,0,1-.76-1.57,8.57,8.57,0,0,1-.22-2v-6h3v5.6a4.33,4.33,0,0,0,.39,2.12,1.55,1.55,0,0,0,1.45.65l.69,0,.65-.07v-8.27h3Z"/><path class="cls-1" d="M296.62,120.21a5,5,0,0,0,1.11-.11,2.17,2.17,0,0,0,.7-.31.93.93,0,0,0,.36-.46,1.55,1.55,0,0,0,.11-.59,1.38,1.38,0,0,0-.65-1.15,10,10,0,0,0-2.25-1c-.46-.16-.92-.35-1.38-.56a5,5,0,0,1-1.24-.79,3.81,3.81,0,0,1-.9-1.16,3.67,3.67,0,0,1-.35-1.66,4.21,4.21,0,0,1,.37-1.77,3.73,3.73,0,0,1,1-1.33,4.76,4.76,0,0,1,1.63-.85,7.58,7.58,0,0,1,2.16-.29,8.9,8.9,0,0,1,2.46.3,8.79,8.79,0,0,1,1.72.68l-.92,2.5a9.54,9.54,0,0,0-1.32-.54,5.87,5.87,0,0,0-1.74-.23,3.2,3.2,0,0,0-1.64.31,1.08,1.08,0,0,0-.5,1,1,1,0,0,0,.19.65,1.62,1.62,0,0,0,.52.48,4.26,4.26,0,0,0,.77.39c.29.12.61.23,1,.36.73.27,1.37.54,1.91.8a5.24,5.24,0,0,1,1.36.93,3.27,3.27,0,0,1,.8,1.24,4.91,4.91,0,0,1,.27,1.73,3.67,3.67,0,0,1-1.39,3.07,6.64,6.64,0,0,1-4.17,1.09,12.45,12.45,0,0,1-1.7-.11,11.81,11.81,0,0,1-1.33-.28,8.25,8.25,0,0,1-1-.34c-.28-.13-.51-.24-.7-.35l.9-2.53a7.42,7.42,0,0,0,3.83.9Z"/><path class="cls-1" d="M303.91,117.36a6.61,6.61,0,0,1,.44-2.5,5.31,5.31,0,0,1,1.15-1.78,4.6,4.6,0,0,1,1.64-1.08,5,5,0,0,1,1.9-.37,4.73,4.73,0,0,1,3.61,1.4,5.76,5.76,0,0,1,1.32,4.1c0,.18,0,.37,0,.58s0,.4,0,.56H307a2,2,0,0,0,.87,1.49,3.51,3.51,0,0,0,2.08.55,8.93,8.93,0,0,0,1.64-.15,6,6,0,0,0,1.32-.38l.4,2.47a4.16,4.16,0,0,1-.65.24c-.27.08-.57.15-.91.22s-.68.11-1.07.15a10.88,10.88,0,0,1-1.14.06,6.63,6.63,0,0,1-2.51-.43,4.77,4.77,0,0,1-1.78-1.17,4.86,4.86,0,0,1-1-1.76A7.09,7.09,0,0,1,303.91,117.36ZM311,116.2a3.27,3.27,0,0,0-.13-.76,2,2,0,0,0-.35-.65,1.73,1.73,0,0,0-.59-.47,2,2,0,0,0-.89-.18,2.08,2.08,0,0,0-.87.17,1.79,1.79,0,0,0-.61.46,2,2,0,0,0-.38.66,4.13,4.13,0,0,0-.19.77Z"/><path class="cls-1" d="M322.21,117a4.2,4.2,0,0,0-.38-2.08,1.39,1.39,0,0,0-1.29-.61l-.59,0-.6.07v8.27h-3V112.28l.9-.21c.35-.08.72-.14,1.11-.2s.78-.11,1.19-.15.81,0,1.2,0a5,5,0,0,1,1.88.3,4.41,4.41,0,0,1,1.2.7,5,5,0,0,1,1.49-.73,5.22,5.22,0,0,1,1.56-.27A5.3,5.3,0,0,1,329,112a3.2,3.2,0,0,1,1.32,1,3.83,3.83,0,0,1,.67,1.55,10.07,10.07,0,0,1,.18,2v6h-3V117a4.22,4.22,0,0,0-.37-2.08,1.39,1.39,0,0,0-1.29-.61,2.76,2.76,0,0,0-.69.12,2.69,2.69,0,0,0-.72.31,5.11,5.11,0,0,1,.18,1c0,.34,0,.71,0,1.11v5.84h-3Z"/><path class="cls-1" d="M337.2,108.82a1.64,1.64,0,0,1-.54,1.31,1.92,1.92,0,0,1-2.54,0,1.64,1.64,0,0,1-.54-1.31,1.69,1.69,0,0,1,.54-1.32,2,2,0,0,1,2.54,0A1.69,1.69,0,0,1,337.2,108.82Zm-.28,13.81h-3V111.92h3Z"/><path class="cls-1" d="M354.3,119.91v2.72h-9.44V108.51H348v11.4Z"/><path class="cls-1" d="M355.62,117.36a6.61,6.61,0,0,1,.44-2.5,5.47,5.47,0,0,1,1.15-1.78,4.68,4.68,0,0,1,1.64-1.08,5.07,5.07,0,0,1,1.91-.37,4.72,4.72,0,0,1,3.6,1.4,5.72,5.72,0,0,1,1.33,4.1c0,.18,0,.37,0,.58s0,.4,0,.56h-6.89a2,2,0,0,0,.88,1.49,3.47,3.47,0,0,0,2.08.55,9,9,0,0,0,1.64-.15,6.11,6.11,0,0,0,1.31-.38l.41,2.47a4.58,4.58,0,0,1-.65.24c-.28.08-.58.15-.91.22s-.69.11-1.07.15a10.88,10.88,0,0,1-1.14.06,6.68,6.68,0,0,1-2.52-.43,4.81,4.81,0,0,1-1.77-1.17,4.6,4.6,0,0,1-1-1.76A6.81,6.81,0,0,1,355.62,117.36Zm7.13-1.16a2.82,2.82,0,0,0-.13-.76,1.92,1.92,0,0,0-.34-.65,1.87,1.87,0,0,0-.6-.47,1.91,1.91,0,0,0-.88-.18,2.16,2.16,0,0,0-.88.17,1.89,1.89,0,0,0-.61.46,2.15,2.15,0,0,0-.38.66,5.09,5.09,0,0,0-.19.77Z"/><path class="cls-1" d="M371.35,108.82a1.64,1.64,0,0,1-.54,1.31,1.84,1.84,0,0,1-1.27.48,1.87,1.87,0,0,1-1.28-.48,1.67,1.67,0,0,1-.53-1.31,1.72,1.72,0,0,1,.53-1.32,1.91,1.91,0,0,1,1.28-.47,1.88,1.88,0,0,1,1.27.47A1.69,1.69,0,0,1,371.35,108.82Zm-.28,13.81h-3V111.92h3Z"/><path class="cls-1" d="M373.82,109.25l3-.49v3.16h3.65v2.52h-3.65v3.77a3,3,0,0,0,.34,1.53,1.46,1.46,0,0,0,1.36.57,5.81,5.81,0,0,0,1-.09,5.69,5.69,0,0,0,.95-.25l.43,2.36a9.21,9.21,0,0,1-1.22.39,7.09,7.09,0,0,1-1.65.16,5.31,5.31,0,0,1-2.06-.34,3.19,3.19,0,0,1-1.31-.93,3.59,3.59,0,0,1-.68-1.46,8.55,8.55,0,0,1-.19-1.9Z"/><path class="cls-1" d="M392.58,117.26a7.08,7.08,0,0,1-.36,2.31,5.06,5.06,0,0,1-1.06,1.79,4.72,4.72,0,0,1-1.66,1.15,5.42,5.42,0,0,1-2.17.41,5.32,5.32,0,0,1-2.15-.41,4.63,4.63,0,0,1-1.66-1.15,5,5,0,0,1-1.08-1.79,6.59,6.59,0,0,1-.39-2.31,6.33,6.33,0,0,1,.4-2.31,5.15,5.15,0,0,1,1.1-1.77,4.87,4.87,0,0,1,1.67-1.14,5.4,5.4,0,0,1,2.11-.41,5.5,5.5,0,0,1,2.13.41,4.82,4.82,0,0,1,1.66,1.14A5.26,5.26,0,0,1,392.2,115,6.78,6.78,0,0,1,392.58,117.26Zm-3.09,0a3.88,3.88,0,0,0-.56-2.22,2,2,0,0,0-3.21,0,3.8,3.8,0,0,0-.57,2.22,3.88,3.88,0,0,0,.57,2.23,2,2,0,0,0,3.21,0A4,4,0,0,0,389.49,117.26Z"/></svg>