<svg xmlns="http://www.w3.org/2000/svg" viewBox="0 0 128 40"><defs><style>.cls-1{isolation:isolate;}.cls-2{fill:#0b0507;}.cls-3{fill:#110c0f;}.cls-4{fill:#898384;}.cls-5{fill:#360275;}.cls-6{fill:#fff;}.cls-7{mix-blend-mode:multiply;}.cls-8{fill:#007925;}.cls-9{fill:#007828;}</style></defs><title>Andorinha</title><g class="cls-1"><g id="Layer_1"><path d="M18.1 8.16h5L9.56 32.74h-5.1L18.1 8.16z" class="cls-2"/><path d="M23.82 7.28h4.6v25.64h-4.6z" class="cls-3"/><path d="M17.4 7.28h5L8.86 31.85h-5.1L17.4 7.28zm5-1.35h4.46v25.92H22.4z" class="cls-4"/><path d="M1.5 12.82s4.73 4 9.25 4.38c0 0 6.92.28 12.3-3.74 0 0 4.75-3.23 9.5-.64l4.6 3.58a15.3 15.3 0 0 0-8.32-1.6s-2 0-6.5 2.87c-1.84.9-1.8 1.2-7.72 2.3a27.46 27.46 0 0 0-6 1.6 40.07 40.07 0 0 0-8 3.34 17.4 17.4 0 0 1 8.17-5.5S5.4 17.9 1.5 12.83z" class="cls-5"/><path d="M0 25.45l.46-.62a17.73 17.73 0 0 1 7.87-5.45 23.93 23.93 0 0 1-6.95-6.46l-.9-1.16 1.12.94s4.75 4 9.16 4.34h.3c1.15 0 7.17-.18 11.9-3.72a10.92 10.92 0 0 1 5.62-1.67 8.37 8.37 0 0 1 4 1l4.64 3.6-.17.25a16.05 16.05 0 0 0-6.73-1.7 10.6 10.6 0 0 0-1.5.12s-2.08.1-6.45 2.85l-.72.37c-1.27.66-2 1-7.06 2a27.77 27.77 0 0 0-6 1.6 40.23 40.23 0 0 0-8 3.32zm2.42-11.72c3.47 4.2 6.34 5.53 6.37 5.55l.35.17-.4.12a17.6 17.6 0 0 0-7.5 4.8 42.15 42.15 0 0 1 7.28-2.93 27.35 27.35 0 0 1 6.06-1.6c5-.93 5.7-1.3 7-1.94l.7-.36c4.44-2.8 6.5-2.9 6.56-2.9a10.68 10.68 0 0 1 1.53-.1 15.8 15.8 0 0 1 5.6 1.18l-3.58-2.77a8.07 8.07 0 0 0-3.88-1 10.82 10.82 0 0 0-5.45 1.62A21.18 21.18 0 0 1 11 17.34h-.3c-3.23-.24-6.64-2.4-8.3-3.6z" class="cls-6"/><path d="M6.7 33.87A17.5 17.5 0 0 0 22.15 23s-7.3-.17-8.33-1.4h7.7s3.1-1.7 3.2-3.68a4.06 4.06 0 0 0 3.22 0c1.1-.56 2.4-2.62 2.94-3.62a5.7 5.7 0 0 1-.62 2.9 8.52 8.52 0 0 1-2.65 3.26s.45 14.28-20.93 13.4z" class="cls-5"/><path d="M8.53 34.07c-.6 0-1.22 0-1.84 0v-.3a17.35 17.35 0 0 0 15.2-10.63c-1.28 0-7.25-.3-8.22-1.46l-.2-.27h8c.32-.2 3-1.76 3.1-3.5v-.23l.2.1a4.32 4.32 0 0 0 1.6.3 3.23 3.23 0 0 0 1.48-.34c.93-.48 2.13-2.2 2.88-3.56l.22-.4.07.46a5.8 5.8 0 0 1-.62 3 9.1 9.1 0 0 1-2.62 3.3 12.85 12.85 0 0 1-3.6 8.37c-3.35 3.42-8.62 5.17-15.67 5.17zm5.76-12.33c1.42.78 6.03 1.06 7.86 1.1h.23l-.1.2a17.6 17.6 0 0 1-13.1 10.7c6.63-.1 11.6-1.8 14.77-5.05a12.46 12.46 0 0 0 3.52-8.26v-.1h.1a8.6 8.6 0 0 0 2.56-3.2 6.62 6.62 0 0 0 .6-2.25A9.54 9.54 0 0 1 28 18a3.54 3.54 0 0 1-1.63.38 4.68 4.68 0 0 1-1.52-.26c-.3 1.95-3.15 3.52-3.27 3.6z" class="cls-6"/><path d="M28 11.8s2.5-2.25 5.27-1.5c0 0 2.64.7 2.12 4.28.02 0-1.35-2.67-7.4-2.77z" class="cls-5"/><path d="M35.5 15.1l-.2-.44S33.86 12.06 28 12h-.4l.3-.27A7 7 0 0 1 32.13 10a4.6 4.6 0 0 1 1.2.16s2.77.78 2.24 4.46zm-7-3.44c4.47.16 6.27 1.76 6.86 2.5.25-3-2-3.7-2.05-3.7a4.3 4.3 0 0 0-1.1-.16 6.52 6.52 0 0 0-3.7 1.37z" class="cls-6"/><path d="M40.2 20.7l-1.8 3h-2.6l6.8-14.23 2.43.07-3.5 8.58 3.57.04-.07-10.85h2.54v16.4h-2.54V20.8l-4.84-.06z" class="cls-7"/><path d="M39.72 20.4l-1.78 2.98h-2.6l6.78-14.22 2.44.07-3.5 8.58 3.57.05L44.56 7h2.54v16.38h-2.54v-2.92l-4.84-.06z" class="cls-8"/><path d="M48.97 9.7H51l4.33 8.48V9.7h2v14.13h-2l-4-8.2-.06 8.2h-2.3V9.7z" class="cls-7"/><path d="M48.5 9.4h2.02l4.34 8.47V9.4h2v14.1h-2l-4-8.2-.06 8.2h-2.3V9.4z" class="cls-9"/><path d="M64.26 23.7s3.28 0 3.7-4a24.7 24.7 0 0 0 .2-5.7s.7-2.58-3.9-4.48h-4.9v2.38l4.44.1a3 3 0 0 1 2.2 3.1l-.07 3.82a3.27 3.27 0 0 1-1.66 2.5h-2.75V13.7h-2.16v10z" class="cls-7"/><path d="M63.8 23.38s3.27 0 3.7-4a24.7 24.7 0 0 0 .18-5.7s.7-2.57-3.88-4.47h-4.9v2.35l4.44.1a3 3 0 0 1 2.2 3.12l-.08 3.8a3.27 3.27 0 0 1-1.66 2.52h-2.75v-7.7H58.9v10z" class="cls-9"/><path d="M74.57 9.32c-2.8 0-5.08 3.34-5.08 7.45s2.26 7.45 5.06 7.45 5.08-3.34 5.08-7.45-2.27-7.45-5.08-7.45zm0 12.54c-1.72 0-3.1-2.28-3.1-5.1s1.38-5.1 3.1-5.1 3.1 2.28 3.1 5.1-1.38 5.1-3.1 5.1z" class="cls-7"/><path d="M74.1 9c-2.8 0-5.1 3.34-5.1 7.46s2.28 7.45 5.08 7.45 5.08-3.32 5.08-7.43S76.9 9 74.1 9zm0 12.54c-1.7 0-3.1-2.28-3.1-5.1s1.4-5.1 3.1-5.1 3.12 2.28 3.12 5.1-1.4 5.1-3.1 5.1z" class="cls-9"/><path d="M81 9.7h5.8a4.25 4.25 0 0 1 2.74 4.74 3.34 3.34 0 0 1-2 3.25l2.9 6.12h-2.52L85 18.18h-1.67l-.07 5.65H81V13.66h2.26v2s3.78.7 4.1-1.27l.07-.5v-.56l-.12-.72s-.12-.7-2.1-.64H81z" class="cls-7"/><path d="M80.53 9.4h5.8a4.25 4.25 0 0 1 2.74 4.72 3.34 3.34 0 0 1-2 3.25L90 23.52h-2.55l-2.9-5.65h-1.7l-.06 5.65H80.5V13.35h2.26v2s3.77.7 4.1-1.27l.06-.48v-.56l-.12-.72s-.14-.7-2.12-.64h-4.2z" class="cls-9"/><path d="M91.17 9.57h2.4V23.7h-2.4z" class="cls-7"/><path d="M90.7 9.25h2.4v14.12h-2.4z" class="cls-9"/><path d="M95.52 9.57h2l4.35 8.47V9.57h2V23.7h-2l-4-8.2-.06 8.2h-2.27V9.56z" class="cls-7"/><path d="M95.05 9.25h2l4.35 8.48V9.25h2.02v14.13h-2.02l-4-8.2-.06 8.2h-2.3V9.25z" class="cls-9"/><path d="M105.93 9.7h1.98v5.37h4.05V9.7h2.18v14.13h-2.1V17.7h-3.9v6h-2.2v-14z" class="cls-7"/><path d="M105.46 9.4h1.98v5.36h4.03V9.4h2.2v14.1h-2.13v-6.14h-3.9v6h-2.18v-14z" class="cls-9"/><path d="M122.65 21.56l1.78 2.98h2.6l-6.78-14.22-2.44.07 3.5 8.56-3.55.03.07-10.86h-2.53v16.4h2.53V21.6l4.85-.06z" class="cls-7"/><path d="M122.2 21.25l1.76 2.98h2.6L119.78 10l-2.43.07 3.5 8.6-3.58.02.08-10.87h-2.55v16.4h2.55V21.3l4.84-.05z" class="cls-8"/><path d="M37.2 27.83l.6 4h-1.1l-.05-.72h-.37l-.06.74h-1.08l.53-4zm-.56 2.58q-.08-.66-.16-1.67-.16 1.15-.2 1.7zm3.76-1.84v.3a.8.8 0 0 1 .27-.27.72.72 0 0 1 .33-.1.7.7 0 0 1 .63.36.9.9 0 0 1 .3-.28.75.75 0 0 1 .77 0 .55.55 0 0 1 .2.3 2.56 2.56 0 0 1 0 .57v2.34H42v-2.1a2.7 2.7 0 0 0 0-.5.13.13 0 0 0-.13-.1.13.13 0 0 0-.14.1 2.47 2.47 0 0 0 0 .5v2.15h-1v-2.1a3.9 3.9 0 0 0 0-.58.12.12 0 0 0-.13-.1.15.15 0 0 0-.1.05.2.2 0 0 0-.06.12s0 .15 0 .3v2.3h-1v-3.3zm5.26 1.7h-1.3V31a.8.8 0 0 0 0 .3.13.13 0 0 0 .12.05.15.15 0 0 0 .15-.1.93.93 0 0 0 0-.32v-.43h1v.24a2.2 2.2 0 0 1 0 .47 1 1 0 0 1-.18.37.87.87 0 0 1-.36.28 1.38 1.38 0 0 1-.56.1 1.58 1.58 0 0 1-.56-.1.9.9 0 0 1-.4-.25.9.9 0 0 1-.18-.36 2.28 2.28 0 0 1-.05-.56v-1a1.64 1.64 0 0 1 .12-.68.8.8 0 0 1 .37-.38 1.53 1.53 0 0 1 1.3 0 .88.88 0 0 1 .4.42 2 2 0 0 1 .1.74zm-1-.54v-.24a1.2 1.2 0 0 0 0-.33.1.1 0 0 0-.1-.07c-.08 0-.12 0-.14.06a1.32 1.32 0 0 0 0 .34v.24zm2.44-1.9v4h-1v-4zm1.43 0v.9a.9.9 0 0 1 .28-.17.86.86 0 0 1 .34-.06.74.74 0 0 1 .45.1.54.54 0 0 1 .22.3 3.3 3.3 0 0 1 0 .66v2.27h-1v-2.3a1.44 1.44 0 0 0 0-.38.12.12 0 0 0-.12-.08.12.12 0 0 0-.12.08 1.12 1.12 0 0 0 0 .34v2.34h-1v-4zm4 1.88v.82a3.4 3.4 0 0 1 0 .65.9.9 0 0 1-.2.4.87.87 0 0 1-.37.26 1.5 1.5 0 0 1-.53.1 1.88 1.88 0 0 1-.56-.08.76.76 0 0 1-.36-.22.87.87 0 0 1-.16-.36 2.7 2.7 0 0 1-.05-.63v-.84a2.07 2.07 0 0 1 .1-.72.83.83 0 0 1 .35-.4 1.26 1.26 0 0 1 .66-.17 1.5 1.5 0 0 1 .6.1.9.9 0 0 1 .54.6 2.05 2.05 0 0 1 0 .5zm-1-.24a1.1 1.1 0 0 0 0-.32.1.1 0 0 0-.12-.07.12.12 0 0 0-.1.07 1 1 0 0 0 0 .32V31a1 1 0 0 0 0 .3.14.14 0 0 0 .23 0 .84.84 0 0 0 0-.28zm2.4-.9V29a.75.75 0 0 1 .63-.5v1.16a.84.84 0 0 0-.4.07.3.3 0 0 0-.16.2 3.7 3.7 0 0 0 0 .62v1.3h-1v-3.3zm4.45 1.24h-.95v-.38a.75.75 0 0 0 0-.27.12.12 0 0 0-.12-.07.12.12 0 0 0-.1.06.8.8 0 0 0 0 .28V31a.6.6 0 0 0 0 .26.14.14 0 0 0 .13.1.14.14 0 0 0 .14-.1 1.1 1.1 0 0 0 0-.35v-.4h.9a5.24 5.24 0 0 1 0 .6 1 1 0 0 1-.18.4.9.9 0 0 1-.38.3 1.6 1.6 0 0 1-1.22 0 .8.8 0 0 1-.35-.4 2.1 2.1 0 0 1-.1-.74v-.94a1.8 1.8 0 0 1 .08-.62.82.82 0 0 1 .37-.38 1.27 1.27 0 0 1 .67-.17 1.28 1.28 0 0 1 .67.17.82.82 0 0 1 .38.42 2.2 2.2 0 0 1 .1.68zm2.62-.1v.82a3.4 3.4 0 0 1 0 .65.9.9 0 0 1-.2.4.87.87 0 0 1-.37.26 1.5 1.5 0 0 1-.53.1 1.88 1.88 0 0 1-.56-.08.76.76 0 0 1-.36-.22.87.87 0 0 1-.18-.36 2.7 2.7 0 0 1-.05-.63v-.84a2.07 2.07 0 0 1 .1-.72.83.83 0 0 1 .36-.4 1.26 1.26 0 0 1 .68-.17 1.5 1.5 0 0 1 .58.1.9.9 0 0 1 .55.6 2.05 2.05 0 0 1 0 .5zm-1-.24a1.1 1.1 0 0 0 0-.32.1.1 0 0 0-.12-.07.12.12 0 0 0-.12.07 1 1 0 0 0 0 .32V31a1 1 0 0 0 0 .3.14.14 0 0 0 .23 0 .84.84 0 0 0 0-.3zm2.4-.9v.3a.8.8 0 0 1 .3-.27.72.72 0 0 1 .3-.1.7.7 0 0 1 .63.36.9.9 0 0 1 .3-.28.75.75 0 0 1 .77 0 .55.55 0 0 1 .2.3 2.56 2.56 0 0 1 0 .57v2.34H64v-2.1a2.7 2.7 0 0 0 0-.5.13.13 0 0 0-.13-.1.13.13 0 0 0-.14.1 2.47 2.47 0 0 0 0 .5v2.15h-1v-2.1a3.9 3.9 0 0 0 0-.58.12.12 0 0 0-.13-.1.15.15 0 0 0-.1.05.2.2 0 0 0-.06.12s0 .15 0 .3v2.3h-1v-3.3zm4.03 0v.3a.93.93 0 0 1 .3-.27.73.73 0 0 1 .35-.1.66.66 0 0 1 .4.12.53.53 0 0 1 .2.3 2.52 2.52 0 0 1 0 .55v1.4a2.65 2.65 0 0 1-.04.63.53.53 0 0 1-.22.3.7.7 0 0 1-.4.12.7.7 0 0 1-.35-.1.94.94 0 0 1-.3-.25v.76h-1v-3.77zm.3 1a1.68 1.68 0 0 0 0-.37s-.07-.08-.13-.08a.12.12 0 0 0-.13.07 1.32 1.32 0 0 0 0 .35v1.37a1.35 1.35 0 0 0 0 .37.12.12 0 0 0 .13.06q.1 0 .12-.07a1.36 1.36 0 0 0 0-.34zm2.27.27h-.94v-.22a1.55 1.55 0 0 1 .1-.57.82.82 0 0 1 .34-.37 1.65 1.65 0 0 1 1.46 0 .7.7 0 0 1 .3.44 6.92 6.92 0 0 1 .06 1.07v1.65h-1v-.3a.6.6 0 0 1-.58.36.85.85 0 0 1-.48-.15q-.22-.15-.22-.65v-.27a.8.8 0 0 1 .12-.5 1.64 1.64 0 0 1 .58-.3 1.65 1.65 0 0 0 .53-.25.7.7 0 0 0 0-.27.93.93 0 0 0 0-.34.13.13 0 0 0-.13-.08c-.07 0-.1 0-.13.07a1.34 1.34 0 0 0 0 .34zm.32.45a.74.74 0 0 0-.28.3 1.17 1.17 0 0 0 0 .34 1 1 0 0 0 0 .33.13.13 0 0 0 .13.07.12.12 0 0 0 .12-.06 1 1 0 0 0 0-.3zm2.46-1.72v.3a.75.75 0 0 1 .27-.27.72.72 0 0 1 .36-.1.7.7 0 0 1 .44.1.54.54 0 0 1 .2.3 2.8 2.8 0 0 1 0 .64v2.3h-1v-2.28a2.12 2.12 0 0 0 0-.4s-.05-.08-.1-.08a.12.12 0 0 0-.14.08 2.16 2.16 0 0 0 0 .46v2.23h-1v-3.3zm2.72-.73v.9a.9.9 0 0 1 .27-.18.86.86 0 0 1 .32-.06.74.74 0 0 1 .43.1.54.54 0 0 1 .23.3 3.3 3.3 0 0 1 0 .66v2.27h-1v-2.3a1.44 1.44 0 0 0 0-.38.12.12 0 0 0-.13-.08.12.12 0 0 0-.12.08 1.12 1.12 0 0 0 0 .34v2.34h-1v-4zm2.75 0v.52h-1v-.52zm0 .73v3.3h-1v-3.3zm1.33 1.27h-.94v-.22a1.55 1.55 0 0 1 .1-.57.82.82 0 0 1 .34-.37 1.65 1.65 0 0 1 1.46 0 .7.7 0 0 1 .3.44 6.92 6.92 0 0 1 .06 1.07v1.65h-1v-.3a.6.6 0 0 1-.58.36.85.85 0 0 1-.48-.15q-.22-.15-.22-.65v-.27a.8.8 0 0 1 .12-.5 1.64 1.64 0 0 1 .58-.3 1.65 1.65 0 0 0 .53-.25.7.7 0 0 0 0-.27.93.93 0 0 0 0-.34.13.13 0 0 0-.13-.08c-.07 0-.1 0-.13.07a1.34 1.34 0 0 0 0 .34zm.32.45a.74.74 0 0 0-.28.3 1.17 1.17 0 0 0 0 .34 1 1 0 0 0 0 .33.13.13 0 0 0 .13.07.12.12 0 0 0 .12-.06 1 1 0 0 0 0-.3zm3.8-1.72v.3a.93.93 0 0 1 .3-.27.73.73 0 0 1 .35-.1.66.66 0 0 1 .4.12.53.53 0 0 1 .2.3 2.52 2.52 0 0 1 0 .55v1.4a2.65 2.65 0 0 1-.04.63.53.53 0 0 1-.2.3.7.7 0 0 1-.4.12.7.7 0 0 1-.35-.1.94.94 0 0 1-.3-.25v.76h-1v-3.77zm.3 1a1.68 1.68 0 0 0 0-.37s-.07-.08-.13-.08a.12.12 0 0 0-.13.07 1.32 1.32 0 0 0 0 .35v1.37a1.35 1.35 0 0 0 0 .37.12.12 0 0 0 .13.06q.1 0 .12-.07a1.36 1.36 0 0 0 0-.34zm2.28.27h-.94v-.22a1.55 1.55 0 0 1 .1-.57.82.82 0 0 1 .34-.37 1.65 1.65 0 0 1 1.46 0 .7.7 0 0 1 .3.44 6.92 6.92 0 0 1 .06 1.07v1.65h-1v-.3a.6.6 0 0 1-.58.36.85.85 0 0 1-.48-.15q-.22-.15-.22-.65v-.27a.8.8 0 0 1 .12-.5A1.64 1.64 0 0 1 85 30a1.65 1.65 0 0 0 .53-.26.7.7 0 0 0 0-.27.93.93 0 0 0 0-.34.13.13 0 0 0-.13-.08c-.07 0-.1 0-.13.07a1.34 1.34 0 0 0 0 .34zm.32.45a.74.74 0 0 0-.28.3 1.17 1.17 0 0 0 0 .34 1 1 0 0 0 0 .33.13.13 0 0 0 .13.07.12.12 0 0 0 .12-.06 1 1 0 0 0 0-.3zm2.4-1.72V29a.75.75 0 0 1 .63-.5v1.17a.84.84 0 0 0-.4.07.3.3 0 0 0-.16.2 3.7 3.7 0 0 0 0 .62v1.3H87v-3.3zm1.8 1.27h-.93v-.22A1.55 1.55 0 0 1 89 29a.82.82 0 0 1 .35-.37 1.65 1.65 0 0 1 1.46 0 .7.7 0 0 1 .33.44 6.92 6.92 0 0 1 .05 1.08v1.65h-1v-.3a.6.6 0 0 1-.58.36.85.85 0 0 1-.5-.15q-.2-.13-.2-.63v-.27a.8.8 0 0 1 .1-.5 1.64 1.64 0 0 1 .6-.32 1.65 1.65 0 0 0 .52-.26.7.7 0 0 0 0-.27.93.93 0 0 0 0-.34.13.13 0 0 0-.13-.06c-.1 0-.13 0-.15.07a1.34 1.34 0 0 0 0 .35zm.33.45a.74.74 0 0 0-.28.3 1.17 1.17 0 0 0 0 .34 1 1 0 0 0 0 .33.13.13 0 0 0 .13.07.12.12 0 0 0 .12-.06 1 1 0 0 0 0-.3zm4.77-1.72v3.3h-1v-.28a.7.7 0 0 1-.27.25.72.72 0 0 1-.35.08.8.8 0 0 1-.37-.06.52.52 0 0 1-.2-.2.78.78 0 0 1-.1-.28q0-.14 0-.57v-2.23h1v2.24a2.3 2.3 0 0 0 0 .47s.07.07.14.07.12 0 .13-.07a2.85 2.85 0 0 0 0-.48v-2.23zm1.42 0v.3a.8.8 0 0 1 .28-.27.72.72 0 0 1 .37-.1.7.7 0 0 1 .63.36.9.9 0 0 1 .3-.28.75.75 0 0 1 .77 0 .55.55 0 0 1 .2.3 2.56 2.56 0 0 1 0 .57v2.34h-1v-2.1a2.7 2.7 0 0 0 0-.5.13.13 0 0 0-.12-.1.13.13 0 0 0-.14.1 2.47 2.47 0 0 0 0 .5v2.15h-1v-2.1a3.9 3.9 0 0 0 0-.58.12.12 0 0 0-.1-.1.15.15 0 0 0-.1.05.2.2 0 0 0-.07.12s0 .15 0 .3v2.3h-1v-3.3zm3.88 1.27h-.93v-.22a1.55 1.55 0 0 1 .1-.57.82.82 0 0 1 .34-.37 1.65 1.65 0 0 1 1.48 0 .7.7 0 0 1 .3.44 6.92 6.92 0 0 1 .06 1.07v1.65h-1v-.3a.6.6 0 0 1-.58.36.85.85 0 0 1-.48-.15q-.22-.15-.22-.65v-.27a.8.8 0 0 1 .12-.5 1.64 1.64 0 0 1 .63-.3 1.65 1.65 0 0 0 .54-.25.7.7 0 0 0 0-.27.93.93 0 0 0 0-.34.13.13 0 0 0-.13-.08c-.06 0-.1 0-.12.07a1.34 1.34 0 0 0 0 .34zm.33.45a.74.74 0 0 0-.28.3 1.17 1.17 0 0 0 0 .34 1 1 0 0 0 0 .33.13.13 0 0 0 .13.07.12.12 0 0 0 .12-.06 1 1 0 0 0 0-.3zm3.9-2.45v1a.82.82 0 0 1 .28-.22.78.78 0 0 1 .35-.05.9.9 0 0 1 .36.06.5.5 0 0 1 .24.2.55.55 0 0 1 .1.22 4.27 4.27 0 0 1 0 .5V31a2.23 2.23 0 0 1 0 .53.57.57 0 0 1-.23.32.7.7 0 0 1-.4.13.72.72 0 0 1-.34-.08.87.87 0 0 1-.28-.23l-.06.25h-.93v-4zm.3 1.66a1.07 1.07 0 0 0 0-.35.12.12 0 0 0-.12-.08.1.1 0 0 0-.1.07 1.25 1.25 0 0 0 0 .34v1.4a1.13 1.13 0 0 0 0 .35.12.12 0 0 0 .1.07.12.12 0 0 0 .14-.08 1.42 1.42 0 0 0 0-.37zm3.67.2v.82a3.4 3.4 0 0 1 0 .65.9.9 0 0 1-.18.4.87.87 0 0 1-.38.26 1.5 1.5 0 0 1-.53.1 1.88 1.88 0 0 1-.54-.08.76.76 0 0 1-.36-.22.87.87 0 0 1-.2-.36 2.7 2.7 0 0 1-.04-.63v-.84a2.07 2.07 0 0 1 .1-.72.83.83 0 0 1 .36-.4 1.26 1.26 0 0 1 .66-.17 1.5 1.5 0 0 1 .58.1.9.9 0 0 1 .55.6 2.05 2.05 0 0 1 0 .5zm-1-.24a1.1 1.1 0 0 0 0-.32.1.1 0 0 0-.1-.07.12.12 0 0 0-.13.07 1 1 0 0 0 0 .32V31a1 1 0 0 0 0 .3.14.14 0 0 0 .23 0 .84.84 0 0 0 0-.28zm2.3.37h-.93v-.22a1.55 1.55 0 0 1 .1-.57.82.82 0 0 1 .34-.37 1.65 1.65 0 0 1 1.48 0 .7.7 0 0 1 .3.44 6.92 6.92 0 0 1 .03 1.1v1.65h-1v-.3a.6.6 0 0 1-.57.36.85.85 0 0 1-.48-.13q-.22-.15-.22-.65v-.26a.8.8 0 0 1 .12-.5 1.64 1.64 0 0 1 .58-.3 1.65 1.65 0 0 0 .53-.27.7.7 0 0 0 0-.28.93.93 0 0 0 0-.34.13.13 0 0 0-.13-.08c-.07 0-.1 0-.13.07a1.34 1.34 0 0 0 0 .34zm.33.45a.74.74 0 0 0-.28.3 1.17 1.17 0 0 0 0 .34 1 1 0 0 0 0 .33.13.13 0 0 0 .13.07.12.12 0 0 0 .12-.06 1 1 0 0 0 0-.3zm4.7-1.72l-.47 3.3H113l-.5-3.3h.9l.28 2.4q0-.26.1-1.28 0-.57.1-1.1zm1.27-.73v.52h-1v-.52zm0 .73v3.3h-1v-3.3zm1.3 1.27h-.93v-.22a1.55 1.55 0 0 1 .1-.57.82.82 0 0 1 .34-.37 1.65 1.65 0 0 1 1.48 0 .7.7 0 0 1 .3.44 6.92 6.92 0 0 1 .06 1.07v1.65h-1v-.3a.6.6 0 0 1-.58.36.85.85 0 0 1-.48-.15q-.22-.15-.22-.65v-.27a.8.8 0 0 1 .12-.5 1.64 1.64 0 0 1 .58-.3 1.65 1.65 0 0 0 .53-.25.7.7 0 0 0 0-.27.93.93 0 0 0 0-.34.13.13 0 0 0-.14-.08c-.07 0-.1 0-.13.07a1.34 1.34 0 0 0 0 .34zm.33.45a.74.74 0 0 0-.28.3 1.17 1.17 0 0 0 0 .34 1 1 0 0 0 0 .33.13.13 0 0 0 .13.07.12.12 0 0 0 .12-.06 1 1 0 0 0 0-.3zm3.7-1.72v2.54a5.6 5.6 0 0 1 0 .66.66.66 0 0 1-.17.32.9.9 0 0 1-.4.26 2 2 0 0 1-.65.1 1.58 1.58 0 0 1-.75-.17.7.7 0 0 1-.3-.64h1q0 .22.16.22a.16.16 0 0 0 .16-.07.68.68 0 0 0 0-.28v-.25a1 1 0 0 1-.27.18.76.76 0 0 1-.3.06.83.83 0 0 1-.46-.13.56.56 0 0 1-.24-.3 1.54 1.54 0 0 1-.07-.5v-1.2a1.07 1.07 0 0 1 .17-.68.63.63 0 0 1 .5-.2.76.76 0 0 1 .35.06.82.82 0 0 1 .28.23l.07-.26zm-1 .87a.94.94 0 0 0 0-.3.1.1 0 0 0-.12-.05.13.13 0 0 0-.1.07.7.7 0 0 0 0 .28v1.1a.93.93 0 0 0 0 .3.1.1 0 0 0 .1.07.12.12 0 0 0 .14-.08 1.3 1.3 0 0 0 0-.36zm3.67.83h-1.3V31a.8.8 0 0 0 0 .3.13.13 0 0 0 .12.05.15.15 0 0 0 .15-.1.93.93 0 0 0 0-.32v-.43h1v.24a2.2 2.2 0 0 1 0 .47 1 1 0 0 1-.18.37.87.87 0 0 1-.38.28 1.38 1.38 0 0 1-.54.1 1.58 1.58 0 0 1-.57-.1.9.9 0 0 1-.37-.25.9.9 0 0 1-.2-.36 2.28 2.28 0 0 1-.04-.56v-1a1.64 1.64 0 0 1 .12-.68.8.8 0 0 1 .38-.38 1.53 1.53 0 0 1 1.32 0 .88.88 0 0 1 .38.42 2 2 0 0 1 .1.74zm-1-.54v-.24a1.2 1.2 0 0 0 0-.33.1.1 0 0 0-.1-.07c-.08 0-.12 0-.14.06a1.32 1.32 0 0 0 0 .34v.24zm2.42-1.16v.3a.8.8 0 0 1 .28-.27.72.72 0 0 1 .37-.1.7.7 0 0 1 .63.36.9.9 0 0 1 .3-.28.75.75 0 0 1 .77 0 .55.55 0 0 1 .2.3 2.56 2.56 0 0 1 0 .57v2.34h-1v-2.1a2.7 2.7 0 0 0 0-.5.13.13 0 0 0-.12-.1.13.13 0 0 0-.14.1 2.47 2.47 0 0 0 0 .5v2.15h-1v-2.1a3.9 3.9 0 0 0 0-.58.12.12 0 0 0-.1-.1.15.15 0 0 0-.1.05.2.2 0 0 0-.07.12s0 .15 0 .3v2.3h-1v-3.3z"/></g></g></svg>