<svg xmlns="http://www.w3.org/2000/svg" viewBox="0 0 128 40"><defs><style>.cls-1{fill:#eb2025;}.cls-2{fill:#fff;}</style></defs><title>Expresso São Luiz</title><path d="M128 24.8a35.46 35.46 0 0 1-5.32 4.74 5.66 5.66 0 0 1-3.14 1.32 20.46 20.46 0 0 1-2.76-.25c-.84-.1-1.66-.2-2.5-.3a1.8 1.8 0 0 0-.6.18 10.3 10.3 0 0 1-1.13.35.38.38 0 0 1-.5-.47s0-.07 0-.1c-.55-.53 0-.86.25-1.23s.4-.5.57-.76a1.17 1.17 0 0 1 1.13-.66.57.57 0 0 0 .3-.12l4.4-3.2.24-.2c-.7 0-1.3-.12-1.9-.14a.84.84 0 0 0-.5.16 18.13 18.13 0 0 0-1.66 1.33 29.46 29.46 0 0 1-5.1 4.16A6.54 6.54 0 0 1 106 30.7h-.4a2.3 2.3 0 0 1-1.83-2.86 2.32 2.32 0 0 0 0-.3c-.4.3-.7.6-1.06.84-1 .7-2.07 1.4-3.16 2a3.24 3.24 0 0 1-2.27.37 2.16 2.16 0 0 1-1.7-2.7l.13-.58-1 .83a13.2 13.2 0 0 1-3.25 2.1 5 5 0 0 1-2.37.36c-1.34-.1-1.9-1.74-1.64-2.64a4.73 4.73 0 0 1 .32-.84l2.48-5.08a1.12 1.12 0 0 1 1-.7c.5 0 1-.12 1.52-.16.3 0 .53.1.55.43 0 0 0 .08 0 .1.6.5.1 1-.1 1.4-.8 1.6-1.64 3.2-2.45 4.8a1.84 1.84 0 0 0-.2.7 4 4 0 0 0 .88-.3 34.24 34.24 0 0 0 2.9-2 18.87 18.87 0 0 0 4-4.17 1.73 1.73 0 0 1 1.42-.82c.3 0 .62-.07.94-.1s.5.13.73.5c.38.62 0 1-.18 1.45-.8 1.6-1.6 3.17-2.4 4.77-.1.2-.2.4-.34.76a3.94 3.94 0 0 0 .95-.28 18.4 18.4 0 0 0 2.25-1.6c1.43-1.26 2.8-2.6 4.2-3.92a2.72 2.72 0 0 0 .5-.85 1.1 1.1 0 0 1 .9-.68l1.44-.16c.3 0 .53.05.55.4a.32.32 0 0 0 .1.23c.25.23.16.48 0 .74q-1.2 2.52-2.43 5.06c-.16.33-.3.67-.5 1.15a4.66 4.66 0 0 0 1.07-.2 8 8 0 0 0 1.73-.95q2.4-1.94 4.72-4a3.7 3.7 0 0 0 .72-1.22 1.84 1.84 0 0 1 2.2-1.25c1.55.16 3.1.34 4.65.5a1.55 1.55 0 0 0 .6-.17 10 10 0 0 1 1.2-.45.4.4 0 0 1 .52.45.35.35 0 0 0 0 .13c.3.6.3.63-.23 1l-6.7 4.87-.44.32c.6.1 1.12.2 1.64.26s.92.12 1.38.17a3 3 0 0 0 2.1-.5 30.9 30.9 0 0 0 2.6-2c.85-.74 1.65-1.54 2.47-2.3.42-.4.78-.27.94.28a1.72 1.72 0 0 0 .27.4 4.47 4.47 0 0 0 .06.47zm-48.58 6.57c-.9-.13-1.8-.2-2.65-.4-2.2-.54-4.4-1.14-6.6-1.7a.9.9 0 0 0-.62 0 11.5 11.5 0 0 1-5.65 1.23 15.12 15.12 0 0 1-5.34-1.07c-.28-.1-.52-.23-.22-.54l-.34-.37a2.46 2.46 0 0 1 .4-.3 16.7 16.7 0 0 1 10-.85c.43.08.7 0 .92-.38.53-1 1.08-2 1.68-3.16-.87.1-1.6.2-2.3.25a18.9 18.9 0 0 1-6.1-.2 6.4 6.4 0 0 1-1.04-.4 2.6 2.6 0 0 1-1.43-2.37A1.1 1.1 0 0 1 61 20a11.84 11.84 0 0 1 2.38-.37c1 0 2.1 0 3.14.08.33 0 .74 0 .67.56.32.76.3.76-.57.77-1.1 0-2.2.06-3.27.16a5.2 5.2 0 0 0-1.12.35c0 .06 0 .13 0 .2a9 9 0 0 0 .88.44 9 9 0 0 0 4 .4c1.42-.1 2.83-.27 4.25-.44a.64.64 0 0 0 .4-.38 19.32 19.32 0 0 1 2-4.07 10 10 0 0 1 5.6-4.36 8.6 8.6 0 0 1 4.23-.15 2.82 2.82 0 0 1 1.6 4.5 10.64 10.64 0 0 1-1.9 1.7 23.27 23.27 0 0 1-7.43 3.3 2.84 2.84 0 0 0-2.13 1.67 12.15 12.15 0 0 1-2.37 3.36 3.7 3.7 0 0 0-.25.3c1.53.28 3 .63 4.43.77 2.07.2 4.15.28 6.22.38a7.65 7.65 0 0 0 1.58-.18 1.23 1.23 0 0 0 .54-.2 1 1 0 0 0 .36-.5c0-.13-.23-.34-.4-.4a6.5 6.5 0 0 0-1.46-.4 10.34 10.34 0 0 0-3.78.28c-.52.14-.6.1-.64-.46a.22.22 0 0 0 0-.1c-.3-.48-.28-.55.24-.7a9.7 9.7 0 0 1 5-.22 2.93 2.93 0 0 1 2.3 2.08 1.75 1.75 0 0 1-.74 2 5.56 5.56 0 0 1-2.56.87c-.16 0-.32.06-.48.1zm-4.34-9.9l.55-.12a18.7 18.7 0 0 0 6.05-3.15 18.46 18.46 0 0 0 2.1-2c.3-.32.6-.77.4-1.2s-.76-.54-1.25-.6a5 5 0 0 0-3.5 1c-2.15 1.47-3.3 3.7-4.36 6.08zM63 29.13a9.26 9.26 0 0 0 4.4-.6 6.06 6.06 0 0 0-4.4.6zM.54 26.7a3.8 3.8 0 0 1 3.7-2.57c1.54-.13 3.1-.16 4.65-.18a1.34 1.34 0 0 1 .83.47 6 6 0 0 1 .62 1.2c-1.05 0-2 0-2.9 0a13.1 13.1 0 0 0-2.3.38 2.1 2.1 0 0 0-1.5 1.24c-.15.4-.14.76.25 1a5.74 5.74 0 0 0 1.8.76 11 11 0 0 0 6.44-1.14 3.67 3.67 0 0 0 1.17-1c.8-1 .75-1.74-.23-2.5-.75-.6-1.54-1.1-2.3-1.66s-1.68-1.24-2.5-1.9a5.24 5.24 0 0 1-1.74-3A2.6 2.6 0 0 1 7.56 15a9.13 9.13 0 0 1 3.62-1.6 12.33 12.33 0 0 1 5.6.1 2.9 2.9 0 0 1 2.3 2.13 1.8 1.8 0 0 1-.36 1.65 3.46 3.46 0 0 1-2.52 1.3c-1 .13-2 .15-3 .2-.4 0-1-.62-1-1 0-.16-.2-.3-.32-.52.55 0 1.06-.08 1.57-.13a4.8 4.8 0 0 0 2.37-.73 3.3 3.3 0 0 0 .54-.62c-.25-.16-.5-.42-.76-.47a10 10 0 0 0-2.2-.16 11.7 11.7 0 0 0-2.54.4A2.15 2.15 0 0 0 9.3 17.3a.93.93 0 0 0 .24.9 16.64 16.64 0 0 0 1.34 1.2c1 .7 2 1.34 2.93 2.07A9.52 9.52 0 0 1 15.56 23a7.2 7.2 0 0 1 1 1.92 2.6 2.6 0 0 1-.34 2.2 5.73 5.73 0 0 1-2.14 2.1A12.47 12.47 0 0 1 7 30.9a14.28 14.28 0 0 1-3.82-.76 3.43 3.43 0 0 1-2.52-2.48 1.36 1.36 0 0 0-.1-.23c-.02-.23-.02-.46-.02-.7zm31.06 1.1c-.42.35-.8.72-1.2 1-.84.57-1.67 1.16-2.55 1.68a2.6 2.6 0 0 1-1.2.32 1.78 1.78 0 0 1-2.12-1.74c0-.13 0-.26-.06-.53a4.77 4.77 0 0 1-.55.6 15 15 0 0 1-2.2 1.5 2.83 2.83 0 0 1-3.53-.9 3.6 3.6 0 0 1-.3-4 8.78 8.78 0 0 1 5.24-4 9.2 9.2 0 0 1 5.1 0 1.16 1.16 0 0 1 .67.58c.4.63.1 1.07-.1 1.57-.54 1.55-1.12 3.08-1.7 4.63-.04.14-.1.3-.15.6a3.4 3.4 0 0 0 .8-.2 8.4 8.4 0 0 0 1.45-.9c.87-.76 1.7-1.58 2.55-2.4a1.65 1.65 0 0 0 .23-.3 8 8 0 0 1 7.48-3.94 3.65 3.65 0 0 1 3.35 2.38 3.82 3.82 0 0 1-.3 3.7.93.93 0 0 0-.14.46 2.9 2.9 0 0 0 .76-.22 10.26 10.26 0 0 0 1.53-1.1c1-.9 1.88-1.85 2.82-2.78.3-.3.5-.25.67.13a2.83 2.83 0 0 1 .24.58.72.72 0 0 1-.06.53 25.63 25.63 0 0 1-4.34 4 2.7 2.7 0 0 1-3 .36c-.1-.06-.32.05-.46.14a7.14 7.14 0 0 1-5.2 1.3 7 7 0 0 1-1.78-.53 3.2 3.2 0 0 1-1.74-2.16zm9.12-3.66a2.27 2.27 0 0 0-2.55-.9 5.7 5.7 0 0 0-3.83 4.88 1.22 1.22 0 0 0 .85 1.27 2.55 2.55 0 0 0 .76.16 4.33 4.33 0 0 0 3.48-1.73c.06-.06 0-.23 0-.35a5.24 5.24 0 0 1-.08-1.06 4.2 4.2 0 0 1 1.35-2.3zm-14.17-.74a3.08 3.08 0 0 0-2.15.08 8.08 8.08 0 0 0-4 4.4c0 .1 0 .2-.07.3-.2.76.2 1 .78.93a2.93 2.93 0 0 0 1.4-.5 14.92 14.92 0 0 0 4.06-5.2zm3.55-5.8h1.1c0 .18 0 .34-.07.5l.33.08a2.85 2.85 0 0 1-3.7 2.7c-.74-.15-1.45-.4-2.17-.6l-.5-.13c-1.3-.34-1.58-.2-2.07 1.1l-1.2-.08c0-.22.06-.37.1-.55l-.32-.1a3 3 0 0 1 2.25-2.57 6.8 6.8 0 0 1 1.94.2c.75.13 1.5.4 2.26.55 1.18.2 1.53-.02 2.04-1.1z"/><path d="M127.44 24.27a35.46 35.46 0 0 1-5.32 4.73 5.66 5.66 0 0 1-3.12 1.32 20.46 20.46 0 0 1-2.76-.25c-.84-.1-1.66-.23-2.5-.3a1.8 1.8 0 0 0-.6.16 10.3 10.3 0 0 1-1.13.35.38.38 0 0 1-.47-.47s0-.05 0-.07c-.56-.54 0-.87.24-1.24s.4-.5.57-.77a1.17 1.17 0 0 1 1.13-.66.57.57 0 0 0 .3-.13l4.4-3.2.24-.2c-.7 0-1.3-.12-1.9-.14a.84.84 0 0 0-.5.15 18.13 18.13 0 0 0-1.65 1.34 29.46 29.46 0 0 1-5.1 4.14 6.54 6.54 0 0 1-3.78 1.13h-.4a2.3 2.3 0 0 1-1.83-2.86 2.32 2.32 0 0 0 0-.3c-.4.3-.7.6-1.06.85-1 .7-2.1 1.4-3.18 2a3.24 3.24 0 0 1-2.28.36 2.16 2.16 0 0 1-1.7-2.7l.13-.57-1 .85a13.2 13.2 0 0 1-3.24 2.08 5 5 0 0 1-2.35.37c-1.34-.1-1.9-1.73-1.64-2.63a4.73 4.73 0 0 1 .33-.84l2.48-5.08a1.12 1.12 0 0 1 1-.7c.5 0 1-.12 1.53-.16.3 0 .53.1.55.44 0 0 0 .07 0 .1.57.5.1 1-.13 1.38-.8 1.6-1.63 3.2-2.44 4.8a1.84 1.84 0 0 0-.2.7 4 4 0 0 0 .9-.3 34.24 34.24 0 0 0 2.9-2 18.87 18.87 0 0 0 4-4.17 1.73 1.73 0 0 1 1.4-.83c.3 0 .63-.08.95-.1s.52.12.74.48c.37.63 0 1-.2 1.46-.8 1.6-1.6 3.18-2.4 4.78-.1.2-.2.4-.33.76a3.94 3.94 0 0 0 .94-.27 18.4 18.4 0 0 0 2.3-1.56c1.44-1.26 2.8-2.6 4.2-3.9a2.72 2.72 0 0 0 .5-.87 1.1 1.1 0 0 1 .9-.68l1.45-.16c.3 0 .53.06.55.42a.32.32 0 0 0 .1.22c.26.23.17.48 0 .74q-1.2 2.5-2.42 5.05c-.16.33-.3.67-.5 1.15a4.66 4.66 0 0 0 1.07-.2 8 8 0 0 0 1.73-.94q2.4-1.94 4.72-4a3.7 3.7 0 0 0 .73-1.22 1.84 1.84 0 0 1 2.2-1.26c1.55.16 3.1.34 4.65.5a1.55 1.55 0 0 0 .6-.17 10 10 0 0 1 1.2-.45.4.4 0 0 1 .52.45.35.35 0 0 0 0 .14c.3.6.3.62-.22 1l-6.7 4.86-.44.33c.6.1 1.12.2 1.64.27s.92.13 1.38.18a3 3 0 0 0 2.1-.5 30.9 30.9 0 0 0 2.6-2c.85-.74 1.65-1.54 2.47-2.3.42-.4.78-.27.94.28a1.72 1.72 0 0 0 .27.38 4.47 4.47 0 0 0 0 .43zm-48.56 6.56c-.9-.13-1.8-.2-2.65-.4-2.2-.54-4.4-1.14-6.6-1.7a.9.9 0 0 0-.62 0A11.5 11.5 0 0 1 63.37 30 15.12 15.12 0 0 1 58 28.92c-.28-.1-.52-.23-.22-.54l-.32-.38a2.46 2.46 0 0 1 .4-.3 16.7 16.7 0 0 1 10-.85c.43.1.7 0 .92-.37.53-1 1.08-2 1.68-3.16-.87.1-1.6.2-2.3.25a18.9 18.9 0 0 1-6.1-.22A6.4 6.4 0 0 1 61 23a2.6 2.6 0 0 1-1.43-2.37 1.1 1.1 0 0 1 .92-1.18 11.84 11.84 0 0 1 2.36-.37c1 0 2.1 0 3.14.08.34 0 .75 0 .68.54.34.76.3.76-.55.77-1.1 0-2.2.06-3.27.16a5.2 5.2 0 0 0-1.12.36c0 .04 0 .1 0 .17a9 9 0 0 0 .88.45 9 9 0 0 0 4 .4c1.42-.1 2.83-.26 4.25-.43a.64.64 0 0 0 .4-.4 19.32 19.32 0 0 1 2-4.06 10 10 0 0 1 5.6-4.37 8.6 8.6 0 0 1 4.23-.15 2.82 2.82 0 0 1 1.58 4.5 10.64 10.64 0 0 1-1.88 1.72 23.27 23.27 0 0 1-7.44 3.28 2.84 2.84 0 0 0-2.13 1.68 12.15 12.15 0 0 1-2.37 3.37 3.7 3.7 0 0 0-.25.3c1.55.28 3 .63 4.45.77 2.07.2 4.15.3 6.22.4a7.65 7.65 0 0 0 1.56-.2 1.23 1.23 0 0 0 .54-.2 1 1 0 0 0 .38-.5c0-.12-.23-.33-.4-.4a6.5 6.5 0 0 0-1.46-.4 10.34 10.34 0 0 0-3.8.3c-.5.13-.6.08-.64-.47a.22.22 0 0 0 0-.1c-.3-.48-.28-.55.24-.7a9.7 9.7 0 0 1 5-.22 2.93 2.93 0 0 1 2.3 2.08 1.75 1.75 0 0 1-.75 2 5.56 5.56 0 0 1-2.56.87c-.18 0-.34.06-.5.1zm-4.34-9.9l.55-.12a18.7 18.7 0 0 0 6.03-3.13 18.46 18.46 0 0 0 2.1-2c.3-.32.6-.77.4-1.2s-.76-.54-1.25-.6a5 5 0 0 0-3.52 1c-2.14 1.48-3.28 3.7-4.35 6.08zm-12.1 7.65a9.26 9.26 0 0 0 4.4-.58 6.06 6.06 0 0 0-4.4.58zM0 26.16a3.8 3.8 0 0 1 3.7-2.57c1.54-.15 3.1-.18 4.65-.2a1.34 1.34 0 0 1 .85.47 6 6 0 0 1 .62 1.2c-1.05 0-2 0-2.9 0a13.1 13.1 0 0 0-2.3.37 2.1 2.1 0 0 0-1.5 1.24c-.15.38-.14.75.25 1a5.74 5.74 0 0 0 1.78.76 11 11 0 0 0 6.45-1.16 3.67 3.67 0 0 0 1.17-1c.78-1 .73-1.74-.25-2.5-.75-.6-1.54-1.1-2.3-1.66s-1.68-1.24-2.5-1.9a5.24 5.24 0 0 1-1.74-3A2.6 2.6 0 0 1 7 14.46a9.13 9.13 0 0 1 3.62-1.6 12.33 12.33 0 0 1 5.6.1 2.9 2.9 0 0 1 2.3 2.13 1.8 1.8 0 0 1-.36 1.63 3.46 3.46 0 0 1-2.52 1.3c-1 .13-2 .15-3 .2-.4 0-1-.62-1-1 0-.16-.2-.3-.32-.52.55 0 1.06-.07 1.57-.12a4.8 4.8 0 0 0 2.35-.74 3.3 3.3 0 0 0 .54-.62c-.26-.16-.5-.42-.77-.47a10 10 0 0 0-2.2-.18 11.7 11.7 0 0 0-2.54.4 2.15 2.15 0 0 0-1.5 1.7.93.93 0 0 0 .23.9 16.64 16.64 0 0 0 1.34 1.2c1 .7 2 1.35 2.93 2.08a9.52 9.52 0 0 1 1.7 1.6 7.2 7.2 0 0 1 1 1.9 2.6 2.6 0 0 1-.34 2.2 5.73 5.73 0 0 1-2.15 2.12 12.47 12.47 0 0 1-7.1 1.65 14.28 14.28 0 0 1-3.8-.76A3.43 3.43 0 0 1 .12 27.1a1.36 1.36 0 0 0-.13-.24c0-.25 0-.48 0-.72zm31.06 1.1c-.42.35-.8.72-1.2 1-.84.57-1.67 1.16-2.55 1.7a2.6 2.6 0 0 1-1.2.3 1.78 1.78 0 0 1-2.1-1.7c0-.13 0-.26-.05-.53a4.77 4.77 0 0 1-.55.6 15 15 0 0 1-2.2 1.5 2.83 2.83 0 0 1-3.54-.9 3.6 3.6 0 0 1-.3-4 8.78 8.78 0 0 1 5.26-4 9.2 9.2 0 0 1 5.1 0 1.16 1.16 0 0 1 .67.58c.4.63.07 1.07-.1 1.57-.57 1.55-1.15 3.08-1.7 4.63-.07.14-.1.3-.18.6a3.4 3.4 0 0 0 .8-.2 8.4 8.4 0 0 0 1.43-.92c.88-.76 1.72-1.58 2.56-2.4a1.65 1.65 0 0 0 .24-.3 8 8 0 0 1 7.48-3.94 3.65 3.65 0 0 1 3.35 2.38A3.82 3.82 0 0 1 42 27a.93.93 0 0 0-.15.45 2.9 2.9 0 0 0 .76-.22 10.26 10.26 0 0 0 1.54-1.1c1-.9 1.88-1.85 2.82-2.78.3-.3.5-.25.67.13a2.83 2.83 0 0 1 .24.57.72.72 0 0 1-.06.52 25.63 25.63 0 0 1-4.33 4 2.7 2.7 0 0 1-3 .36c-.1-.05-.32.06-.46.15a7.14 7.14 0 0 1-5.2 1.3 7 7 0 0 1-1.8-.52 3.2 3.2 0 0 1-1.73-2.17zm9.12-3.66a2.27 2.27 0 0 0-2.55-.9 5.7 5.7 0 0 0-3.83 4.88 1.22 1.22 0 0 0 .85 1.27 2.55 2.55 0 0 0 .78.18 4.33 4.33 0 0 0 3.48-1.73c.08-.06 0-.23 0-.35a5.24 5.24 0 0 1-.06-1.05 4.2 4.2 0 0 1 1.35-2.3zM26 22.86a3.08 3.08 0 0 0-2.15.08 8.08 8.08 0 0 0-4 4.4c0 .1 0 .2-.07.3-.2.76.2 1 .78.93a2.93 2.93 0 0 0 1.4-.52 14.92 14.92 0 0 0 4.04-5.2zm3.57-5.8h1.08c0 .18 0 .34-.06.5l.3.08a2.85 2.85 0 0 1-3.7 2.7c-.73-.15-1.44-.4-2.16-.6l-.48-.13c-1.3-.32-1.58-.2-2.07 1.1l-1.2-.06c0-.22.05-.37.1-.55l-.33-.1a3 3 0 0 1 2.24-2.58 6.8 6.8 0 0 1 1.95.2c.76.14 1.5.42 2.27.56 1.18.2 1.53-.02 2.04-1.1zm79.76 2.62c-.52-.15-1.06-.28-1.57-.48-.27-.1-.63-.22-.5-.67-.58-.7.15-1 .44-1.5a.5.5 0 0 1 .7-.14c.43.17.87.3 1.3.53a.92.92 0 0 1 .35.44 2.28 2.28 0 0 1 .22.9c-.03.62-.27.83-.94.9z" class="cls-1"/><path d="M27.43 8.62c.26.32.15.52-.2.7a2.9 2.9 0 0 1-1.83.16 7.78 7.78 0 0 0-1.77-.05c-.68 0-1.36.2-2 .25a1.4 1.4 0 0 0-1.4 1.25c-.07.42-.13.85-.18 1.28 0 .27.14.3.35.28l4.34-.4a1.65 1.65 0 0 1 .7.06c-.14.16-.26.4-.45.47a3.7 3.7 0 0 1-1.08.3c-1.05.14-2.12.2-3.17.33-.22 0-.4.22-.6.34.12.2.2.52.38.6a5 5 0 0 0 1.65.47c1 0 2-.13 2.94-.2.23 0 .48 0 .78 0a1.07 1.07 0 0 1-1.06.76c-1.33 0-2.66 0-4-.1A2 2 0 0 1 18.9 13a19.55 19.55 0 0 1 .27-2.28c0 .05 0 0 0 0l-.58-.53a2.63 2.63 0 0 1 .56-.58 8.94 8.94 0 0 1 3-.87 2.35 2.35 0 0 0 .34-.08c1.7-.06 3.3-.06 4.93-.06zM39.4 12.7l1.15.48c.46-1.35 1.56-1.65 2.7-1.88a4 4 0 0 1 3.16.3c.7-.9 2.28-.7 3-.34a.52.52 0 0 1 .2.5.38.38 0 0 1-.62.12c-.42-.4-.87-.22-1.3-.07a.4.4 0 0 0-.1.75 7.45 7.45 0 0 0 1.52.75c.84.28 1.73.46 2.58.72a7.28 7.28 0 0 1 1.2.5.45.45 0 0 0 .6-.08 1.44 1.44 0 0 1 .66-.3c.08 0 .2.12.3.2a3.6 3.6 0 0 1-.23.28l-.35.3c.15.1.3.27.45.28 1.28.08 2.56.13 3.85.18.13 0 .27-.13.4-.22-.12-.12-.2-.3-.34-.33-.37-.12-.8-.14-1.16-.28-1.12-.4-2.22-.8-3.3-1.25a1.35 1.35 0 0 1-.88-1.2.73.73 0 0 1 .48-.8 3.16 3.16 0 0 1 2.37.06c.23.1.46.28.3.56a.43.43 0 0 1-.7.1 1.37 1.37 0 0 0-1.34 0 .4.4 0 0 0 0 .7 5.18 5.18 0 0 0 1.14.6c.9.32 1.82.55 2.74.83a4.88 4.88 0 0 1 1.12.47.76.76 0 0 1 .34.57 1 1 0 0 1-.47.56 1.8 1.8 0 0 1-.87.17c-1.1 0-2.2-.08-3.32-.17a6.78 6.78 0 0 1-1-.3c-.2 0-.5-.12-.62 0a2.16 2.16 0 0 1-1.4.37 10.8 10.8 0 0 1-4.06-.4c-.23.5-.7.52-1.2.43-1.32-.24-2.66-.42-4-.75a7.28 7.28 0 0 1-1.6-.86 1.85 1.85 0 0 0-.43-.16 5.86 5.86 0 0 1-1.07-.3c-.47-.24-.46-.56-.06-.88a1 1 0 0 1 .2-.23zm2.95 1.2a.58.58 0 0 1 0 .13 5.82 5.82 0 0 0 1.12.58c.88.25 1.76.64 2.68 0 .23-.15.7 0 1 0 .12-.13.2-.35.36-.42a1.34 1.34 0 0 1 .65-.06s.1.14.13.22a3.06 3.06 0 0 1-.43.26c-.28.12-.24.3-.06.44a.66.66 0 0 0 .37.13l3.68.17a.5.5 0 0 0 .26 0c.1-.05.23-.14.23-.23s-.1-.22-.2-.25a3.5 3.5 0 0 0-.72-.2 12 12 0 0 1-4.72-1.83c-1.22 1-2.78 1.03-4.32 1.12zm3.38-1.38a.63.63 0 0 0-.65-.52l-1.3-.06a2.5 2.5 0 0 0-2 1c0 .05 0 .16-.05.32a11.3 11.3 0 0 0 4-.73zM63.8 12c.37.24.7.43 1 .67.46.37.9.74 1.33 1.14a.87.87 0 0 1 .08 1.2 1.65 1.65 0 0 1-1.14.77 9.72 9.72 0 0 1-4-.07 2.34 2.34 0 0 1-.42-.15 1.86 1.86 0 0 1-1.33-1.68 2.1 2.1 0 0 1 1.7-1.82c.57-.08 1.08-.13 1.4-.7 0-.04.42 0 .57.14a.8.8 0 0 0 .82 0A23.64 23.64 0 0 1 74.4 10a6.74 6.74 0 0 1 1.77.48 1.48 1.48 0 0 1 .67.63c.07.1-.05.4-.17.56s-.27 0-.42-.15a5.2 5.2 0 0 0-1.37-.7 11.16 11.16 0 0 0-4.34-.1c-2.14.32-4.27.75-6.4 1.13zm-.15 3.52a13.44 13.44 0 0 0 1.63-.46c.52-.2.6-.7.17-1a16.9 16.9 0 0 0-2-1.25c-.1-.03-.37.1-.48.2a1 1 0 0 1-1.52.23.8.8 0 0 0-.64-.06 1.08 1.08 0 0 0-.64 1.12.88.88 0 0 0 .8.9c.86.1 1.7.2 2.7.33zM33.07 14.1a6.26 6.26 0 0 0 .73 3.35c-.46.16-.77.08-.94-.25-.3-.58-.54-1.18-.82-1.8-.32.3-.62 0-.94-.2-.58-.34-1.17-.67-1.74-1a.53.53 0 0 0-.78.08c-.27.28-.6.5-.87.77a.94.94 0 0 1-1.04.27 4.92 4.92 0 0 1 1.77-1.77 18.22 18.22 0 0 0-1.18-1.47c-.1-.1-.42 0-.66 0a2.17 2.17 0 0 1 .5-1.26c.3-.14.5 0 .65.26.27.5.57 1 .85 1.52.18.33.38.38.7.1a9.24 9.24 0 0 1 2.7-1.63.54.54 0 0 1-.22.73c-.67.5-1.33 1-2.08 1.58l2.42 1.77c0-.4 0-.66 0-.93a20.3 20.3 0 0 1 .2-2.36c.17-.85.5-1 1.36-.92a3.1 3.1 0 0 1 2.32 1.4 1 1 0 0 1-.6 1.66 7.77 7.77 0 0 1-1.58.13c-.24.03-.5-.02-.75-.03zm1.43-.46l.5-.06a.55.55 0 0 0 .4-.94 2.32 2.32 0 0 0-1.76-.9.64.64 0 0 0-.5.3c-.3 1 0 1.44 1 1.57zm2.84-1.4c1.67-1.76 2.3-1.93 3.58-1a.8.8 0 0 1-1.28.34.5.5 0 0 0-.76 0 8.68 8.68 0 0 0-.94 1 .64.64 0 0 0-.08.38c0 .74 0 1.47.06 2.2 0 .13-.05.37-.1.38a.7.7 0 0 1-.5-.1 1.72 1.72 0 0 1-.54-.8 24.63 24.63 0 0 1-.27-2.7c0-.1.28-.28.44-.33s.23.2.3.3a1.22 1.22 0 0 1 .1.36z"/><path d="M42.35 13.92c1.54-.1 3.1-.13 4.32-1.2a12 12 0 0 0 4.73 1.82 4 4 0 0 1 .73.2.33.33 0 0 1 .2.25c0 .07-.14.16-.23.2a.5.5 0 0 1-.26 0l-3.68-.16a.7.7 0 0 1-.38-.13c-.18-.14-.22-.3.06-.43a3.06 3.06 0 0 0 .43-.26c0-.06-.1-.2-.13-.2a1.6 1.6 0 0 0-.63.06c-.13.07-.22.3-.34.44-.34 0-.8-.13-1 0-.92.65-1.8.27-2.68 0a6.1 6.1 0 0 1-1.16-.5s.03 0 .05-.08z" class="cls-2"/></svg>