<?xml version="1.0" encoding="utf-8"?>
<!-- Generator: Adobe Illustrator 25.0.0, SVG Export Plug-In . SVG Version: 6.00 Build 0)  -->
<svg version="1.1" id="Camada_1" xmlns="http://www.w3.org/2000/svg" xmlns:xlink="http://www.w3.org/1999/xlink" x="0px" y="0px"
	 viewBox="0 0 269.6 96.4" style="enable-background:new 0 0 269.6 96.4;" xml:space="preserve">
<style type="text/css">
	.st0{opacity:0;fill:#41FF03;}
	.st1{fill:#C1293B;}
	.st2{fill:#595959;}
</style>
<g>
	<g>
		<path class="st1" d="M182.3,37.5c0.3,0.5,0.8,0.6,1.3,0.8c0.7,0.3,1.4,0.6,2.1,0.8c0.1,0.1,0.3,0,0.5,0c0.3,0,0.5,0,0.8-0.1
			c0.2,0.5,0.4,0.9,0.5,1.4c0,0.1,0,0.3,0,0.5c-0.2,0.6-0.2,1.3-0.2,1.9c0,0.9-0.3,1.7-0.6,2.5c-1.6,3.9-3.3,7.7-4.9,11.6
			c-1.4,3.4-2.9,6.7-4.8,9.9c-0.6,1-1.3,2-2,2.9c-1.2,1.6-2.9,2.3-4.8,2.3c-1.9,0-3.9-0.1-5.8-0.2c-2.2,0-4.4-0.1-6.6-0.1
			c-8.6,0-17.1,0-25.7,0c-4.6,0-9.3-0.2-13.9-0.3c-3.6-0.1-7.3,0-10.9,0.3c-1.1,0.1-2.2,0.2-3.3,0c-1.1-0.2-1.6-0.6-1.9-1.8
			c-0.3-1.4-0.2-2.8,0.3-4.1c0.7-1.8,1.4-3.7,2.2-5.5c5.6-13.3,11-26.7,16.4-40.1c1.8-4.6,3.8-9,5.8-13.6c0.3-0.7,0.7-1.3,1-2
			c0.2-0.4,0.5-0.6,1-0.6c4.7-0.1,9.5-0.3,14.2-0.3c6.8,0,13.7,0,20.5,0c2.9,0,5.8,0.1,8.7,0.2c2.8,0.1,5.6,0.3,8.3,0.4
			c2.3,0.1,4.7,0.3,7,0.4c2,0.1,3.9,0.3,5.8,0.9c0.7,0.2,1.3,0.6,1.9,0.9c0.5,0.3,0.7,0.7,0.7,1.3c-0.1,5.8-0.9,11.5-2.9,16.9
			c-1.1,3.1-2.6,5.9-4.8,8.4c-1.5,1.7-3.3,3.2-5.5,4.1C182.6,37.4,182.5,37.4,182.3,37.5z M136.1,40.2c0,0.1,0,0.1,0,0.2
			c0.2,0.1,0.3,0.2,0.5,0.2c0.9,0.3,1.6,0.8,2.1,1.5c0.2,0.3,0.3,0.6,0.4,0.9c0,0.9,0.1,1.8,0.2,2.7c0.3,2.3-0.2,4.5-1.3,6.6
			c-0.7,1.3-1.3,2.6-2,3.8c-0.8,1.5-1.6,2.9-2.7,4.2c-0.4,0.4-0.7,0.9-0.9,1.5c-0.2,0.5-0.3,1.1-0.1,1.7c0.2,0,0.4,0,0.6,0
			c2.6-0.1,5.3-0.1,7.9-0.3c1.8-0.1,3.5-0.2,5.3-0.4c1.9-0.2,3.8-0.9,5.3-2.1c1.8-1.5,3.4-3.3,4.7-5.3c1.3-2.2,2.1-4.6,2.6-7.1
			c0.4-2,0.7-4.1,0.4-6.1c-0.1-0.8-0.4-1.4-0.8-2c-0.1-0.1-0.2-0.3-0.4-0.3c-1-0.3-2-0.7-3-0.9c-2.8-0.6-5.6-0.8-8.4-0.6
			c-1,0-2.1,0.1-3.1,0.2c-1.8,0.1-3.6,0.4-5.3,0.9C137.4,39.5,136.8,39.9,136.1,40.2z M139.5,11.6c0.3,0,0.7,0,1,0
			c1.7,0,3.4,0,5.1,0.3c1.6,0.3,2.8,1,3.6,2.4c0.5,1.1,1,2.2,1.1,3.5c0.1,0.9,0,1.7-0.2,2.6c-0.1,0.5-0.3,1.1-0.5,1.6
			c-0.9,2.1-1.7,4.3-2.6,6.4c-0.5,1.2-0.9,2.5-1.3,3.7c-0.1,0.3-0.1,0.6-0.1,0.9c0.3,0,0.6,0,0.8,0c1.5,0,3,0.1,4.5,0.1
			c1.9,0,3.7,0,5.6-0.1c1-0.1,1.9-0.3,2.9-0.6c1.6-0.5,2.7-1.6,3.7-2.9c2-2.5,3.6-5.3,4.8-8.3c0.6-1.5,1.1-3.1,1.4-4.8
			c0.2-1.2,0.1-2.3-0.3-3.4c-0.2-0.7-0.7-1.2-1.3-1.5c-0.3-0.1-0.6-0.3-1-0.5c0.3-0.7-0.1-0.9-0.6-1.2c-0.5-0.2-0.9-0.4-1.4-0.5
			c-3.3-0.9-6.8-1.3-10.2-1.6c-2.2-0.2-4.5,0.1-6.7,0.5c-2,0.3-4,0.6-6,0.5c-0.4,0-0.8,0-1.1,0.1c-0.7,0.1-1.1,0.5-1.2,1.1
			C139.4,10.3,139.3,10.9,139.5,11.6z"/>
		<path class="st1" d="M31.7,81.3c-0.8,0.7-0.9,0.7-0.9,1.8c0,0.7,0,1.4,0.2,2.1c0.2,1.1,1,1.7,2.1,1.8c3,0.2,6,0.3,9.1,0
			c1.9-0.2,3.9-0.4,5.8-0.7c1.6-0.2,2.7-1.1,3.3-2.7c0.2-0.7,0.5-1.3,0.7-2c0.3-0.8,0.7-1.7,1.1-2.5c0.2-0.4,0.4-0.9,0.6-1.3
			c0.8-2.8,2.1-5.4,3.2-8.1c2.8-6.9,5.6-13.8,8.5-20.6c2.3-5.6,4.6-11.1,6.9-16.7c1.1-2.6,2.3-5.2,3.4-7.9c0.4-0.9,0.6-1.8,1-2.7
			c0.1-0.2,0.1-0.4,0.2-0.6c6.3-0.1,12.5-0.1,18.8-0.2c0.1-0.3,0.1-0.5,0.2-0.9c-3.6-0.1-7.2-0.1-10.8-0.2c-0.2-0.6-0.4-1.1-0.5-1.7
			c-0.1-0.4-0.3-0.5-0.7-0.5c-0.5,0-1-0.1-1.5-0.2c-0.7-0.1-1-0.4-1-1c-0.1-2.7-0.2-5.3,0.6-7.9c0.8-2.8,2.5-4.9,5.1-6.3
			c1.9-1.1,4-1.8,6.2-2c5.1-0.6,10.1-0.3,15,1c1.1,0.3,2.3,0.8,3.4,1.3c0.6,0.3,1.2,0.7,1.8,1.1c0.5,0.4,0.9,0.8,1,1.4
			c0.1,0.5,0.3,0.9,0.5,1.3c0.3,0.7,0.4,1.5,0.1,2.2c-0.4,1.1-0.8,2.1-1.3,3.2c-2.9,7.1-5.9,14.3-8.8,21.4
			c-3.9,9.6-7.9,19.2-11.8,28.8c-2.5,5.9-5,11.8-7.5,17.7c-0.8,1.9-1.6,3.8-2.4,5.6c-1.4,2.9-3.3,5.4-5.8,7.5
			c-1.9,1.6-4,2.4-6.4,2.4c-8.2,0-16.4-0.1-24.6-0.1c-9.7,0-19.4-0.1-29.2-0.1c-2,0-4.1,0-6.1,0.1c-1.9,0.1-3.8,0-5.7,0.4
			c-0.2,0-0.3,0-0.5-0.1C3.2,95,2,94.1,1.3,92.8c-1.4-2.6-2-5.4-1.5-8.3c0.3-1.9,1.4-3.1,3.3-3.7c1.3-0.4,2.6-0.5,3.9-0.6
			c3.2-0.2,6.4-0.4,9.6-0.5c1.3-0.1,2.5-0.1,3.8-0.2c2.4-0.1,4.8-0.1,7.3-0.1c0.9,0,1.8,0.1,2.7,0.1c0.4,0,0.6,0.1,0.8,0.5
			C31.3,80.4,31.5,80.8,31.7,81.3z"/>
		<path class="st1" d="M202.9,66c1,1.1,2.2,1.5,3.6,1.1c0.4-0.1,0.7-0.3,1.1,0.1c0.1,0.1,0.2,0,0.3,0.1c1.8,0.1,3.5,0.2,5.3,0.3
			c2.1,0.1,4.2,0.3,6.3,0.4c2.2,0.1,4.4,0.3,6.6,0.3c1.3,0,2.6-0.2,3.9-0.4c0.5-0.1,1-0.3,1.5-0.5c1.1-0.5,1.6-1.4,1.7-2.6
			c0-0.9,0-1.7-0.1-2.6c0-1,0.1-2.1,0.5-3c0.3-0.6,0.6-1,1.3-1.1c1.4-0.2,2.7-0.5,4.1-0.6c2.6-0.2,5.3-0.2,7.9-0.3
			c1.4-0.1,2.8-0.2,4.2-0.3c2-0.2,3.9-0.3,5.9,0.1c0.7,0.1,1.3,0.4,1.9,0.9c0.5,0.4,0.8,1,0.7,1.7c-0.2,1.4-0.4,2.8-0.8,4.2
			c-1.1,3.3-3.3,5.5-6.5,6.9c-1.7,0.8-3.6,1.1-5.4,1.3c-4,0.4-8,0.2-12,0.1c-1.9,0-3.9,0-5.8-0.1c-6.4-0.1-12.9-0.2-19.3-0.3
			c-4.1,0-8.2,0.1-12.2,0.2c-1.6,0-3.2,0.2-4.8,0.3c-0.3,0-0.7-0.1-1-0.2c-2.6-1.4-3.7-3.6-3.3-6.6c0.2-1.1,0.5-2.1,0.9-3.1
			c3.2-6.8,5.9-13.8,8.8-20.7c4.3-10.3,8.5-20.6,12.8-31c0.3-0.6,0.6-1,1.2-1.2c1.1-0.3,2.1-0.6,3.2-0.7c4.1-0.4,8.1-0.4,12.2-0.4
			c1.7,0,3.4,0,5.1,0c0.3,0,0.7,0,1,0c1.7-0.1,2.1,0.7,2.5,2c0,0.2,0.1,0.3,0,0.5c-0.2,1.3-0.4,2.6-0.7,3.9
			c-0.2,0.8-0.4,1.6-0.7,2.4c-2.3,5.8-4.6,11.6-6.9,17.5c-3.3,8.3-6.7,16.4-10.2,24.6c-0.3,0.7-0.6,1.4-0.9,2.1
			c-0.5,1-1.3,1.7-2.4,1.9c-2,0.4-3.9,0.8-6,0.9c-1.1,0.1-2.2,0.2-3.3,0.4c-0.4,0.1-0.9,0.3-1.3,0.5C203.3,65.1,203.1,65.4,202.9,66
			z"/>
		<path class="st1" d="M221.4,95.7c0-0.2,0.1-0.4,0.1-0.6c1-3.4,2-6.8,3-10.2c0.5-1.6,0.9-2,2.6-1.9c0.7,0,1,0.3,1.2,0.9
			c0.2,0.7,0.3,1.5,0.4,2.3c0.4,2.5,0.8,5.1,1.2,7.6c0,0.2,0.1,0.3,0.1,0.5c0.1,0.4,0.3,0.6,0.7,0.6c0.4,0,0.7-0.1,0.8-0.4
			c0.1-0.2,0.2-0.5,0.3-0.7c0.9-3.2,1.8-6.3,2.8-9.5c0-0.1,0.1-0.3,0.1-0.4c0.2-0.7,0.4-0.8,1.3-0.6c0,0.2-0.1,0.4-0.1,0.6
			c-1,3.5-2,6.9-3.1,10.4c0,0,0,0,0,0.1c-0.4,1.6-1.7,1.8-3,1.5c-0.4-0.1-0.6-0.4-0.7-0.7c-0.1-0.6-0.3-1.2-0.4-1.8
			c-0.4-2.7-0.8-5.3-1.2-8c0-0.2-0.1-0.4-0.1-0.6c-0.1-0.6-0.3-0.7-0.8-0.7c-0.5,0-0.7,0.1-0.9,0.7c-0.4,1.2-0.7,2.5-1.1,3.7
			c-0.6,2.2-1.3,4.4-1.9,6.6C222.4,95.7,222.3,95.8,221.4,95.7z"/>
		<path class="st1" d="M121.7,83.2c-0.4,1.4-0.8,2.7-1.2,4c-0.7,2.3-1.3,4.5-2,6.8c0,0.1-0.1,0.2-0.1,0.3c-0.4,1.6-1.6,1.8-3,1.5
			c-0.5-0.1-0.7-0.5-0.8-0.9c-0.2-0.8-0.3-1.6-0.4-2.4c-0.4-2.5-0.8-5-1.2-7.5c0-0.2-0.1-0.4-0.2-0.6c-0.1-0.3-0.4-0.4-0.7-0.5
			c-0.3,0-0.6,0.1-0.8,0.4c-0.1,0.2-0.1,0.3-0.2,0.5c-1,3.4-2,6.8-3,10.1c-0.2,0.7-0.4,0.8-1.3,0.7c0-0.2,0.1-0.4,0.1-0.6
			c1-3.5,2-6.9,3-10.3c0.4-1.5,0.8-1.8,2.4-1.7c1,0,1.3,0.3,1.5,1.2c0.3,1.8,0.6,3.6,0.9,5.4c0.2,1.5,0.5,3,0.7,4.5
			c0.1,0.6,0.3,0.7,0.7,0.8c0.4,0.1,0.8-0.1,0.9-0.5c0.1-0.3,0.2-0.6,0.3-0.9c0.9-3.1,1.8-6.3,2.7-9.4c0-0.1,0-0.2,0.1-0.3
			C120.6,83.1,120.8,83,121.7,83.2z"/>
		<path class="st1" d="M159.4,95.7c0.3-1,0.6-2,0.9-3c0.8-2.6,1.5-5.2,2.3-7.8c0.5-1.7,0.9-2,2.6-1.9c0.7,0,1,0.2,1.2,0.9
			c0.2,0.8,0.3,1.6,0.4,2.3c0.4,2.6,0.8,5.1,1.2,7.7c0,0.3,0.1,0.6,0.3,0.8c0.4,0.4,1.1,0.2,1.3-0.3c0.2-0.3,0.3-0.7,0.4-1.1
			c0.9-3.1,1.8-6.1,2.7-9.2c0-0.1,0.1-0.2,0.1-0.3c0.2-0.7,0.4-0.8,1.2-0.6c0,0.2,0,0.3-0.1,0.5c-1,3.5-2.1,7.1-3.1,10.6
			c-0.5,1.6-1.7,1.8-3,1.5c-0.4-0.1-0.6-0.4-0.7-0.8c-0.1-0.6-0.3-1.2-0.4-1.8c-0.4-2.6-0.8-5.3-1.2-7.9c0-0.2-0.1-0.4-0.1-0.6
			c-0.1-0.5-0.3-0.7-0.8-0.7c-0.5,0-0.7,0.1-0.9,0.7c-0.5,1.7-1,3.5-1.5,5.2c-0.5,1.7-1,3.4-1.5,5.1
			C160.5,95.7,160.4,95.8,159.4,95.7z"/>
		<path class="st1" d="M211.7,96c-0.7-0.1-1.3-0.1-2-0.2c-1.6-0.3-2.4-1.3-2.4-2.9c0-2.7,0.8-5.1,2.3-7.4c1-1.5,2.5-2.3,4.3-2.5
			c1.3-0.2,2.5-0.2,3.7,0.1c1.5,0.4,2.2,1.2,2.2,2.7c0,2.8-0.8,5.3-2.4,7.6c-1.1,1.7-2.8,2.3-4.7,2.4
			C212.4,95.9,212.1,95.9,211.7,96C211.7,95.9,211.7,95.9,211.7,96z M218.6,86.5c0-0.1,0-0.2,0-0.3c0-1.4-0.5-1.9-1.8-2.1
			c-0.9-0.1-1.8-0.1-2.6-0.1c-1.7,0.1-2.9,0.9-3.8,2.4c-0.8,1.3-1.3,2.7-1.6,4.1c-0.1,0.6-0.2,1.1-0.2,1.7c-0.1,1.5,0.6,2.3,2.1,2.6
			c0.9,0.1,1.7,0.1,2.6,0c1.3-0.1,2.4-0.7,3.2-1.8C217.8,91,218.4,88.8,218.6,86.5z"/>
		<path class="st1" d="M156,95.6c-0.9,0.1-1.1,0-1.2-0.8c-0.1-1.1-0.2-2.1-0.3-3.2c0-0.1,0-0.3,0-0.4c-0.1-0.6-0.3-0.8-0.9-0.9
			c-0.4,0-0.9,0-1.3,0c-0.7,0-1.5,0-2.2,0c-0.7,0-0.9,0.1-1.1,0.8c-0.4,1.3-0.7,2.5-1.1,3.8c-0.3,0.9-0.3,0.9-1.4,0.8
			c0.5-2.1,1.2-4.2,1.8-6.3c0.6-2.1,1.2-4.2,1.8-6.3c2.2-0.1,4.4-0.3,6.5,0c0.2,0,0.4,0.1,0.6,0.1c0.8,0.3,1.2,0.7,1.2,1.6
			c0.1,1.6-0.5,2.9-1.6,4.1c-0.3,0.3-0.5,0.6-0.8,0.8c-0.4,0.4-0.6,0.8-0.5,1.3c0.1,1.1,0.2,2.2,0.4,3.4C156,94.9,156,95.3,156,95.6
			z M149.6,89.2c0.1,0.1,0.2,0.1,0.3,0.1c1.5,0,3,0,4.5,0c0.4,0,0.9-0.2,1.2-0.5c1-0.8,1.6-1.9,1.7-3.2c0.1-1-0.2-1.5-1.2-1.5
			c-1.4-0.1-2.9,0-4.3-0.1c-0.5,0-0.7,0.3-0.8,0.7c-0.4,1.3-0.7,2.5-1.1,3.8C149.7,88.7,149.6,89,149.6,89.2z"/>
		<path class="st1" d="M247.5,95.6c-0.9,0.2-1.1,0.1-1.1-0.7c0-1.1,0-2.2-0.1-3.3c0-0.6-0.1-0.8-0.8-0.8c-1.7,0-3.5,0-5.3,0
			c-0.6,0-0.9,0.3-1.1,0.8c-0.7,1.1-1.4,2.3-2.1,3.4c-0.4,0.6-0.8,0.9-1.6,0.7c0.1-0.3,0.2-0.5,0.3-0.7c1.9-3.2,3.9-6.4,5.9-9.6
			c0.3-0.5,0.6-0.9,1-1.4c0.4-0.5,0.9-0.9,1.5-1c0.7-0.1,1.4-0.1,2.1,0c0.6,0.1,1,0.5,1.1,1.2c0.1,0.5,0.1,1,0.1,1.5
			c0,3.1,0,6.1,0.1,9.2C247.5,95.1,247.5,95.4,247.5,95.6z M240.4,89.7c0.3,0.1,0.5,0.2,0.7,0.2c1.4,0,2.8,0,4.2,0
			c0.8,0,1-0.2,1-0.9c0-1.3,0-2.5-0.1-3.8c0-0.9-0.4-1.2-1.3-1.1c-0.7,0-1.4,0.3-1.8,0.9c-0.9,1.4-1.7,2.7-2.5,4.1
			C240.6,89.2,240.5,89.4,240.4,89.7z"/>
		<path class="st1" d="M173.4,95.6c0.2-0.3,0.3-0.6,0.5-0.9c1.8-3,3.6-6,5.5-9c0.4-0.6,0.8-1.2,1.3-1.8c0.3-0.5,0.8-0.8,1.4-0.9
			c0.7-0.1,1.5-0.1,2.2-0.1c0.6,0,1,0.5,1.1,1.1c0.1,0.5,0.1,1,0.1,1.5c0,3.1,0,6.1,0.1,9.2c0,0.3,0,0.6,0,0.8
			c-0.9,0.2-1.1,0.1-1.1-0.7c0-1.1,0-2.1-0.1-3.2c0-0.8-0.1-0.9-1-1c-1.6,0-3.2,0-4.7,0c-0.7,0-1.1,0.3-1.5,0.8
			c-0.7,1.1-1.4,2.3-2.1,3.4C174.7,95.7,174.4,95.8,173.4,95.6z M178.5,89.7c0.3,0.1,0.5,0.1,0.7,0.1c1.4,0,2.9,0,4.3,0
			c0.7,0,0.9-0.2,0.9-0.9c0-0.9,0-1.8,0-2.7c0-0.4,0-0.9-0.1-1.3c-0.1-0.6-0.3-0.8-0.9-0.9c-0.2,0-0.4,0-0.6,0c-0.7,0-1.3,0.5-1.6,1
			c-0.8,1.3-1.6,2.6-2.4,3.9C178.7,89.1,178.6,89.4,178.5,89.7z"/>
		<path class="st1" d="M137.4,88.8c2.3,0.1,4.5,0,6.7,0.1c-0.2,0.7-0.4,0.9-0.9,1c-0.6,0-1.2,0-1.7,0c-1.2,0-2.5,0-3.7,0
			c-0.6,0-0.7,0.1-0.8,0.6c-0.4,1.2-0.7,2.4-1,3.6c0,0.2,0,0.3,0,0.6c0.3,0,0.7,0.1,1,0.1c1.7,0,3.3,0,5-0.1c0.5,0,0.9,0,1.4,0
			c0,0.6-0.3,0.9-0.8,1c-0.2,0-0.4,0-0.6,0c-2.2,0-4.5,0-6.7,0c-0.1,0-0.2,0-0.4,0c-0.3,0-0.4-0.2-0.4-0.5c0-0.1,0.1-0.3,0.1-0.4
			c1.1-3.7,2.1-7.3,3.2-11c0.2-0.8,0.2-0.8,1-0.8c2.3,0,4.6,0,6.9,0c0.6,0,0.7,0.2,0.7,1c-0.3,0-0.5,0-0.8,0c-2,0-3.9,0-5.9,0
			c-0.8,0-0.9,0.1-1.1,0.9c-0.3,1-0.6,2.1-0.9,3.1C137.4,88.2,137.4,88.4,137.4,88.8z"/>
		<path class="st1" d="M201,84.1c-1.4-0.1-2.7-0.1-4-0.2c-0.4,0-0.9,0.1-1.3,0.1c-1.5,0.2-2.6,0.9-3.5,2.2c-1.2,1.8-1.8,3.8-2,5.9
			c0,0.4,0,0.8,0.1,1.1c0.1,0.5,0.4,0.9,0.9,1.1c0.6,0.2,1.2,0.4,1.8,0.4c1.5,0.1,3,0,4.4-0.2c0.1,0,0.3,0,0.5,0
			c-0.1,0.6-0.5,0.9-1,1c-0.5,0.1-1,0.2-1.6,0.2c-1.4,0.1-2.8,0.2-4.1-0.2c-1.5-0.4-2.2-1.2-2.2-2.8c0-2.7,0.8-5.1,2.3-7.4
			c1.1-1.6,2.7-2.3,4.5-2.5c1.3-0.2,2.6-0.1,4,0c0.2,0,0.5,0.1,0.7,0.2C200.9,83.3,201.1,83.6,201,84.1z"/>
		<path class="st1" d="M126.6,95.7c-0.4,0-0.7,0-1.1,0c0.1-0.3,0.1-0.5,0.2-0.8c0.9-3.2,1.9-6.4,2.8-9.6c0.4-1.2,0.3-1.4-1-1.4
			c-0.9,0-1.8,0-2.7,0c-0.2,0-0.5,0-0.7,0c0.1-0.5,0.3-0.8,0.9-0.9c0.2,0,0.4,0,0.6,0c3,0,5.9,0,8.9,0c0.2,0,0.5,0,0.7,0
			c-0.1,0.7-0.2,0.9-0.8,0.9c-0.8,0-1.7,0-2.5,0c-0.2,0-0.4,0-0.6,0c-1,0-1.2,0.2-1.5,1.1c-0.7,2.4-1.4,4.7-2.1,7.1
			C127.3,93.4,127,94.5,126.6,95.7z"/>
		<path class="st1" d="M259.8,94.7c-0.2,0.5-0.4,0.9-0.9,1c-0.3,0.1-0.6,0.1-0.9,0.1c-2.2,0-4.5,0-6.7,0c-0.1,0-0.2,0-0.4,0
			c-0.3,0-0.4-0.2-0.3-0.4c0-0.1,0.1-0.3,0.1-0.4c1.1-3.7,2.2-7.4,3.3-11.1c0.2-0.8,0.3-0.9,1.3-0.6c-0.1,0.3-0.1,0.5-0.2,0.8
			c-0.9,3.2-1.9,6.4-2.8,9.6c-0.3,1.1-0.3,1.2,0.9,1.2c1.7,0,3.4-0.1,5-0.1C258.7,94.7,259.2,94.7,259.8,94.7z"/>
		<path class="st1" d="M106.2,83.1c-0.1,0.4-0.2,0.7-0.3,1c-1.1,3.6-2.1,7.2-3.2,10.8c-0.2,0.8-0.3,0.9-1.3,0.7
			c0.1-0.2,0.1-0.5,0.2-0.7c1.1-3.7,2.1-7.4,3.2-11C105,83,105.1,82.9,106.2,83.1z"/>
		<path class="st1" d="M205.8,83.1c-0.1,0.3-0.1,0.5-0.2,0.7c-1.1,3.7-2.2,7.4-3.2,11c-0.3,0.9-0.3,0.9-1.4,0.8
			c0.1-0.2,0.1-0.5,0.2-0.7c1.1-3.7,2.2-7.4,3.2-11.1C204.7,83,204.8,83,205.8,83.1z"/>
	</g>
</g>
</svg>
