<?xml version="1.0" encoding="utf-8"?>
<!-- Generator: Adobe Illustrator 24.2.3, SVG Export Plug-In . SVG Version: 6.00 Build 0)  -->
<svg version="1.1" id="Camada_1" xmlns="http://www.w3.org/2000/svg" xmlns:xlink="http://www.w3.org/1999/xlink" x="0px" y="0px"
	 viewBox="0 0 675 301" style="enable-background:new 0 0 675 301;" xml:space="preserve">
<style type="text/css">
	.st0{fill:#B51E1C;}
	.st1{fill:#FFFFFF;}
	.st2{fill:#4B4B4B;}
</style>
<g>
	<g>
		<rect y="-55" class="st0" width="133.2" height="32"/>
	</g>
</g>
<text transform="matrix(1.0061 0 0 1 -167.0654 -34.4019)" class="st1" style="font-family:'CircularStd-Book'; font-size:21px; letter-spacing:4;">Altura 32</text>
<text transform="matrix(1.0061 0 0 1 -148.6426 155.1606)" class="st1" style="font-family:'CircularStd-Book'; font-size:21px; letter-spacing:4;">675x301</text>
<text transform="matrix(1.0061 0 0 1 -94.5859 481.1973)" class="st1" style="font-family:'CircularStd-Book'; font-size:21px; letter-spacing:4;">svg</text>
<text transform="matrix(1.0061 0 0 1 -118.2842 344.6504)" class="st1" style="font-family:'CircularStd-Book'; font-size:21px; letter-spacing:4;">72x32</text>
<g>
	
		<text transform="matrix(1.0061 0 0 1 -118.2832 390.3555)" class="st1" style="font-family:'CircularStd-Book'; font-size:21px; letter-spacing:4;">72x32</text>
	
		<text transform="matrix(1.0061 0 0 1 -171.249 409.0234)" class="st1" style="font-family:'CircularStd-Book'; font-size:21px; letter-spacing:4;">grayscale</text>
</g>
<path d="M1018.2,341.1c0.1-0.2,0.3-0.4,0.4-0.5c0,0.1,0,0.2-0.1,0.3c-0.1,0.1-0.3,0.1-0.4,0.2C1018.1,341,1018.2,341.1,1018.2,341.1
	z"/>
<path d="M1003.2,345.1C1003.2,345,1003.1,345,1003.2,345.1L1003.2,345.1z"/>
<g>
	<g>
		<path class="st1" d="M14.9-48.4v16h9.2v3.6H10.7v-19.6H14.9z"/>
	</g>
	<g>
		<path class="st1" d="M30.6-48.4v19.6h-4.2v-19.6H30.6z"/>
	</g>
	<g>
		<path class="st1" d="M44.5-48.4c0.8,0,1.6,0.1,2.3,0.4c0.7,0.3,1.3,0.7,1.8,1.2c0.5,0.5,0.9,1.1,1.1,1.7c0.3,0.7,0.4,1.4,0.4,2.1
			c0,1.2-0.2,2.2-0.7,3c-0.5,0.8-1.2,1.5-2.3,1.9v0.1c0.5,0.1,0.9,0.4,1.3,0.7c0.3,0.3,0.6,0.7,0.8,1.1c0.2,0.4,0.4,0.9,0.5,1.4
			c0.1,0.5,0.2,1,0.2,1.5c0,0.3,0,0.7,0.1,1.1c0,0.4,0,0.9,0.1,1.3c0,0.4,0.1,0.9,0.2,1.2c0.1,0.4,0.2,0.7,0.4,1h-4.2
			c-0.2-0.6-0.4-1.4-0.4-2.2c-0.1-0.9-0.1-1.7-0.2-2.5c-0.1-1-0.4-1.8-0.9-2.3c-0.5-0.5-1.2-0.7-2.3-0.7h-4.2v7.7h-4.2v-19.6H44.5z
			 M43-39.5c1,0,1.7-0.2,2.2-0.7c0.5-0.4,0.7-1.2,0.7-2.1c0-1-0.2-1.6-0.7-2.1C44.7-44.8,44-45,43-45h-4.6v5.5H43z"/>
	</g>
	<g>
		<path class="st1" d="M62.9-48.4L70-28.8h-4.3l-1.4-4.4h-7.1l-1.5,4.4h-4.2l7.2-19.6H62.9z M63.1-36.3l-2.4-7.2h-0.1l-2.5,7.2H63.1
			z"/>
	</g>
	<g>
		<path class="st1" d="M80.8-28.5h-9.4v-20.1h9.2c0.9,0,1.8,0.1,2.5,0.3c0.8,0.2,1.4,0.5,2,0.8c0.6,0.4,1,0.9,1.3,1.6
			c0.3,0.7,0.5,1.5,0.5,2.4c0,1-0.2,1.9-0.7,2.6c-0.4,0.6-0.9,1-1.5,1.4c1,0.4,1.7,1,2.2,1.7c0.6,0.9,0.9,2,0.9,3.3
			c0,1-0.2,1.9-0.6,2.7c-0.4,0.8-0.9,1.4-1.6,1.9c-0.6,0.5-1.4,0.8-2.2,1.1C82.5-28.6,81.7-28.5,80.8-28.5z M71.9-29h9
			c0.8,0,1.6-0.1,2.4-0.3c0.8-0.2,1.5-0.5,2.1-1c0.6-0.4,1.1-1,1.4-1.7c0.4-0.7,0.5-1.5,0.5-2.5c0-1.2-0.3-2.2-0.8-3
			c-0.5-0.8-1.4-1.4-2.5-1.7l-0.6-0.2l0.5-0.3c0.8-0.4,1.4-0.9,1.8-1.5c0.4-0.6,0.6-1.4,0.6-2.3c0-0.9-0.1-1.6-0.4-2.2
			c-0.3-0.6-0.7-1.1-1.2-1.4c-0.5-0.4-1.1-0.6-1.8-0.8c-0.7-0.2-1.5-0.2-2.4-0.2h-8.7V-29z M80.3-31.9h-4.7v-5.8h4.8
			c1,0,1.7,0.2,2.3,0.7c0.6,0.5,0.9,1.3,0.9,2.3c0,0.5-0.1,1-0.3,1.4c-0.2,0.4-0.4,0.7-0.8,0.9c-0.3,0.2-0.7,0.4-1.1,0.4
			C81.1-31.9,80.7-31.9,80.3-31.9z M76-32.3h4.2c0.4,0,0.8,0,1.1-0.1c0.3-0.1,0.6-0.2,0.9-0.4c0.2-0.2,0.5-0.4,0.6-0.7
			c0.2-0.3,0.2-0.7,0.2-1.2c0-0.9-0.2-1.6-0.7-2c-0.5-0.4-1.2-0.6-2-0.6H76V-32.3z M80-40.2h-4.5v-5.1h4.1c0.4,0,0.8,0,1.1,0.1
			c0.4,0.1,0.7,0.2,1,0.4c0.3,0.2,0.5,0.4,0.7,0.8c0.2,0.3,0.3,0.7,0.3,1.2c0,0.9-0.3,1.6-0.8,2C81.5-40.4,80.8-40.2,80-40.2z
			 M76-40.7h4c0.7,0,1.3-0.2,1.7-0.5c0.4-0.3,0.6-0.8,0.6-1.6c0-0.4-0.1-0.8-0.2-1c-0.1-0.3-0.3-0.5-0.6-0.6
			c-0.2-0.1-0.5-0.3-0.8-0.3c-0.3-0.1-0.7-0.1-1-0.1H76V-40.7z"/>
	</g>
	<g>
		<path class="st1" d="M98.3-28.1c-2.6,0-4.7-0.7-6.1-2c-1.5-1.3-2.2-3.4-2.2-6.1v-12.4h4.6v12.4c0,0.5,0,1,0.1,1.5
			c0.1,0.5,0.3,0.9,0.5,1.3c0.3,0.4,0.6,0.7,1.1,0.9c0.5,0.2,1.1,0.3,1.9,0.3c1.4,0,2.4-0.3,2.9-0.9c0.5-0.6,0.8-1.7,0.8-3.1v-12.4
			h4.6v12.4c0,2.7-0.7,4.8-2.2,6.1l0,0C103-28.8,100.9-28.1,98.3-28.1z M90.5-48.1v12c0,2.6,0.7,4.5,2,5.8c1.4,1.2,3.3,1.9,5.8,1.9
			c2.5,0,4.4-0.6,5.8-1.9c1.4-1.2,2.1-3.2,2.1-5.7v-12h-3.7v12c0,1.5-0.3,2.6-0.9,3.4c-0.6,0.7-1.7,1.1-3.3,1.1
			c-0.9,0-1.6-0.1-2.1-0.4c-0.5-0.3-1-0.6-1.3-1c-0.3-0.4-0.5-0.9-0.6-1.5c-0.1-0.5-0.1-1.1-0.1-1.6v-12H90.5z"/>
	</g>
	<g>
		<path class="st1" d="M116.9-28.1c-1.1,0-2.1-0.1-3.1-0.4c-1-0.3-1.9-0.7-2.7-1.3c-0.8-0.6-1.4-1.3-1.9-2.3c-0.5-0.9-0.7-2-0.7-3.2
			l0-0.2h4.5v0.2c0,0.6,0.1,1.1,0.3,1.6l0,0c0.2,0.4,0.5,0.8,0.8,1c0.4,0.3,0.8,0.5,1.3,0.6c0.8,0.2,1.7,0.3,2.7,0.1
			c0.4-0.1,0.8-0.2,1.1-0.3c0.3-0.2,0.6-0.4,0.8-0.7c0.2-0.3,0.3-0.6,0.3-1.1c0-0.5-0.1-0.8-0.4-1.1c-0.3-0.3-0.7-0.6-1.2-0.8
			c-0.5-0.2-1.1-0.4-1.8-0.6c-0.7-0.2-1.4-0.4-2.1-0.6c-0.7-0.2-1.4-0.4-2.1-0.7c-0.7-0.3-1.3-0.6-1.9-1.1c-0.6-0.4-1-1-1.3-1.7
			c-0.3-0.7-0.5-1.5-0.5-2.4c0-1,0.2-2,0.7-2.7c0.4-0.8,1-1.4,1.7-1.9c0.7-0.5,1.5-0.9,2.4-1.1c1.9-0.5,3.8-0.4,5.5,0
			c0.9,0.2,1.8,0.6,2.5,1.1c0.7,0.5,1.3,1.2,1.8,2c0.4,0.8,0.7,1.8,0.7,3v0.2h-4.5l0-0.2c0-0.6-0.1-1-0.3-1.4
			c-0.2-0.3-0.4-0.6-0.7-0.8c-0.3-0.2-0.7-0.3-1.1-0.4c-0.7-0.1-1.5-0.2-2.3,0c-0.3,0.1-0.6,0.2-0.8,0.4c-0.2,0.2-0.5,0.4-0.6,0.6
			c-0.2,0.2-0.2,0.5-0.2,0.9c0,0.3,0.1,0.6,0.2,0.8c0.1,0.2,0.4,0.4,0.7,0.6c0.4,0.2,1,0.4,1.7,0.6c0.7,0.2,1.7,0.5,2.9,0.8
			c0.3,0.1,0.9,0.2,1.5,0.4c0.6,0.2,1.3,0.5,1.9,1c0.6,0.4,1.2,1,1.7,1.8c0.5,0.7,0.7,1.7,0.7,2.8c0,0.9-0.2,1.8-0.5,2.6
			c-0.3,0.8-0.9,1.5-1.6,2.1c-0.7,0.6-1.5,1-2.5,1.3C119.4-28.3,118.2-28.1,116.9-28.1z M109-35c0,1.1,0.2,2,0.6,2.8
			c0.4,0.8,1,1.5,1.7,2.1c0.7,0.5,1.6,1,2.5,1.2c1,0.3,2,0.4,3,0.4c1.3,0,2.4-0.2,3.3-0.5c0.9-0.3,1.8-0.7,2.4-1.3
			c0.6-0.5,1.1-1.2,1.4-1.9c0.3-0.7,0.5-1.5,0.5-2.4c0-1-0.2-1.9-0.6-2.6c-0.4-0.7-1-1.2-1.5-1.6c-0.6-0.4-1.2-0.7-1.8-0.9
			c-0.6-0.2-1.1-0.3-1.5-0.4c-1.2-0.3-2.2-0.6-2.9-0.8c-0.7-0.2-1.3-0.4-1.8-0.6c-0.5-0.2-0.8-0.5-0.9-0.7c-0.2-0.3-0.2-0.6-0.2-1.1
			c0-0.5,0.1-0.9,0.3-1.2c0.2-0.3,0.4-0.6,0.7-0.8c0.3-0.2,0.6-0.3,1-0.4c0.9-0.2,1.8-0.1,2.5,0c0.5,0.1,0.9,0.3,1.2,0.5
			c0.4,0.2,0.7,0.6,0.9,1c0.2,0.4,0.3,0.8,0.4,1.3h3.6c0-1-0.2-1.9-0.6-2.6c-0.4-0.8-0.9-1.4-1.6-1.9c-0.7-0.5-1.5-0.9-2.3-1.1
			c-1.6-0.4-3.5-0.5-5.3,0c-0.8,0.2-1.6,0.6-2.2,1.1c-0.6,0.5-1.2,1.1-1.6,1.8c-0.4,0.7-0.6,1.5-0.6,2.5c0,0.9,0.2,1.6,0.5,2.2
			c0.3,0.6,0.7,1.1,1.2,1.5c0.5,0.4,1.1,0.7,1.7,1c0.7,0.3,1.4,0.5,2,0.7c0.7,0.2,1.4,0.4,2,0.5c0.7,0.2,1.3,0.4,1.8,0.6
			c0.6,0.2,1,0.5,1.4,0.9c0.4,0.4,0.6,0.9,0.6,1.5c0,0.5-0.1,1-0.4,1.4c-0.3,0.3-0.6,0.6-1,0.8c-0.4,0.2-0.8,0.3-1.3,0.4
			c-1.1,0.2-2,0.1-2.9-0.1c-0.5-0.1-1-0.4-1.4-0.7c-0.4-0.3-0.7-0.7-1-1.2c-0.2-0.4-0.3-1-0.4-1.5H109z"/>
	</g>
</g>
<g>
	<g>
		<rect x="-1.1" y="67.7" class="st0" width="676.1" height="162.5"/>
	</g>
</g>
<g>
	<g>
		<path class="st1" d="M74.5,101.4v81.2h46.9v18.4H53.3v-99.6H74.5z"/>
	</g>
	<g>
		<path class="st1" d="M154.4,101.4v99.6h-21.2v-99.6H154.4z"/>
	</g>
	<g>
		<path class="st1" d="M224.9,101.4c4.3,0,8.2,0.7,11.7,2.2c3.5,1.4,6.4,3.4,8.9,5.9c2.5,2.5,4.4,5.4,5.7,8.7c1.3,3.3,2,6.9,2,10.7
			c0,5.9-1.2,10.9-3.6,15.2c-2.4,4.3-6.3,7.5-11.7,9.8v0.3c2.6,0.7,4.8,1.9,6.5,3.4c1.7,1.5,3.1,3.3,4.2,5.4
			c1.1,2.1,1.9,4.4,2.4,6.9c0.5,2.5,0.8,5,1,7.5c0.1,1.6,0.2,3.4,0.3,5.6c0.1,2.1,0.2,4.3,0.5,6.6c0.2,2.2,0.6,4.3,1.1,6.3
			c0.5,2,1.2,3.7,2.2,5.1h-21.2c-1.2-3.2-1.9-6.9-2.2-11.3c-0.3-4.4-0.7-8.6-1.2-12.5c-0.7-5.2-2.2-9-4.6-11.4
			c-2.3-2.4-6.2-3.6-11.5-3.6h-21.2v38.9H173v-99.6H224.9z M217.3,146.4c4.9,0,8.5-1.1,10.9-3.3c2.4-2.2,3.6-5.9,3.6-10.9
			c0-4.8-1.2-8.3-3.6-10.5c-2.4-2.2-6.1-3.3-10.9-3.3h-23.2v28H217.3z"/>
	</g>
	<g>
		<path class="st1" d="M318.3,101.4l36,99.6h-22l-7.3-22.2h-36l-7.5,22.2h-21.3l36.4-99.6H318.3z M319.5,162.4l-12.1-36.5h-0.3
			l-12.5,36.5H319.5z"/>
	</g>
	<g>
		<path class="st1" d="M409.2,202.1h-47.8V100.2h46.5c4.6,0,9,0.4,12.8,1.3c3.9,0.9,7.3,2.3,10.1,4.3c2.9,2,5.1,4.7,6.7,8.1
			c1.5,3.3,2.3,7.4,2.3,12.2c0,5.2-1.2,9.7-3.5,13.2c-1.9,2.9-4.5,5.3-7.8,7.3c4.9,1.9,8.7,4.9,11.4,8.9c3,4.6,4.6,10.2,4.6,16.6
			c0,5.2-1,9.8-3,13.6c-2,3.8-4.6,7-8,9.4c-3.3,2.4-7.1,4.2-11.3,5.3C418,201.5,413.6,202.1,409.2,202.1z M363.8,199.7h45.5
			c4.2,0,8.3-0.5,12.3-1.6c3.9-1.1,7.5-2.7,10.5-5c3-2.2,5.5-5.1,7.3-8.6c1.8-3.5,2.7-7.7,2.7-12.5c0-6-1.4-11.1-4.2-15.3
			c-2.8-4.2-7-7.1-12.6-8.8l-2.9-0.9l2.7-1.3c4.1-2,7.2-4.7,9.3-7.8c2.1-3.1,3.1-7.1,3.1-11.9c0-4.5-0.7-8.2-2.1-11.2
			c-1.4-3-3.4-5.4-5.9-7.1c-2.6-1.8-5.7-3.1-9.3-3.9c-3.7-0.8-7.8-1.2-12.3-1.2h-44.1V199.7z M406.4,185.1h-23.8v-29.7h24.2
			c4.8,0,8.8,1.2,11.8,3.5c3.1,2.4,4.6,6.4,4.6,11.9c0,2.8-0.5,5.1-1.4,7c-0.9,1.8-2.2,3.3-3.8,4.4c-1.6,1.1-3.4,1.8-5.4,2.3
			C410.6,184.9,408.6,185.1,406.4,185.1z M385,182.7h21.5c2,0,3.9-0.2,5.7-0.6c1.7-0.4,3.3-1,4.6-1.9c1.3-0.9,2.3-2,3.1-3.5
			c0.8-1.5,1.2-3.5,1.2-5.9c0-4.7-1.3-8.1-3.7-10c-2.6-2-6-3-10.3-3H385V182.7z M405.2,142.8h-22.6v-25.6h21c1.9,0,3.9,0.2,5.7,0.5
			c1.9,0.4,3.6,1,5.1,1.9c1.5,0.9,2.7,2.3,3.6,3.9c0.9,1.7,1.4,3.8,1.4,6.3c0,4.6-1.4,7.9-4.1,10
			C412.6,141.8,409.2,142.8,405.2,142.8z M385,140.5h20.2c3.5,0,6.4-0.9,8.6-2.5c2.1-1.6,3.2-4.3,3.2-8.1c0-2.1-0.4-3.8-1.1-5.2
			c-0.7-1.3-1.6-2.3-2.8-3c-1.2-0.8-2.6-1.3-4.2-1.6c-1.7-0.3-3.4-0.5-5.2-0.5H385V140.5z"/>
	</g>
	<g>
		<path class="st1" d="M498.1,204.3c-13.3,0-23.7-3.4-31.1-10.1c-7.4-6.7-11.1-17.1-11.1-31v-63.1h23.5v63.1c0,2.6,0.2,5.2,0.7,7.7
			c0.4,2.4,1.3,4.6,2.6,6.4c1.3,1.8,3.2,3.3,5.6,4.5c2.4,1.2,5.7,1.8,9.8,1.8c7.1,0,12.1-1.6,14.7-4.8c2.7-3.3,4-8.5,4-15.6v-63.1
			h23.5v63.1c0,13.8-3.8,24.2-11.3,30.9l0,0C521.6,200.9,511.2,204.3,498.1,204.3z M458.3,102.5v60.7c0,13.2,3.5,23,10.3,29.2
			c6.9,6.3,16.8,9.5,29.5,9.5c12.5,0,22.4-3.2,29.4-9.5c7-6.3,10.5-16.1,10.5-29.2v-60.7h-18.8v60.7c0,7.7-1.5,13.4-4.6,17.1
			c-3.1,3.8-8.7,5.7-16.5,5.7c-4.5,0-8.1-0.7-10.8-2c-2.7-1.3-4.9-3.1-6.4-5.3c-1.5-2.1-2.6-4.6-3-7.4c-0.5-2.6-0.7-5.4-0.7-8.1
			v-60.7H458.3z"/>
	</g>
	<g>
		<path class="st1" d="M592.3,204.3c-5.4,0-10.7-0.7-15.7-2.1c-5.1-1.4-9.7-3.6-13.6-6.5c-3.9-3-7.1-6.8-9.4-11.4
			c-2.3-4.6-3.5-10.1-3.4-16.4l0-1.2H573v1.2c0,3.1,0.5,5.8,1.6,8l0,0c1.1,2.1,2.5,3.9,4.3,5.2c1.8,1.3,4,2.4,6.4,3
			c4.2,1.1,8.5,1.3,13.7,0.5c2-0.3,4-0.9,5.7-1.8c1.7-0.8,3.2-2,4.3-3.5c1.1-1.4,1.6-3.3,1.6-5.5c0-2.4-0.7-4.3-2.1-5.7
			c-1.5-1.6-3.6-2.9-6.2-3.9c-2.6-1.1-5.7-2.1-9-2.9c-3.4-0.8-6.9-1.8-10.4-2.8c-3.6-0.9-7.2-2.1-10.6-3.5c-3.5-1.4-6.7-3.2-9.5-5.4
			c-2.8-2.2-5.1-5.1-6.9-8.4c-1.7-3.4-2.6-7.5-2.6-12.2c0-5.3,1.1-10,3.3-13.9c2.2-3.9,5.1-7.2,8.6-9.8c3.5-2.6,7.5-4.5,12-5.8
			c9.5-2.7,19.3-2.3,28-0.1c4.7,1.2,9,3.2,12.7,5.8c3.7,2.7,6.7,6.2,8.9,10.4c2.2,4.2,3.3,9.3,3.3,15.3v1.2h-22.8l-0.1-1.1
			c-0.2-2.8-0.7-5.1-1.7-6.9c-0.9-1.8-2.2-3.2-3.7-4.2c-1.6-1-3.4-1.8-5.5-2.2c-3.5-0.7-7.7-1-11.8-0.1c-1.6,0.3-3,0.9-4.2,1.8
			c-1.3,0.8-2.3,1.9-3.1,3.1c-0.8,1.2-1.2,2.8-1.2,4.7c0,1.7,0.3,3.1,0.9,4.1c0.6,1,1.9,2,3.7,2.9c2,1,4.9,2,8.6,3
			c3.7,1,8.6,2.3,14.6,3.9c1.8,0.4,4.3,1.1,7.5,2c3.3,1,6.6,2.6,9.8,4.8c3.3,2.2,6.1,5.2,8.5,8.9c2.4,3.8,3.6,8.6,3.6,14.4
			c0,4.7-0.9,9.1-2.7,13.2c-1.8,4.1-4.4,7.6-7.9,10.5c-3.5,2.9-7.8,5.2-12.9,6.8C604.9,203.5,598.9,204.3,592.3,204.3z M552.5,169
			c0.1,5.4,1.1,10.2,3.1,14.2c2.2,4.3,5.1,7.8,8.8,10.6c3.7,2.8,8,4.8,12.8,6.1c4.9,1.3,10,2,15.1,2c6.4,0,12.1-0.8,17-2.3
			c4.8-1.5,8.9-3.7,12.1-6.4c3.2-2.7,5.7-6,7.3-9.7c1.6-3.7,2.5-7.8,2.5-12.2c0-5.3-1.1-9.7-3.3-13.1c-2.2-3.4-4.8-6.2-7.8-8.2
			c-3-2.1-6.1-3.6-9.2-4.5c-3.1-1-5.6-1.6-7.4-2c-6.1-1.6-11-2.9-14.7-3.9c-3.8-1-6.8-2.1-9-3.1c-2.3-1.1-3.9-2.4-4.7-3.8
			c-0.8-1.4-1.2-3.2-1.2-5.3c0-2.4,0.5-4.4,1.5-5.9c1-1.5,2.2-2.8,3.8-3.8c1.5-1,3.2-1.7,5.1-2.1c4.5-1,9-0.7,12.8,0.1
			c2.3,0.5,4.4,1.3,6.3,2.5c1.9,1.2,3.4,2.9,4.5,5c1,1.8,1.6,4.1,1.9,6.8h18.2c-0.1-5-1.1-9.4-3-13c-2-3.9-4.8-7.1-8.2-9.6
			c-3.5-2.5-7.5-4.3-11.9-5.5c-8.4-2.1-17.7-2.5-26.8,0.1c-4.2,1.2-7.9,3-11.2,5.4c-3.3,2.4-5.9,5.4-8,9c-2,3.6-3,7.9-3,12.7
			c0,4.3,0.8,8.1,2.4,11.1c1.6,3,3.7,5.6,6.2,7.6c2.6,2.1,5.6,3.8,8.9,5.1c3.4,1.3,6.9,2.5,10.4,3.4c3.5,1,7,2,10.4,2.8
			c3.5,0.8,6.6,1.9,9.3,3c2.8,1.2,5.2,2.7,6.9,4.4c1.9,1.9,2.8,4.4,2.8,7.4c0,2.8-0.7,5.1-2.1,6.9c-1.4,1.8-3.1,3.2-5.1,4.2
			c-2,1-4.1,1.6-6.4,2c-5.5,0.8-10.1,0.6-14.6-0.6c-2.7-0.7-5.2-1.9-7.2-3.4c-2.1-1.5-3.8-3.6-5-6.1c-1.1-2.2-1.7-4.8-1.9-7.9H552.5
			z"/>
	</g>
</g>
<g>
	<g>
		<rect x="0" y="449.1" width="400" height="96.2"/>
	</g>
</g>
<g>
	<g>
		<path class="st1" d="M44.7,469v48h27.7v10.9H32.2V469H44.7z"/>
	</g>
	<g>
		<path class="st1" d="M92,469v58.9H79.5V469H92z"/>
	</g>
	<g>
		<path class="st1" d="M133.7,469c2.6,0,4.8,0.4,6.9,1.3c2,0.9,3.8,2,5.3,3.5c1.5,1.5,2.6,3.2,3.3,5.2c0.8,2,1.2,4.1,1.2,6.3
			c0,3.5-0.7,6.5-2.1,9c-1.4,2.5-3.7,4.5-6.9,5.8v0.2c1.5,0.4,2.8,1.1,3.8,2c1,0.9,1.8,2,2.5,3.2c0.6,1.2,1.1,2.6,1.4,4.1
			c0.3,1.5,0.5,3,0.6,4.5c0.1,0.9,0.1,2,0.2,3.3c0.1,1.3,0.1,2.6,0.3,3.9c0.1,1.3,0.3,2.6,0.6,3.8c0.3,1.2,0.7,2.2,1.3,3h-12.5
			c-0.7-1.9-1.1-4.1-1.3-6.7c-0.2-2.6-0.4-5.1-0.7-7.4c-0.4-3.1-1.3-5.3-2.7-6.8c-1.4-1.4-3.6-2.1-6.8-2.1h-12.5v23H103V469H133.7z
			 M129.2,495.6c2.9,0,5-0.7,6.5-2c1.4-1.3,2.2-3.5,2.2-6.4c0-2.9-0.7-4.9-2.2-6.2c-1.4-1.3-3.6-1.9-6.5-1.9h-13.7v16.6H129.2z"/>
	</g>
	<g>
		<path class="st1" d="M189,469l21.3,58.9h-13l-4.3-13.1h-21.3l-4.5,13.1h-12.6l21.5-58.9H189z M189.7,505.1l-7.2-21.6h-0.2
			l-7.4,21.6H189.7z"/>
	</g>
	<g>
		<path class="st1" d="M242.8,528.6h-28.3v-60.3H242c2.7,0,5.3,0.3,7.6,0.8c2.3,0.5,4.3,1.4,6,2.5c1.7,1.2,3,2.8,3.9,4.8
			c0.9,2,1.4,4.4,1.4,7.2c0,3.1-0.7,5.7-2.1,7.8c-1.1,1.7-2.7,3.1-4.6,4.3c2.9,1.1,5.2,2.9,6.7,5.2c1.8,2.7,2.7,6,2.7,9.8
			c0,3.1-0.6,5.8-1.8,8c-1.2,2.3-2.7,4.1-4.7,5.6c-1.9,1.4-4.2,2.5-6.7,3.2C247.9,528.2,245.4,528.6,242.8,528.6z M215.9,527.2h26.9
			c2.5,0,4.9-0.3,7.3-1c2.3-0.6,4.4-1.6,6.2-2.9c1.8-1.3,3.2-3,4.3-5.1c1.1-2.1,1.6-4.5,1.6-7.4c0-3.5-0.8-6.6-2.5-9.1
			c-1.6-2.5-4.1-4.2-7.5-5.2l-1.7-0.5l1.6-0.8c2.4-1.2,4.3-2.8,5.5-4.6c1.2-1.9,1.8-4.2,1.8-7c0-2.6-0.4-4.9-1.2-6.6
			c-0.8-1.8-2-3.2-3.5-4.2c-1.5-1.1-3.4-1.9-5.5-2.3c-2.2-0.5-4.6-0.7-7.3-0.7h-26.1V527.2z M241.1,518.5H227v-17.6h14.3
			c2.9,0,5.2,0.7,7,2.1c1.8,1.4,2.7,3.8,2.7,7c0,1.6-0.3,3-0.8,4.1c-0.6,1.1-1.3,2-2.3,2.6c-0.9,0.6-2,1.1-3.2,1.3
			C243.6,518.4,242.4,518.5,241.1,518.5z M228.4,517.1h12.7c1.2,0,2.3-0.1,3.4-0.4c1-0.2,1.9-0.6,2.7-1.1c0.7-0.5,1.4-1.2,1.8-2.1
			c0.5-0.9,0.7-2.1,0.7-3.5c0-2.8-0.7-4.8-2.2-5.9c-1.5-1.2-3.6-1.8-6.1-1.8h-12.9V517.1z M240.4,493.5H227v-15.2h12.4
			c1.1,0,2.3,0.1,3.4,0.3c1.1,0.2,2.1,0.6,3,1.1c0.9,0.6,1.6,1.3,2.2,2.3c0.5,1,0.8,2.2,0.8,3.7c0,2.7-0.8,4.7-2.4,5.9
			C244.8,492.9,242.8,493.5,240.4,493.5z M228.4,492.1h12c2.1,0,3.8-0.5,5.1-1.5c1.3-1,1.9-2.5,1.9-4.8c0-1.3-0.2-2.3-0.6-3
			c-0.4-0.8-1-1.4-1.7-1.8c-0.7-0.4-1.6-0.8-2.5-0.9c-1-0.2-2-0.3-3.1-0.3h-11V492.1z"/>
	</g>
	<g>
		<path class="st1" d="M295.3,529.9c-7.9,0-14-2-18.4-6c-4.4-4-6.6-10.1-6.6-18.3v-37.3h13.9v37.3c0,1.6,0.1,3.1,0.4,4.6
			c0.2,1.4,0.8,2.7,1.6,3.8c0.8,1.1,1.9,2,3.3,2.7c1.4,0.7,3.4,1,5.8,1c4.2,0,7.2-1,8.7-2.8c1.6-1.9,2.4-5,2.4-9.2v-37.3h13.9v37.3
			c0,8.1-2.3,14.3-6.7,18.3l0,0C309.2,527.9,303.1,529.9,295.3,529.9z M271.8,469.7v35.9c0,7.8,2.1,13.6,6.1,17.3
			c4.1,3.7,9.9,5.6,17.4,5.6c7.4,0,13.2-1.9,17.4-5.6c4.1-3.7,6.2-9.5,6.2-17.3v-35.9h-11.1v35.9c0,4.5-0.9,8-2.7,10.1
			c-1.8,2.2-5.1,3.3-9.8,3.3c-2.6,0-4.8-0.4-6.4-1.2c-1.6-0.8-2.9-1.8-3.8-3.1c-0.9-1.3-1.5-2.7-1.8-4.4c-0.3-1.6-0.4-3.2-0.4-4.8
			v-35.9H271.8z"/>
	</g>
	<g>
		<path class="st1" d="M351.1,529.9c-3.2,0-6.3-0.4-9.3-1.2c-3-0.8-5.7-2.1-8.1-3.9c-2.3-1.8-4.2-4-5.6-6.8c-1.4-2.7-2-6-2-9.7
			l0-0.7h13.5v0.7c0,1.9,0.3,3.4,1,4.7l0,0c0.6,1.3,1.5,2.3,2.5,3.1c1.1,0.8,2.3,1.4,3.8,1.8c2.5,0.7,5.1,0.8,8.1,0.3
			c1.2-0.2,2.3-0.5,3.4-1c1-0.5,1.9-1.2,2.5-2.1c0.6-0.8,1-1.9,1-3.2c0-1.4-0.4-2.5-1.3-3.4c-0.9-0.9-2.1-1.7-3.6-2.3
			c-1.6-0.6-3.3-1.2-5.3-1.7c-2-0.5-4.1-1.1-6.2-1.7c-2.1-0.5-4.2-1.2-6.3-2c-2.1-0.8-4-1.9-5.6-3.2c-1.7-1.3-3-3-4.1-5
			c-1-2-1.6-4.4-1.6-7.2c0-3.1,0.7-5.9,2-8.2c1.3-2.3,3-4.3,5.1-5.8c2.1-1.5,4.5-2.7,7.1-3.4c5.6-1.6,11.4-1.3,16.6,0
			c2.8,0.7,5.3,1.9,7.5,3.5c2.2,1.6,4,3.7,5.3,6.1c1.3,2.5,2,5.5,2,9v0.7H360l0-0.7c-0.1-1.7-0.4-3-1-4.1c-0.6-1-1.3-1.9-2.2-2.5
			c-0.9-0.6-2-1-3.2-1.3c-2.1-0.4-4.6-0.6-7-0.1c-0.9,0.2-1.8,0.6-2.5,1.1c-0.7,0.5-1.4,1.1-1.8,1.9c-0.5,0.7-0.7,1.6-0.7,2.8
			c0,1,0.2,1.8,0.5,2.4c0.4,0.6,1.1,1.2,2.2,1.7c1.2,0.6,2.9,1.2,5.1,1.8c2.2,0.6,5.1,1.4,8.6,2.3c1.1,0.2,2.6,0.6,4.5,1.2
			c1.9,0.6,3.9,1.6,5.8,2.9c1.9,1.3,3.6,3.1,5,5.3c1.4,2.2,2.1,5.1,2.1,8.5c0,2.8-0.5,5.4-1.6,7.8c-1.1,2.4-2.6,4.5-4.7,6.2
			c-2.1,1.7-4.6,3.1-7.7,4C358.5,529.4,355,529.9,351.1,529.9z M327.5,509c0,3.2,0.7,6,1.8,8.4c1.3,2.5,3,4.6,5.2,6.3
			c2.2,1.6,4.7,2.9,7.6,3.6c2.9,0.8,5.9,1.2,8.9,1.2c3.8,0,7.2-0.5,10-1.4c2.9-0.9,5.3-2.2,7.2-3.8c1.9-1.6,3.4-3.5,4.3-5.7
			c1-2.2,1.5-4.6,1.5-7.2c0-3.1-0.6-5.8-1.9-7.7c-1.3-2-2.9-3.7-4.6-4.9c-1.8-1.2-3.6-2.1-5.4-2.7c-1.9-0.6-3.3-1-4.4-1.2
			c-3.6-0.9-6.5-1.7-8.7-2.3c-2.2-0.6-4-1.2-5.3-1.9c-1.4-0.7-2.3-1.4-2.8-2.3c-0.5-0.8-0.7-1.9-0.7-3.2c0-1.4,0.3-2.6,0.9-3.5
			c0.6-0.9,1.3-1.7,2.2-2.3c0.9-0.6,1.9-1,3-1.3c2.6-0.6,5.3-0.4,7.6,0.1c1.4,0.3,2.6,0.8,3.7,1.5c1.1,0.7,2,1.7,2.7,3
			c0.6,1.1,0.9,2.4,1.1,4h10.8c-0.1-3-0.7-5.6-1.8-7.7c-1.2-2.3-2.8-4.2-4.9-5.7c-2-1.5-4.4-2.6-7.1-3.2c-4.9-1.2-10.5-1.5-15.9,0
			c-2.5,0.7-4.7,1.8-6.6,3.2c-1.9,1.4-3.5,3.2-4.7,5.3c-1.2,2.1-1.8,4.6-1.8,7.5c0,2.6,0.5,4.8,1.4,6.6c0.9,1.8,2.2,3.3,3.7,4.5
			c1.5,1.2,3.3,2.2,5.2,3c2,0.8,4.1,1.5,6.1,2c2.1,0.6,4.1,1.2,6.1,1.6c2,0.5,3.9,1.1,5.5,1.8c1.7,0.7,3,1.6,4.1,2.6
			c1.1,1.1,1.7,2.6,1.7,4.4c0,1.6-0.4,3-1.3,4.1c-0.8,1-1.8,1.9-3,2.5c-1.2,0.6-2.4,1-3.8,1.2c-3.2,0.5-6,0.4-8.7-0.3
			c-1.6-0.4-3.1-1.1-4.3-2c-1.2-0.9-2.2-2.1-3-3.6c-0.7-1.3-1-2.9-1.1-4.6H327.5z"/>
	</g>
</g>
<g>
	<g>
		<rect x="0" y="331.3" class="st0" width="72" height="17.3"/>
	</g>
</g>
<g>
	<g>
		<path class="st1" d="M8.1,334.9v8.6h5v2H5.8v-10.6H8.1z"/>
	</g>
	<g>
		<path class="st1" d="M16.6,334.9v10.6h-2.3v-10.6H16.6z"/>
	</g>
	<g>
		<path class="st1" d="M24.1,334.9c0.5,0,0.9,0.1,1.2,0.2c0.4,0.2,0.7,0.4,0.9,0.6c0.3,0.3,0.5,0.6,0.6,0.9c0.1,0.4,0.2,0.7,0.2,1.1
			c0,0.6-0.1,1.2-0.4,1.6c-0.3,0.5-0.7,0.8-1.2,1v0c0.3,0.1,0.5,0.2,0.7,0.4c0.2,0.2,0.3,0.4,0.4,0.6c0.1,0.2,0.2,0.5,0.3,0.7
			c0.1,0.3,0.1,0.5,0.1,0.8c0,0.2,0,0.4,0,0.6c0,0.2,0,0.5,0.1,0.7c0,0.2,0.1,0.5,0.1,0.7c0.1,0.2,0.1,0.4,0.2,0.5h-2.3
			c-0.1-0.3-0.2-0.7-0.2-1.2c0-0.5-0.1-0.9-0.1-1.3c-0.1-0.6-0.2-1-0.5-1.2c-0.2-0.3-0.7-0.4-1.2-0.4h-2.3v4.1h-2.3v-10.6H24.1z
			 M23.3,339.7c0.5,0,0.9-0.1,1.2-0.4c0.3-0.2,0.4-0.6,0.4-1.2c0-0.5-0.1-0.9-0.4-1.1c-0.3-0.2-0.6-0.3-1.2-0.3h-2.5v3H23.3z"/>
	</g>
	<g>
		<path class="st1" d="M34,334.9l3.8,10.6h-2.3l-0.8-2.4h-3.8l-0.8,2.4h-2.3l3.9-10.6H34z M34.1,341.4l-1.3-3.9h0l-1.3,3.9H34.1z"/>
	</g>
	<g>
		<path class="st1" d="M43.7,345.6h-5.1v-10.9h4.9c0.5,0,1,0,1.4,0.1c0.4,0.1,0.8,0.2,1.1,0.5c0.3,0.2,0.5,0.5,0.7,0.9
			c0.2,0.4,0.2,0.8,0.2,1.3c0,0.6-0.1,1-0.4,1.4c-0.2,0.3-0.5,0.6-0.8,0.8c0.5,0.2,0.9,0.5,1.2,0.9c0.3,0.5,0.5,1.1,0.5,1.8
			c0,0.6-0.1,1-0.3,1.4c-0.2,0.4-0.5,0.7-0.8,1c-0.4,0.3-0.8,0.4-1.2,0.6C44.6,345.5,44.2,345.6,43.7,345.6z M38.9,345.3h4.8
			c0.4,0,0.9-0.1,1.3-0.2c0.4-0.1,0.8-0.3,1.1-0.5c0.3-0.2,0.6-0.5,0.8-0.9c0.2-0.4,0.3-0.8,0.3-1.3c0-0.6-0.2-1.2-0.4-1.6
			c-0.3-0.4-0.7-0.8-1.3-0.9l-0.3-0.1l0.3-0.1c0.4-0.2,0.8-0.5,1-0.8c0.2-0.3,0.3-0.8,0.3-1.3c0-0.5-0.1-0.9-0.2-1.2
			c-0.1-0.3-0.4-0.6-0.6-0.8c-0.3-0.2-0.6-0.3-1-0.4c-0.4-0.1-0.8-0.1-1.3-0.1h-4.7V345.3z M43.4,343.8h-2.5v-3.2h2.6
			c0.5,0,0.9,0.1,1.3,0.4c0.3,0.3,0.5,0.7,0.5,1.3c0,0.3-0.1,0.5-0.2,0.7c-0.1,0.2-0.2,0.4-0.4,0.5c-0.2,0.1-0.4,0.2-0.6,0.2
			C43.9,343.8,43.6,343.8,43.4,343.8z M41.1,343.5h2.3c0.2,0,0.4,0,0.6-0.1c0.2,0,0.3-0.1,0.5-0.2c0.1-0.1,0.2-0.2,0.3-0.4
			c0.1-0.2,0.1-0.4,0.1-0.6c0-0.5-0.1-0.9-0.4-1.1c-0.3-0.2-0.6-0.3-1.1-0.3h-2.3V343.5z M43.3,339.3h-2.4v-2.7h2.2
			c0.2,0,0.4,0,0.6,0.1c0.2,0,0.4,0.1,0.5,0.2c0.2,0.1,0.3,0.2,0.4,0.4c0.1,0.2,0.1,0.4,0.1,0.7c0,0.5-0.1,0.8-0.4,1.1
			C44.1,339.2,43.7,339.3,43.3,339.3z M41.1,339h2.2c0.4,0,0.7-0.1,0.9-0.3c0.2-0.2,0.3-0.5,0.3-0.9c0-0.2,0-0.4-0.1-0.5
			c-0.1-0.1-0.2-0.2-0.3-0.3c-0.1-0.1-0.3-0.1-0.5-0.2c-0.2,0-0.4,0-0.6,0h-2V339z"/>
	</g>
	<g>
		<path class="st1" d="M53.2,345.8c-1.4,0-2.5-0.4-3.3-1.1c-0.8-0.7-1.2-1.8-1.2-3.3v-6.7h2.5v6.7c0,0.3,0,0.6,0.1,0.8
			c0,0.3,0.1,0.5,0.3,0.7c0.1,0.2,0.3,0.4,0.6,0.5c0.3,0.1,0.6,0.2,1,0.2c0.8,0,1.3-0.2,1.6-0.5c0.3-0.3,0.4-0.9,0.4-1.7v-6.7h2.5
			v6.7c0,1.5-0.4,2.6-1.2,3.3l0,0C55.7,345.5,54.6,345.8,53.2,345.8z M48.9,335v6.5c0,1.4,0.4,2.4,1.1,3.1c0.7,0.7,1.8,1,3.1,1
			c1.3,0,2.4-0.3,3.1-1c0.7-0.7,1.1-1.7,1.1-3.1V335h-2v6.5c0,0.8-0.2,1.4-0.5,1.8c-0.3,0.4-0.9,0.6-1.8,0.6c-0.5,0-0.9-0.1-1.2-0.2
			c-0.3-0.1-0.5-0.3-0.7-0.6c-0.2-0.2-0.3-0.5-0.3-0.8c0-0.3-0.1-0.6-0.1-0.9V335H48.9z"/>
	</g>
	<g>
		<path class="st1" d="M63.2,345.8c-0.6,0-1.1-0.1-1.7-0.2c-0.5-0.1-1-0.4-1.4-0.7c-0.4-0.3-0.8-0.7-1-1.2c-0.2-0.5-0.4-1.1-0.4-1.8
			l0-0.1h2.4v0.1c0,0.3,0.1,0.6,0.2,0.8l0,0c0.1,0.2,0.3,0.4,0.5,0.6c0.2,0.1,0.4,0.3,0.7,0.3c0.4,0.1,0.9,0.1,1.5,0.1
			c0.2,0,0.4-0.1,0.6-0.2c0.2-0.1,0.3-0.2,0.5-0.4c0.1-0.1,0.2-0.3,0.2-0.6c0-0.3-0.1-0.5-0.2-0.6c-0.2-0.2-0.4-0.3-0.7-0.4
			c-0.3-0.1-0.6-0.2-1-0.3c-0.4-0.1-0.7-0.2-1.1-0.3c-0.4-0.1-0.8-0.2-1.1-0.4c-0.4-0.1-0.7-0.3-1-0.6c-0.3-0.2-0.5-0.5-0.7-0.9
			c-0.2-0.4-0.3-0.8-0.3-1.3c0-0.6,0.1-1.1,0.4-1.5c0.2-0.4,0.5-0.8,0.9-1c0.4-0.3,0.8-0.5,1.3-0.6c1-0.3,2.1-0.2,3,0
			c0.5,0.1,1,0.3,1.4,0.6c0.4,0.3,0.7,0.7,0.9,1.1c0.2,0.4,0.4,1,0.4,1.6v0.1h-2.4l0-0.1c0-0.3-0.1-0.5-0.2-0.7
			c-0.1-0.2-0.2-0.3-0.4-0.4c-0.2-0.1-0.4-0.2-0.6-0.2c-0.4-0.1-0.8-0.1-1.3,0c-0.2,0-0.3,0.1-0.5,0.2c-0.1,0.1-0.2,0.2-0.3,0.3
			c-0.1,0.1-0.1,0.3-0.1,0.5c0,0.2,0,0.3,0.1,0.4c0.1,0.1,0.2,0.2,0.4,0.3c0.2,0.1,0.5,0.2,0.9,0.3c0.4,0.1,0.9,0.2,1.6,0.4
			c0.2,0,0.5,0.1,0.8,0.2c0.3,0.1,0.7,0.3,1,0.5c0.3,0.2,0.7,0.6,0.9,0.9c0.3,0.4,0.4,0.9,0.4,1.5c0,0.5-0.1,1-0.3,1.4
			c-0.2,0.4-0.5,0.8-0.8,1.1c-0.4,0.3-0.8,0.6-1.4,0.7C64.5,345.7,63.9,345.8,63.2,345.8z M59,342.1c0,0.6,0.1,1.1,0.3,1.5
			c0.2,0.5,0.5,0.8,0.9,1.1c0.4,0.3,0.9,0.5,1.4,0.7c0.5,0.1,1.1,0.2,1.6,0.2c0.7,0,1.3-0.1,1.8-0.2c0.5-0.2,0.9-0.4,1.3-0.7
			c0.3-0.3,0.6-0.6,0.8-1c0.2-0.4,0.3-0.8,0.3-1.3c0-0.6-0.1-1-0.3-1.4c-0.2-0.4-0.5-0.7-0.8-0.9c-0.3-0.2-0.7-0.4-1-0.5
			c-0.3-0.1-0.6-0.2-0.8-0.2c-0.6-0.2-1.2-0.3-1.6-0.4c-0.4-0.1-0.7-0.2-1-0.3c-0.2-0.1-0.4-0.3-0.5-0.4c-0.1-0.1-0.1-0.3-0.1-0.6
			c0-0.3,0.1-0.5,0.2-0.6c0.1-0.2,0.2-0.3,0.4-0.4c0.2-0.1,0.3-0.2,0.5-0.2c0.5-0.1,1-0.1,1.4,0c0.2,0.1,0.5,0.1,0.7,0.3
			c0.2,0.1,0.4,0.3,0.5,0.5c0.1,0.2,0.2,0.4,0.2,0.7H67c0-0.5-0.1-1-0.3-1.4c-0.2-0.4-0.5-0.8-0.9-1c-0.4-0.3-0.8-0.5-1.3-0.6
			c-0.9-0.2-1.9-0.3-2.9,0c-0.4,0.1-0.8,0.3-1.2,0.6c-0.3,0.3-0.6,0.6-0.8,1c-0.2,0.4-0.3,0.8-0.3,1.4c0,0.5,0.1,0.9,0.3,1.2
			c0.2,0.3,0.4,0.6,0.7,0.8c0.3,0.2,0.6,0.4,0.9,0.5c0.4,0.1,0.7,0.3,1.1,0.4c0.4,0.1,0.7,0.2,1.1,0.3c0.4,0.1,0.7,0.2,1,0.3
			c0.3,0.1,0.5,0.3,0.7,0.5c0.2,0.2,0.3,0.5,0.3,0.8c0,0.3-0.1,0.5-0.2,0.7c-0.1,0.2-0.3,0.3-0.5,0.4c-0.2,0.1-0.4,0.2-0.7,0.2
			c-0.6,0.1-1.1,0.1-1.6-0.1c-0.3-0.1-0.6-0.2-0.8-0.4c-0.2-0.2-0.4-0.4-0.5-0.6c-0.1-0.2-0.2-0.5-0.2-0.8H59z"/>
	</g>
</g>
<g>
	<g>
		<rect x="0" y="386.5" class="st2" width="72" height="17.3"/>
	</g>
</g>
<g>
	<g>
		<path class="st1" d="M8.1,390.1v8.6h5v2H5.8v-10.6H8.1z"/>
	</g>
	<g>
		<path class="st1" d="M16.6,390.1v10.6h-2.3v-10.6H16.6z"/>
	</g>
	<g>
		<path class="st1" d="M24.1,390.1c0.5,0,0.9,0.1,1.2,0.2c0.4,0.2,0.7,0.4,0.9,0.6c0.3,0.3,0.5,0.6,0.6,0.9c0.1,0.4,0.2,0.7,0.2,1.1
			c0,0.6-0.1,1.2-0.4,1.6c-0.3,0.5-0.7,0.8-1.2,1v0c0.3,0.1,0.5,0.2,0.7,0.4c0.2,0.2,0.3,0.4,0.4,0.6c0.1,0.2,0.2,0.5,0.3,0.7
			c0.1,0.3,0.1,0.5,0.1,0.8c0,0.2,0,0.4,0,0.6c0,0.2,0,0.5,0.1,0.7c0,0.2,0.1,0.5,0.1,0.7c0.1,0.2,0.1,0.4,0.2,0.5h-2.3
			c-0.1-0.3-0.2-0.7-0.2-1.2c0-0.5-0.1-0.9-0.1-1.3c-0.1-0.6-0.2-1-0.5-1.2c-0.2-0.3-0.7-0.4-1.2-0.4h-2.3v4.1h-2.3v-10.6H24.1z
			 M23.3,394.9c0.5,0,0.9-0.1,1.2-0.4c0.3-0.2,0.4-0.6,0.4-1.2c0-0.5-0.1-0.9-0.4-1.1c-0.3-0.2-0.6-0.3-1.2-0.3h-2.5v3H23.3z"/>
	</g>
	<g>
		<path class="st1" d="M34,390.1l3.8,10.6h-2.3l-0.8-2.4h-3.8l-0.8,2.4h-2.3l3.9-10.6H34z M34.1,396.6l-1.3-3.9h0l-1.3,3.9H34.1z"/>
	</g>
	<g>
		<path class="st1" d="M43.7,400.8h-5.1V390h4.9c0.5,0,1,0,1.4,0.1c0.4,0.1,0.8,0.2,1.1,0.5c0.3,0.2,0.5,0.5,0.7,0.9
			c0.2,0.4,0.2,0.8,0.2,1.3c0,0.6-0.1,1-0.4,1.4c-0.2,0.3-0.5,0.6-0.8,0.8c0.5,0.2,0.9,0.5,1.2,0.9c0.3,0.5,0.5,1.1,0.5,1.8
			c0,0.6-0.1,1-0.3,1.4c-0.2,0.4-0.5,0.7-0.8,1c-0.4,0.3-0.8,0.4-1.2,0.6C44.6,400.8,44.2,400.8,43.7,400.8z M38.9,400.6h4.8
			c0.4,0,0.9-0.1,1.3-0.2c0.4-0.1,0.8-0.3,1.1-0.5c0.3-0.2,0.6-0.5,0.8-0.9c0.2-0.4,0.3-0.8,0.3-1.3c0-0.6-0.2-1.2-0.4-1.6
			c-0.3-0.4-0.7-0.8-1.3-0.9l-0.3-0.1l0.3-0.1c0.4-0.2,0.8-0.5,1-0.8c0.2-0.3,0.3-0.8,0.3-1.3c0-0.5-0.1-0.9-0.2-1.2
			c-0.1-0.3-0.4-0.6-0.6-0.8c-0.3-0.2-0.6-0.3-1-0.4c-0.4-0.1-0.8-0.1-1.3-0.1h-4.7V400.6z M43.4,399h-2.5v-3.2h2.6
			c0.5,0,0.9,0.1,1.3,0.4c0.3,0.3,0.5,0.7,0.5,1.3c0,0.3-0.1,0.5-0.2,0.7c-0.1,0.2-0.2,0.4-0.4,0.5c-0.2,0.1-0.4,0.2-0.6,0.2
			C43.9,399,43.6,399,43.4,399z M41.1,398.8h2.3c0.2,0,0.4,0,0.6-0.1c0.2,0,0.3-0.1,0.5-0.2c0.1-0.1,0.2-0.2,0.3-0.4
			c0.1-0.2,0.1-0.4,0.1-0.6c0-0.5-0.1-0.9-0.4-1.1c-0.3-0.2-0.6-0.3-1.1-0.3h-2.3V398.8z M43.3,394.5h-2.4v-2.7h2.2
			c0.2,0,0.4,0,0.6,0.1c0.2,0,0.4,0.1,0.5,0.2c0.2,0.1,0.3,0.2,0.4,0.4c0.1,0.2,0.1,0.4,0.1,0.7c0,0.5-0.1,0.8-0.4,1.1
			C44.1,394.4,43.7,394.5,43.3,394.5z M41.1,394.3h2.2c0.4,0,0.7-0.1,0.9-0.3c0.2-0.2,0.3-0.5,0.3-0.9c0-0.2,0-0.4-0.1-0.5
			c-0.1-0.1-0.2-0.2-0.3-0.3c-0.1-0.1-0.3-0.1-0.5-0.2c-0.2,0-0.4,0-0.6,0h-2V394.3z"/>
	</g>
	<g>
		<path class="st1" d="M53.2,401.1c-1.4,0-2.5-0.4-3.3-1.1c-0.8-0.7-1.2-1.8-1.2-3.3V390h2.5v6.7c0,0.3,0,0.6,0.1,0.8
			c0,0.3,0.1,0.5,0.3,0.7c0.1,0.2,0.3,0.4,0.6,0.5c0.3,0.1,0.6,0.2,1,0.2c0.8,0,1.3-0.2,1.6-0.5c0.3-0.3,0.4-0.9,0.4-1.7V390h2.5
			v6.7c0,1.5-0.4,2.6-1.2,3.3l0,0C55.7,400.7,54.6,401.1,53.2,401.1z M48.9,390.2v6.5c0,1.4,0.4,2.4,1.1,3.1c0.7,0.7,1.8,1,3.1,1
			c1.3,0,2.4-0.3,3.1-1c0.7-0.7,1.1-1.7,1.1-3.1v-6.5h-2v6.5c0,0.8-0.2,1.4-0.5,1.8c-0.3,0.4-0.9,0.6-1.8,0.6
			c-0.5,0-0.9-0.1-1.2-0.2c-0.3-0.1-0.5-0.3-0.7-0.6c-0.2-0.2-0.3-0.5-0.3-0.8c0-0.3-0.1-0.6-0.1-0.9v-6.5H48.9z"/>
	</g>
	<g>
		<path class="st1" d="M63.2,401.1c-0.6,0-1.1-0.1-1.7-0.2c-0.5-0.1-1-0.4-1.4-0.7c-0.4-0.3-0.8-0.7-1-1.2c-0.2-0.5-0.4-1.1-0.4-1.8
			l0-0.1h2.4v0.1c0,0.3,0.1,0.6,0.2,0.8l0,0c0.1,0.2,0.3,0.4,0.5,0.6c0.2,0.1,0.4,0.3,0.7,0.3c0.4,0.1,0.9,0.1,1.5,0.1
			c0.2,0,0.4-0.1,0.6-0.2c0.2-0.1,0.3-0.2,0.5-0.4c0.1-0.1,0.2-0.3,0.2-0.6c0-0.3-0.1-0.5-0.2-0.6c-0.2-0.2-0.4-0.3-0.7-0.4
			c-0.3-0.1-0.6-0.2-1-0.3c-0.4-0.1-0.7-0.2-1.1-0.3c-0.4-0.1-0.8-0.2-1.1-0.4c-0.4-0.1-0.7-0.3-1-0.6c-0.3-0.2-0.5-0.5-0.7-0.9
			c-0.2-0.4-0.3-0.8-0.3-1.3c0-0.6,0.1-1.1,0.4-1.5c0.2-0.4,0.5-0.8,0.9-1c0.4-0.3,0.8-0.5,1.3-0.6c1-0.3,2.1-0.2,3,0
			c0.5,0.1,1,0.3,1.4,0.6c0.4,0.3,0.7,0.7,0.9,1.1c0.2,0.4,0.4,1,0.4,1.6v0.1h-2.4l0-0.1c0-0.3-0.1-0.5-0.2-0.7
			c-0.1-0.2-0.2-0.3-0.4-0.4c-0.2-0.1-0.4-0.2-0.6-0.2c-0.4-0.1-0.8-0.1-1.3,0c-0.2,0-0.3,0.1-0.5,0.2c-0.1,0.1-0.2,0.2-0.3,0.3
			c-0.1,0.1-0.1,0.3-0.1,0.5c0,0.2,0,0.3,0.1,0.4c0.1,0.1,0.2,0.2,0.4,0.3c0.2,0.1,0.5,0.2,0.9,0.3c0.4,0.1,0.9,0.2,1.6,0.4
			c0.2,0,0.5,0.1,0.8,0.2c0.3,0.1,0.7,0.3,1,0.5c0.3,0.2,0.7,0.6,0.9,0.9c0.3,0.4,0.4,0.9,0.4,1.5c0,0.5-0.1,1-0.3,1.4
			c-0.2,0.4-0.5,0.8-0.8,1.1c-0.4,0.3-0.8,0.6-1.4,0.7C64.5,401,63.9,401.1,63.2,401.1z M59,397.3c0,0.6,0.1,1.1,0.3,1.5
			c0.2,0.5,0.5,0.8,0.9,1.1c0.4,0.3,0.9,0.5,1.4,0.7c0.5,0.1,1.1,0.2,1.6,0.2c0.7,0,1.3-0.1,1.8-0.2c0.5-0.2,0.9-0.4,1.3-0.7
			c0.3-0.3,0.6-0.6,0.8-1c0.2-0.4,0.3-0.8,0.3-1.3c0-0.6-0.1-1-0.3-1.4c-0.2-0.4-0.5-0.7-0.8-0.9c-0.3-0.2-0.7-0.4-1-0.5
			c-0.3-0.1-0.6-0.2-0.8-0.2c-0.6-0.2-1.2-0.3-1.6-0.4c-0.4-0.1-0.7-0.2-1-0.3c-0.2-0.1-0.4-0.3-0.5-0.4c-0.1-0.1-0.1-0.3-0.1-0.6
			c0-0.3,0.1-0.5,0.2-0.6c0.1-0.2,0.2-0.3,0.4-0.4c0.2-0.1,0.3-0.2,0.5-0.2c0.5-0.1,1-0.1,1.4,0c0.2,0.1,0.5,0.1,0.7,0.3
			c0.2,0.1,0.4,0.3,0.5,0.5c0.1,0.2,0.2,0.4,0.2,0.7H67c0-0.5-0.1-1-0.3-1.4c-0.2-0.4-0.5-0.8-0.9-1c-0.4-0.3-0.8-0.5-1.3-0.6
			c-0.9-0.2-1.9-0.3-2.9,0c-0.4,0.1-0.8,0.3-1.2,0.6c-0.3,0.3-0.6,0.6-0.8,1c-0.2,0.4-0.3,0.8-0.3,1.4c0,0.5,0.1,0.9,0.3,1.2
			c0.2,0.3,0.4,0.6,0.7,0.8c0.3,0.2,0.6,0.4,0.9,0.5c0.4,0.1,0.7,0.3,1.1,0.4c0.4,0.1,0.7,0.2,1.1,0.3c0.4,0.1,0.7,0.2,1,0.3
			c0.3,0.1,0.5,0.3,0.7,0.5c0.2,0.2,0.3,0.5,0.3,0.8c0,0.3-0.1,0.5-0.2,0.7c-0.1,0.2-0.3,0.3-0.5,0.4c-0.2,0.1-0.4,0.2-0.7,0.2
			c-0.6,0.1-1.1,0.1-1.6-0.1c-0.3-0.1-0.6-0.2-0.8-0.4c-0.2-0.2-0.4-0.4-0.5-0.6c-0.1-0.2-0.2-0.5-0.2-0.8H59z"/>
	</g>
</g>
</svg>
