<svg xmlns="http://www.w3.org/2000/svg" viewBox="0 0 280 87.5" enable-background="new 0 0 280 87.5"><style type="text/css">.st0{fill:#FFFFFF;} .st1{fill:#211915;} .st2{fill:#5F9BCD;} .st3{fill:url(#SVGID_1_);} .st4{fill:url(#SVGID_2_);}</style><path d="M51.1 57.9V26.1h8.5c1.7-.1 3.5.1 5.1.5 1.1.3 2.1.8 2.9 1.6.6.7 1.1 1.6 1.3 2.6.3 1.4.4 2.9.3 4.4v2.7c0 2-.2 3.5-.7 4.5-.5 1.1-1.4 1.9-2.5 2.3-1.4.6-2.9.8-4.4.8H60v12.4h-8.9zm9.1-18.7c.4 0 .8-.1 1.1-.3.1-.1.3-.6.3-2v-2.5c0-1.2-.2-1.6-.3-1.7-.1-.1-.4-.2-1.1-.3v6.8z" class="st0"/><path d="M59.7 26.6c1.7-.1 3.4.1 5 .5 1 .2 1.9.8 2.6 1.5.6.7 1 1.5 1.2 2.3.3 1.4.4 2.9.3 4.3v2.7c0 2-.2 3.4-.6 4.3-.4.9-1.2 1.7-2.2 2-1.3.5-2.8.8-4.2.7h-2.1v12.4h-8V26.6h8m.5 13.1c.6.1 1.1-.1 1.5-.5.3-.3.4-1.1.4-2.2v-2.5c0-1-.2-1.7-.5-2-.3-.3-1-.5-2-.5v7.8h.6m-.5-14.3h-9.1v32.8h10V46h1.1c1.6.1 3.2-.2 4.6-.8 1.2-.5 2.2-1.4 2.8-2.6.5-1 .7-2.6.7-4.7v-2.7c0-1.5-.1-3-.3-4.5-.2-1-.7-2-1.4-2.8-.9-.9-1.9-1.5-3.1-1.8-1.8-.4-3.5-.6-5.3-.6zm.9 13.1V33l.3.1c.2.4.2.9.2 1.3v2.5c0 1.3-.2 1.6-.2 1.6l-.3.1z" class="st1"/><path d="M70.5 26.1h9v31.8h-9z" class="st0"/><path d="M79 26.6v30.8h-7.9V26.6H79m1.1-1.1h-10v32.8h10V25.5z" class="st1"/><path d="M92 57.9V47.1c0-2.1-.2-2.7-.3-2.8 0-.1-.2-.3-1-.3v13.9h-9V26.1h6.1c3.8 0 6.3.1 7.7.5 1.5.3 2.7 1.2 3.6 2.4.9 1.3 1.3 3.3 1.3 6.1s-.3 4.2-1 5.1c-.5.6-1.2 1.1-1.9 1.3.6.3 1.1.6 1.6 1.1.5.6.9 1.3 1.1 2 .1.6.2 2.1.2 4.7v8.6H92zm-1.4-19.7c.4 0 .7-.1 1-.2 0 0 .3-.2.3-2v-1.8c0-1.1-.2-1.4-.3-1.5-.3-.2-.7-.3-1-.3v5.8z" class="st0"/><path d="M87.8 26.6c3.7 0 6.3.2 7.6.5 1.3.3 2.5 1.1 3.2 2.2.8 1.2 1.2 3.1 1.2 5.7s-.3 4.2-.9 4.8c-.6.8-1.8 1.3-3.5 1.5 1.6.4 2.6.9 3.2 1.6.5.5.8 1.2 1 1.9.1.5.2 2.1.2 4.6v8.1h-7.4V47.1c0-1.7-.1-2.7-.4-3-.3-.4-.9-.6-2-.6v13.9h-7.9V26.6h5.7m2.3 12.1c.6 0 1.3-.1 1.9-.4.3-.3.5-1 .5-2.4v-1.7c0-1-.2-1.6-.5-1.9-.3-.3-1-.4-1.9-.5v6.9m-2.3-13.2h-6.7v32.8h10V44.6h.1c0 .1.2.7.2 2.4v11.2h9.4v-9c0-3.4-.1-4.3-.2-4.8-.2-.8-.7-1.6-1.2-2.2-.2-.3-.5-.5-.8-.8.5-.3.9-.6 1.2-1 .8-1 1.1-2.8 1.1-5.4 0-2.7-.5-5-1.4-6.3-.9-1.4-2.3-2.3-3.9-2.7-1.4-.4-4-.5-7.8-.5zm3.3 12V33l.1.1c.1.4.2.8.1 1.1v1.7c0 .5 0 1.1-.1 1.6h-.1z" class="st1"/><path d="M112.6 57.9l-.4-5.5h-1.9l-.5 5.5h-9.3l4.2-31.8h12.4l4.7 31.8h-9.2zm-.7-12.1c-.2-2.2-.5-4.7-.8-7.6-.4 3.1-.7 5.7-.9 7.6h1.7z" class="st0"/><path d="M116.7 26.6l4.5 30.8h-8.1l-.4-5.5h-2.9l-.5 5.5h-8.2l4-30.8h11.6m-7 19.7h2.7c-.4-3.5-.8-7.8-1.2-12.9-.7 5.9-1.2 10.2-1.5 12.9m7.9-20.8h-13.3l-.1.9-4 30.8-.1 1.2h10.3l.1-1 .4-4.6h.9l.3 4.6.1 1h10.3l-.2-1.2-4.5-30.8-.2-.9zm-6.8 19.8c.1-.6.1-1.3.2-2.1l.2 2.1h-.4z" class="st1"/><path d="M131.8 58.5c-2.1.1-4.1-.4-6-1.3-1.5-.8-2.7-2.2-3.2-3.8-.5-1.6-.8-3.8-.8-7v-9c0-1.7.1-3.4.2-5 .2-1.2.7-2.4 1.4-3.4.9-1.1 2-2 3.3-2.6 1.5-.6 3.1-.9 4.8-.9 2.4 0 4.5.5 6.1 1.4 1.5.8 2.6 2.1 3.2 3.7.5 1.4.8 3.6.8 6.5v3.4h-9v-5.9c0-2-.1-2.6-.2-2.7 0-.1-.1-.3-.7-.3-.5 0-.7.2-.8.4 0 .1-.2 1-.2 2.9v14.3c0 1.9.1 2.5.2 2.8s.1.3.7.3c.3 0 .6-.1.7-.4.1-.2.2-.9.2-3v-4.3h9v1.7c0 3.3-.2 5.5-.7 7-.6 1.6-1.7 2.9-3.2 3.8-1.7.9-3.7 1.5-5.8 1.4z" class="st0"/><path d="M131.6 25.9c2.4 0 4.3.5 5.8 1.4 1.4.7 2.4 2 3 3.4.5 1.4.7 3.5.7 6.3v3h-7.9v-5.3c0-1.6-.1-2.5-.2-2.9-.2-.4-.7-.6-1.1-.6-.5-.1-1 .2-1.2.7-.2.5-.3 1.5-.2 3v14.3c-.1 1 0 2 .2 2.9.2.5.7.7 1.2.7.5.1 1-.2 1.1-.7.2-.4.3-1.5.3-3.2V45h8v1.2c0 3.2-.2 5.4-.7 6.8-.4 1.3-1.4 2.5-3 3.5-1.7 1.1-3.6 1.6-5.6 1.5-2.3 0-4.2-.4-5.8-1.3-1.4-.7-2.5-2-3-3.5s-.7-3.7-.7-6.8v-9c0-1.7.1-3.3.2-5 .2-1.2.6-2.3 1.3-3.2.8-1.1 1.9-1.9 3.1-2.4 1.4-.6 2.9-.9 4.5-.9m0-1c-1.7 0-3.4.3-5 1-1.4.6-2.6 1.5-3.5 2.8-.8 1.1-1.3 2.3-1.5 3.7-.2 1.7-.3 3.4-.2 5.1v9c0 3.1.2 5.5.8 7.1.6 1.8 1.8 3.3 3.4 4.1 1.9 1 4.1 1.5 6.2 1.4 2.2.1 4.3-.5 6.2-1.7 1.7-1.1 2.9-2.5 3.4-4 .5-1.6.7-3.8.7-7.1V44h-10v4.9c0 2.2-.1 2.8-.2 2.8h-.4c0-.1-.2-.7-.2-2.5V34.9c0-2 .1-2.5.2-2.7h.5c.1.8.2 1.6.1 2.4V41h10v-4c0-3-.2-5.2-.8-6.7-.6-1.7-1.9-3.1-3.4-4-1.7-.9-3.8-1.4-6.3-1.4z" class="st1"/><path d="M143.4 26.1h9v31.8h-9z" class="st0"/><path d="M151.9 26.6v30.8h-8V26.6h8m1-1.1h-10v32.8h10V25.5z" class="st1"/><path d="M164.3 58.5c-2.1.1-4.1-.4-6-1.3-1.5-.8-2.7-2.2-3.2-3.8-.5-1.6-.8-3.8-.8-7v-9c0-1.7.1-3.4.2-5 .2-1.2.7-2.4 1.4-3.4.9-1.1 2-2 3.3-2.6 1.5-.6 3.1-.9 4.8-.9 2.4 0 4.5.5 6.1 1.4 1.5.8 2.6 2.1 3.2 3.7.5 1.4.8 3.6.8 6.5v3.4h-9v-5.9c0-2-.1-2.6-.2-2.7 0-.1-.1-.3-.7-.3-.5 0-.7.2-.8.4 0 .1-.2 1-.2 2.9v14.3c0 1.9.1 2.5.2 2.8s.1.3.7.3c.3 0 .6-.1.7-.4.1-.2.2-.9.2-3v-4.3h9v1.7c0 3.3-.2 5.5-.7 7-.6 1.6-1.7 2.9-3.2 3.8-1.7.9-3.7 1.5-5.8 1.4z" class="st0"/><path d="M164.1 25.9c2.4 0 4.3.5 5.8 1.4 1.4.7 2.4 2 3 3.4.5 1.4.7 3.5.7 6.3v3h-7.9v-5.3c0-1.6-.1-2.5-.2-2.9-.2-.4-.7-.6-1.1-.6-.5-.1-1 .2-1.2.7-.2.5-.3 1.5-.3 3v14.3c0 1 0 2 .3 2.9.4.6 1.2.9 1.8.5.2-.1.4-.3.5-.5.2-.4.3-1.5.3-3.2V45h8v1.2c0 3.2-.2 5.4-.7 6.8-.4 1.3-1.4 2.5-3 3.5-1.7 1.1-3.6 1.6-5.6 1.5-2.3 0-4.2-.4-5.8-1.3-1.4-.7-2.5-2-3-3.5s-.7-3.7-.7-6.8v-9c0-1.7.1-3.3.2-5 .2-1.2.6-2.3 1.3-3.2.8-1.1 1.9-1.9 3.1-2.4 1.4-.6 3-.9 4.5-.9m0-1c-1.7 0-3.5.3-5 1-1.4.6-2.6 1.5-3.5 2.8-.8 1.1-1.3 2.3-1.5 3.7-.2 1.7-.3 3.4-.2 5.1v9c0 3.1.2 5.5.8 7.1.6 1.8 1.8 3.2 3.5 4.1 1.9 1 4.1 1.5 6.2 1.4 2.2.1 4.3-.5 6.2-1.7 1.7-1.1 2.9-2.5 3.4-4 .5-1.6.7-3.8.7-7.1V44h-10v4.9c0 2.2-.1 2.8-.2 2.8h-.5c0-.1-.2-.7-.2-2.5V34.9c0-2 .1-2.5.2-2.7h.5c.1.8.2 1.6.1 2.4V41h10v-4c0-3-.2-5.2-.8-6.7-.6-1.7-1.9-3.1-3.4-4-1.7-.9-3.8-1.4-6.3-1.4z" class="st1"/><path d="M186.1 57.9l-.4-5.5h-1.9l-.5 5.5h-9.2l4.2-31.8h12.4l4.7 31.8h-9.3zm-.7-12.1c-.2-2.2-.5-4.7-.8-7.6-.4 3.1-.7 5.7-.9 7.6h1.7z" class="st0"/><path d="M190.1 26.6l4.5 30.8h-8.1l-.4-5.5h-2.9l-.5 5.5h-8.1l4-30.8h11.5m-6.9 19.7h2.7c-.4-3.5-.8-7.8-1.2-12.9-.8 5.9-1.3 10.2-1.5 12.9m7.8-20.8h-13.3l-.1.9-4 30.8-.1 1.2h10.3l.1-1 .4-4.6h.9l.3 4.6.1 1h10.3l-.2-1.2-4.5-30.8-.2-.9zm-6.7 19.8c.1-.6.1-1.3.2-2.1l.2 2.1h-.4z" class="st1"/><path d="M195.5 57.9V26.1h8.4c2.6 0 4.5.2 5.8.6 1.4.4 2.6 1.3 3.4 2.6.9 1.3 1.3 3.3 1.3 6.1 0 2-.3 3.3-1 4.1-.5.6-1.2 1.1-2 1.3 1 .3 1.8 1 2.4 1.8.7 1 1 2.6 1 4.8v2.9c0 2.2-.2 3.8-.8 4.9-.5 1.1-1.4 1.9-2.5 2.3-1.1.4-3.2.6-6.5.6.1-.2-9.5-.2-9.5-.2zm9-6.4c.9-.1 1.2-.3 1.2-.3s.3-.4.3-2v-2.9c0-1.7-.2-2-.3-2 0 0-.2-.2-1.3-.3v7.5zm0-13.3h.3c.6 0 .9-.1 1-.3.1-.2.2-.7.2-3 0-.6 0-1.2-.2-1.8-.1-.2-.2-.4-.4-.5l-1-.1.1 5.7z" class="st0"/><path d="M203.9 26.6c2.5 0 4.4.2 5.7.6 1.3.4 2.4 1.2 3.1 2.4.8 1.2 1.2 3.1 1.2 5.8 0 1.8-.3 3.1-.9 3.8-.6.7-1.7 1.2-3.3 1.6 1.8.4 3.1 1.1 3.7 2.1.6 1 1 2.5 1 4.5v2.9c0 2.1-.2 3.6-.7 4.6-.4 1-1.2 1.7-2.2 2-1 .4-3.1.6-6.3.6H196V26.6h7.9m0 12.1h.8c.8 0 1.3-.2 1.5-.6.2-.4.3-1.5.3-3.3.1-.7 0-1.4-.2-2-.1-.3-.4-.6-.7-.7-.5-.1-1.1-.2-1.7-.2v6.8m.1 13.4c1.1 0 1.8-.2 2.1-.5.3-.3.5-1.1.5-2.3v-2.9c0-1.3-.1-2.1-.4-2.4-.3-.3-1-.4-2.2-.5v8.6m0-26.5h-9v32.8h10.2c3.3 0 5.5-.2 6.7-.6 1.3-.4 2.3-1.4 2.9-2.6.5-1.1.8-2.8.8-5v-2.9c0-2.2-.4-3.9-1.1-5-.4-.6-1-1.1-1.7-1.5.5-.3.9-.6 1.2-1 .7-.9 1-2.3 1-4.4 0-2.9-.5-5-1.4-6.3-.8-1.3-2.1-2.3-3.7-2.8-1.3-.4-3.3-.6-5.9-.7zm1 12V33h.2l.1.2c.2.5.2 1 .2 1.6 0 .9 0 1.9-.2 2.8h-.3zm0 13.4v-6.4l.4.1c.1.5.2 1.1.1 1.7v2.9c0 .5 0 1.1-.2 1.6l-.3.1z" class="st1"/><path d="M227 57.9l-.4-5.5h-1.9l-.5 5.5h-9.3l4.2-31.8h12.4l4.7 31.8H227zm-.7-12.1c-.2-2.2-.5-4.7-.8-7.6-.4 3.1-.7 5.7-.9 7.6h1.7z" class="st0"/><path d="M231 26.6l4.5 30.8h-8.1l-.4-5.5h-2.9l-.5 5.5h-8.1l4-30.8H231m-6.9 19.7h2.7c-.4-3.5-.8-7.8-1.2-12.9-.8 5.9-1.3 10.2-1.5 12.9m7.8-20.8h-13.2l-.1.9-4 30.8-.1 1.2h10.3l.1-1 .4-4.6h.9l.3 4.6.1 1h10.3l-.2-1.2-4.5-30.8-.3-.9zm-6.7 19.8c.1-.6.1-1.3.2-2.1l.2 2.1h-.4z" class="st1"/><path d="M247.3 57.9L244.1 47v10.9h-7.7V26.1h7.5l3.6 11v-11h7.7v31.8z" class="st0"/><path d="M254.7 26.6v30.8h-7l-4.1-14v14H237V26.6h6.6l4.4 13.9V26.6h6.7m1-1.1H247v8.3l-2.4-7.5-.2-.8H236v32.8h8.7v-7.8l2.1 7.1.2.8h8.8l-.1-32.9z" class="st1"/><path d="M267.5 57.9l-.4-5.5h-1.9l-.5 5.5h-9.2l4.1-31.8H272l4.7 31.8h-9.2zm-.7-12.1c-.2-2.2-.5-4.7-.8-7.6-.4 3.2-.7 5.7-.9 7.6h1.7z" class="st0"/><path d="M271.6 26.6l4.5 30.8H268l-.4-5.5h-2.9l-.5 5.5H256l4-30.8h11.6m-7 19.7h2.7c-.4-3.5-.8-7.8-1.2-12.9-.7 5.9-1.3 10.2-1.5 12.9m7.8-20.8h-13.3l-.1.9-4 30.8-.1 1.2h10.3l.1-1 .4-4.6h.9l.3 4.6.1 1h10.2l-.2-1.2-4.5-30.8-.1-.9zm-6.6 19.8c.1-.6.1-1.3.2-2.1l.2 2.1h-.4z" class="st1"/><path d="M8.1 25h28.7c1.7 0 3.1 1.4 3.1 3.1v27.7c0 1.7-1.4 3.1-3.1 3.1H8.1c-1.7 0-3.1-1.4-3.1-3.1V28.1C4.9 26.4 6.3 25 8.1 25zm1.1 1.3h26.4c1.6 0 2.9 1.3 2.9 2.9v25.5c0 1.6-1.3 2.9-2.9 2.9H9.2c-1.6 0-2.9-1.3-2.9-2.9V29.2c0-1.6 1.3-2.9 2.9-2.9z" class="st2"/><path id="_5THO2k.tif" d="M31.2 41.1c0 .2-.1.4-.1.6-.6 1.8-1.9 3.3-3.6 4.2-1.5.7-3.1.8-4.7.2l-1.5-.6c-.4-.2-1-.1-1.2.4-.3.5-.7 1-1 1.5-.3.3-.5.5-.9.7l-.5.1v-.1l.1-.2c.4-.4.6-.9.7-1.4 0-.1 0-.2 0-.3l-.3.1c-.4.4-.7.8-1.1 1.1-.3.2-.7.4-1 .6h-.4c0-.1 0-.2.1-.3.3-.3.4-.7.5-1 0-.1 0-.2 0-.2l-.3.1-1.1.8-.3.1.3-.2 1.3-1.3.2-.2c.1-.1.2-.1.3 0 0 .2 0 .4 0 .6-.1.3-.3.6-.4 1l-.3.2.7-.5 1.2-1.2.6-.5c.1-.1.3 0 .3.1 0 .2 0 .4-.1.7l-.2.9c0 .1 0 .1 0 .2l.3-.4.9-1.1c.1-.3.3-.5.6-.7-2.8-1.5-5.2-3.5-7.6-5.4l3.4 2.4c1.4 1 2.9 1.9 4.4 2.6.9.4 1.7.7 2.7.9 1.1.2 2.3 0 3.3-.4 1.2-.5 2.3-1.4 3-2.5l.2-.4h-.3c-1.1.2-2.3.1-3.4-.2-.1 0-.4-.1-.3-.3l.8.2c1.3.2 2.6.1 3.8-.5l.5-.3.3-.1h.1zm-4.5-5.4l.1.6c.1.2.1.4 0 .5-.2.1-.4.2-.6.1-.3 0-.5-.2-.6-.4-.1-.1-.1-.3 0-.5.2-.3 0-.6 0-.9l-.3-.1c-.7-.3-1.5-.5-2.2-.5-2.1-.1-4.2.4-6.1 1.4L13.2 38l-.3.2.4-.3c1.7-1.5 3.6-2.7 5.7-3.5 1.5-.6 3.2-.9 4.8-.9.4 0 .9.1 1.3.1h.4c-.7-1.7-1.4-3.4-2.7-4.8h-.1v.2c.2.7.4 1.4.6 2.1 0 .2 0 .3-.1.5l-.5-.2-.5-.5-1.6-1.7c-.4-.4-.9-.7-1.4-.9l.2.3c.6.6.8 1.5.7 2.3 0 .2-.1.3-.3.3-.2 0-.4 0-.5-.2l-1-1.2c-.4-.5-.8-.9-1.4-1.1l-.2-.1h.2c.5.1 1 .4 1.3.8l.7.7.3.1c.1-.1.1-.2.1-.3-.1-.7-.4-1.4-1-1.9l-.1-.3.4-.1.5.1c.5.2 1 .5 1.5.9l1.5 1.5.5.2c0-.1 0-.3 0-.4-.2-.9-.7-1.7-1.4-2.2H21h.2c.4 0 .8.2 1.1.4.8.6 1.5 1.3 2 2.1.6 1 1.1 2 1.5 3.1.1.4.4.6.8.8 1.1.6 2 1.4 2.8 2.4.5.6.9 1.2 1.2 2 .1.2.1.4.1.6 0 .3-.2.5-.5.5l-.3-.1c-.4-.2-.7-.6-.7-1.1 0-.1 0-.2 0-.2-.6-1-1.4-1.8-2.3-2.4l-.2-.1zm-.1-.2l-.1-.3-.3-1c-.1-.3-.4-.4-.7-.4 0 .3 0 .6.1.9 0 .1.1.2.1.2l.9.6zM7.3 30.4l.2.3 1.1 1.8c.1.3.2.5.3.8 0 .2-.1.2-.3.2-.3-.1-.6-.5-.6-.8 0-.5-.1-1-.4-1.3-.3-.6-.7-1.1-1.1-1.5l-.1-.2h.4c.7.2 1.3.6 1.9 1.1 1.5 1.4 2.8 3.1 3.8 4.9l.6 1c.1.2.2.5.3.7 0 .1 0 .2-.1.3-.4.2-.8.2-1.1 0-.2-.1-.3-.4-.1-.6.1-.2.1-.4 0-.5-.5-1.3-1.3-2.6-2.1-3.7-.7-.9-1.4-1.7-2.3-2.4l-.2-.1h-.2zm4.2 13.9l-.1 1.9c.1-.1.2-.3.3-.5.2-.9.5-1.9.8-2.8.1-.5.2-.9.2-1.4 0-.2-.1-.3-.1-.5-.1-.1-.1-.4 0-.5.1-.2.4-.2.6-.2.2 0 .3.2.2.4-.1.7-.2 1.5-.4 2.2-.2 1-.5 2-1 2.9-.3.5-.7 1-1.2 1.3l-.2.1c-.1 0-.2 0-.1-.1V47c.4-.4.7-1 .7-1.6 0-.2 0-.4 0-.7-.2-.2-.1-.4.3-.4zm14.1-.1l-.6-.9c-.8-1.1-1.3-2.3-1.8-3.5-.4-1.4-.2-2.9.5-4.2.2-.4.6-.5 1-.3.1 0 .1.1.1.2s-.1.1-.2.1c-.4.1-.7.4-.8.7-.5 1-.6 2.2-.3 3.3.3 1.2.8 2.4 1.5 3.5l.6 1.1zm-1.6-.8c-.8-.6-1.5-1.1-2.5-1-.1-.3-.2-.6-.3-.9l-.6-.7c1.3-.1 3.3 1.5 3.4 2.6zM8.4 35.9l2.1.9c.4.2.7.4 1 .7.3.3.5.6.5 1 0 .3-.2.5-.6.4-.3 0-.5-.3-.5-.6 0-.8-.5-1.2-1.1-1.5l-1.1-.6-.3-.3zm17 2.2c-.1-.2 0-.5.3-.5.1 0 .3 0 .4.1.4.1.6.5.6.9 0 .1-.1.3-.2.4-.2.1-.3.1-.5 0-.3-.3-.6-.6-.6-.9zM9.6 40.2c.7-.3 1.5-.5 2.2-.5l.4.1c.1.1.1.2.1.3 0 .1-.1.2-.2.2l-2.5-.1z" class="st0"/><g id="_5THO2k.tif-2"><linearGradient id="SVGID_1_" x1="32.66" x2="32.66" y1="702.412" y2="707.366" gradientUnits="userSpaceOnUse" gradientTransform="translate(0 -648.98)"><stop offset="0" stop-color="#fff"/><stop offset=".2" stop-color="#F6F6F7"/><stop offset=".52" stop-color="#DEDDE0"/><stop offset=".92" stop-color="#B6B5BB"/><stop offset="1" stop-color="#AEADB3"/></linearGradient><path d="M38 54.3l-.1.3c-.4 1-1.1 1.9-2.1 2.4-.8.4-1.8.5-2.7.1l-.9-.3c-.3-.1-.6-.1-.7.2-.2.3-.4.6-.6.9l-.5.4-.3.1.1-.1c.2-.2.4-.5.4-.8 0 0 0-.1 0-.1l-.1.1c-.2.2-.4.4-.7.6l-.6.3H29v-.2c.2-.2.3-.4.3-.6 0 0 0-.1 0-.1h-.1l-.6.5-.2.1.2-.1.8-.8.1-.1c.1 0 .1 0 .2 0 0 .1 0 .3 0 .4l-.2.6-.2-.1.4-.3.7-.7.3-.3c.1 0 .1 0 .1.1s0 .3 0 .4l-.1.5s0 .1 0 .1l.2-.2.4-.7c.1-.2.2-.3.4-.4-1.5-.9-3-1.9-4.4-3.1l2 1.4c.8.6 1.6 1.1 2.5 1.5.5.2 1 .4 1.5.5.6.1 1.3 0 1.9-.2.7-.3 1.3-.8 1.7-1.4l.1-.2h-.1c-.6.1-1.3.1-2-.1-.1 0-.2 0-.1-.2l.5.1c.7.1 1.5 0 2.2-.3l.3-.2.2-.1v.1z" class="st3"/><path d="M35.4 51.2l.1.3c.1.1 0 .2 0 .3-.1.1-.2.1-.4.1-.1 0-.3-.1-.3-.2s0-.2 0-.3c.1-.2.1-.4 0-.5l-.1-.1c-.4-.2-.8-.2-1.3-.2-1.2 0-2.4.2-3.5.8l-2.2 1.2-.2.1.2-.2c1-.8 2.1-1.5 3.2-2 .9-.3 1.8-.5 2.8-.5l.8.1h.2c-.3-1-.9-1.9-1.5-2.8v.1l.3 1.2c0 .1 0 .2 0 .3H33l-.4-.4-.9-1c-.2-.2-.5-.4-.8-.5l.1.2c.3.4.5.9.4 1.3 0 .1-.1.2-.1.2-.1 0-.2 0-.3-.1l-.5-.6c-.2-.3-.5-.5-.8-.6l-.1-.1h.1c.3.1.6.3.8.5l.4.4.2.1c0-.1 0-.1 0-.2 0-.4-.2-.9-.5-1.2l-.1-.2h.4c.3.1.6.3.9.5l.9.9.2.1c0-.1 0-.2 0-.2-.1-.5-.4-1-.8-1.3v-.1h.1c.2 0 .5.1.7.2.5.4.8.8 1.1 1.3.3.6.6 1.2.9 1.8.1.2.3.4.5.5.6.3 1.2.8 1.6 1.4.3.3.5.7.7 1.1 0 .1.1.2 0 .3 0 .2-.1.3-.3.3h-.2c-.2-.1-.4-.4-.4-.6 0-.1 0-.1 0-.1-.3-.6-.8-1-1.3-1.4l-.1-.2zm-.1-.1c0-.1 0-.1 0-.1l-.2-.6c-.1-.2-.3-.3-.4-.2 0 .2 0 .4 0 .5v.1l.6.3zm-11.1-3l.1.2c.2.3.5.7.6 1 .1.2.1.3.1.5 0 .1 0 .1-.2.1-.2-.1-.3-.3-.3-.5 0-.3-.1-.5-.2-.8-.2-.3-.4-.6-.7-.9l-.1-.1h.2c.4.1.8.3 1.1.6.9.8 1.6 1.8 2.2 2.8l.4.6c.1.1.1.3.2.4 0 .1 0 .1 0 .2-.2.1-.5.1-.7 0-.1-.1-.2-.2-.1-.3.1-.1.1-.2 0-.3-.3-.8-.7-1.5-1.2-2.1-.4-.6-.8-1.1-1.4-1.4z" class="st0"/><linearGradient id="SVGID_2_" x1="26.875" x2="26.875" y1="702.859" y2="706.837" gradientUnits="userSpaceOnUse" gradientTransform="translate(0 -648.98)"><stop offset="0" stop-color="#fff"/><stop offset=".2" stop-color="#F6F6F7"/><stop offset=".52" stop-color="#DEDDE0"/><stop offset=".92" stop-color="#B6B5BB"/><stop offset="1" stop-color="#AEADB3"/></linearGradient><path d="M26.6 56.1v1l.1-.2c.1-.5.3-1 .4-1.6.1-.3.1-.5.1-.8 0-.1 0-.2-.1-.3-.1-.1-.1-.2 0-.2.1-.1.2-.1.3-.1.1 0 .2.1.1.2 0 .4-.1.9-.2 1.2-.1.6-.3 1.1-.6 1.7-.2.3-.4.6-.7.8h-.1c-.1 0-.1 0-.1-.1.2-.2.4-.6.4-.9 0-.1 0-.3 0-.4.2-.1.3-.3.4-.3z" class="st4"/><path d="M34.8 56l-.4-.5c-.4-.6-.8-1.3-1-2-.2-.8-.2-1.7.2-2.4.1-.2.4-.3.6-.2l.1.1h-.1c-.2 0-.4.2-.5.4-.3.6-.3 1.3-.2 1.9.2.7.5 1.4.9 2l.4.7zm-.9-.4c-.4-.4-.9-.6-1.5-.6 0-.2-.1-.3-.2-.5l-.4-.4c.8-.1 2 .9 2.1 1.5zm-9.1-4.3l1.2.5.6.4c.2.1.3.3.3.6 0 .2-.1.3-.3.2-.2 0-.3-.2-.3-.4 0-.4-.3-.8-.7-.9l-.6-.4h-.2zm9.8 1.2c0-.1.1-.3.2-.3h.2c.2.1.3.3.3.5 0 .1 0 .2-.1.2h-.3c-.1 0-.3-.2-.3-.4zm-9 1.2c.4-.2.8-.3 1.3-.3h.2s.1.1 0 .2l-.1.1h-1.4z" class="st0"/></g></svg>