<svg id="Camada_1" data-name="Camada 1" xmlns="http://www.w3.org/2000/svg" viewBox="0 0 400 96.16"><defs><style>.cls-1{fill:#202b58;}.cls-2{fill:#2d4490;}.cls-3{fill:#2e438f;}.cls-4{fill:#ca5025;}.cls-5{fill:#de991c;}.cls-6{fill:#7bbbcc;}.cls-7{fill:#de9a1d;}.cls-8{fill:#c94f25;}.cls-9{fill:#2e3562;}.cls-10{fill:#313864;}.cls-11{fill:#41436e;}.cls-12{fill:#343966;}.cls-13{fill:#eae9f0;}</style></defs><path class="cls-1" d="M286.28,36V53.41c0,.4,0,.79,0,1.18a.47.47,0,0,1-.41.46c-.23,0-.45,0-.68,0h-7.61a3.68,3.68,0,0,1-.67,0,.77.77,0,0,1-.44-.22c-.31-.33-.58-.69-.86-1.05q-6.91-9.07-13.84-18.16c-.27-.36-.57-.69-.86-1,0,0-.11,0-.16,0s-.11.05-.11.08c0,.39-.06.79-.06,1.18V53c0,.45,0,.9,0,1.36,0,.62-.15.76-.84.76h-9a.54.54,0,0,1-.32-.05c-.13-.09-.29-.23-.3-.36a12.2,12.2,0,0,1-.06-1.35V21.69c0-1.41,0-2.82,0-4.23,0-.35.17-.51.52-.52h4.57c1.29,0,2.59,0,3.89,0a1.34,1.34,0,0,1,1.26.66c.13.18.28.35.41.53l13.89,18.34c.21.27.4.55.63.8a.68.68,0,0,0,.39.24c.27,0,.19-.22.19-.36,0-.5,0-1,0-1.52V18.69c0-.4,0-.79,0-1.19s.17-.53.48-.55l.34,0h8.8l.33,0a.47.47,0,0,1,.45.42c0,.51,0,1,0,1.52Z"/><path class="cls-1" d="M292.49,35.89V18.64c0-.45,0-.9,0-1.35a.37.37,0,0,1,.34-.32c.28,0,.56,0,.84,0h28.92a4.58,4.58,0,0,1,.83.08c.09,0,.19.13.22.22a1.66,1.66,0,0,1,.07.49v7.11a1.7,1.7,0,0,1-.05.5c0,.15-.11.33-.32.34-.5,0-1,0-1.51,0H304.62c-.55,0-.67.14-.68.71v.68c0,4,0,4.29.2,4.32a26.79,26.79,0,0,0,4.2.09c4,0,8,0,12,0a9.32,9.32,0,0,1,1.18,0c.12,0,.26.19.32.32a1.38,1.38,0,0,1,0,.5v7.1c0,.12,0,.23,0,.34a.45.45,0,0,1-.39.45l-1.52,0H305.59c-.45,0-.9,0-1.35,0-.09,0-.19.12-.24.21a.72.72,0,0,0-.06.33c0,1.58,0,3.15,0,4.73,0,.43.18.6.62.61h17.75c.51,0,1,0,1.52,0a.5.5,0,0,1,.42.45c0,2.59,0,5.18,0,7.77a.53.53,0,0,1-.5.56l-1.35,0H293.15c-.41,0-.65-.22-.65-.6s0-.9,0-1.35Z"/><path class="cls-1" d="M393.88,55.09c-1.75,0-3.5,0-5.24,0a1,1,0,0,1-1-.69c-.48-1.32-.93-2.65-1.45-4-.58-1.49-.23-1.45-2-1.45H371.85a9.24,9.24,0,0,0-1.18,0,.55.55,0,0,0-.37.29c-.36.89-.7,1.78-1,2.67s-.68,1.79-1,2.68a.57.57,0,0,1-.51.38l-.51,0h-9.8c-.23,0-.45,0-.67-.06a.32.32,0,0,1-.2-.4l.39-.93q2.77-6.53,5.56-13,4.77-11.17,9.54-22.35c.66-1.55.3-1.38,2.06-1.38h8.79a11.53,11.53,0,0,1,1.18,0,.42.42,0,0,1,.39.27c.23.57.49,1.14.73,1.71Q392.23,36,399.27,53.11c.22.52.41,1,.61,1.58a.37.37,0,0,1-.26.37c-.34,0-.67,0-1,0Zm-16-14.47h3.72a3,3,0,0,0,.66-.08c.06,0,.15-.16.14-.24a2.88,2.88,0,0,0-.17-.64q-1.85-5.07-3.7-10.12c-.08-.21-.18-.42-.27-.62a.13.13,0,0,0-.11,0A.31.31,0,0,0,378,29,15.11,15.11,0,0,0,377,31.62c-1.06,2.78-2.11,5.57-3.15,8.35-.18.49-.09.64.38.65Z"/><path class="cls-1" d="M241.28,55.09c-1.81,0-3.61,0-5.41,0a.75.75,0,0,1-.78-.52c-.51-1.37-1-2.75-1.52-4.12-.14-.37-.25-.75-.42-1.1a.64.64,0,0,0-.37-.29,2.54,2.54,0,0,0-.67-.06H218.75a3,3,0,0,0-.67,0,.66.66,0,0,0-.39.27c-.38.94-.73,1.89-1.09,2.84-.25.68-.51,1.37-.75,2.06s-.53,1-1.23.88a5.89,5.89,0,0,0-.84,0h-9.3c-.52,0-.64-.16-.47-.61s.33-.84.51-1.25c1.78-4.19,3.58-8.38,5.37-12.57,3.09-7.25,6.16-14.5,9.27-21.73,1.05-2.44.38-2,3-2s5.41,0,8.12,0a9.31,9.31,0,0,1,1.18,0,.64.64,0,0,1,.37.28c.2.4.38.82.55,1.23Q239.7,36.19,247,53.9c.11.26.21.53.3.79s-.14.36-.27.36c-.28,0-.56,0-.84,0ZM221.15,40.51a.52.52,0,0,0,.16.06l8.26,0a.31.31,0,0,0,.26-.35c-.06-.22-.11-.44-.19-.65-.67-1.85-1.34-3.69-2-5.54-.62-1.69-1.26-3.37-1.89-5,0-.15-.13-.19-.22-.11a1.31,1.31,0,0,0-.12.11c-.1.2-.21.4-.29.61-1.23,3.26-2.46,6.51-3.67,9.78A1.93,1.93,0,0,0,221.15,40.51Z"/><path class="cls-1" d="M136.5,35.88V19c0-.46,0-.91,0-1.36,0-.63.29-.67.73-.69h16.56a23.22,23.22,0,0,1,4.71.38A16.43,16.43,0,0,1,163.25,19a11.21,11.21,0,0,1,5.56,7.13,17.1,17.1,0,0,1-.33,10,11.75,11.75,0,0,1-6.69,7.2,16.07,16.07,0,0,1-6.22,1.4l-5.91.09-1.35,0a.35.35,0,0,0-.34.31,11.46,11.46,0,0,0-.06,1.17v7.61a6,6,0,0,1-.08.84c0,.09-.12.18-.21.23a.75.75,0,0,1-.33.07H137.15l-.16,0a.51.51,0,0,1-.45-.43c0-.51,0-1,0-1.52Zm11.41-5.11h0V35.5a.45.45,0,0,0,.42.43h5.9a4.41,4.41,0,0,0,4.21-4.09,8.48,8.48,0,0,0,0-2.36,4.17,4.17,0,0,0-2.73-3.37,5.53,5.53,0,0,0-2-.39c-1.75,0-3.49,0-5.24,0-.4,0-.56.19-.56.65Z"/><path class="cls-2" d="M71.59,54.88a2.67,2.67,0,0,1-1.31.21h-5a8.47,8.47,0,0,0-2.82.43,7.8,7.8,0,0,0-3,1.85,5.92,5.92,0,0,0-1.83,4.21c0,1.12-.06,2.24-.08,3.36a6.86,6.86,0,0,1-1.17-1.41Q50.77,56,45.2,48.55a4.62,4.62,0,0,0-.59-.58,1.7,1.7,0,0,1,.52-1,25.47,25.47,0,0,1,7.46-6.28,26,26,0,0,1,8.58-3,25.13,25.13,0,0,1,3.88-.26H92.29c.79,0,1.57-.07,2.36-.1a6.44,6.44,0,0,1-1.78,1.51Q82.75,46.43,72.6,54C72.24,54.26,71.92,54.58,71.59,54.88Z"/><path class="cls-1" d="M344.22,16.93h15.9c.54,0,.67.15.67.72q0,3.8,0,7.61c0,.11,0,.22,0,.33a.48.48,0,0,1-.42.44l-1.35,0h-7.95a5.65,5.65,0,0,0-1,.07.51.51,0,0,0-.31.33c0,.51,0,1,0,1.52q0,12.44,0,24.86c0,2.61.35,2.23-2.21,2.25-2.71,0-5.41,0-8.12,0a4.58,4.58,0,0,1-.83-.08c-.09,0-.18-.14-.22-.23a.75.75,0,0,1-.07-.33c0-.51,0-1,0-1.52V28.07c0-.51,0-1,0-1.52,0-.32-.19-.47-.55-.48h-8.79a9.24,9.24,0,0,1-1.18,0c-.13,0-.28-.17-.35-.3a1.17,1.17,0,0,1-.06-.5v-7.6c0-.54.15-.67.72-.68h16.23Z"/><path class="cls-3" d="M86.42,24.69a3.53,3.53,0,0,1-.65.11c-.45,0-.9,0-1.35,0H34.8a7.58,7.58,0,0,1-2.18-.13c.39-.31.78-.64,1.18-.94L52.88,9.48c1-.74,1.95-1.51,2.93-2.26.39,0,.79,0,1.18,0H72.45l1,0L84.75,22.36C85.32,23.13,85.87,23.91,86.42,24.69Z"/><path class="cls-1" d="M173.55,35.85q0-8.62,0-17.24c0-.4,0-.79,0-1.19s.18-.48.55-.48h10.31a.51.51,0,0,1,.53.52c0,.51,0,1,0,1.52V43.33c0,.56,0,1.13,0,1.69a.47.47,0,0,0,.43.42c.5,0,1,0,1.52,0h12.17l1.35,0a.5.5,0,0,1,.43.45,4.07,4.07,0,0,1,0,.5v7.61a2.15,2.15,0,0,1-.07.67.58.58,0,0,1-.34.31,2.5,2.5,0,0,1-.67.05H174.68l-.68,0a.5.5,0,0,1-.42-.45c0-.39,0-.79,0-1.18Q173.55,44.65,173.55,35.85Z"/><path class="cls-4" d="M86.42,24.69c-.55-.78-1.1-1.56-1.67-2.33L73.46,7.21c.33,0,.67-.08,1-.08,6.37,0,12.75-.08,19.11,0a25,25,0,0,1,18.65,8.53,22.17,22.17,0,0,1,3.33,4.86,2,2,0,0,1,.32,1.12,4.45,4.45,0,0,0-.43.26L101.58,32.3c-.49.36-1,.69-1.52,1,.08-.32.14-.66.23-1a5.22,5.22,0,0,0-1.19-4.86,6.58,6.58,0,0,0-2.83-2,9.27,9.27,0,0,0-3.45-.69c-1.57,0-3.14,0-4.71,0C87.55,24.75,87,24.71,86.42,24.69Z"/><path class="cls-5" d="M55.81,7.22c-1,.75-1.94,1.52-2.93,2.26L33.8,23.74c-.4.3-.79.63-1.18.94a50.64,50.64,0,0,1-5.51,0,2.38,2.38,0,0,0-.21-.62q-1.42-2-2.89-3.92c-1.17-1.57-2.4-3.09-3.56-4.67-1.62-2.21-3.24-4.41-4.93-6.58-.24-.62-.92-1-1-1.72.56,0,1.12-.06,1.68-.06H54C54.58,7.13,55.2,7.19,55.81,7.22Z"/><path class="cls-6" d="M100.06,33.33c.51-.34,1-.67,1.52-1L115.44,22a4.45,4.45,0,0,1,.43-.26c.14.17.35.31.43.5a22.17,22.17,0,0,1,1.11,3.34,23.19,23.19,0,0,1,.65,7.84,24.31,24.31,0,0,1-4.94,12.13,21.46,21.46,0,0,1-3,3.2,15,15,0,0,1-3.83,2.71,6.77,6.77,0,0,0-.5-.87c-2-2.71-4-5.4-6-8.11-1.34-1.8-2.66-3.61-4-5.43a7.81,7.81,0,0,0,3.16-2A19.64,19.64,0,0,0,100.06,33.33Z"/><path class="cls-4" d="M14.52,7.19c.08.72.76,1.1,1,1.72,1.69,2.17,3.31,4.37,4.93,6.58,1.16,1.58,2.39,3.1,3.56,4.67q1.47,1.93,2.89,3.92a2.38,2.38,0,0,1,.21.62c-.28,0-.56.05-.84.05-5.69,0-11.38,0-17.07,0a8.15,8.15,0,0,1-2.5-.29,8.81,8.81,0,0,1-.08-17,6.76,6.76,0,0,1,1.65-.31C10.35,7.15,12.44,7.18,14.52,7.19Z"/><path class="cls-7" d="M57.57,65.35c0,1,0,2,0,3V82.9a9.18,9.18,0,0,1-.35,3,8.8,8.8,0,0,1-17-.43A7.06,7.06,0,0,1,40,83.63c0-1.8,0-3.6,0-5.4.41-.28.84-.56,1.24-.86L56.56,65.94A11.12,11.12,0,0,1,57.57,65.35Z"/><path class="cls-8" d="M95.78,37c1.33,1.82,2.65,3.63,4,5.43,2,2.71,4,5.4,6,8.11a6.77,6.77,0,0,1,.5.87A28.1,28.1,0,0,1,100.48,54a22.4,22.4,0,0,1-6.3,1c-7.08,0-14.16,0-21.24,0-.45,0-.9,0-1.35-.06.33-.3.65-.62,1-.89q10.13-7.58,20.27-15.15a6.44,6.44,0,0,0,1.78-1.51Z"/><path class="cls-6" d="M57.57,65.35a11.12,11.12,0,0,0-1,.59L41.27,77.37c-.4.3-.83.58-1.24.86,0-.56-.05-1.12-.05-1.69,0-5,0-9.91,0-14.87a24,24,0,0,1,.7-5.66A22.7,22.7,0,0,1,44,48.5a1.24,1.24,0,0,1,.62-.53,4.62,4.62,0,0,1,.59.58q5.58,7.49,11.16,15a6.86,6.86,0,0,0,1.17,1.41Z"/><path class="cls-9" d="M173.23,74.12c0-1.58,0-3.15,0-4.73,0-.38.24-.56.66-.58a1.14,1.14,0,0,1,1,.43l2.53,3.38,2.42,3.25a4.75,4.75,0,0,0,.56.62c.06.06.22,0,.32,0s.07-.1.07-.15a8.26,8.26,0,0,0,.09-1c0-1.8,0-3.6,0-5.4a5.93,5.93,0,0,1,.06-.84.37.37,0,0,1,.21-.23.92.92,0,0,1,.81,0c.09,0,.2.15.21.24a4.76,4.76,0,0,1,.07.84v8.61a5.17,5.17,0,0,1,0,.68.45.45,0,0,1-.16.27,1.32,1.32,0,0,1-1.28,0c-.15-.16-.29-.34-.43-.52l-4.34-5.82c-.2-.27-.39-.55-.61-.81s-.26-.49-.59-.53c-.18,0-.21,0-.21.71,0,1.75,0,3.49,0,5.24,0,.45,0,.9,0,1.35a.5.5,0,0,1-.51.54,1.19,1.19,0,0,1-.5,0,.61.61,0,0,1-.36-.3,2.49,2.49,0,0,1,0-.67c0-1.52,0-3,0-4.56Z"/><path class="cls-10" d="M301.47,74.3c0-1.52,0-3,0-4.56,0-.17,0-.34,0-.5a.54.54,0,0,1,.46-.42c1.41,0,2.82-.08,4.22,0a5.41,5.41,0,0,1,.41,10.79c-1.56.14-3.15,0-4.72,0a.46.46,0,0,1-.4-.46V74.3Zm1.42-.13h0c0,1.24,0,2.48,0,3.72a.42.42,0,0,0,.43.41c1,0,1.91,0,2.87,0a3.48,3.48,0,0,0,1.15-.2,4.07,4.07,0,0,0,1.83-6.38A4.29,4.29,0,0,0,306,70.13c-.84,0-1.69,0-2.53,0-.35,0-.53.18-.53.51C302.89,71.81,302.89,73,302.89,74.17Z"/><path class="cls-11" d="M246.51,74.28V70.22c0-.28,0-.56,0-.84a.59.59,0,0,1,.51-.58h6.25c.54,0,.68.17.67.73,0,.06,0,.12,0,.17a.44.44,0,0,1-.41.45l-3.55,0-1.52,0a.51.51,0,0,0-.44.42,4.38,4.38,0,0,0,0,.51c0,.5,0,1,0,1.52,0,.78.07.85.88.85h3.72c.63,0,.88.35.71,1a.58.58,0,0,1-.33.34,2.06,2.06,0,0,1-.66,0l-3.73,0a.53.53,0,0,0-.55.5,8.53,8.53,0,0,0,0,1c0,2.1-.24,1.89,1.89,1.9,1.24,0,2.48,0,3.72,0a.91.91,0,0,1,.46.18,1.09,1.09,0,0,1,0,1,.29.29,0,0,1-.11.11.75.75,0,0,1-.32.1h-6.59a.5.5,0,0,1-.55-.51V74.28Z"/><path class="cls-10" d="M208.73,74.26a5.15,5.15,0,0,1,2.78-4.71,5.67,5.67,0,0,1,6.35.34,5.42,5.42,0,0,1-2.17,9.71,5.6,5.6,0,0,1-5.17-1.33A5.29,5.29,0,0,1,208.73,74.26Zm9.94-.07c0-.14,0-.42,0-.7a4.34,4.34,0,0,0-.14-.48,4.27,4.27,0,0,0-6-2.41,4.06,4.06,0,0,0-.29,7.15,4.28,4.28,0,0,0,3.24.52A4.13,4.13,0,0,0,218.67,74.19Z"/><path class="cls-12" d="M148,74.27c0-1.63,0-3.26,0-4.89a.56.56,0,0,1,.52-.56c1.41,0,2.82,0,4.22,0a4.46,4.46,0,0,1,1.48.32,3.19,3.19,0,0,1,2.21,2.73,5,5,0,0,1-.12,1.84,3,3,0,0,1-1.08,1.67c-.26.21-.56.37-.82.57a.32.32,0,0,0,0,.3c.13.25.28.48.43.71.54.8,1.08,1.58,1.61,2.38,0,0-.07.21-.15.25a1.43,1.43,0,0,1-1,.05.71.71,0,0,1-.41-.27c-.39-.55-.75-1.12-1.12-1.68L153,76.58a.64.64,0,0,0-.58-.28c-.79,0-1.58,0-2.36,0a.62.62,0,0,0-.62.65c0,.68,0,1.35,0,2,0,.52-.18.68-.72.68a1.86,1.86,0,0,1-.33,0,.38.38,0,0,1-.34-.32,5,5,0,0,1,0-.67V74.27Zm1.37-1.91v1.35c0,1.2,0,1.24,1.22,1.23.79,0,1.58,0,2.36-.07a2.18,2.18,0,0,0,2.14-2.5,2.06,2.06,0,0,0-1.52-2,5.18,5.18,0,0,0-2-.26C149,70.16,149.41,69.71,149.37,72.36Z"/><path class="cls-10" d="M297.83,74.29a5.5,5.5,0,0,1-4.35,5.3,5.84,5.84,0,0,1-3.78-.37,5.4,5.4,0,0,1,.06-9.94,5.87,5.87,0,0,1,6.76,1.46A5.52,5.52,0,0,1,297.83,74.29Zm-5.72-4.19a3.33,3.33,0,0,0-1.85.44,4.07,4.07,0,0,0-1.7,6,4.34,4.34,0,0,0,7.06.11,4,4,0,0,0,.79-2.69A4.28,4.28,0,0,0,292.11,70.1Z"/><path class="cls-10" d="M319.49,68.77A5.73,5.73,0,0,1,325,72.6a5.38,5.38,0,0,1-2.08,6.1,5.66,5.66,0,0,1-6.35.22,5.14,5.14,0,0,1-2.68-5.08,5.23,5.23,0,0,1,3.58-4.68A4.53,4.53,0,0,1,319.49,68.77Zm-.07,1.33a3.36,3.36,0,0,0-1.72.43,4.08,4.08,0,0,0-1.2,6.62,4.21,4.21,0,0,0,2.87,1.23,4.13,4.13,0,0,0,3.92-2.15,3.78,3.78,0,0,0,.53-2.43A4.31,4.31,0,0,0,319.42,70.1Z"/><path class="cls-9" d="M388.22,74.59a5.37,5.37,0,0,1-4.37,5,5.7,5.7,0,0,1-4.94-1.11,5.39,5.39,0,0,1,.92-9,5.84,5.84,0,0,1,6.74.93A5.4,5.4,0,0,1,388.22,74.59Zm-1.39-.29a4.26,4.26,0,0,0-.85-2.51,4.32,4.32,0,0,0-7.23.56,4.15,4.15,0,0,0,.41,4.44,4.26,4.26,0,0,0,4.39,1.47A4.16,4.16,0,0,0,386.83,74.3Z"/><path class="cls-12" d="M359.15,74.31V69.57c0-.44.08-.76.67-.76h3.72a5.54,5.54,0,0,1,1.82.34,3.17,3.17,0,0,1,2.22,2.91,6.65,6.65,0,0,1,0,1.18,3.17,3.17,0,0,1-1.05,2.06,9.38,9.38,0,0,1-.83.57.36.36,0,0,0-.08.57c.28.43.56.84.85,1.26l1,1.54c.13.19,0,.43-.3.45h-.5a.86.86,0,0,1-.73-.37c-.29-.42-.54-.86-.83-1.27-.39-.56-.79-1.1-1.18-1.64a9.87,9.87,0,0,0-2.17-.1,5.17,5.17,0,0,0-.68,0,.59.59,0,0,0-.5.57c0,.74,0,1.47,0,2.2,0,.41-.19.56-.66.57a.89.89,0,0,1-.33,0c-.14-.07-.32-.16-.36-.29a2.06,2.06,0,0,1-.06-.66v-4.4Zm3.24-4.15c-.5,0-1,0-1.51,0-.12,0-.22.21-.32.34s0,.1,0,.16v3.72a.51.51,0,0,0,.36.5,15,15,0,0,0,3.54-.07,2.08,2.08,0,0,0,1.4-.85,2.35,2.35,0,0,0-1.11-3.6A5.8,5.8,0,0,0,362.39,70.16Z"/><path class="cls-12" d="M230.09,76a1.37,1.37,0,0,0,.33.78c.57.83,1.13,1.67,1.7,2.51.07.11-.07.34-.23.36s-.33,0-.5,0a.93.93,0,0,1-.87-.42c-.33-.52-.67-1-1-1.55-.18-.28-.38-.55-.55-.84a1.08,1.08,0,0,0-1.11-.59c-.62.06-1.24,0-1.85,0s-.82.31-.84.79c0,.68,0,1.35,0,2,0,.38-.21.55-.68.55s-.74-.13-.74-.65V69.6c0-.11,0-.22,0-.34a.49.49,0,0,1,.44-.42c1.4,0,2.81,0,4.21,0a4.46,4.46,0,0,1,2.24.66A3.09,3.09,0,0,1,232.18,72a6.31,6.31,0,0,1-.06,1.51,3.17,3.17,0,0,1-1.35,2.07Zm-5-3.53c0,.45,0,.9,0,1.35,0,.22,0,.44,0,.67a.5.5,0,0,0,.44.42l.34,0c1,0,2,0,3-.11a2,2,0,0,0,1.77-1.35,3.37,3.37,0,0,0,.14-1.15,2,2,0,0,0-1.37-1.92,4.73,4.73,0,0,0-2-.3C224.69,70.17,225.17,69.64,225.12,72.48Z"/><path class="cls-10" d="M281.15,76.07a1.81,1.81,0,0,0,.43.89l1.52,2.22a.45.45,0,0,1,.07.29c-.07.18-.24.21-.41.21h-.34a1,1,0,0,1-.86-.43c-.42-.67-.85-1.32-1.29-2a6.12,6.12,0,0,0-.47-.7.64.64,0,0,0-.42-.25c-.95,0-1.9,0-2.85,0a.34.34,0,0,0-.3.35c0,.68,0,1.35,0,2,0,.16,0,.33,0,.5a.44.44,0,0,1-.44.42,4.21,4.21,0,0,1-.5,0,.4.4,0,0,1-.37-.28,2.92,2.92,0,0,1-.05-.5c0-3,0-6.07,0-9.11a2.44,2.44,0,0,1,.08-.66.36.36,0,0,1,.22-.23,1.61,1.61,0,0,1,.49-.07c1.13,0,2.25,0,3.38,0a5.87,5.87,0,0,1,1.82.29,3.19,3.19,0,0,1,2.4,2.75,3.61,3.61,0,0,1-1.56,3.82,2.82,2.82,0,0,0-.29.18C281.29,75.91,281.23,76,281.15,76.07Zm-4.93-3.68h0v1c0,1.69-.08,1.55,1.53,1.54.78,0,1.57,0,2.34-.11a2,2,0,0,0,1.41-.82,2.35,2.35,0,0,0-1.16-3.67,13,13,0,0,0-3.83-.17c-.12,0-.27.18-.26.38Z"/><path class="cls-10" d="M200.46,68.81c.56,0,1.12,0,1.68,0a5.51,5.51,0,0,1,1.67.27A3.22,3.22,0,0,1,206.24,72c0,.16,0,.33,0,.5a3.48,3.48,0,0,1-3.33,3.74c-.73.08-1.46.06-2.19.08l-.85,0c-.41,0-.56.18-.57.64s0,1.13,0,1.69a5,5,0,0,1,0,.67.38.38,0,0,1-.18.26,1.14,1.14,0,0,1-1,0,.43.43,0,0,1-.19-.26.91.91,0,0,1,0-.33c0-3.1,0-6.2,0-9.3,0-.11,0-.22,0-.33a.54.54,0,0,1,.51-.56h2Zm-1.15,3.66h0c0,.68,0,1.35,0,2a.44.44,0,0,0,.41.43,17.1,17.1,0,0,0,3.2-.07,2.12,2.12,0,0,0,1.94-2.17,4.65,4.65,0,0,0-.07-.83,1.68,1.68,0,0,0-1-1.29,3.63,3.63,0,0,0-1.62-.44H200c-.57,0-.7.13-.71.67S199.31,71.91,199.31,72.47Z"/><path class="cls-10" d="M395,79.74a6.37,6.37,0,0,1-3.84-1.32.69.69,0,0,1-.2-.9,1.65,1.65,0,0,1,.28-.41.3.3,0,0,1,.27-.09c.39.22.76.49,1.15.71a4.87,4.87,0,0,0,3.27.49,2,2,0,0,0,1-.55,1.32,1.32,0,0,0,0-1.83,2.7,2.7,0,0,0-1.14-.7c-.64-.21-1.28-.44-1.92-.63a5.15,5.15,0,0,1-1.51-.73,2.61,2.61,0,0,1-.17-4.1,4,4,0,0,1,2.33-.9,6.43,6.43,0,0,1,3.44.67c.5.24.58.5.31,1.08a1.09,1.09,0,0,1-.08.15.42.42,0,0,1-.56.22,7.21,7.21,0,0,0-2.07-.69,3.28,3.28,0,0,0-2.13.34,1.22,1.22,0,0,0-.35,1.76,2.3,2.3,0,0,0,.94.7c.46.19,1,.32,1.43.49a18,18,0,0,1,1.88.75,2.5,2.5,0,0,1,1.44,2A2.74,2.74,0,0,1,397.67,79,5.06,5.06,0,0,1,395,79.74Z"/><path class="cls-10" d="M261.27,68.77a6.34,6.34,0,0,1,3.07.75.58.58,0,0,1,.26.85,1.94,1.94,0,0,1-.27.43.37.37,0,0,1-.27.12,1.4,1.4,0,0,1-.48-.18,6,6,0,0,0-1.6-.5,3.23,3.23,0,0,0-2.14.24,1.21,1.21,0,0,0-.36,2,2.87,2.87,0,0,0,1.14.7c.64.2,1.28.4,1.91.64a8.54,8.54,0,0,1,1.37.64,2.75,2.75,0,0,1,.24,4.36,3.37,3.37,0,0,1-1.33.71,6,6,0,0,1-5.54-1.19.49.49,0,0,1-.15-.6,3.82,3.82,0,0,1,.21-.46.38.38,0,0,1,.54-.18c.28.18.56.38.84.55a4.64,4.64,0,0,0,3.41.59,2,2,0,0,0,.62-.23,1.37,1.37,0,0,0,.23-2.36,3.45,3.45,0,0,0-.89-.47c-.68-.25-1.38-.45-2.08-.69a4.6,4.6,0,0,1-1.49-.77,2.67,2.67,0,0,1-.52-3.5,2.44,2.44,0,0,1,.86-.8A4.65,4.65,0,0,1,261.27,68.77Z"/><path class="cls-9" d="M169.62,78.45c.13.31.27.62.38.94a.29.29,0,0,1-.16.24,2.89,2.89,0,0,1-.66.05.65.65,0,0,1-.68-.38c-.21-.47-.42-.93-.64-1.38a4.25,4.25,0,0,0-.31-.6A.6.6,0,0,0,167,77h-4.73a.83.83,0,0,0-.78.55c-.2.46-.42.92-.61,1.39s-.41.89-1.47.69a.3.3,0,0,1-.18-.24,1.6,1.6,0,0,1,.17-.46l4.06-9.09c.07-.16.15-.3.22-.46a.85.85,0,0,1,.93-.56h.17a.73.73,0,0,1,.69.4c.15.3.28.61.42.92Q167.77,74.29,169.62,78.45Zm-4.9-7.71a2.37,2.37,0,0,0-.42.37,3.78,3.78,0,0,0-.28.61c-.5,1.12-1,2.25-1.49,3.37a.4.4,0,0,0,.35.6h3.52a.32.32,0,0,0,.29-.46Z"/><path class="cls-9" d="M355.31,79.68h-.17a.78.78,0,0,1-.79-.5c-.23-.57-.48-1.14-.75-1.7a.85.85,0,0,0-.81-.5h-4.55a.83.83,0,0,0-.79.53c-.26.55-.54,1.11-.77,1.68s-.54.52-.95.5l-.33,0a.35.35,0,0,1-.2-.4c.24-.57.48-1.14.74-1.7l3.66-8.14a1.06,1.06,0,0,1,1.4-.55.52.52,0,0,1,.27.19,3.3,3.3,0,0,1,.34.57q2.13,4.77,4.25,9.55c.14.3,0,.5-.38.51Zm-4.86-4v0h1.85a.36.36,0,0,0,.31-.48c-.31-.72-.61-1.44-.95-2.15a8.55,8.55,0,0,0-1.14-2.23s-.1,0-.11,0c-.35.7-.7,1.4-1,2.11s-.67,1.55-1,2.32a.27.27,0,0,0,.2.38Z"/><path class="cls-9" d="M190.11,68.78a6.27,6.27,0,0,1,3.18.77.55.55,0,0,1,.25.71,4.92,4.92,0,0,1-.24.45c-.09.14-.2.27-.4.2a12.55,12.55,0,0,0-1.9-.66,3.58,3.58,0,0,0-2.15.18,1.22,1.22,0,0,0-.34,2.16,3.55,3.55,0,0,0,1,.56c.63.24,1.27.44,1.91.64a5.61,5.61,0,0,1,1.51.75,2.83,2.83,0,0,1,.39,3.92,3.46,3.46,0,0,1-1.7,1.05,6.07,6.07,0,0,1-5.41-1.12c-.35-.28-.37-.4-.15-.88a1.62,1.62,0,0,1,.27-.41.32.32,0,0,1,.3-.09c.34.2.65.45,1,.65a4.75,4.75,0,0,0,3.26.58,2.59,2.59,0,0,0,.48-.12,1.46,1.46,0,0,0,1.05-1.21,1.36,1.36,0,0,0-.73-1.41,10,10,0,0,0-1.38-.61c-.42-.15-.87-.24-1.29-.4A6.75,6.75,0,0,1,187.8,74a2.48,2.48,0,0,1-1.31-2.54,2.51,2.51,0,0,1,1.6-2.2A3.91,3.91,0,0,1,190.11,68.78Z"/><path class="cls-12" d="M332.36,79.69h-.17a.77.77,0,0,1-.8-.49c-.05-.16-.12-.31-.18-.47q-1.77-4.37-3.55-8.74c-.11-.26-.2-.52-.29-.78,0-.11.14-.35.28-.37l.5,0a.68.68,0,0,1,.69.39c.26.62.52,1.24.76,1.87.71,1.77,1.4,3.55,2.11,5.32a5.76,5.76,0,0,0,.48.88s.26,0,.3,0a2.7,2.7,0,0,0,.31-.58l2.58-6.41c.1-.26.22-.52.31-.78.19-.62.51-.74,1.16-.69.25,0,.44.24.37.44s-.23.64-.35,1l-2.61,6.39c-.33.84-.67,1.67-1,2.5C333,79.6,332.89,79.69,332.36,79.69Z"/><path class="cls-11" d="M238.39,75.08V71.37a3.92,3.92,0,0,0-.08-.84.35.35,0,0,0-.33-.32l-2,0a3,3,0,0,1-.67,0,.55.55,0,0,1-.33-.32,1.18,1.18,0,0,1,0-.5.52.52,0,0,1,.4-.47,4.38,4.38,0,0,1,.51,0h6.92c.39,0,.56.22.58.67s-.14.68-.52.68H241c-.23,0-.45,0-.67,0a.37.37,0,0,0-.35.31,11.3,11.3,0,0,0-.09,1.17v6.58c0,.34,0,.68,0,1a.56.56,0,0,1-.14.29,1,1,0,0,1-1.1,0,.66.66,0,0,1-.19-.44c0-1.07,0-2.13,0-3.2v-.85Z"/><path class="cls-11" d="M139.9,75c0-1.29,0-2.58,0-3.87a4.38,4.38,0,0,0,0-.51.45.45,0,0,0-.44-.42l-2.52,0c-.31,0-.46-.19-.48-.56,0-.54.16-.79.62-.79h7.25a.5.5,0,0,1,.51.36.88.88,0,0,1-.09.79.72.72,0,0,1-.45.18c-.62,0-1.23,0-1.85,0-.23,0-.45,0-.67.06a.36.36,0,0,0-.33.33,9.94,9.94,0,0,0-.08,1.34c0,2.19,0,4.38,0,6.57a7.87,7.87,0,0,1,0,.84.38.38,0,0,1-.17.27,1,1,0,0,1-1,.05.37.37,0,0,1-.19-.25,3.78,3.78,0,0,1,0-.67V75Z"/><path class="cls-12" d="M371.82,74.32V69.78a2.06,2.06,0,0,1,.07-.66.59.59,0,0,1,.36-.29,1.2,1.2,0,0,1,.5,0,.52.52,0,0,1,.46.42c0,.22,0,.44,0,.67v8.91a4.32,4.32,0,0,1,0,.5.36.36,0,0,1-.33.32,1.83,1.83,0,0,1-.66,0,.59.59,0,0,1-.36-.29,2.15,2.15,0,0,1-.05-.67Z"/><path class="cls-9" d="M341.88,74.32c0,1.57,0,3.14,0,4.72,0,.51-.18.66-.74.64a.91.91,0,0,1-.33-.05.47.47,0,0,1-.23-.21,1.41,1.41,0,0,1-.07-.5V69.65a1.61,1.61,0,0,1,.06-.49.4.4,0,0,1,.36-.31c.11,0,.22,0,.33,0,.34,0,.58.18.59.45s0,.56,0,.84c0,1.4,0,2.81,0,4.21Z"/><path class="cls-11" d="M350.32,67.68l-.32-.06c-.15,0-.19-.11-.13-.24A6,6,0,0,1,351,66c.53-.62.58-.57,1.42-.17a.38.38,0,0,1,.11.56l-1.43,1.13A1.14,1.14,0,0,1,350.32,67.68Z"/><path class="cls-13" d="M164.72,70.74l2,4.49a.32.32,0,0,1-.29.46h-3.52a.4.4,0,0,1-.35-.6c.49-1.12,1-2.25,1.49-3.37a3.78,3.78,0,0,1,.28-.61A2.37,2.37,0,0,1,164.72,70.74Z"/><path class="cls-13" d="M350.45,75.66h-1.84a.27.27,0,0,1-.2-.38c.32-.77.64-1.55,1-2.32s.67-1.41,1-2.11c0,0,.1,0,.11,0a8.55,8.55,0,0,1,1.14,2.23c.34.71.64,1.43.95,2.15a.36.36,0,0,1-.31.48h-1.85Z"/></svg>