<svg xmlns="http://www.w3.org/2000/svg" viewBox="0 0 128 40"><defs><style>.cls-1{fill:#f5ed77;}.cls-2{fill:#efe308;}.cls-3{fill:#15ab4b;}.cls-4{fill:#9fca3a;}</style></defs><title>Rápido Brasil</title><path d="M64 31.87q-31.68 0-63.34 0c-.6 0-.67-.17-.67-.7Q0 19.95 0 8.7c0-.42 0-.6.55-.6q63.43 0 126.88 0c.52 0 .57.15.57.6q0 11.33 0 22.62c0 .5-.12.57-.58.57q-31.7-.04-63.42-.04zm2.9-23.6h-.64q-32.66 0-65.33 0c-.7 0-.8.25-.8.85q0 10.83 0 21.63c0 1.13-.1 1 1 1H126.1c.37 0 .7 0 1.08 0 .55.05.67-.17.67-.7q0-11.05 0-22.12c0-.53-.17-.67-.7-.67q-26.15 0-52.3 0c-2.64-.03-5.3-.05-7.94.02z" class="cls-1"/><path d="M74.85 8.26q26.16 0 52.32 0c.52 0 .7.14.7.67q0 11.06 0 22.13c0 .52-.13.74-.68.7-.36 0-.7 0-1.1 0H1.2c-1.15 0-1 .1-1-1Q.2 19.9.2 9.1c0-.62.12-.84.8-.84q32.67 0 65.34 0h.64c-.05.1-.1.22-.14.3-3.08 4.92-6.15 9.82-9.18 14.75a1.7 1.7 0 0 1-1.68.9q-21.45 0-42.9 0c-.25 0-.47 0-.7 0-.4 0-.54.17-.54.57 0 .94 0 1.88 0 2.83 0 .55.15.72.72.72q24.64 0 49.28 0a1.06 1.06 0 0 0 1-.58c3-4.9 6.12-9.78 9.18-14.67.9-1.6 1.98-3.17 2.83-4.84zm-22.37 7.36a1.4 1.4 0 0 1-1.22-.43.7.7 0 0 0-.95-.14 6.48 6.48 0 0 1-2.7.7c-.37 0-.37.13-.4.5-.12 1.6.6 3.3-.67 4.85a1.57 1.57 0 0 1 1.65.35.47.47 0 0 0 .67 0 5.23 5.23 0 0 1 2.68-.77c.36 0 .4-.1.43-.5.1-1.55-.48-3.2.53-4.6 0 0 0 0 0-.06a.06.06 0 0 1 0 .08zm36.84 12.7h11.17q6.66 0 13.33 0c.53 0 .77-.13.74-.7-.05-.78 0-1.6 0-2.4 0-1 0-1-1-1H66.83a.64.64 0 0 0-.58.33c-.7 1.1-1.37 2.2-2 3.3-.17.27-.1.45.24.46h.62q12.06.04 24.2.04zM84.62 16a7.47 7.47 0 0 0 1.07-1.32 2 2 0 0 0-.35-2.58c-.26-.2-.53-.38-.9-.15-.78.5-1.6 1-2.38 1.5a1.64 1.64 0 0 0-.76 1.48 19.7 19.7 0 0 1-.14 4c-.1.45.17.34.4.26a1.86 1.86 0 0 0 1.3-2c0-1.1 0-2.2 0-3.27 0-.67.7-1.17 1.2-.88a1.8 1.8 0 0 1 .12 2.7c-.13.1-.27.28-.42.1-.5-.52-.45-.04-.45.25 0 1 0 1.93 0 2.9 0 .5 0 .75-.64.6a3.33 3.33 0 0 0-2.32.4 3.1 3.1 0 0 0-1.58 1.7 3.64 3.64 0 0 1 4-.1c.24.15.4 0 .57-.13a4.63 4.63 0 0 1 2.47-.9c.17 0 .4 0 .36-.28-.15-1 0-1.94-.1-2.9s-.27-1.3-1.47-1.4zm-68.4 5.63a3.77 3.77 0 0 1 3.52-.2.94.94 0 0 0 1.26-.26c.64-.7.65-.7 1.27 0a1.76 1.76 0 0 0 .67.5.42.42 0 0 0 .57-.14c.26-.38.5-.76.7-1.15.1-.17.1-.34-.15-.34-.7 0-.82-.52-1-1a5.15 5.15 0 0 0-.62-1.8c-.6-.78-.62-.76.05-1.52l.05-.05a2.72 2.72 0 0 0 .48-3c-.37-.7-.8-.8-1.47-.45-.5.27-1 .57-1.48.82a1.78 1.78 0 0 0-1 1.77 28.94 28.94 0 0 1-.16 4.2c-.06.4.1.4.4.34a1.92 1.92 0 0 0 1.24-1.65c0-.2-.1-.5.2-.53s.32.26.37.46c.13.43.25.86.35 1.3.3 1.23.27 1.23-1 .94a3.83 3.83 0 0 0-4.22 1.77zm24-.58a2.16 2.16 0 0 1 2.46.5.28.28 0 0 0 .43 0 2.76 2.76 0 0 1 2.24-.7c.34 0 .46 0 .45-.45-.06-1.4-.06-2.82 0-4.23a.8.8 0 0 0-.28-.76 19.42 19.42 0 0 1-3-3.12c-.1-.15-.2-.3-.44-.24-.48.15-1 .27-1.46.4.5.53 1 1 1.4 1.5s1.14.75 1 1.2-1 .5-1.5.56-.4.23-.45.63c-.17 1.52.55 3.17-.86 4.67zm-7.56-4.6a6.7 6.7 0 0 0-.22-.8c-.34-.84-.72-.9-1.32-.22-.1.12-.22.24-.34.36s-.67.46 0 .74c.3.12.3.55.33.88 0 .5 0 1 0 1.48a1.5 1.5 0 0 1-.6 1.5c-.17.14-.44.33-.3.68.85-.33 1-.24.9.64-.08.7-.16 1.43-.23 2.2a7.3 7.3 0 0 1 1.53-.52c.32-.05.23-.26.2-.48a3.36 3.36 0 0 1 0-1.6c.27.14.4.46.77.22a5.1 5.1 0 0 1 2-.7c.27 0 .34-.17.3-.43a24.06 24.06 0 0 1-.1-3.5.7.7 0 0 1 .27-.62c.33-.3.76-.65-.17-.67a.7.7 0 0 1-.55-.4c-.22-.35-.45-.3-.74-.06a9.25 9.25 0 0 1-1.75 1.33zm59.3 3.34a1.8 1.8 0 0 0 1.15 1.75c.74.34 1.2 0 1.7-.5.2-.24.35-.4.6 0 .33.6 1 .8 1.24.45a3.08 3.08 0 0 0 .64-1c.1-.3-.38-.18-.5-.37a.62.62 0 0 1-.14-.3c0-1.14 0-2.26 0-3.4 0-.4.74-.48.57-.88s-.73 0-1-.33-.5-.27-.8 0c-.62.62-1.2.64-1.5 0s-.53-.34-.87-.1c-1.07.76-1.08.74-.27 1.75a1.08 1.08 0 0 0 .2.2c.3.27.26.46-.06.7a2.27 2.27 0 0 0-.97 2.02zm-67.43 0a2.23 2.23 0 0 0 1.22 1.82 1.2 1.2 0 0 0 1.5-.4c.25-.3.57-.6.83 0a1 1 0 0 0 .4.38.56.56 0 0 0 .82-.14c.2-.33.72-.84.5-1-.9-.55-.57-1.36-.6-2.08s-.24-1.5.1-1.92c.54-.76.5-.88-.37-1.2-.43-.14-.58-.28-.95.08-.64.67-1 .62-1.56-.14-.14-.2-.24-.3-.5-.17-1.5.82-1.5.82-.4 2.1.3.36.3.58-.05.88a2.46 2.46 0 0 0-.97 1.77zm74.62-.8a4.94 4.94 0 0 1-.34.52 5.56 5.56 0 0 0-1 1.5c-.05.18-.3.42-.07.58s.33-.14.43-.3.65-.46.88-.27a1.57 1.57 0 0 0 2.17 0 .33.33 0 0 1 .15 0c.52-.05 1.3.1 1.48-.2s0-1 0-1.57V19c0-.46.2-1 0-1.32s-.88 0-1.36-.27c.52-.82 1.32-1.5 1.5-2.57a1.3 1.3 0 0 1-1.74.17.37.37 0 0 0-.33 0 3.43 3.43 0 0 1-2.7.57 9.16 9.16 0 0 1 .06 2.65c-.1.7.1.87.9.78zm-12.4 2.12c.63-.12 1.12-.22 1.45.1.72.66 1.22.37 1.72-.27a1.2 1.2 0 0 1 .27-.22c.1-.1.3-.17.22-.38s-.26-.1-.4-.1c-.4 0-.9 0-.92-.55a20.93 20.93 0 0 1 0-2.53c0-.4.22-.8.8-.46a1.07 1.07 0 0 0 1.56-.55c.1-.27.4-.77-.34-.58a.43.43 0 0 1-.45-.17c-.4-.7-.67-.23-.93.1-.12.15-.22.32-.34.46s-.38.3-.46-.1a1.2 1.2 0 0 0-.64-.9c-.53-.2-.53.44-.8.66s-.7.65-.06 1c.1.05.12.3.1.46-.14 1.34.53 2.8-.8 4.05zm23.08-8.8c-.27 0-.43.2-.65.24-1 .24-1.15.77-1 1.8a48.08 48.08 0 0 1 .05 5.22c0 .18 0 .45-.07.52-1 .72-.26.84.33 1h.05c.88.46 1.2.4 1.86-.36.2-.24.27-.36-.1-.48a.8.8 0 0 1-.66-.88c.05-2.27-.24-4.68.2-7.06zM40 20.62c-1-.1-1-.7-1-1.37s0-1.36 0-2a1.32 1.32 0 0 1 .4-1.08c.26-.26.6-.67-.2-.64a.53.53 0 0 1-.44-.2c-.4-.52-.72-.33-1.07.06a2.77 2.77 0 0 1-.5.4c-.33.23-.65.42.05.63.3.1.24.43.24.7 0 1.06 0 2.1 0 3.17 0 .82.42 1.38 1.1 1.44s.9-.74 1.4-1.12zm66.7-5.17a1.08 1.08 0 0 1-1.16-.4c-.12-.15-.27-.14-.43 0l-1 .86c-.17.17-.2.36.1.4.5.1.45.47.45.83v3.45c0 .55.34.82.8 1s.7-.05 1-.33.47-.3.58-.64c-.36-.16-.93-.23-.88-.7.12-1.34-.57-2.8.52-4a.47.47 0 0 0 .07-.44zM79 20.22a2.06 2.06 0 0 0 1.68-2c.22-1.5-.14-3 .22-4.55a2 2 0 0 0-1.68 1.74.73.73 0 0 1-.53.66.94.94 0 0 0-.54 1.34c.1.18.2.5.52.23s.42-.05.4.24a11.83 11.83 0 0 1-.1 2.35zm-60.5-6.3c-.8.27-1.45.63-1.62 1.45a.8.8 0 0 1-.53.65 1.07 1.07 0 0 0-.55 1.43c.12.24.27.57.64.24s.43-.07.4.22a8.47 8.47 0 0 1-.08 2c-.1.34.07.38.33.24a2.1 2.1 0 0 0 1.3-1.92c.03-1.45-.1-2.84.1-4.32zM83 12a4.46 4.46 0 0 1-2.23-.1 5.78 5.78 0 0 0-1.53-.1 1.56 1.56 0 0 0-1.46 1.33 4.58 4.58 0 0 1 2.4.17A2.6 2.6 0 0 0 83 12zm-63.24.2a3.17 3.17 0 0 1-2-.1 1.67 1.67 0 0 0-2.13 1.47 3 3 0 0 1 1.86-.1 1.75 1.75 0 0 0 2.22-1.27zm9.64.35c0-.46-.6-1.07-.88-.9-.7.44-1.4.85-2.08 1.32-.48.33 0 .6.14.9s.3.37.6.16c.65-.4 1.32-.8 2-1.2.08-.05.24-.1.2-.3zm9.1 1.8a1 1 0 0 0 .35-.07c.3-.17.7-.33.7-.72s-.43-.1-.62-.24a1 1 0 0 1-.2-.1c-.52-.55-.8.1-1.18.26-.17.07-.4.22-.27.4a1.8 1.8 0 0 0 .93.46 1.22 1.22 0 0 0 .27 0zm66.9 0a1.4 1.4 0 0 0 1.16-.55c.1-.1.17-.33 0-.36a10.22 10.22 0 0 0-1.15-.4c-.4 0-.74.4-1.06.7-.1.1 0 .26.1.27.36.08.66.37.92.36z" class="cls-2"/><path d="M74.85 8.26c-.9 1.67-1.94 3.23-2.94 4.8l-9.15 14.7a1.06 1.06 0 0 1-1 .57q-24.64 0-49.28 0c-.57 0-.74-.17-.72-.72 0-.93 0-1.87 0-2.82 0-.4.14-.57.53-.55.24 0 .46 0 .7 0q21.45 0 42.9 0a1.7 1.7 0 0 0 1.7-.9c3-4.94 6.1-9.84 9.17-14.75a1.22 1.22 0 0 0 .14-.3c2.67-.06 5.32-.04 7.96 0zm14.47 20.07H64.44c-.34 0-.4-.17-.24-.46l2-3.3a.64.64 0 0 1 .58-.33h46.72c1 0 1 0 1 1 0 .8 0 1.6 0 2.4 0 .6-.2.7-.74.7q-6.68 0-13.35 0c-3.63 0-7.4 0-11.07 0zM84.6 16c1.2.14 1.45.36 1.52 1.4s-.07 1.93.1 2.9c.04.3-.18.27-.37.27a4.5 4.5 0 0 0-2.47.9c-.17.13-.33.3-.57.15a3.6 3.6 0 0 0-4 .1A3.16 3.16 0 0 1 80.4 20a3.33 3.33 0 0 1 2.32-.4c.63.15.64-.12.64-.6 0-1 0-1.92 0-2.9 0-.3 0-.77.45-.24.13.17.27 0 .4-.1a1.8 1.8 0 0 0-.13-2.76c-.46-.3-1.17.2-1.2.88 0 1.08 0 2.17 0 3.25a1.86 1.86 0 0 1-1.3 2c-.24.1-.5.2-.4-.26a18.5 18.5 0 0 0 .15-4 1.67 1.67 0 0 1 .76-1.5c.78-.5 1.6-1 2.38-1.48a.68.68 0 0 1 .9.13 2 2 0 0 1 .32 2.58A8.32 8.32 0 0 1 84.6 16zm0 3.75c-.06-.3.13-.7-.42-.72-.36 0-.4.2-.43.48a.74.74 0 0 0 .62.83c.36.02.1-.4.22-.6zm0-1.62c0-.27 0-.5-.4-.5s-.44.1-.42.4 0 .54.36.56.45-.14.42-.5zm-.4-.93c.2 0 .4 0 .37-.3a.4.4 0 0 0-.48-.4c-.26 0-.33.16-.33.37s.16.3.38.3zm-67.98 4.43a3.77 3.77 0 0 1 4.26-1.7c1.24.3 1.24.3 1-.95-.1-.43-.22-.86-.34-1.3-.05-.18-.1-.47-.36-.45s-.2.33-.2.52a2 2 0 0 1-1.28 1.65c-.27.1-.46.05-.4-.33a31.57 31.57 0 0 0 .1-4.23 1.78 1.78 0 0 1 1-1.77c.5-.26 1-.55 1.48-.82.7-.36 1.1-.22 1.48.46a2.73 2.73 0 0 1-.38 2.94l-.05.05c-.67.75-.67.73-.05 1.52a4.35 4.35 0 0 1 .6 1.8c.15.5.27 1 1 1 .25 0 .28.17.18.34-.22.38-.46.77-.7 1.15a.4.4 0 0 1-.57.14 1.76 1.76 0 0 1-.7-.5c-.6-.65-.63-.67-1.26 0a.93.93 0 0 1-1.27.26 3.68 3.68 0 0 0-3.56.23zm5.78-7.1a1.86 1.86 0 0 0-.36-1c-.14-.22-.26-.54-.55-.47a.67.67 0 0 0-.5.7c0 .83 0 1.67 0 2.53 0 .4.2.4.5.2a2.12 2.12 0 0 0 .9-2zM40.2 21c1.4-1.55.68-3.2.8-4.74 0-.4 0-.58.45-.64s1.37-.1 1.5-.55-.63-.8-1-1.22-.95-.85-1.4-1.43c.5-.14 1-.26 1.45-.4.24-.08.33.06.45.23a20.93 20.93 0 0 0 3 3.14.8.8 0 0 1 .27.74c-.05 1.4-.07 2.82 0 4.23 0 .43-.1.48-.45.45a2.7 2.7 0 0 0-2.22.7.28.28 0 0 1-.43 0A2.17 2.17 0 0 0 40.2 21zm4.06-2.73v-1.7a1.08 1.08 0 0 0-.84-1.07c-.43-.12-.84.43-.84 1v2.68c0 .4 1.08 1.22 1.46 1.12s.22-.27.22-.45zm-11.63-1.8a12.33 12.33 0 0 0 1.82-1.3c.3-.24.52-.3.74.05a.7.7 0 0 0 .53.4c.93 0 .5.36.17.67a.73.73 0 0 0-.25.6 24.13 24.13 0 0 0 .1 3.52c.05.26 0 .4-.3.43a5.1 5.1 0 0 0-2 .7c-.37.22-.5-.1-.78-.22a3.36 3.36 0 0 0 0 1.6c0 .22.12.43-.2.48a7.3 7.3 0 0 0-1.54.53c.1-.77.15-1.48.22-2.2.1-.88 0-1-.88-.64-.15-.35.1-.54.3-.7a1.54 1.54 0 0 0 .6-1.48c0-.5 0-1 0-1.48 0-.33 0-.76-.32-.88-.7-.27-.27-.5 0-.76a3.4 3.4 0 0 0 .34-.35c.6-.7 1-.64 1.3.22a3.9 3.9 0 0 1 .12.8zm1.6 2.14v-1.7a.5.5 0 0 0-.43-.53c-.3-.05-1.27.65-1.24 1 .07 1.07-.52 2.35 1 2.92.07 0 .1.1.15.13s.23.3.4.2.1-.28.1-.44c.06-.55.04-1.07.04-1.58zm57.7 1.2a2.27 2.27 0 0 1 .93-1.9c.33-.26.36-.45.05-.7a2.24 2.24 0 0 1-.17-.2c-.8-1-.8-1 .27-1.76.33-.24.56-.4.85.1s.9.58 1.5 0c.32-.3.53-.45.82 0s.86 0 1 .33-.57.46-.57.88c0 1.13 0 2.25 0 3.4a.56.56 0 0 0 .14.3c.12.2.58.07.5.38a2.8 2.8 0 0 1-.64 1c-.3.34-.9.15-1.25-.45-.24-.43-.4-.26-.6 0a1.3 1.3 0 0 1-1.67.5 1.77 1.77 0 0 1-1.15-1.9zm1.3-3.22a.6.6 0 0 1-.16-.07l.12.1a6.4 6.4 0 0 0 1 1.36c.17.22.67.5.4.77s-.54-.24-.74-.45-.4-.27-.53.1a1.56 1.56 0 0 0 1.1 2c.38.04.64 0 .64-.5 0-1 0-2 0-3 0-.5-.26-.68-.74-.56a3.2 3.2 0 0 1-1.12.28zm-40.75-.96c-1 1.44-.46 3.06-.52 4.6 0 .4-.05.5-.43.5a5.28 5.28 0 0 0-2.68.76.47.47 0 0 1-.67 0 1.57 1.57 0 0 0-1.65-.34c1.25-1.55.55-3.25.67-4.86 0-.36 0-.5.4-.5a6.23 6.23 0 0 0 2.72-.7.7.7 0 0 1 .95.13 1.33 1.33 0 0 0 1.2.47zm-2.1 2.9a6 6 0 0 1 0-1.13c.1-.67-.23-1-.77-1.24s-.8-.1-.8.48q0 1.34 0 2.68a1.3 1.3 0 0 0 1.2 1.1c.28 0 .35-.2.35-.43.02-.5.02-1 .02-1.5zM24.5 19.76a2.67 2.67 0 0 1 .95-1.76c.34-.27.38-.52.05-.88-1.12-1.25-1.1-1.27.4-2.1.26-.15.36 0 .5.17.53.74.93.8 1.56.12.34-.36.52-.2.95-.07.88.3.93.43.38 1.2-.3.44-.12 1.26-.1 1.9s-.28 1.54.6 2.1c.23.13-.28.66-.5 1a.56.56 0 0 1-.8.14 1 1 0 0 1-.4-.4c-.28-.63-.6-.33-.85 0a1.2 1.2 0 0 1-1.5.4 2.1 2.1 0 0 1-1.22-1.85zm1.15-3.28c.33.7.9 1 1.22 1.58.14.24.65.43.33.7s-.4-.27-.6-.4-.38-.56-.62-.06a1.57 1.57 0 0 0 1.22 2.1c.33 0 .53-.04.53-.44 0-1 0-2 0-3 0-.52-.3-.67-.74-.57a2.8 2.8 0 0 1-1.36.07zM99.15 19c-.8.1-1-.07-.88-.77a8.08 8.08 0 0 0-.05-2.65 3.43 3.43 0 0 0 2.68-.58.37.37 0 0 1 .33 0 1.3 1.3 0 0 0 1.75-.17c-.2 1.08-1 1.75-1.5 2.6.47.25 1.1-.16 1.35.26s0 .84 0 1.3v.26c0 .53.24 1.22 0 1.58s-1 .14-1.48.2a.33.33 0 0 0-.14 0c-.7.44-1.4.7-2.15 0-.22-.2-.64 0-.88.26-.12.15-.17.5-.43.32s0-.4.1-.57a6 6 0 0 1 1-1.5c.08-.15.17-.3.32-.55zm0 .88a3 3 0 0 1 1.1.17c.33.12.53.72.93.4s.07-.7.1-1.07a.83.83 0 0 0 0-.2c0-.25.12-.58-.22-.68a.83.83 0 0 0-.9.2c-.35.4-.68.78-1 1.18 0 0 0 0 0 .05a.06.06 0 0 1 0-.07zm2.5-3.54a1.74 1.74 0 0 1-1.28-.27c-.34-.26-.52-.12-.52.27v1.25c0 .12 0 .27.14.36s.3 0 .4-.14a6.06 6.06 0 0 0 1.23-1.5zm-14.9 4.8c1.3-1.26.66-2.7.8-4 0-.16 0-.4-.1-.47-.65-.4-.34-.74.05-1s.27-.86.8-.65a1.2 1.2 0 0 1 .65.9c.1.4.26.32.46.1s.24-.3.36-.46c.27-.34.52-.82.93-.12a.42.42 0 0 0 .44.17c.77-.2.45.33.34.6a1.06 1.06 0 0 1-1.56.57c-.57-.33-.76.07-.78.46a18 18 0 0 0 0 2.54c0 .53.5.55.9.55.16 0 .35-.1.42.1s-.12.28-.24.4a1.73 1.73 0 0 0-.27.2c-.5.65-1 .94-1.72.27-.32-.4-.82-.28-1.46-.15zm23.1-8.8c-.46 2.4-.15 4.78-.25 7.17a.8.8 0 0 0 .65.9c.38.1.3.24.12.48-.65.77-1 .84-1.86.36a.1.1 0 0 0-.05 0c-.58-.2-1.34-.33-.33-1 .1-.07.08-.36.08-.53a48.17 48.17 0 0 0-.05-5.2c-.1-1 .07-1.56 1-1.8.28-.15.43-.37.7-.35zM40 20.62c-.52.43-.74 1.08-1.44 1s-1.08-.62-1.1-1.43c0-1.1 0-2.13 0-3.2 0-.26.07-.6-.24-.7-.7-.2-.36-.4-.05-.63a2.77 2.77 0 0 0 .48-.4c.34-.4.67-.6 1.07-.06a.47.47 0 0 0 .43.2c.8 0 .46.4.2.64a1.34 1.34 0 0 0-.4 1.08c0 .7 0 1.36 0 2s.13 1.4 1.05 1.5zm66.73-5.17a.43.43 0 0 1-.1.45c-1.07 1.22-.4 2.7-.5 4 0 .45.5.53.87.7-.1.3-.4.42-.57.63s-.52.55-1 .33-.8-.48-.8-1v-3.48c0-.36 0-.72-.47-.8-.3-.06-.26-.23-.07-.4l1-.87c.13-.1.3-.13.4 0a1 1 0 0 0 1.2.46zM79 20.22a11.9 11.9 0 0 0 .1-2.32c0-.3 0-.57-.4-.24s-.42-.05-.53-.24a.94.94 0 0 1 .52-1.34.75.75 0 0 0 .5-.64 2.06 2.06 0 0 1 1.7-1.74c-.4 1.53 0 3-.23 4.55A2 2 0 0 1 79 20.22zm-60.5-6.3a35.83 35.83 0 0 0-.1 4.3 2.1 2.1 0 0 1-1.3 1.92c-.27.14-.4.1-.33-.24a9.47 9.47 0 0 0 .1-2c0-.3 0-.6-.42-.25s-.5 0-.64-.24a1.1 1.1 0 0 1 .57-1.4.8.8 0 0 0 .53-.64c.1-.8.8-1.16 1.6-1.42zM83 12a2.62 2.62 0 0 1-2.82 1.3 4.4 4.4 0 0 0-2.4-.16 1.57 1.57 0 0 1 1.42-1.34 5.07 5.07 0 0 1 1.53.1A4.67 4.67 0 0 0 83 12zm-63.27.2a1.74 1.74 0 0 1-2.23 1.27 3 3 0 0 0-1.86.1 1.66 1.66 0 0 1 2.13-1.5 3.17 3.17 0 0 0 1.96.13zm9.64.34c0 .2-.12.24-.22.3-.67.4-1.34.78-2 1.2-.3.2-.52.1-.6-.17s-.62-.55-.14-.9c.7-.45 1.4-.88 2.1-1.3.28-.18.86.43.88.87zm9.1 1.8a1.14 1.14 0 0 1-.28 0 1.68 1.68 0 0 1-.95-.44c-.14-.2.1-.34.27-.4.38-.16.65-.83 1.2-.27a.67.67 0 0 0 .18.1c.2.12.63-.14.63.24s-.4.55-.7.72a1 1 0 0 1-.37.04zm66.88 0c-.26 0-.55-.26-.93-.32a.16.16 0 0 1-.1-.27c.33-.3.7-.74 1.08-.7s.74.33 1.15.4c.15 0 .05.24 0 .36a1.35 1.35 0 0 1-1.2.56z" class="cls-3"/><path d="M52.48 15.62s0 0 0-.05a.06.06 0 0 1 0 .05z" class="cls-4"/><path d="M84.6 19.73c-.13.2.14.62-.25.57a.73.73 0 0 1-.62-.8c0-.3.07-.5.43-.5.54 0 .37.43.43.73zm-.04-1.63c0 .37-.14.5-.46.47s-.36-.3-.36-.55.14-.4.43-.4.42.2.4.5zm-.4-.92c-.22 0-.4 0-.43-.33s.07-.36.3-.36a.4.4 0 0 1 .5.4c.03.24-.16.25-.37.27zM22 14.52a2.06 2.06 0 0 1-1 1.92c-.27.17-.5.2-.5-.22v-2.54A.66.66 0 0 1 21 13c.3-.07.4.26.55.46a2.16 2.16 0 0 1 .45 1.06zm22.26 3.8v1.63c0 .2 0 .4-.22.45s-1.44-.72-1.46-1.12V16.6c0-.62.4-1.17.84-1a1.1 1.1 0 0 1 .84 1.07zm-10.03.28v1.56c0 .15.07.36-.1.45s-.27-.1-.4-.2-.1-.1-.15-.13c-1.53-.55-.95-1.86-1-2.92 0-.33.93-1 1.24-1a.48.48 0 0 1 .43.55zm59-2.02a4 4 0 0 0 1.1-.2c.47-.1.7.06.73.56 0 1 0 2 0 3 0 .48-.26.55-.64.5a1.58 1.58 0 0 1-1.1-2c.15-.36.27-.36.53-.1s.4.75.72.46-.2-.53-.4-.77a6.4 6.4 0 0 1-1-1.34zm-.03.05l-.13-.1a.6.6 0 0 1 .15.07s-.03.03-.03.03zM50.36 18.5V20c0 .24-.07.4-.34.43a1.32 1.32 0 0 1-1.24-1.1c0-.9 0-1.8 0-2.68 0-.58.3-.72.82-.48s.88.57.76 1.22a8.33 8.33 0 0 0 0 1.1zm-24.7-2.02a2.6 2.6 0 0 0 1.33-.1c.43-.1.72.05.72.57 0 1 0 2 0 3 0 .4-.2.46-.53.45a1.56 1.56 0 0 1-1.2-2.1c.23-.5.4-.07.6.05s.34.65.6.4-.2-.47-.32-.7c-.35-.54-.9-.9-1.25-1.57zm73.5 3.38c.32-.4.64-.8 1-1.2a.8.8 0 0 1 .9-.2c.34.1.2.43.22.67a.83.83 0 0 1 0 .2c0 .37.17.87-.1 1.1s-.6-.28-.93-.42a3.1 3.1 0 0 0-1.1-.13zm2.48-3.54a5.47 5.47 0 0 1-1.24 1.5c-.1.1-.24.23-.43.13s-.14-.24-.14-.38v-1.25c0-.4.17-.53.52-.27a1.8 1.8 0 0 0 1.3.27zm-2.5 3.54s0 0 0 .05 0 0 0-.03z" class="cls-2"/></svg>