<svg xmlns="http://www.w3.org/2000/svg" viewBox="0 0 400 125" enable-background="new 0 0 400 125"><style type="text/css">.st0{fill:#FFFFFF;} .st1{fill-rule:evenodd;clip-rule:evenodd;fill:#213167;} .st2{fill-rule:evenodd;clip-rule:evenodd;fill:url(#SVGID_1_);} .st3{fill-rule:evenodd;clip-rule:evenodd;fill:#FFFFFF;} .st4{fill-rule:evenodd;clip-rule:evenodd;fill:url(#SVGID_2_);} .st5{fill-rule:evenodd;clip-rule:evenodd;fill:url(#SVGID_3_);} .st6{fill-rule:evenodd;clip-rule:evenodd;fill:url(#SVGID_4_);} .st7{fill-rule:evenodd;clip-rule:evenodd;fill:url(#SVGID_5_);} .st8{fill-rule:evenodd;clip-rule:evenodd;fill:url(#SVGID_6_);} .st9{fill-rule:evenodd;clip-rule:evenodd;fill:url(#SVGID_7_);} .st10{fill-rule:evenodd;clip-rule:evenodd;fill:url(#SVGID_8_);} .st11{fill-rule:evenodd;clip-rule:evenodd;fill:url(#SVGID_9_);} .st12{fill-rule:evenodd;clip-rule:evenodd;fill:url(#SVGID_10_);} .st13{fill-rule:evenodd;clip-rule:evenodd;fill:url(#SVGID_11_);} .st14{fill-rule:evenodd;clip-rule:evenodd;fill:url(#SVGID_12_);} .st15{fill-rule:evenodd;clip-rule:evenodd;fill:url(#SVGID_13_);} .st16{fill-rule:evenodd;clip-rule:evenodd;fill:url(#SVGID_14_);} .st17{fill-rule:evenodd;clip-rule:evenodd;fill:url(#SVGID_15_);} .st18{fill-rule:evenodd;clip-rule:evenodd;fill:url(#SVGID_16_);} .st19{fill-rule:evenodd;clip-rule:evenodd;fill:url(#SVGID_17_);} .st20{fill-rule:evenodd;clip-rule:evenodd;fill:url(#SVGID_18_);} .st21{fill-rule:evenodd;clip-rule:evenodd;fill:url(#SVGID_19_);} .st22{fill-rule:evenodd;clip-rule:evenodd;fill:url(#SVGID_20_);} .st23{fill-rule:evenodd;clip-rule:evenodd;fill:url(#SVGID_21_);} .st24{fill-rule:evenodd;clip-rule:evenodd;fill:url(#SVGID_22_);} .st25{fill-rule:evenodd;clip-rule:evenodd;fill:url(#SVGID_23_);} .st26{fill-rule:evenodd;clip-rule:evenodd;fill:url(#SVGID_24_);} .st27{fill-rule:evenodd;clip-rule:evenodd;fill:url(#SVGID_25_);} .st28{fill-rule:evenodd;clip-rule:evenodd;fill:url(#SVGID_26_);} .st29{fill-rule:evenodd;clip-rule:evenodd;fill:url(#SVGID_27_);} .st30{fill-rule:evenodd;clip-rule:evenodd;fill:url(#SVGID_28_);} .st31{fill-rule:evenodd;clip-rule:evenodd;fill:url(#SVGID_29_);} .st32{fill-rule:evenodd;clip-rule:evenodd;fill:url(#SVGID_30_);} .st33{fill-rule:evenodd;clip-rule:evenodd;fill:url(#SVGID_31_);} .st34{fill-rule:evenodd;clip-rule:evenodd;fill:url(#SVGID_32_);} .st35{fill-rule:evenodd;clip-rule:evenodd;fill:url(#SVGID_33_);} .st36{fill-rule:evenodd;clip-rule:evenodd;fill:url(#SVGID_34_);} .st37{fill-rule:evenodd;clip-rule:evenodd;fill:url(#SVGID_35_);} .st38{fill-rule:evenodd;clip-rule:evenodd;fill:url(#SVGID_36_);} .st39{fill-rule:evenodd;clip-rule:evenodd;fill:url(#SVGID_37_);} .st40{fill-rule:evenodd;clip-rule:evenodd;fill:url(#SVGID_38_);} .st41{fill-rule:evenodd;clip-rule:evenodd;fill:url(#SVGID_39_);} .st42{fill-rule:evenodd;clip-rule:evenodd;fill:url(#SVGID_40_);} .st43{fill-rule:evenodd;clip-rule:evenodd;fill:url(#SVGID_41_);} .st44{fill-rule:evenodd;clip-rule:evenodd;fill:url(#SVGID_42_);} .st45{fill-rule:evenodd;clip-rule:evenodd;fill:url(#SVGID_43_);} .st46{fill-rule:evenodd;clip-rule:evenodd;fill:url(#SVGID_44_);} .st47{fill-rule:evenodd;clip-rule:evenodd;fill:url(#SVGID_45_);} .st48{fill-rule:evenodd;clip-rule:evenodd;fill:url(#SVGID_46_);} .st49{fill-rule:evenodd;clip-rule:evenodd;fill:url(#SVGID_47_);} .st50{fill-rule:evenodd;clip-rule:evenodd;fill:url(#SVGID_48_);} .st51{fill-rule:evenodd;clip-rule:evenodd;fill:url(#SVGID_49_);} .st52{fill-rule:evenodd;clip-rule:evenodd;fill:url(#SVGID_50_);} .st53{fill-rule:evenodd;clip-rule:evenodd;fill:url(#SVGID_51_);} .st54{fill-rule:evenodd;clip-rule:evenodd;fill:url(#SVGID_52_);} .st55{fill-rule:evenodd;clip-rule:evenodd;fill:url(#SVGID_53_);} .st56{fill-rule:evenodd;clip-rule:evenodd;fill:url(#SVGID_54_);} .st57{fill-rule:evenodd;clip-rule:evenodd;fill:url(#SVGID_55_);} .st58{fill-rule:evenodd;clip-rule:evenodd;fill:url(#SVGID_56_);} .st59{fill-rule:evenodd;clip-rule:evenodd;fill:url(#SVGID_57_);} .st60{fill-rule:evenodd;clip-rule:evenodd;fill:url(#SVGID_58_);} .st61{fill-rule:evenodd;clip-rule:evenodd;fill:url(#SVGID_59_);} .st62{fill-rule:evenodd;clip-rule:evenodd;fill:url(#SVGID_60_);} .st63{fill-rule:evenodd;clip-rule:evenodd;fill:#323232;} .st64{fill-rule:evenodd;clip-rule:evenodd;fill:url(#SVGID_61_);} .st65{fill-rule:evenodd;clip-rule:evenodd;fill:url(#SVGID_62_);} .st66{fill-rule:evenodd;clip-rule:evenodd;fill:url(#SVGID_63_);} .st67{fill-rule:evenodd;clip-rule:evenodd;fill:url(#SVGID_64_);} .st68{fill-rule:evenodd;clip-rule:evenodd;fill:url(#SVGID_65_);} .st69{fill-rule:evenodd;clip-rule:evenodd;fill:url(#SVGID_66_);} .st70{fill-rule:evenodd;clip-rule:evenodd;fill:url(#SVGID_67_);} .st71{fill-rule:evenodd;clip-rule:evenodd;fill:url(#SVGID_68_);} .st72{fill-rule:evenodd;clip-rule:evenodd;fill:url(#SVGID_69_);} .st73{fill-rule:evenodd;clip-rule:evenodd;fill:url(#SVGID_70_);} .st74{fill-rule:evenodd;clip-rule:evenodd;fill:url(#SVGID_71_);} .st75{fill-rule:evenodd;clip-rule:evenodd;fill:url(#SVGID_72_);} .st76{fill-rule:evenodd;clip-rule:evenodd;fill:url(#SVGID_73_);} .st77{fill-rule:evenodd;clip-rule:evenodd;fill:url(#SVGID_74_);} .st78{fill-rule:evenodd;clip-rule:evenodd;fill:url(#SVGID_75_);} .st79{fill-rule:evenodd;clip-rule:evenodd;fill:url(#SVGID_76_);} .st80{fill-rule:evenodd;clip-rule:evenodd;fill:url(#SVGID_77_);} .st81{fill-rule:evenodd;clip-rule:evenodd;fill:url(#SVGID_78_);} .st82{fill-rule:evenodd;clip-rule:evenodd;fill:url(#SVGID_79_);} .st83{fill-rule:evenodd;clip-rule:evenodd;fill:url(#SVGID_80_);} .st84{fill-rule:evenodd;clip-rule:evenodd;fill:url(#SVGID_81_);} .st85{fill-rule:evenodd;clip-rule:evenodd;fill:url(#SVGID_82_);} .st86{fill-rule:evenodd;clip-rule:evenodd;fill:url(#SVGID_83_);} .st87{fill-rule:evenodd;clip-rule:evenodd;fill:url(#SVGID_84_);} .st88{fill-rule:evenodd;clip-rule:evenodd;fill:url(#SVGID_85_);} .st89{fill-rule:evenodd;clip-rule:evenodd;fill:url(#SVGID_86_);} .st90{fill-rule:evenodd;clip-rule:evenodd;fill:url(#SVGID_87_);} .st91{fill-rule:evenodd;clip-rule:evenodd;fill:url(#SVGID_88_);} .st92{fill-rule:evenodd;clip-rule:evenodd;fill:url(#SVGID_89_);} .st93{fill-rule:evenodd;clip-rule:evenodd;fill:url(#SVGID_90_);} .st94{fill-rule:evenodd;clip-rule:evenodd;fill:url(#SVGID_91_);} .st95{fill-rule:evenodd;clip-rule:evenodd;fill:url(#SVGID_92_);} .st96{fill-rule:evenodd;clip-rule:evenodd;fill:url(#SVGID_93_);} .st97{fill-rule:evenodd;clip-rule:evenodd;fill:url(#SVGID_94_);} .st98{fill-rule:evenodd;clip-rule:evenodd;fill:url(#SVGID_95_);} .st99{fill-rule:evenodd;clip-rule:evenodd;fill:url(#SVGID_96_);} .st100{fill-rule:evenodd;clip-rule:evenodd;fill:url(#SVGID_97_);} .st101{fill-rule:evenodd;clip-rule:evenodd;fill:url(#SVGID_98_);} .st102{fill-rule:evenodd;clip-rule:evenodd;fill:url(#SVGID_99_);} .st103{fill-rule:evenodd;clip-rule:evenodd;fill:url(#SVGID_100_);}</style><text transform="matrix(1.006 0 0 1 -161.593 -468.402)" class="st0" font-family="FuturaPT-Medium" font-size="21" letter-spacing="4">Altura 32</text><text transform="matrix(1.006 0 0 1 -154.6 -278.839)" class="st0" font-family="FuturaPT-Medium" font-size="21" letter-spacing="4">675x301</text><text transform="matrix(1.006 0 0 1 -90.487 47.197)" class="st0" font-family="FuturaPT-Medium" font-size="21" letter-spacing="4">svg</text><text transform="matrix(1.006 0 0 1 -122.15 -89.35)" class="st0" font-family="FuturaPT-Medium" font-size="21" letter-spacing="4">72x32</text><g font-family="FuturaPT-Medium" font-size="21" letter-spacing="4"><text transform="matrix(1.006 0 0 1 -122.149 -43.645)" class="st0">72x32</text><text transform="matrix(1.006 0 0 1 -162.714 -24.977)" class="st0">grayscale</text></g><path d="M438.6-164v-41.5h11.3v31.8h14v9.7h-25.3zm-85.3 0l14.3-41.5h14.2l14.3 41.5h-11.2l-2.1-7.4h-16.1l-2.2 7.4h-11.2zm15.9-15.5h11.2l-4.2-13.7c-.1-.4-.3-1.1-.5-2-.2-.9-.5-2.1-.9-3.6-.2 1-.5 2-.7 2.9-.2.9-.5 1.8-.7 2.7l-4.2 13.7zM314-164h-30.5v-41.5H314v9h-19.8v7.1h19.1v9h-19.1v7.5H314v8.9zm-92.1-17.5v-12.9h6.1c3.6 0 6.4 2.9 6.4 6.4 0 3.5-2.8 6.4-6.4 6.4h-6.1zm12.5 17.3v.2h11.1c0-4.6-1.8-8.8-4.7-12 2.9-3.1 4.7-7.3 4.7-12 0-9.7-7.8-17.5-17.5-17.5h-16.9v41.5h10.8v-7.2h6.2c3.4 0 6.3 3.1 6.3 7z" class="st1"/><linearGradient id="SVGID_1_" x1="337.354" x2="337.69" y1="-133.127" y2="-152.332" gradientUnits="userSpaceOnUse"><stop offset="0" stop-color="#B21218"/><stop offset=".7" stop-color="#B63447"/><stop offset=".95" stop-color="#D1711C"/></linearGradient><path d="M43.6-147.2h587.8v9H43.6z" class="st2"/><path d="M409.5-264.8c7.6 8.2 13.7 17.7 18.1 28.1l5.9 14h-71l-2.8-2.4c-6.2-5.2-14-8.1-22.2-8.1-8.1 0-15.9 2.8-22.2 8.1l-2.8 2.4h-71l5.9-14c4.4-10.3 10.5-19.8 18.1-28.1-1.7-1.8-3.2-3.7-4.7-5.6-8.6.4-17.2 1.2-25.8 1.9-13.8 1.1-28.7 2.3-42.5.3-13.8-2.1-27.4-6.5-38.8-14.8-6.4-4.6-11-9.5-15.7-15.8-.7-1-1.5-1.9-2.3-2.8-.5-.1-.9-.3-1.4-.4-2.7-.8-5.3-1.7-7.9-2.7-1.1-.4-2.2-.9-3.3-1.4-5.6-2.6-10.8-5.6-15.7-9.5-1.6-1.3-3.2-2.7-4.7-4.1-2.3-2.2-4.5-4.7-6.5-7.2-1.4-1.8-2.7-3.6-4.2-5.3-1.2-.3-2.4-.7-3.6-1-6.1-1.9-12.2-4.5-17.7-7.8-2.1-1.3-4.2-2.6-6.2-4.1-3.3-2.4-6.3-5.2-9.1-8.2-2-2.2-3.7-4.4-5.5-6.7-.7-1-1.5-2-2.4-2.9-1.3-.3-2.5-.7-3.8-1.1-4.8-1.5-9.5-3.4-14-5.7-5.8-3-11.2-6.8-15.9-11.4-3.4-3.2-5.9-6.4-8.7-10.1-1-1.3-2.1-2.5-3.1-3.7-2-2.4-3-5.6-1.8-8.7 1.7-4.3 5.3-4.9 9.2-5.2 56-3.8 185.1-5.3 239 36.8 15.5-33.5 49.4-56.8 88.8-56.8s73.3 23.2 88.8 56.8c53.9-42.1 183-40.6 239-36.8 3.9.3 7.5.9 9.2 5.2 1.2 3.1.3 6.3-1.8 8.7-1 1.2-2.1 2.4-3.1 3.7-2.8 3.7-5.3 6.9-8.7 10.1-4.7 4.5-10.1 8.3-15.9 11.4-4.5 2.3-9.1 4.2-14 5.7-1.3.4-2.5.8-3.8 1.1-.8.9-1.6 1.9-2.4 2.9-1.8 2.3-3.5 4.6-5.5 6.7-2.8 3-5.8 5.8-9.1 8.2-2 1.5-4 2.9-6.2 4.1-5.5 3.3-11.5 5.9-17.7 7.8-1.2.4-2.4.7-3.6 1-1.5 1.7-2.8 3.5-4.2 5.3-2 2.5-4.2 5-6.5 7.2-1.5 1.4-3.1 2.8-4.7 4.1-4.9 3.9-10 6.9-15.7 9.5-1.1.5-2.2.9-3.3 1.4-2.6 1-5.2 1.9-7.9 2.7-.5.1-.9.3-1.4.4-.8.9-1.5 1.8-2.3 2.8-4.7 6.3-9.3 11.2-15.7 15.8-11.4 8.2-24.9 12.7-38.8 14.8-13.8 2-28.7.8-42.5-.3-8.6-.7-17.2-1.5-25.8-1.9-.8 2-2.4 3.8-4.1 5.6" class="st3"/><linearGradient id="SVGID_2_" x1="7416.674" x2="7411.349" y1="-315.512" y2="-281.89" gradientUnits="userSpaceOnUse" gradientTransform="matrix(-1 0 0 1 7893.129 0)"><stop offset="0" stop-color="#848484"/><stop offset=".8" stop-color="#fff"/><stop offset="1" stop-color="#fff"/></linearGradient><path d="M423.9-285c22.5 1.6 44.1 4.4 60.8 2.5 32.9-3.7 41.9-17.8 46.3-22.1 1.7-1.7 3-2.6 3.7-3.1.2-.2.3-.4.4-.5-3 .8-6.2 1.4-9.7 1.9-24 3.6-55-3.7-87.3-2.5-1.8.1-3.6.1-5.3.2-2 8.3-5 16.2-8.9 23.6" class="st4"/><linearGradient id="SVGID_3_" x1="7396.575" x2="7435.594" y1="-270.679" y2="-314.781" gradientUnits="userSpaceOnUse" gradientTransform="matrix(-1 0 0 1 7893.129 0)"><stop offset="0" stop-color="#848484"/><stop offset="1" stop-color="#fff"/></linearGradient><path d="M534.6-307.7c-.7.5-2 1.5-3.7 3.1-4.4 4.3-13.4 18.4-46.3 22.1-16.7 1.9-38.3-.9-60.8-2.5-1.3 2.5-2.8 5-4.3 7.3 22.9 1.4 44.3 4.6 61.9 2 32.9-4.9 45.1-21.7 49.5-27.6l.3-.4c1.6-2 2.8-3.3 3.4-4" class="st5"/><linearGradient id="SVGID_4_" x1="7389.712" x2="7383.906" y1="-346.591" y2="-309.93" gradientUnits="userSpaceOnUse" gradientTransform="matrix(-1 0 0 1 7893.129 0)"><stop offset="0" stop-color="#848484"/><stop offset=".8" stop-color="#fff"/><stop offset="1" stop-color="#fff"/></linearGradient><path d="M434.2-316.3c1.3-.1 2.6-.1 3.8-.1 32.3-1 66.5 6 90.4 3.3 32.7-3.7 41.6-17.7 46-22 1.7-1.7 3-2.6 3.7-3.1.2-.3.4-.5.5-.6l-.5.1h-.2l-.3.1H577.3l-.4.1h-.1l-.7.1h-.2l-.3.1h-.1l-.7.1h-.2l-.3.1h-.1l-1 .2H572.9c-.4.1-.8.1-1.1.2H571.5c-.4.1-.9.1-1.3.2-24 3.6-55-3.7-87.3-2.5l-1.5.1-1.5.1-1.5.1-1.5.1-1.5.1-1.5.1-1.5.1-1.5.1-1.5.1-1.5.1-1.5.1c-10.4.7-20.8 1.6-31.1 3 .1 1.6.1 3.2.1 4.8-.1 5.1-.5 10-1.2 14.8" class="st6"/><linearGradient id="SVGID_5_" x1="7347.633" x2="7341.804" y1="-400.912" y2="-364.108" gradientUnits="userSpaceOnUse" gradientTransform="matrix(-1 0 0 1 7893.129 0)"><stop offset="0" stop-color="#848484"/><stop offset=".8" stop-color="#fff"/><stop offset="1" stop-color="#fff"/></linearGradient><path d="M664.8-401.2c-78.9-5.3-190.6-.4-235.4 36.5 1 2.6 1.8 5.3 2.6 8 .7-.2 1.3-.4 2-.6 22.3-13.4 53.7-19.5 92.9-20.8 32.3-1 66.5 6 90.4 3.3 32.7-3.7 41.6-17.7 46-22 1.7-1.7 3-2.6 3.7-3.1 1-1.2.5-1.1-2.2-1.3" class="st7"/><linearGradient id="SVGID_6_" x1="7367.398" x2="7361.579" y1="-373.966" y2="-337.222" gradientUnits="userSpaceOnUse" gradientTransform="matrix(-1 0 0 1 7893.129 0)"><stop offset="0" stop-color="#848484"/><stop offset=".8" stop-color="#fff"/><stop offset="1" stop-color="#fff"/></linearGradient><path d="M434.4-357.4c-.9.2-1.7.5-2.5.7 1.3 4.6 2.2 9.4 2.7 14.2 14.3-2.7 30.3-4.3 47.8-4.8 32.3-1 66.5 6 90.4 3.3 32.7-3.7 41.6-17.7 46-22 1.7-1.7 3-2.6 3.7-3.1.2-.3.4-.5.5-.6l-.5.1h-.2l-.3.1H621.7l-.4.1H621l-.3.1H620.4l-.3.1h-.1l-.7.1h-.2l-.3.1h-.1l-1 .2H617.4l-1.1.2H616c-.4.1-.9.1-1.3.2-24 3.6-55-3.7-87.3-2.5l-1.5.1-1.4.1-1.4.1-1.4.1-1.4.1h-.1l-2.2.4h-.1l-1.4.1-1.5.1h-.1l-1.4.1h-.1l-1.4.1h-.1l-1.4.1h-.1l-1.3.1-1.5.1h-.1c-24.2 1.7-48.3 5.1-71.7 11.5h-.1l-1.3.4z" class="st8"/><linearGradient id="SVGID_7_" x1="7340.792" x2="7387.664" y1="-316.233" y2="-388.411" gradientUnits="userSpaceOnUse" gradientTransform="matrix(-1 0 0 1 7893.129 0)"><stop offset="0" stop-color="#848484"/><stop offset=".565" stop-color="#fff"/><stop offset=".752" stop-color="#fff"/><stop offset="1" stop-color="#AEAEAE"/></linearGradient><path d="M622.5-369c-.7.5-1.9 1.4-3.7 3.1-4.4 4.3-13.3 18.3-46 22-24 2.7-58.2-4.4-90.4-3.3-17.5.6-33.5 2.1-47.8 4.8.3 2.2.4 4.4.6 6.6 15.7-2.1 31.5-3.2 47.2-3.8 32.3-1.2 63.3 6 87.3 2.5 32.7-4.9 44.8-21.6 49.2-27.4l.3-.4c1.5-2.1 2.7-3.3 3.3-4.1" class="st9"/><linearGradient id="SVGID_8_" x1="7314.648" x2="7367.616" y1="-335.184" y2="-416.747" gradientUnits="userSpaceOnUse" gradientTransform="matrix(-1 0 0 1 7893.129 0)"><stop offset="0" stop-color="#848484"/><stop offset=".5" stop-color="#fff"/><stop offset=".65" stop-color="#fff"/><stop offset="1" stop-color="#848484"/></linearGradient><path d="M666.9-399.8c-.7.5-1.9 1.4-3.7 3.1-4.4 4.3-13.3 18.3-46 22-24 2.7-58.2-4.4-90.4-3.3-39.2 1.2-70.7 7.4-92.9 20.8 30.2-8.6 61.6-12 92.9-13.2 32.3-1.2 63.3 6 87.3 2.5 32.7-4.9 44.8-21.6 49.2-27.4l.3-.4c1.5-2.1 2.6-3.3 3.3-4.1" class="st10"/><linearGradient id="SVGID_9_" x1="7369.596" x2="7405.57" y1="-295.552" y2="-350.947" gradientUnits="userSpaceOnUse" gradientTransform="matrix(-1 0 0 1 7893.129 0)"><stop offset="0" stop-color="#848484"/><stop offset=".82" stop-color="#fff"/><stop offset="1" stop-color="#fff"/></linearGradient><path d="M578.2-338.2c-.7.5-1.9 1.4-3.7 3.1-4.4 4.3-13.3 18.3-46 22-24 2.7-58.2-4.4-90.4-3.3-1.3 0-2.6.1-3.8.1-.4 2.6-.9 5.2-1.5 7.7 1.8-.1 3.6-.2 5.3-.2 32.3-1.2 63.3 6 87.3 2.5 32.7-4.9 44.8-21.6 49.2-27.4l.3-.4c1.5-2.1 2.6-3.3 3.3-4.1" class="st11"/><linearGradient id="SVGID_10_" x1="198.545" x2="193.22" y1="-315.512" y2="-281.89" gradientUnits="userSpaceOnUse"><stop offset="0" stop-color="#848484"/><stop offset=".8" stop-color="#fff"/><stop offset="1" stop-color="#fff"/></linearGradient><path d="M251.1-285c-22.5 1.6-44.1 4.4-60.8 2.5-32.9-3.7-41.9-17.8-46.3-22.1-1.7-1.7-3-2.6-3.7-3.1-.2-.2-.3-.4-.4-.5 3 .8 6.2 1.4 9.7 1.9 24 3.6 55-3.7 87.3-2.5 1.8.1 3.6.1 5.3.2 2 8.3 5 16.2 8.9 23.6" class="st12"/><linearGradient id="SVGID_11_" x1="178.446" x2="217.465" y1="-270.679" y2="-314.781" gradientUnits="userSpaceOnUse"><stop offset="0" stop-color="#848484"/><stop offset="1" stop-color="#fff"/></linearGradient><path d="M140.4-307.7c.7.5 2 1.5 3.7 3.1 4.4 4.3 13.4 18.4 46.3 22.1 16.7 1.9 38.3-.9 60.8-2.5 1.3 2.5 2.8 5 4.3 7.3-22.9 1.4-44.3 4.6-61.9 2-32.9-4.9-45.1-21.7-49.5-27.6l-.3-.4c-1.6-2-2.8-3.3-3.4-4" class="st13"/><linearGradient id="SVGID_12_" x1="171.583" x2="165.776" y1="-346.591" y2="-309.93" gradientUnits="userSpaceOnUse"><stop offset="0" stop-color="#848484"/><stop offset=".8" stop-color="#fff"/><stop offset="1" stop-color="#fff"/></linearGradient><path d="M240.8-316.3c-1.3-.1-2.6-.1-3.8-.1-32.3-1-66.5 6-90.4 3.3-32.7-3.7-41.6-17.7-46-22-1.7-1.7-3-2.6-3.7-3.1-.2-.3-.4-.5-.5-.6l.5.1h.2l.3.1H97.7l.4.1h.1l.7.1h.2l.3.1h.1l.7.1h.2l.3.1h.1l1 .2H102.1c.4.1.8.1 1.1.2H103.5c.4.1.9.1 1.3.2 24 3.6 55-3.7 87.3-2.5l1.5.1 1.5.1 1.5.1 1.5.1 1.5.1 1.5.1 1.5.1 1.5.1 1.5.1 1.5.1 1.5.1c10.4.7 20.8 1.6 31.1 3-.1 1.6-.1 3.2-.1 4.8.1 5.1.5 10 1.2 14.8" class="st14"/><linearGradient id="SVGID_13_" x1="129.503" x2="123.674" y1="-400.912" y2="-364.108" gradientUnits="userSpaceOnUse"><stop offset="0" stop-color="#848484"/><stop offset=".8" stop-color="#fff"/><stop offset="1" stop-color="#fff"/></linearGradient><path d="M10.2-401.2c78.9-5.3 190.6-.4 235.4 36.5-1 2.6-1.8 5.3-2.6 8-.7-.2-1.3-.4-2-.6-22.3-13.4-53.7-19.5-92.9-20.8-32.3-1-66.5 6-90.4 3.3-32.7-3.7-41.6-17.7-46-22-1.7-1.7-3-2.6-3.7-3.1-1-1.2-.5-1.1 2.2-1.3" class="st15"/><linearGradient id="SVGID_14_" x1="149.269" x2="143.449" y1="-373.966" y2="-337.222" gradientUnits="userSpaceOnUse"><stop offset="0" stop-color="#848484"/><stop offset=".8" stop-color="#fff"/><stop offset="1" stop-color="#fff"/></linearGradient><path d="M240.6-357.4c.9.2 1.7.5 2.5.7-1.3 4.6-2.2 9.4-2.7 14.2-14.3-2.7-30.3-4.3-47.8-4.8-32.3-1-66.5 6-90.4 3.3-32.7-3.7-41.6-17.7-46-22-1.7-1.7-3-2.6-3.7-3.1-.2-.3-.4-.5-.5-.6l.5.1h.2l.3.1H53.3l.4.1H54l.3.1H54.6l.3.1h.1l.7.1h.2l.3.1h.1l1 .2H57.6l1.1.2H59c.4.1.9.1 1.3.2 24 3.6 55-3.7 87.3-2.5l1.5.1 1.4.1 1.4.1 1.4.1 1.4.1h.1l1.4.1h.1l1.4.1 1.5.1h.1l1.4.1h.1l1.4.1h.1l1.4.1h.1l1.3.1 1.5.1h.1c24.2 1.7 48.3 5.1 71.7 11.5h.1l1.3.4.8.3z" class="st16"/><linearGradient id="SVGID_15_" x1="122.662" x2="169.535" y1="-316.233" y2="-388.411" gradientUnits="userSpaceOnUse"><stop offset="0" stop-color="#848484"/><stop offset=".565" stop-color="#fff"/><stop offset=".752" stop-color="#fff"/><stop offset="1" stop-color="#AEAEAE"/></linearGradient><path d="M52.5-369c.7.5 1.9 1.4 3.7 3.1 4.4 4.3 13.3 18.3 46 22 24 2.7 58.2-4.4 90.4-3.3 17.5.6 33.5 2.1 47.8 4.8-.3 2.2-.4 4.4-.6 6.6-15.7-2.1-31.5-3.2-47.2-3.8-32.3-1.2-63.3 6-87.3 2.5-32.7-4.9-44.8-21.6-49.2-27.4l-.3-.4c-1.5-2.1-2.7-3.3-3.3-4.1" class="st17"/><linearGradient id="SVGID_16_" x1="96.519" x2="149.486" y1="-335.184" y2="-416.747" gradientUnits="userSpaceOnUse"><stop offset="0" stop-color="#848484"/><stop offset=".5" stop-color="#fff"/><stop offset=".65" stop-color="#fff"/><stop offset="1" stop-color="#848484"/></linearGradient><path d="M8.1-399.8c.7.5 1.9 1.4 3.7 3.1 4.4 4.3 13.3 18.3 46 22 24 2.7 58.2-4.4 90.4-3.3 39.2 1.2 70.7 7.4 92.9 20.8-30.2-8.6-61.6-12-92.9-13.2-32.3-1.2-63.3 6-87.3 2.5-32.7-4.9-44.8-21.6-49.2-27.4l-.3-.4c-1.5-2.1-2.6-3.3-3.3-4.1" class="st18"/><linearGradient id="SVGID_17_" x1="151.467" x2="187.44" y1="-295.552" y2="-350.947" gradientUnits="userSpaceOnUse"><stop offset="0" stop-color="#848484"/><stop offset=".82" stop-color="#fff"/><stop offset="1" stop-color="#fff"/></linearGradient><path d="M96.8-338.2c.7.5 1.9 1.4 3.7 3.1 4.4 4.3 13.3 18.3 46 22 24 2.7 58.2-4.4 90.4-3.3 1.3 0 2.6.1 3.8.1.4 2.6.9 5.2 1.5 7.7-1.8-.1-3.6-.2-5.3-.2-32.3-1.2-63.3 6-87.3 2.5-32.7-4.9-44.8-21.6-49.2-27.4l-.3-.4c-1.5-2.1-2.6-3.3-3.3-4.1" class="st19"/><linearGradient id="SVGID_18_" x1="337.522" x2="337.522" y1="-243.355" y2="-418.548" gradientUnits="userSpaceOnUse"><stop offset="0" stop-color="#1E2A5B"/><stop offset="1" stop-color="#273B7C"/></linearGradient><path d="M332.5-375.3c-22.3 2.5-39.6 21.4-39.6 44.3s17.3 41.8 39.6 44.3v43.3c-46.1-2.6-82.7-40.8-82.7-87.6s36.6-85 82.7-87.6v43.3zm10 88.7c22.3-2.5 39.6-21.4 39.6-44.3s-17.3-41.8-39.6-44.3v-43.3c46.1 2.6 82.7 40.8 82.7 87.6s-36.6 85-82.7 87.6v-43.3z" class="st20"/><linearGradient id="SVGID_19_" x1="332.531" x2="256.688" y1="-259.507" y2="-259.507" gradientUnits="userSpaceOnUse"><stop offset="0" stop-color="#1E2A5B"/><stop offset="1" stop-color="#273B7C"/></linearGradient><path d="M332.5-242.9c-8.9 1-17.1 4.6-23.6 10.1h-52.2c12.7-30 41.7-51.5 75.8-53.4v43.3z" class="st21"/><linearGradient id="SVGID_20_" x1="342.514" x2="418.356" y1="-259.507" y2="-259.507" gradientUnits="userSpaceOnUse"><stop offset="0" stop-color="#1E2A5B"/><stop offset="1" stop-color="#273B7C"/></linearGradient><path d="M366.2-232.8c-6.5-5.5-14.7-9.1-23.6-10.1v-43.3c34.2 1.9 63.1 23.4 75.8 53.4h-52.2z" class="st22"/><path d="M48.1-459.9v-4.5h1.2v3.5h1.5v1.1h-2.7zm-9.4 0l1.6-4.5h1.6l1.6 4.5h-1.2l-.2-.8h-1.8l-.2.8h-1.4zm1.8-1.7h1.2l-.5-1.5s0-.1-.1-.2c0-.1-.1-.2-.1-.4 0 .1-.1.2-.1.3 0 .1-.1.2-.1.3l-.3 1.5zm-6.1 1.7h-3.3v-4.5h3.3v1h-2.2v.8h2.1v1h-2.1v.8h2.2v.9zm-10.1-1.9v-1.4h.7c.4 0 .7.3.7.7 0 .4-.3.7-.7.7h-.7zm1.4 1.9h1.2c0-.5-.2-1-.5-1.3.3-.3.5-.8.5-1.3 0-1.1-.9-1.9-1.9-1.9h-1.9v4.5h1.2V-460.7h.7c.4 0 .7.4.7.8z" class="st1"/><linearGradient id="SVGID_21_" x1="36.984" x2="37.021" y1="-456.515" y2="-458.62" gradientUnits="userSpaceOnUse"><stop offset="0" stop-color="#B21218"/><stop offset=".7" stop-color="#B63447"/><stop offset=".95" stop-color="#D1711C"/></linearGradient><path d="M4.8-458.1h64.4v1H4.8z" class="st23"/><path d="M44.9-470.9c.8.9 1.5 1.9 2 3.1l.6 1.5h-7.8l-.3-.3c-.7-.6-1.5-.9-2.4-.9-.9 0-1.7.3-2.4.9l-.3.3h-7.8l.6-1.5c.5-1.1 1.2-2.2 2-3.1-.2-.2-.4-.4-.5-.6-.9 0-1.9.1-2.8.2-1.5.1-3.2.3-4.7 0-1.5-.2-3-.7-4.2-1.6-.7-.5-1.2-1-1.7-1.7-.1-.1-.2-.2-.2-.3-.1 0-.1 0-.2 0-.3-.1-.6-.2-.9-.3-.1 0-.2-.1-.4-.2-.6-.3-1.2-.6-1.7-1-.2-.1-.4-.3-.5-.5-.3-.2-.5-.5-.7-.8-.2-.2-.3-.4-.5-.6-.1 0-.3-.1-.4-.1-.7-.2-1.3-.5-1.9-.9-.2-.1-.5-.3-.7-.5-.4-.3-.7-.6-1-.9-.2-.2-.4-.5-.6-.7-.1-.1-.2-.2-.3-.3-.1 0-.3-.1-.4-.1-.5-.2-1-.4-1.5-.6-.6-.3-1.2-.7-1.7-1.2-.4-.4-.6-.7-.9-1.1-.1-.1-.2-.3-.3-.4-.2-.3-.3-.6-.2-1 .2-.5.6-.5 1-.6 6.1-.4 20.3-.6 26.2 4 1.7-3.7 5.4-6.2 9.7-6.2 4.3 0 8 2.5 9.7 6.2 5.9-4.6 20.1-4.4 26.2-4 .4 0 .8.1 1 .6.1.3 0 .7-.2 1-.1.1-.2.3-.3.4-.3.4-.6.8-.9 1.1-.5.5-1.1.9-1.7 1.2-.5.3-1 .5-1.5.6-.1 0-.3.1-.4.1-.1.1-.2.2-.3.3-.2.3-.4.5-.6.7-.3.3-.6.6-1 .9-.2.2-.4.3-.7.5-.6.4-1.3.6-1.9.9-.1 0-.3.1-.4.1-.2.2-.3.4-.5.6-.2.3-.5.5-.7.8-.2.2-.3.3-.5.5-.5.4-1.1.8-1.7 1-.1.1-.2.1-.4.2-.3.1-.6.2-.9.3-.1 0-.1 0-.2 0-.1.1-.2.2-.2.3-.5.7-1 1.2-1.7 1.7-1.3.9-2.7 1.4-4.2 1.6-1.5.2-3.1.1-4.7 0-.9-.1-1.9-.2-2.8-.2-.3.2-.5.4-.7.6" class="st3"/><linearGradient id="SVGID_22_" x1="7840.896" x2="7840.312" y1="-476.509" y2="-472.824" gradientUnits="userSpaceOnUse" gradientTransform="matrix(-1 0 0 1 7893.129 0)"><stop offset="0" stop-color="#848484"/><stop offset=".8" stop-color="#fff"/><stop offset="1" stop-color="#fff"/></linearGradient><path d="M46.5-473.2c2.5.2 4.8.5 6.7.3 3.6-.4 4.6-2 5.1-2.4.2-.2.3-.3.4-.3 0 0 0 0 0-.1-.3.1-.7.2-1.1.2-2.6.4-6-.4-9.6-.3-.2 0-.4 0-.6 0-.2 1-.5 1.8-.9 2.6" class="st24"/><linearGradient id="SVGID_23_" x1="7838.692" x2="7842.97" y1="-471.594" y2="-476.429" gradientUnits="userSpaceOnUse" gradientTransform="matrix(-1 0 0 1 7893.129 0)"><stop offset="0" stop-color="#848484"/><stop offset="1" stop-color="#fff"/></linearGradient><path d="M58.6-475.7c-.1.1-.2.2-.4.3-.5.5-1.5 2-5.1 2.4-1.8.2-4.2-.1-6.7-.3-.1.3-.3.5-.5.8 2.5.2 4.9.5 6.8.2 3.6-.5 4.9-2.4 5.4-3 .3-.1.4-.3.5-.4" class="st25"/><linearGradient id="SVGID_24_" x1="7837.94" x2="7837.304" y1="-479.917" y2="-475.897" gradientUnits="userSpaceOnUse" gradientTransform="matrix(-1 0 0 1 7893.129 0)"><stop offset="0" stop-color="#848484"/><stop offset=".8" stop-color="#fff"/><stop offset="1" stop-color="#fff"/></linearGradient><path d="M47.6-476.6c.1 0 .3 0 .4 0 3.5-.1 7.3.7 9.9.4 3.6-.4 4.6-1.9 5-2.4.2-.2.3-.3.4-.3 0 0 0-.1.1-.1H63s-.1 0-.1 0-.1 0-.1 0c-2.6.4-6-.4-9.6-.3H51c-1.1.1-2.3.2-3.4.3 0 .2 0 .4 0 .5.1.8.1 1.4 0 1.9" class="st26"/><linearGradient id="SVGID_25_" x1="7833.327" x2="7832.688" y1="-485.872" y2="-481.837" gradientUnits="userSpaceOnUse" gradientTransform="matrix(-1 0 0 1 7893.129 0)"><stop offset="0" stop-color="#848484"/><stop offset=".8" stop-color="#fff"/><stop offset="1" stop-color="#fff"/></linearGradient><path d="M72.9-485.9c-8.7-.6-20.9 0-25.8 4 .1.3.2.6.3.9.1 0 .1 0 .2-.1 2.4-1.5 5.9-2.1 10.2-2.3 3.5-.1 7.3.7 9.9.4 3.6-.4 4.6-1.9 5-2.4.2-.2.3-.3.4-.3.1-.2.1-.2-.2-.2" class="st27"/><linearGradient id="SVGID_26_" x1="7835.494" x2="7834.856" y1="-482.918" y2="-478.889" gradientUnits="userSpaceOnUse" gradientTransform="matrix(-1 0 0 1 7893.129 0)"><stop offset="0" stop-color="#848484"/><stop offset=".8" stop-color="#fff"/><stop offset="1" stop-color="#fff"/></linearGradient><path d="M47.6-481.1c-.1 0-.2.1-.3.1.1.5.2 1 .3 1.6 1.6-.3 3.3-.5 5.2-.5 3.5-.1 7.3.7 9.9.4 3.6-.4 4.6-1.9 5-2.4.2-.2.3-.3.4-.3 0 0 0-.1.1-.1h-.4s-.1 0-.1 0c-2.6.4-6-.4-9.6-.3H55.8c-2.7.2-5.3.6-7.9 1.3l-.3.2z" class="st28"/><linearGradient id="SVGID_27_" x1="7832.577" x2="7837.716" y1="-476.589" y2="-484.501" gradientUnits="userSpaceOnUse" gradientTransform="matrix(-1 0 0 1 7893.129 0)"><stop offset="0" stop-color="#848484"/><stop offset=".565" stop-color="#fff"/><stop offset=".752" stop-color="#fff"/><stop offset="1" stop-color="#AEAEAE"/></linearGradient><path d="M68.2-482.4c-.1.1-.2.2-.4.3-.5.5-1.5 2-5 2.4-2.6.3-6.4-.5-9.9-.4-1.9.1-3.7.2-5.2.5 0 .2 0 .5.1.7 1.7-.2 3.4-.4 5.2-.4 3.5-.1 6.9.7 9.6.3 3.6-.5 4.9-2.4 5.4-3 0-.2.2-.3.2-.4" class="st29"/><linearGradient id="SVGID_28_" x1="7829.711" x2="7835.518" y1="-478.666" y2="-487.608" gradientUnits="userSpaceOnUse" gradientTransform="matrix(-1 0 0 1 7893.129 0)"><stop offset="0" stop-color="#848484"/><stop offset=".5" stop-color="#fff"/><stop offset=".65" stop-color="#fff"/><stop offset="1" stop-color="#848484"/></linearGradient><path d="M73.1-485.7c-.1.1-.2.2-.4.3-.5.5-1.5 2-5 2.4-2.6.3-6.4-.5-9.9-.4-4.3.1-7.7.8-10.2 2.3 3.3-.9 6.8-1.3 10.2-1.4 3.5-.1 6.9.7 9.6.3 3.6-.5 4.9-2.4 5.4-3 .1-.3.2-.5.3-.5" class="st30"/><linearGradient id="SVGID_29_" x1="7835.735" x2="7839.679" y1="-474.321" y2="-480.394" gradientUnits="userSpaceOnUse" gradientTransform="matrix(-1 0 0 1 7893.129 0)"><stop offset="0" stop-color="#848484"/><stop offset=".82" stop-color="#fff"/><stop offset="1" stop-color="#fff"/></linearGradient><path d="M63.4-479c-.1.1-.2.2-.4.3-.5.5-1.5 2-5 2.4-2.6.3-6.4-.5-9.9-.4-.1 0-.3 0-.4 0 0 .3-.1.6-.2.8.2 0 .4 0 .6 0 3.5-.1 6.9.7 9.6.3 3.6-.5 4.9-2.4 5.4-3 .1-.2.2-.3.3-.4" class="st31"/><linearGradient id="SVGID_30_" x1="21.766" x2="21.183" y1="-476.509" y2="-472.824" gradientUnits="userSpaceOnUse"><stop offset="0" stop-color="#848484"/><stop offset=".8" stop-color="#fff"/><stop offset="1" stop-color="#fff"/></linearGradient><path d="M27.5-473.2c-2.5.2-4.8.5-6.7.3-3.6-.4-4.6-2-5.1-2.4-.2-.2-.3-.3-.4-.3 0 0 0 0 0-.1.3.1.7.2 1.1.2 2.6.4 6-.4 9.6-.3.2 0 .4 0 .6 0 .2 1 .5 1.8.9 2.6" class="st32"/><linearGradient id="SVGID_31_" x1="19.563" x2="23.841" y1="-471.594" y2="-476.429" gradientUnits="userSpaceOnUse"><stop offset="0" stop-color="#848484"/><stop offset="1" stop-color="#fff"/></linearGradient><path d="M15.4-475.7c.1.1.2.2.4.3.5.5 1.5 2 5.1 2.4 1.8.2 4.2-.1 6.7-.3.1.3.3.5.5.8-2.5.2-4.9.5-6.8.2-3.6-.5-4.9-2.4-5.4-3-.3-.1-.4-.3-.5-.4" class="st33"/><linearGradient id="SVGID_32_" x1="18.811" x2="18.174" y1="-479.917" y2="-475.897" gradientUnits="userSpaceOnUse"><stop offset="0" stop-color="#848484"/><stop offset=".8" stop-color="#fff"/><stop offset="1" stop-color="#fff"/></linearGradient><path d="M26.4-476.6c-.1 0-.3 0-.4 0-3.5-.1-7.3.7-9.9.4-3.6-.4-4.6-1.9-5-2.4-.2-.2-.3-.3-.4-.3 0 0 0-.1-.1-.1h.4s.1 0 .1 0 .1 0 .1 0c2.6.4 6-.4 9.6-.3H23c1.1.1 2.3.2 3.4.3 0 .2 0 .4 0 .5-.1.8-.1 1.4 0 1.9" class="st34"/><linearGradient id="SVGID_33_" x1="14.197" x2="13.558" y1="-485.872" y2="-481.837" gradientUnits="userSpaceOnUse"><stop offset="0" stop-color="#848484"/><stop offset=".8" stop-color="#fff"/><stop offset="1" stop-color="#fff"/></linearGradient><path d="M1.1-485.9c8.7-.6 20.9 0 25.8 4-.1.3-.2.6-.3.9-.1 0-.1 0-.2-.1-2.4-1.5-5.9-2.1-10.2-2.3-3.5-.1-7.3.7-9.9.4-3.6-.4-4.6-1.9-5-2.4-.2-.2-.3-.3-.4-.3-.1-.2-.1-.2.2-.2" class="st35"/><linearGradient id="SVGID_34_" x1="16.364" x2="15.726" y1="-482.918" y2="-478.889" gradientUnits="userSpaceOnUse"><stop offset="0" stop-color="#848484"/><stop offset=".8" stop-color="#fff"/><stop offset="1" stop-color="#fff"/></linearGradient><path d="M26.4-481.1c.1 0 .2.1.3.1-.1.5-.2 1-.3 1.6-1.6-.3-3.3-.5-5.2-.5-3.5-.1-7.3.7-9.9.4-3.6-.4-4.6-1.9-5-2.4-.2-.2-.3-.3-.4-.3 0 0 0-.1-.1-.1h.4s.1 0 .1 0c2.6.4 6-.4 9.6-.3H18.2c2.7.2 5.3.6 7.9 1.3l.3.2z" class="st36"/><linearGradient id="SVGID_35_" x1="13.447" x2="18.586" y1="-476.589" y2="-484.501" gradientUnits="userSpaceOnUse"><stop offset="0" stop-color="#848484"/><stop offset=".565" stop-color="#fff"/><stop offset=".752" stop-color="#fff"/><stop offset="1" stop-color="#AEAEAE"/></linearGradient><path d="M5.8-482.4c.1.1.2.2.4.3.5.5 1.5 2 5 2.4 2.6.3 6.4-.5 9.9-.4 1.9.1 3.7.2 5.2.5 0 .2 0 .5-.1.7-1.7-.2-3.4-.4-5.2-.4-3.5-.1-6.9.7-9.6.3-3.6-.5-4.9-2.4-5.4-3 0-.2-.2-.3-.2-.4" class="st37"/><linearGradient id="SVGID_36_" x1="10.581" x2="16.388" y1="-478.666" y2="-487.608" gradientUnits="userSpaceOnUse"><stop offset="0" stop-color="#848484"/><stop offset=".5" stop-color="#fff"/><stop offset=".65" stop-color="#fff"/><stop offset="1" stop-color="#848484"/></linearGradient><path d="M.9-485.7c.1.1.2.2.4.3.5.5 1.5 2 5 2.4 2.6.3 6.4-.5 9.9-.4 4.3.1 7.7.8 10.2 2.3-3.3-.9-6.8-1.3-10.2-1.4-3.5-.1-6.9.7-9.6.3-3.6-.5-4.9-2.4-5.4-3-.1-.3-.2-.5-.3-.5" class="st38"/><linearGradient id="SVGID_37_" x1="16.605" x2="20.549" y1="-474.321" y2="-480.394" gradientUnits="userSpaceOnUse"><stop offset="0" stop-color="#848484"/><stop offset=".82" stop-color="#fff"/><stop offset="1" stop-color="#fff"/></linearGradient><path d="M10.6-479c.1.1.2.2.4.3.5.5 1.5 2 5 2.4 2.6.3 6.4-.5 9.9-.4.1 0 .3 0 .4 0 0 .3.1.6.2.8-.2 0-.4 0-.6 0-3.5-.1-6.9.7-9.6.3-3.6-.5-4.9-2.4-5.4-3-.1-.2-.2-.3-.3-.4" class="st39"/><linearGradient id="SVGID_38_" x1="37.002" x2="37.002" y1="-468.599" y2="-487.805" gradientUnits="userSpaceOnUse"><stop offset="0" stop-color="#1E2A5B"/><stop offset="1" stop-color="#273B7C"/></linearGradient><path d="M36.5-483.1c-2.4.3-4.3 2.3-4.3 4.9s1.9 4.6 4.3 4.9v4.7c-5.1-.3-9.1-4.5-9.1-9.6s4-9.3 9.1-9.6v4.7zm1 9.8c2.4-.3 4.3-2.3 4.3-4.9s-1.9-4.6-4.3-4.9v-4.7c5.1.3 9.1 4.5 9.1 9.6s-4 9.3-9.1 9.6v-4.7z" class="st40"/><linearGradient id="SVGID_39_" x1="36.455" x2="28.141" y1="-470.37" y2="-470.37" gradientUnits="userSpaceOnUse"><stop offset="0" stop-color="#1E2A5B"/><stop offset="1" stop-color="#273B7C"/></linearGradient><path d="M36.5-468.6c-1 .1-1.9.5-2.6 1.1h-5.7c1.4-3.3 4.6-5.6 8.3-5.9v4.8z" class="st41"/><linearGradient id="SVGID_40_" x1="37.55" x2="45.864" y1="-470.37" y2="-470.37" gradientUnits="userSpaceOnUse"><stop offset="0" stop-color="#1E2A5B"/><stop offset="1" stop-color="#273B7C"/></linearGradient><path d="M40.1-467.4c-.7-.6-1.6-1-2.6-1.1v-4.7c3.7.2 6.9 2.6 8.3 5.9h-5.7z" class="st42"/><path d="M46.8-81.3v-4.4H48v3.4h1.5v1h-2.7zm-9.1 0l1.5-4.4h1.5l1.5 4.4H41l-.2-.7h-1.7l-.2.8h-1.2zm1.7-1.6h1.2l-.5-1.5s0-.1-.1-.2c0-.1-.1-.2-.1-.4 0 .1-.1.2-.1.3 0 .1-.1.2-.1.3l-.3 1.5zm-5.9 1.6h-3.3v-4.4h3.3v1h-2.1v.8h2v1h-2v.8h2.1v.8zm-9.8-1.8v-1.4h.7c.4 0 .7.3.7.7 0 .4-.3.7-.7.7h-.7zm1.3 1.8h1.2c0-.5-.2-.9-.5-1.3.3-.3.5-.8.5-1.3 0-1-.8-1.9-1.9-1.9h-1.8v4.4h1.1v-.7.1h.7c.4 0 .7.3.7.7z" class="st1"/><linearGradient id="SVGID_41_" x1="35.984" x2="36.02" y1="-77.96" y2="-80.009" gradientUnits="userSpaceOnUse"><stop offset="0" stop-color="#B21218"/><stop offset=".7" stop-color="#B63447"/><stop offset=".95" stop-color="#D1711C"/></linearGradient><path d="M4.7-79.5h62.7v1H4.7z" class="st43"/><path d="M43.7-92c.8.9 1.5 1.9 1.9 3l.6 1.5h-7.6l-.3-.3c-.7-.6-1.5-.9-2.4-.9-.9 0-1.7.3-2.4.9l-.3.3h-7.6l.6-1.5c.5-1.1 1.1-2.1 1.9-3-.2-.2-.3-.4-.5-.6-.9 0-1.8.1-2.8.2-1.5.1-3.1.3-4.5 0-1.5-.2-2.9-.7-4.1-1.6-.7-.5-1.2-1-1.7-1.7-.1-.1-.2-.2-.2-.3-.1 0-.1 0-.2 0-.3-.1-.6-.2-.8-.3-.1 0-.2-.1-.3-.1-.6-.3-1.2-.6-1.7-1-.2-.1-.3-.3-.5-.4-.2-.2-.5-.5-.7-.8-.1-.2-.3-.4-.4-.6-.1 0-.3-.1-.4-.1-.7-.2-1.3-.5-1.9-.8-.2-.1-.4-.3-.7-.4-.4-.3-.7-.6-1-.9-.2-.2-.4-.5-.6-.7-.1-.1-.2-.2-.3-.3-.1 0-.3-.1-.4-.1-.5-.2-1-.4-1.5-.6-.6-.3-1.2-.7-1.7-1.2-.4-.3-.6-.7-.9-1.1-.1-.1-.2-.3-.3-.4-.2-.3-.3-.6-.2-.9.2-.5.6-.5 1-.6 6-.4 19.7-.6 25.5 3.9 1.7-3.6 5.3-6.1 9.5-6.1s7.8 2.5 9.5 6.1c5.7-4.5 19.5-4.3 25.5-3.9.4 0 .8.1 1 .6.1.3 0 .7-.2.9-.1.1-.2.3-.3.4-.3.4-.6.7-.9 1.1-.5.5-1.1.9-1.7 1.2-.5.3-1 .5-1.5.6-.1 0-.3.1-.4.1-.1.1-.2.2-.3.3-.2.2-.4.5-.6.7-.3.3-.6.6-1 .9-.2.2-.4.3-.7.4-.6.4-1.2.6-1.9.8-.1 0-.3.1-.4.1-.2.2-.3.4-.4.6-.2.3-.4.5-.7.8-.2.2-.3.3-.5.4-.5.4-1.1.7-1.7 1-.1.1-.2.1-.3.1-.3.1-.6.2-.8.3-.1 0-.1 0-.2 0-.1.1-.2.2-.2.3-.5.7-1 1.2-1.7 1.7-1.2.9-2.7 1.4-4.1 1.6-1.5.2-3.1.1-4.5 0-.9-.1-1.8-.2-2.7-.2-.1.2-.2.4-.4.6" class="st3"/><linearGradient id="SVGID_42_" x1="7842.308" x2="7841.74" y1="-97.415" y2="-93.828" gradientUnits="userSpaceOnUse" gradientTransform="matrix(-1 0 0 1 7893.129 0)"><stop offset="0" stop-color="#848484"/><stop offset=".8" stop-color="#fff"/><stop offset="1" stop-color="#fff"/></linearGradient><path d="M45.2-94.2c2.4.2 4.7.5 6.5.3 3.5-.4 4.5-1.9 4.9-2.4.2-.2.3-.3.4-.3 0 0 0 0 0-.1-.3.1-.7.1-1 .2-2.6.4-5.9-.4-9.3-.3-.2 0-.4 0-.6 0-.1 1-.5 1.8-.9 2.6" class="st44"/><linearGradient id="SVGID_43_" x1="7840.164" x2="7844.326" y1="-92.632" y2="-97.337" gradientUnits="userSpaceOnUse" gradientTransform="matrix(-1 0 0 1 7893.129 0)"><stop offset="0" stop-color="#848484"/><stop offset="1" stop-color="#fff"/></linearGradient><path d="M57-96.6c-.1.1-.2.2-.4.3-.5.5-1.4 2-4.9 2.4-1.8.2-4.1-.1-6.5-.3-.1.3-.3.5-.5.8 2.4.2 4.7.5 6.6.2 3.5-.5 4.8-2.3 5.3-2.9.2-.3.4-.4.4-.5" class="st45"/><linearGradient id="SVGID_44_" x1="7839.432" x2="7838.813" y1="-100.73" y2="-96.819" gradientUnits="userSpaceOnUse" gradientTransform="matrix(-1 0 0 1 7893.129 0)"><stop offset="0" stop-color="#848484"/><stop offset=".8" stop-color="#fff"/><stop offset="1" stop-color="#fff"/></linearGradient><path d="M46.3-97.5c.1 0 .3 0 .4 0 3.4-.1 7.1.6 9.6.4 3.5-.4 4.4-1.9 4.9-2.3.2-.2.3-.3.4-.3 0 0 0-.1.1-.1h-.4s-.1 0-.1 0-.1 0-.1 0c-2.6.4-5.9-.4-9.3-.3H49.6c-1.1.1-2.2.2-3.3.3 0 .2 0 .3 0 .5.1.8.1 1.3 0 1.8" class="st46"/><linearGradient id="SVGID_45_" x1="7834.943" x2="7834.321" y1="-106.524" y2="-102.598" gradientUnits="userSpaceOnUse" gradientTransform="matrix(-1 0 0 1 7893.129 0)"><stop offset="0" stop-color="#848484"/><stop offset=".8" stop-color="#fff"/><stop offset="1" stop-color="#fff"/></linearGradient><path d="M70.9-106.6c-8.4-.6-20.3 0-25.1 3.9.1.3.2.6.3.9.1 0 .1 0 .2-.1 2.4-1.4 5.7-2.1 9.9-2.2 3.4-.1 7.1.6 9.6.4 3.5-.4 4.4-1.9 4.9-2.3.2-.2.3-.3.4-.3.1-.2.1-.2-.2-.3" class="st47"/><linearGradient id="SVGID_46_" x1="7837.052" x2="7836.431" y1="-103.65" y2="-99.73" gradientUnits="userSpaceOnUse" gradientTransform="matrix(-1 0 0 1 7893.129 0)"><stop offset="0" stop-color="#848484"/><stop offset=".8" stop-color="#fff"/><stop offset="1" stop-color="#fff"/></linearGradient><path d="M46.3-101.9c-.1 0-.2.1-.3.1.1.5.2 1 .3 1.5 1.5-.3 3.2-.5 5.1-.5 3.4-.1 7.1.6 9.6.4 3.5-.4 4.4-1.9 4.9-2.3.2-.2.3-.3.4-.3 0 0 0-.1.1-.1H66s-.1 0-.1 0c-2.6.4-5.9-.4-9.3-.3H54.5c-2.6.2-5.2.5-7.7 1.2l-.5.3z" class="st48"/><linearGradient id="SVGID_47_" x1="7834.213" x2="7839.213" y1="-97.492" y2="-105.19" gradientUnits="userSpaceOnUse" gradientTransform="matrix(-1 0 0 1 7893.129 0)"><stop offset="0" stop-color="#848484"/><stop offset=".565" stop-color="#fff"/><stop offset=".752" stop-color="#fff"/><stop offset="1" stop-color="#AEAEAE"/></linearGradient><path d="M66.4-103.1c-.1.1-.2.2-.4.3-.5.5-1.4 2-4.9 2.3-2.6.3-6.2-.5-9.6-.4-1.9.1-3.6.2-5.1.5 0 .2 0 .5.1.7 1.7-.2 3.4-.3 5-.4 3.4-.1 6.8.6 9.3.3 3.5-.5 4.8-2.3 5.2-2.9.2-.2.3-.3.4-.4" class="st49"/><linearGradient id="SVGID_48_" x1="7831.425" x2="7837.075" y1="-99.513" y2="-108.213" gradientUnits="userSpaceOnUse" gradientTransform="matrix(-1 0 0 1 7893.129 0)"><stop offset="0" stop-color="#848484"/><stop offset=".5" stop-color="#fff"/><stop offset=".65" stop-color="#fff"/><stop offset="1" stop-color="#848484"/></linearGradient><path d="M71.1-106.4c-.1.1-.2.2-.4.3-.5.5-1.4 2-4.9 2.3-2.6.3-6.2-.5-9.6-.4-4.2.1-7.5.8-9.9 2.2 3.2-.9 6.6-1.3 9.9-1.4 3.4-.1 6.8.6 9.3.3 3.5-.5 4.8-2.3 5.2-2.9.2-.2.4-.3.4-.4" class="st50"/><linearGradient id="SVGID_49_" x1="7837.286" x2="7841.123" y1="-95.286" y2="-101.194" gradientUnits="userSpaceOnUse" gradientTransform="matrix(-1 0 0 1 7893.129 0)"><stop offset="0" stop-color="#848484"/><stop offset=".82" stop-color="#fff"/><stop offset="1" stop-color="#fff"/></linearGradient><path d="M61.7-99.8c-.1.1-.2.2-.4.3-.5.5-1.4 2-4.9 2.3-2.6.3-6.2-.5-9.6-.4-.1 0-.3 0-.4 0 0 .3-.1.6-.2.8.2 0 .4 0 .6 0 3.4-.1 6.8.6 9.3.3 3.5-.5 4.8-2.3 5.2-2.9.2-.2.3-.4.4-.4" class="st51"/><linearGradient id="SVGID_50_" x1="21.178" x2="20.61" y1="-97.415" y2="-93.828" gradientUnits="userSpaceOnUse"><stop offset="0" stop-color="#848484"/><stop offset=".8" stop-color="#fff"/><stop offset="1" stop-color="#fff"/></linearGradient><path d="M26.8-94.2c-2.4.2-4.7.5-6.5.3-3.5-.4-4.5-1.9-4.9-2.4-.2-.2-.3-.3-.4-.3 0 0 0 0 0-.1.3.1.7.1 1 .2 2.6.4 5.9-.4 9.3-.3.2 0 .4 0 .6 0 .1 1 .5 1.8.9 2.6" class="st52"/><linearGradient id="SVGID_51_" x1="19.034" x2="23.196" y1="-92.632" y2="-97.337" gradientUnits="userSpaceOnUse"><stop offset="0" stop-color="#848484"/><stop offset="1" stop-color="#fff"/></linearGradient><path d="M15-96.6c.1.1.2.2.4.3.5.5 1.4 2 4.9 2.4 1.8.2 4.1-.1 6.5-.3.1.3.3.5.5.8-2.4.2-4.7.5-6.6.2-3.5-.5-4.8-2.3-5.3-2.9-.2-.3-.4-.4-.4-.5" class="st53"/><linearGradient id="SVGID_52_" x1="18.302" x2="17.683" y1="-100.73" y2="-96.819" gradientUnits="userSpaceOnUse"><stop offset="0" stop-color="#848484"/><stop offset=".8" stop-color="#fff"/><stop offset="1" stop-color="#fff"/></linearGradient><path d="M25.7-97.5c-.1 0-.3 0-.4 0-3.4-.1-7.1.6-9.6.4-3.5-.4-4.4-1.9-4.9-2.3-.2-.2-.3-.3-.4-.3 0 0 0-.1-.1-.1h.4s.1 0 .1 0 .1 0 .1 0c2.6.4 5.9-.4 9.3-.3H22.4c1.1.1 2.2.2 3.3.3 0 .2 0 .3 0 .5-.1.8-.1 1.3 0 1.8" class="st54"/><linearGradient id="SVGID_53_" x1="13.814" x2="13.192" y1="-106.524" y2="-102.598" gradientUnits="userSpaceOnUse"><stop offset="0" stop-color="#848484"/><stop offset=".8" stop-color="#fff"/><stop offset="1" stop-color="#fff"/></linearGradient><path d="M1.1-106.6c8.4-.6 20.3 0 25.1 3.9-.1.3-.2.6-.3.9-.1 0-.1 0-.2-.1-2.4-1.4-5.7-2.1-9.9-2.2-3.4-.1-7.1.6-9.6.4-3.5-.4-4.4-1.9-4.9-2.3-.2-.2-.3-.3-.4-.3-.1-.2-.1-.2.2-.3" class="st55"/><linearGradient id="SVGID_54_" x1="15.922" x2="15.301" y1="-103.65" y2="-99.73" gradientUnits="userSpaceOnUse"><stop offset="0" stop-color="#848484"/><stop offset=".8" stop-color="#fff"/><stop offset="1" stop-color="#fff"/></linearGradient><path d="M25.7-101.9c.1 0 .2.1.3.1-.1.5-.2 1-.3 1.5-1.5-.3-3.2-.5-5.1-.5-3.4-.1-7.1.6-9.6.4-3.5-.4-4.4-1.9-4.9-2.3-.2-.2-.3-.3-.4-.3 0 0 0-.1-.1-.1H6s.1 0 .1 0c2.6.4 5.9-.4 9.3-.3H17.5c2.6.2 5.2.5 7.7 1.2l.5.3z" class="st56"/><linearGradient id="SVGID_55_" x1="13.084" x2="18.084" y1="-97.492" y2="-105.191" gradientUnits="userSpaceOnUse"><stop offset="0" stop-color="#848484"/><stop offset=".565" stop-color="#fff"/><stop offset=".752" stop-color="#fff"/><stop offset="1" stop-color="#AEAEAE"/></linearGradient><path d="M5.6-103.1c.1.1.2.2.4.3.5.5 1.4 2 4.9 2.3 2.6.3 6.2-.5 9.6-.4 1.9.1 3.6.2 5.1.5 0 .2 0 .5-.1.7-1.7-.2-3.4-.3-5-.4-3.4-.1-6.8.6-9.3.3-3.5-.5-4.8-2.3-5.2-2.9-.2-.2-.3-.3-.4-.4" class="st57"/><linearGradient id="SVGID_56_" x1="10.295" x2="15.945" y1="-99.513" y2="-108.213" gradientUnits="userSpaceOnUse"><stop offset="0" stop-color="#848484"/><stop offset=".5" stop-color="#fff"/><stop offset=".65" stop-color="#fff"/><stop offset="1" stop-color="#848484"/></linearGradient><path d="M.9-106.4c.1.1.2.2.4.3.5.5 1.4 2 4.9 2.3 2.6.3 6.2-.5 9.6-.4 4.2.1 7.5.8 9.9 2.2-3.2-.9-6.6-1.3-9.9-1.4-3.4-.1-6.8.6-9.3.3-3.5-.5-4.8-2.3-5.2-2.9-.2-.2-.4-.3-.4-.4" class="st58"/><linearGradient id="SVGID_57_" x1="16.156" x2="19.994" y1="-95.286" y2="-101.194" gradientUnits="userSpaceOnUse"><stop offset="0" stop-color="#848484"/><stop offset=".82" stop-color="#fff"/><stop offset="1" stop-color="#fff"/></linearGradient><path d="M10.3-99.8c.1.1.2.2.4.3.5.5 1.4 2 4.9 2.3 2.6.3 6.2-.5 9.6-.4.1 0 .3 0 .4 0 0 .3.1.6.2.8-.2 0-.4 0-.6 0-3.4-.1-6.8.6-9.3.3-3.5-.5-4.8-2.3-5.2-2.9-.2-.2-.3-.4-.4-.4" class="st59"/><linearGradient id="SVGID_58_" x1="36.002" x2="36.002" y1="-89.718" y2="-108.405" gradientUnits="userSpaceOnUse"><stop offset="0" stop-color="#1E2A5B"/><stop offset="1" stop-color="#273B7C"/></linearGradient><path d="M35.5-103.8c-2.4.3-4.2 2.3-4.2 4.7 0 2.4 1.8 4.5 4.2 4.7v4.6c-4.9-.3-8.8-4.4-8.8-9.3 0-5 3.9-9.1 8.8-9.3v4.6zm1 9.5c2.4-.3 4.2-2.3 4.2-4.7 0-2.4-1.8-4.5-4.2-4.7v-4.6c4.9.3 8.8 4.4 8.8 9.3 0 5-3.9 9.1-8.8 9.3v-4.6z" class="st60"/><linearGradient id="SVGID_59_" x1="35.47" x2="27.38" y1="-91.441" y2="-91.441" gradientUnits="userSpaceOnUse"><stop offset="0" stop-color="#1E2A5B"/><stop offset="1" stop-color="#273B7C"/></linearGradient><path d="M35.5-89.7c-1 .1-1.8.5-2.5 1.1h-5.6c1.4-3.2 4.4-5.5 8.1-5.7v4.6z" class="st61"/><linearGradient id="SVGID_60_" x1="36.535" x2="44.625" y1="-91.441" y2="-91.441" gradientUnits="userSpaceOnUse"><stop offset="0" stop-color="#1E2A5B"/><stop offset="1" stop-color="#273B7C"/></linearGradient><path d="M39.1-88.6c-.7-.6-1.6-1-2.5-1.1v-4.6c3.6.2 6.7 2.5 8.1 5.7h-5.6z" class="st62"/><path d="M46.8-26.3v-4.4H48v3.4h1.5v1h-2.7zm-9.1 0l1.5-4.4h1.5l1.5 4.4H41l-.2-.7h-1.7l-.2.8h-1.2zm1.7-1.6h1.2l-.5-1.5s0-.1-.1-.2c0-.1-.1-.2-.1-.4 0 .1-.1.2-.1.3 0 .1-.1.2-.1.3l-.3 1.5zm-5.9 1.6h-3.3v-4.4h3.3v1h-2.1v.8h2v1h-2v.8h2.1v.8zm-9.8-1.8v-1.4h.7c.4 0 .7.3.7.7 0 .4-.3.7-.7.7h-.7zm1.3 1.8h1.2c0-.5-.2-.9-.5-1.3.3-.3.5-.8.5-1.3 0-1-.8-1.9-1.9-1.9h-1.8v4.4h1.1v-.7.1h.7c.4 0 .7.3.7.7z" class="st63"/><linearGradient id="SVGID_61_" x1="35.984" x2="36.02" y1="-22.96" y2="-25.009" gradientUnits="userSpaceOnUse"><stop offset="0" stop-color="#434343"/><stop offset=".7" stop-color="#5D5D5D"/><stop offset=".95" stop-color="#848484"/></linearGradient><path d="M4.7-24.5h62.7v1H4.7z" class="st64"/><path d="M43.7-37c.8.9 1.5 1.9 1.9 3l.6 1.5h-7.6l-.3-.3c-.7-.6-1.5-.9-2.4-.9-.9 0-1.7.3-2.4.9l-.3.3h-7.6l.6-1.5c.5-1.1 1.1-2.1 1.9-3-.2-.2-.3-.4-.5-.6-.9 0-1.8.1-2.8.2-1.5.1-3.1.3-4.5 0-1.5-.2-2.9-.7-4.1-1.6-.7-.5-1.2-1-1.7-1.7-.1-.1-.2-.2-.2-.3-.1 0-.1 0-.2 0-.3-.1-.6-.2-.8-.3-.1 0-.2-.1-.3-.1-.6-.3-1.2-.6-1.7-1-.2-.1-.3-.3-.5-.4-.2-.2-.5-.5-.7-.8-.1-.2-.3-.4-.4-.6-.1 0-.3-.1-.4-.1-.7-.2-1.3-.5-1.9-.8-.2-.1-.4-.3-.7-.4-.4-.3-.7-.6-1-.9-.2-.2-.4-.5-.6-.7-.1-.1-.2-.2-.3-.3-.1 0-.3-.1-.4-.1-.5-.2-1-.4-1.5-.6-.6-.3-1.2-.7-1.7-1.2-.4-.3-.6-.7-.9-1.1-.1-.1-.2-.3-.3-.4-.2-.3-.3-.6-.2-.9.2-.5.6-.5 1-.6 6-.4 19.7-.6 25.5 3.9 1.7-3.6 5.3-6.1 9.5-6.1s7.8 2.5 9.5 6.1c5.7-4.5 19.5-4.3 25.5-3.9.4 0 .8.1 1 .6.1.3 0 .7-.2.9-.1.1-.2.3-.3.4-.3.4-.6.7-.9 1.1-.5.5-1.1.9-1.7 1.2-.5.3-1 .5-1.5.6-.1 0-.3.1-.4.1-.1.1-.2.2-.3.3-.2.2-.4.5-.6.7-.3.3-.6.6-1 .9-.2.2-.4.3-.7.4-.6.4-1.2.6-1.9.8-.1 0-.3.1-.4.1-.2.2-.3.4-.4.6-.2.3-.4.5-.7.8-.2.2-.3.3-.5.4-.5.4-1.1.7-1.7 1-.1.1-.2.1-.3.1-.3.1-.6.2-.8.3-.1 0-.1 0-.2 0-.1.1-.2.2-.2.3-.5.7-1 1.2-1.7 1.7-1.2.9-2.7 1.4-4.1 1.6-1.5.2-3.1.1-4.5 0-.9-.1-1.8-.2-2.7-.2-.1.2-.2.4-.4.6" class="st3"/><linearGradient id="SVGID_62_" x1="7842.308" x2="7841.74" y1="-42.415" y2="-38.828" gradientUnits="userSpaceOnUse" gradientTransform="matrix(-1 0 0 1 7893.129 0)"><stop offset="0" stop-color="#848484"/><stop offset=".8" stop-color="#fff"/><stop offset="1" stop-color="#fff"/></linearGradient><path d="M45.2-39.2c2.4.2 4.7.5 6.5.3 3.5-.4 4.5-1.9 4.9-2.4.2-.2.3-.3.4-.3 0 0 0 0 0-.1-.3.1-.7.1-1 .2-2.6.4-5.9-.4-9.3-.3-.2 0-.4 0-.6 0-.1 1-.5 1.8-.9 2.6" class="st65"/><linearGradient id="SVGID_63_" x1="7840.164" x2="7844.326" y1="-37.632" y2="-42.337" gradientUnits="userSpaceOnUse" gradientTransform="matrix(-1 0 0 1 7893.129 0)"><stop offset="0" stop-color="#848484"/><stop offset="1" stop-color="#fff"/></linearGradient><path d="M57-41.6c-.1.1-.2.2-.4.3-.5.5-1.4 2-4.9 2.4-1.8.2-4.1-.1-6.5-.3-.1.3-.3.5-.5.8 2.4.2 4.7.5 6.6.2 3.5-.5 4.8-2.3 5.3-2.9.2-.3.4-.4.4-.5" class="st66"/><linearGradient id="SVGID_64_" x1="7839.432" x2="7838.813" y1="-45.73" y2="-41.819" gradientUnits="userSpaceOnUse" gradientTransform="matrix(-1 0 0 1 7893.129 0)"><stop offset="0" stop-color="#848484"/><stop offset=".8" stop-color="#fff"/><stop offset="1" stop-color="#fff"/></linearGradient><path d="M46.3-42.5c.1 0 .3 0 .4 0 3.4-.1 7.1.6 9.6.4 3.5-.4 4.4-1.9 4.9-2.3.2-.2.3-.3.4-.3 0 0 0-.1.1-.1h-.4s-.1 0-.1 0-.1 0-.1 0c-2.6.4-5.9-.4-9.3-.3h-.4l-.4.1H49.4c-1.1.1-2.2.2-3.3.3 0 .2 0 .3 0 .5.3.7.3 1.2.2 1.7" class="st67"/><linearGradient id="SVGID_65_" x1="7834.943" x2="7834.321" y1="-51.524" y2="-47.598" gradientUnits="userSpaceOnUse" gradientTransform="matrix(-1 0 0 1 7893.129 0)"><stop offset="0" stop-color="#848484"/><stop offset=".8" stop-color="#fff"/><stop offset="1" stop-color="#fff"/></linearGradient><path d="M70.9-51.6c-8.4-.6-20.3 0-25.1 3.9.1.3.2.6.3.9.1 0 .1 0 .2-.1 2.4-1.4 5.7-2.1 9.9-2.2 3.4-.1 7.1.6 9.6.4 3.5-.4 4.4-1.9 4.9-2.3.2-.2.3-.3.4-.3.1-.2.1-.2-.2-.3" class="st68"/><linearGradient id="SVGID_66_" x1="7837.052" x2="7836.431" y1="-48.65" y2="-44.73" gradientUnits="userSpaceOnUse" gradientTransform="matrix(-1 0 0 1 7893.129 0)"><stop offset="0" stop-color="#848484"/><stop offset=".8" stop-color="#fff"/><stop offset="1" stop-color="#fff"/></linearGradient><path d="M46.3-46.9c-.1 0-.2.1-.3.1.1.5.2 1 .3 1.5 1.5-.3 3.2-.5 5.1-.5 3.4-.1 7.1.6 9.6.4 3.5-.4 4.4-1.9 4.9-2.3.2-.2.3-.3.4-.3 0 0 0-.1.1-.1H66s-.1 0-.1 0c-2.6.4-5.9-.4-9.3-.3H54.5c-2.6.2-5.2.5-7.7 1.2l-.5.3z" class="st69"/><linearGradient id="SVGID_67_" x1="7834.213" x2="7839.213" y1="-42.492" y2="-50.19" gradientUnits="userSpaceOnUse" gradientTransform="matrix(-1 0 0 1 7893.129 0)"><stop offset="0" stop-color="#848484"/><stop offset=".565" stop-color="#fff"/><stop offset=".752" stop-color="#fff"/><stop offset="1" stop-color="#AEAEAE"/></linearGradient><path d="M66.4-48.1c-.1.1-.2.2-.4.3-.5.5-1.4 2-4.9 2.3-2.6.3-6.2-.5-9.6-.4-1.9.1-3.6.2-5.1.5 0 .2 0 .5.1.7 1.7-.2 3.4-.3 5-.4 3.4-.1 6.8.6 9.3.3 3.5-.5 4.8-2.3 5.2-2.9.2-.2.3-.3.4-.4" class="st70"/><linearGradient id="SVGID_68_" x1="7831.425" x2="7837.075" y1="-44.513" y2="-53.213" gradientUnits="userSpaceOnUse" gradientTransform="matrix(-1 0 0 1 7893.129 0)"><stop offset="0" stop-color="#848484"/><stop offset=".5" stop-color="#fff"/><stop offset=".65" stop-color="#fff"/><stop offset="1" stop-color="#848484"/></linearGradient><path d="M71.1-51.4c-.1.1-.2.2-.4.3-.5.5-1.4 2-4.9 2.3-2.6.3-6.2-.5-9.6-.4-4.2.1-7.5.8-9.9 2.2 3.2-.9 6.6-1.3 9.9-1.4 3.4-.1 6.8.6 9.3.3 3.5-.5 4.8-2.3 5.2-2.9.2-.2.4-.3.4-.4" class="st71"/><linearGradient id="SVGID_69_" x1="7837.286" x2="7841.123" y1="-40.286" y2="-46.194" gradientUnits="userSpaceOnUse" gradientTransform="matrix(-1 0 0 1 7893.129 0)"><stop offset="0" stop-color="#848484"/><stop offset=".82" stop-color="#fff"/><stop offset="1" stop-color="#fff"/></linearGradient><path d="M61.7-44.8c-.1.1-.2.2-.4.3-.5.5-1.4 2-4.9 2.3-2.6.3-6.2-.5-9.6-.4-.1 0-.3 0-.4 0 0 .3-.1.6-.2.8.2 0 .4 0 .6 0 3.4-.1 6.8.6 9.3.3 3.5-.5 4.8-2.3 5.2-2.9.2-.2.3-.4.4-.4" class="st72"/><linearGradient id="SVGID_70_" x1="21.178" x2="20.61" y1="-42.415" y2="-38.828" gradientUnits="userSpaceOnUse"><stop offset="0" stop-color="#848484"/><stop offset=".8" stop-color="#fff"/><stop offset="1" stop-color="#fff"/></linearGradient><path d="M26.8-39.2c-2.4.2-4.7.5-6.5.3-3.5-.4-4.5-1.9-4.9-2.4-.2-.2-.3-.3-.4-.3 0 0 0 0 0-.1.3.1.7.1 1 .2 2.6.4 5.9-.4 9.3-.3.2 0 .4 0 .6 0 .1 1 .5 1.8.9 2.6" class="st73"/><linearGradient id="SVGID_71_" x1="19.034" x2="23.196" y1="-37.632" y2="-42.337" gradientUnits="userSpaceOnUse"><stop offset="0" stop-color="#848484"/><stop offset="1" stop-color="#fff"/></linearGradient><path d="M15-41.6c.1.1.2.2.4.3.5.5 1.4 2 4.9 2.4 1.8.2 4.1-.1 6.5-.3.1.3.3.5.5.8-2.4.2-4.7.5-6.6.2-3.5-.5-4.8-2.3-5.3-2.9-.2-.3-.4-.4-.4-.5" class="st74"/><linearGradient id="SVGID_72_" x1="18.302" x2="17.683" y1="-45.73" y2="-41.819" gradientUnits="userSpaceOnUse"><stop offset="0" stop-color="#848484"/><stop offset=".8" stop-color="#fff"/><stop offset="1" stop-color="#fff"/></linearGradient><path d="M25.7-42.5c-.1 0-.3 0-.4 0-3.4-.1-7.1.6-9.6.4-3.5-.4-4.4-1.9-4.9-2.3-.2-.2-.3-.3-.4-.3 0 0 0-.1-.1-.1h.4s.1 0 .1 0 .1 0 .1 0c2.6.4 5.9-.4 9.3-.3H22.4c1.1.1 2.2.2 3.3.3 0 .2 0 .3 0 .5-.1.8-.1 1.3 0 1.8" class="st75"/><linearGradient id="SVGID_73_" x1="13.814" x2="13.192" y1="-51.524" y2="-47.598" gradientUnits="userSpaceOnUse"><stop offset="0" stop-color="#848484"/><stop offset=".8" stop-color="#fff"/><stop offset="1" stop-color="#fff"/></linearGradient><path d="M1.1-51.6c8.4-.6 20.3 0 25.1 3.9-.1.3-.2.6-.3.9-.1 0-.1 0-.2-.1-2.4-1.4-5.7-2.1-9.9-2.2-3.4-.1-7.1.6-9.6.4-3.5-.4-4.4-1.9-4.9-2.3-.2-.2-.3-.3-.4-.3-.1-.2-.1-.2.2-.3" class="st76"/><linearGradient id="SVGID_74_" x1="15.922" x2="15.301" y1="-48.65" y2="-44.73" gradientUnits="userSpaceOnUse"><stop offset="0" stop-color="#848484"/><stop offset=".8" stop-color="#fff"/><stop offset="1" stop-color="#fff"/></linearGradient><path d="M25.7-46.9c.1 0 .2.1.3.1-.1.5-.2 1-.3 1.5-1.5-.3-3.2-.5-5.1-.5-3.4-.1-7.1.6-9.6.4-3.5-.4-4.4-1.9-4.9-2.3-.2-.2-.3-.3-.4-.3 0 0 0-.1-.1-.1H6s.1 0 .1 0c2.6.4 5.9-.4 9.3-.3H17.5c2.6.2 5.2.5 7.7 1.2l.5.3z" class="st77"/><linearGradient id="SVGID_75_" x1="13.084" x2="18.084" y1="-42.492" y2="-50.19" gradientUnits="userSpaceOnUse"><stop offset="0" stop-color="#848484"/><stop offset=".565" stop-color="#fff"/><stop offset=".752" stop-color="#fff"/><stop offset="1" stop-color="#AEAEAE"/></linearGradient><path d="M5.6-48.1c.1 0 .2.1.4.3.5.5 1.4 2 4.9 2.3 2.6.3 6.2-.5 9.6-.4 1.9.1 3.6.2 5.1.5 0 .2 0 .5-.1.7-1.7-.2-3.4-.3-5-.4-3.4-.1-6.8.6-9.3.3-3.5-.4-4.7-2.2-5.2-2.8-.2-.3-.3-.4-.4-.5" class="st78"/><linearGradient id="SVGID_76_" x1="10.295" x2="15.945" y1="-44.513" y2="-53.213" gradientUnits="userSpaceOnUse"><stop offset="0" stop-color="#848484"/><stop offset=".5" stop-color="#fff"/><stop offset=".65" stop-color="#fff"/><stop offset="1" stop-color="#848484"/></linearGradient><path d="M.9-51.4c.1.1.2.2.4.3.5.5 1.4 2 4.9 2.3 2.6.3 6.2-.5 9.6-.4 4.2.1 7.5.8 9.9 2.2-3.2-.9-6.6-1.3-9.9-1.4-3.4-.1-6.8.6-9.3.3-3.5-.5-4.8-2.3-5.2-2.9-.2-.2-.4-.3-.4-.4" class="st79"/><linearGradient id="SVGID_77_" x1="16.156" x2="19.994" y1="-40.286" y2="-46.194" gradientUnits="userSpaceOnUse"><stop offset="0" stop-color="#848484"/><stop offset=".82" stop-color="#fff"/><stop offset="1" stop-color="#fff"/></linearGradient><path d="M10.3-44.8c.1.1.2.2.4.3.5.5 1.4 2 4.9 2.3 2.6.3 6.2-.5 9.6-.4.1 0 .3 0 .4 0 0 .3.1.6.2.8-.2 0-.4 0-.6 0-3.4-.1-6.8.6-9.3.3-3.5-.5-4.8-2.3-5.2-2.9-.2-.2-.3-.4-.4-.4" class="st80"/><linearGradient id="SVGID_78_" x1="36.002" x2="36.002" y1="-34.718" y2="-53.405" gradientUnits="userSpaceOnUse"><stop offset="0" stop-color="#2C2C2C"/><stop offset="1" stop-color="#3C3C3C"/></linearGradient><path d="M35.5-48.8c-2.4.3-4.2 2.3-4.2 4.7 0 2.4 1.8 4.5 4.2 4.7v4.6c-4.9-.3-8.8-4.4-8.8-9.3 0-5 3.9-9.1 8.8-9.3v4.6zm1 9.5c2.4-.3 4.2-2.3 4.2-4.7 0-2.4-1.8-4.5-4.2-4.7v-4.6c4.9.3 8.8 4.4 8.8 9.3 0 5-3.9 9.1-8.8 9.3v-4.6z" class="st81"/><linearGradient id="SVGID_79_" x1="35.47" x2="27.38" y1="-36.441" y2="-36.441" gradientUnits="userSpaceOnUse"><stop offset="0" stop-color="#2C2C2C"/><stop offset="1" stop-color="#3C3C3C"/></linearGradient><path d="M35.5-34.7c-1 .1-1.8.5-2.5 1.1h-5.6c1.4-3.2 4.4-5.5 8.1-5.7v4.6z" class="st82"/><linearGradient id="SVGID_80_" x1="36.535" x2="44.625" y1="-36.441" y2="-36.441" gradientUnits="userSpaceOnUse"><stop offset="0" stop-color="#2C2C2C"/><stop offset="1" stop-color="#3C3C3C"/></linearGradient><path d="M39.1-33.6c-.7-.6-1.6-1-2.5-1.1v-4.6c3.6.2 6.7 2.5 8.1 5.7h-5.6z" class="st83"/><path d="M243.1 113.5V95.8h4.8v13.6h6v4.1h-10.8zm-36.3 0l6.1-17.7h6l6.1 17.7h-4.8l-.9-3.2h-6.8l-.9 3.2h-4.8zm6.7-6.6h4.8l-1.8-5.8c-.1-.2-.1-.5-.2-.9s-.2-.9-.4-1.5c-.1.4-.2.8-.3 1.2-.1.4-.2.8-.3 1.1l-1.8 5.9zm-23.5 6.6h-13V95.8h13v3.8h-8.4v3h8.1v3.8h-8.1v3.2h8.4v3.9zm-39.3-7.5v-5.5h2.6c1.5 0 2.7 1.2 2.7 2.7 0 1.5-1.2 2.7-2.7 2.7h-2.6zm5.3 7.4l4.7.1c0-2-.8-3.8-2-5.1 1.3-1.3 2-3.1 2-5.1 0-4.1-3.3-7.5-7.5-7.5H146v17.7h4.6V110.4h2.6c1.6 0 2.8 1.4 2.8 3z" class="st1"/><linearGradient id="SVGID_81_" x1="199.938" x2="200.081" y1="126.659" y2="118.465" gradientUnits="userSpaceOnUse"><stop offset="0" stop-color="#B21218"/><stop offset=".7" stop-color="#B63447"/><stop offset=".95" stop-color="#D1711C"/></linearGradient><path d="M74.6 120.7h250.8v3.8H74.6z" class="st84"/><path d="M230.7 70.5c3.2 3.5 5.8 7.6 7.7 12l2.5 6h-30.3l-1.2-1c-2.7-2.2-6-3.4-9.5-3.4s-6.8 1.2-9.5 3.4l-1.2 1H159l2.5-6c1.9-4.4 4.5-8.5 7.7-12-.7-.8-1.4-1.6-2-2.4-3.7.2-7.3.5-11 .8-5.9.5-12.3 1-18.1.1-5.9-.9-11.7-2.8-16.5-6.3-2.7-2-4.7-4.1-6.7-6.7-.3-.4-.6-.8-1-1.2-.2-.1-.4-.1-.6-.2-1.1-.3-2.3-.7-3.4-1.2-.5-.2-.9-.4-1.4-.6-2.4-1.1-4.6-2.4-6.7-4-.7-.6-1.4-1.1-2-1.8-1-1-1.9-2-2.8-3.1-.6-.8-1.1-1.5-1.8-2.3-.5-.1-1-.3-1.5-.4-2.6-.8-5.2-1.9-7.5-3.3-.9-.5-1.8-1.1-2.6-1.8-1.4-1-2.7-2.2-3.9-3.5-.8-.9-1.6-1.9-2.3-2.9-.3-.4-.7-.8-1-1.2-.5-.1-1.1-.3-1.6-.5-2.1-.6-4-1.4-6-2.5-2.5-1.3-4.8-2.9-6.8-4.8-1.4-1.4-2.5-2.7-3.7-4.3-.4-.4-.9-.9-1.3-1.4-.9-1-1.3-2.4-.8-3.7.7-1.8 2.3-2.1 3.9-2.2 23.9-1.6 79-2.3 102 15.7C168.7 10.5 183.2.6 200 .6c16.8 0 31.3 9.9 37.9 24.2 23-18 78.1-17.3 102-15.7 1.7.1 3.2.4 3.9 2.2.5 1.3.1 2.7-.8 3.7-.4.5-.9 1-1.3 1.6-1.2 1.6-2.3 2.9-3.7 4.3-2 1.9-4.3 3.6-6.8 4.8-1.9 1-3.9 1.8-6 2.5-.5.2-1.1.3-1.6.5-.4.4-.7.8-1 1.2-.8 1-1.5 1.9-2.3 2.9-1.2 1.3-2.5 2.5-3.9 3.5-.9.6-1.7 1.2-2.6 1.8-2.4 1.4-4.9 2.5-7.5 3.3-.5.2-1 .3-1.5.4-.6.7-1.2 1.5-1.8 2.3-.8 1.1-1.8 2.1-2.8 3.1-.6.6-1.3 1.2-2 1.8-2.1 1.7-4.3 2.9-6.7 4-.5.2-.9.4-1.4.6-1.1.4-2.2.8-3.4 1.2-.2.1-.4.1-.6.2-.3.4-.7.8-1 1.2-2 2.7-4 4.8-6.7 6.7-4.9 3.5-10.6 5.4-16.5 6.3-5.9.9-12.2.4-18.1-.1-3.7-.3-7.3-.6-11-.8-.7.6-1.4 1.4-2.1 2.2" class="st3"/><linearGradient id="SVGID_82_" x1="7633.842" x2="7631.57" y1="48.842" y2="63.187" gradientUnits="userSpaceOnUse" gradientTransform="matrix(-1 0 0 1 7893.129 0)"><stop offset="0" stop-color="#848484"/><stop offset=".8" stop-color="#fff"/><stop offset="1" stop-color="#fff"/></linearGradient><path d="M236.8 61.9c9.6.7 18.8 1.9 25.9 1.1 14-1.6 17.9-7.6 19.8-9.4.7-.7 1.3-1.1 1.6-1.3.1-.1.1-.2.2-.2-1.3.3-2.7.6-4.1.8-10.2 1.5-23.5-1.6-37.2-1.1-.8 0-1.5.1-2.3.1-.9 3.4-2.2 6.8-3.9 10" class="st85"/><linearGradient id="SVGID_83_" x1="7625.267" x2="7641.915" y1="67.97" y2="49.153" gradientUnits="userSpaceOnUse" gradientTransform="matrix(-1 0 0 1 7893.129 0)"><stop offset="0" stop-color="#848484"/><stop offset="1" stop-color="#fff"/></linearGradient><path d="M284.1 52.2c-.3.2-.8.6-1.6 1.3-1.9 1.8-5.7 7.9-19.8 9.4-7.1.8-16.3-.4-25.9-1.1-.6 1.1-1.2 2.1-1.8 3.1 9.8.6 18.9 2 26.4.9 14-2.1 19.2-9.3 21.1-11.8l.1-.2c.7-.8 1.2-1.3 1.5-1.6" class="st86"/><linearGradient id="SVGID_84_" x1="7622.338" x2="7619.861" y1="35.581" y2="51.223" gradientUnits="userSpaceOnUse" gradientTransform="matrix(-1 0 0 1 7893.129 0)"><stop offset="0" stop-color="#848484"/><stop offset=".8" stop-color="#fff"/><stop offset="1" stop-color="#fff"/></linearGradient><path d="M241.3 48.5c.5 0 1.1 0 1.6-.1 13.8-.4 28.4 2.6 38.6 1.4 14-1.6 17.8-7.6 19.6-9.4.7-.7 1.3-1.1 1.6-1.3.1-.1.2-.2.2-.3l-.2.1h-.9l-.3.1h-.4l-.3.1h-.4l-.4.1h-.1c-.2 0-.3.1-.5.1h-.2c-.2 0-.4.1-.6.1-10.2 1.5-23.5-1.6-37.2-1.1H254.8c-4.4.3-8.9.7-13.3 1.3 0 .7.1 1.4.1 2.1.1 2.7 0 4.7-.3 6.8" class="st87"/><linearGradient id="SVGID_85_" x1="7604.384" x2="7601.897" y1="12.404" y2="28.107" gradientUnits="userSpaceOnUse" gradientTransform="matrix(-1 0 0 1 7893.129 0)"><stop offset="0" stop-color="#848484"/><stop offset=".8" stop-color="#fff"/><stop offset="1" stop-color="#fff"/></linearGradient><path d="M339.6 12.3c-33.6-2.3-81.3-.2-100.4 15.6.4 1.1.8 2.3 1.1 3.4.3-.1.6-.2.8-.2 9.5-5.7 22.9-8.3 39.6-8.9 13.8-.4 28.4 2.6 38.6 1.4 14-1.6 17.8-7.6 19.6-9.4.7-.7 1.3-1.1 1.6-1.3.5-.6.3-.5-.9-.6" class="st88"/><linearGradient id="SVGID_86_" x1="7612.818" x2="7610.334" y1="23.901" y2="39.579" gradientUnits="userSpaceOnUse" gradientTransform="matrix(-1 0 0 1 7893.129 0)"><stop offset="0" stop-color="#848484"/><stop offset=".8" stop-color="#fff"/><stop offset="1" stop-color="#fff"/></linearGradient><path d="M241.4 31c-.4.1-.7.2-1.1.3.5 2 .9 4 1.2 6.1 6.1-1.2 12.9-1.8 20.4-2.1 13.8-.4 28.4 2.6 38.6 1.4 14-1.6 17.8-7.6 19.6-9.4.7-.7 1.3-1.1 1.6-1.3.1-.1.2-.2.2-.3l-.2.1H320l-.3.1h-.4l-.4.1h-.1l-.5.1h-.2c-.2 0-.4.1-.6.1-10.2 1.5-23.5-1.6-37.2-1.1H272.4C262.3 26.6 252 28 242 30.8h-.1l-.5.2z" class="st89"/><linearGradient id="SVGID_87_" x1="7601.465" x2="7621.464" y1="48.534" y2="17.738" gradientUnits="userSpaceOnUse" gradientTransform="matrix(-1 0 0 1 7893.129 0)"><stop offset="0" stop-color="#848484"/><stop offset=".565" stop-color="#fff"/><stop offset=".752" stop-color="#fff"/><stop offset="1" stop-color="#AEAEAE"/></linearGradient><path d="M321.6 26c-.3.2-.8.6-1.6 1.3-1.9 1.8-5.7 7.8-19.6 9.4-10.2 1.1-24.8-1.9-38.6-1.4-7.5.2-14.3.9-20.4 2.1.1.9.2 1.9.2 2.8 6.7-.9 13.4-1.4 20.1-1.6 13.8-.5 27 2.6 37.2 1.1 14-2.1 19.1-9.2 21-11.7l.1-.2c.8-.9 1.3-1.4 1.6-1.8" class="st90"/><linearGradient id="SVGID_88_" x1="7590.311" x2="7612.911" y1="40.448" y2="5.648" gradientUnits="userSpaceOnUse" gradientTransform="matrix(-1 0 0 1 7893.129 0)"><stop offset="0" stop-color="#848484"/><stop offset=".5" stop-color="#fff"/><stop offset=".65" stop-color="#fff"/><stop offset="1" stop-color="#848484"/></linearGradient><path d="M340.5 12.9c-.3.2-.8.6-1.6 1.3-1.9 1.8-5.7 7.8-19.6 9.4-10.2 1.1-24.8-1.9-38.6-1.4-16.7.5-30.1 3.1-39.7 8.9 12.9-3.7 26.3-5.1 39.7-5.6 13.8-.5 27 2.6 37.2 1.1 14-2.1 19.1-9.2 21-11.7l.1-.2c.8-1 1.3-1.5 1.5-1.8" class="st91"/><linearGradient id="SVGID_89_" x1="7613.755" x2="7629.104" y1="57.358" y2="33.723" gradientUnits="userSpaceOnUse" gradientTransform="matrix(-1 0 0 1 7893.129 0)"><stop offset="0" stop-color="#848484"/><stop offset=".82" stop-color="#fff"/><stop offset="1" stop-color="#fff"/></linearGradient><path d="M302.7 39.2c-.3.2-.8.6-1.6 1.3-1.9 1.8-5.7 7.8-19.6 9.4-10.2 1.1-24.8-1.9-38.6-1.4-.6 0-1.1 0-1.6.1-.2 1.1-.4 2.2-.6 3.3.8 0 1.5-.1 2.3-.1 13.8-.5 27 2.6 37.2 1.1 14-2.1 19.1-9.2 21-11.7l.1-.2c.6-1 1.1-1.5 1.4-1.8" class="st92"/><linearGradient id="SVGID_90_" x1="140.712" x2="138.44" y1="48.842" y2="63.187" gradientUnits="userSpaceOnUse"><stop offset="0" stop-color="#848484"/><stop offset=".8" stop-color="#fff"/><stop offset="1" stop-color="#fff"/></linearGradient><path d="M163.2 61.9c-9.6.7-18.8 1.9-25.9 1.1-14-1.6-17.9-7.6-19.8-9.4-.7-.7-1.3-1.1-1.6-1.3-.1-.1-.1-.2-.2-.2 1.3.3 2.7.6 4.1.8 10.2 1.5 23.5-1.6 37.2-1.1.8 0 1.5.1 2.3.1.9 3.4 2.2 6.8 3.9 10" class="st93"/><linearGradient id="SVGID_91_" x1="132.137" x2="148.785" y1="67.97" y2="49.153" gradientUnits="userSpaceOnUse"><stop offset="0" stop-color="#848484"/><stop offset="1" stop-color="#fff"/></linearGradient><path d="M115.9 52.2c.3.2.8.6 1.6 1.3 1.9 1.8 5.7 7.9 19.8 9.4 7.1.8 16.3-.4 25.9-1.1.6 1.1 1.2 2.1 1.8 3.1-9.8.6-18.9 2-26.4.9-14-2.1-19.2-9.3-21.1-11.8l-.1-.2c-.7-.8-1.2-1.3-1.5-1.6" class="st94"/><linearGradient id="SVGID_92_" x1="129.209" x2="126.731" y1="35.581" y2="51.223" gradientUnits="userSpaceOnUse"><stop offset="0" stop-color="#848484"/><stop offset=".8" stop-color="#fff"/><stop offset="1" stop-color="#fff"/></linearGradient><path d="M158.7 48.5c-.5 0-1.1 0-1.6-.1-13.8-.4-28.4 2.6-38.6 1.4-14-1.6-17.8-7.6-19.6-9.4-.7-.7-1.3-1.1-1.6-1.3-.1-.1-.2-.2-.2-.3l.2.1h.9l.3.1h.4l.3.1h.4l.4.1h.1c.2 0 .3.1.5.1h.2c.2 0 .4.1.6.1 10.2 1.5 23.5-1.6 37.2-1.1H145.2c4.4.3 8.9.7 13.3 1.3 0 .7-.1 1.4-.1 2.1-.1 2.7 0 4.7.3 6.8" class="st95"/><linearGradient id="SVGID_93_" x1="111.255" x2="108.767" y1="12.404" y2="28.107" gradientUnits="userSpaceOnUse"><stop offset="0" stop-color="#848484"/><stop offset=".8" stop-color="#fff"/><stop offset="1" stop-color="#fff"/></linearGradient><path d="M60.4 12.3c33.6-2.3 81.3-.2 100.4 15.6-.4 1.1-.8 2.3-1.1 3.4-.3-.1-.6-.2-.8-.2-9.5-5.7-22.9-8.3-39.6-8.9-13.8-.4-28.4 2.6-38.6 1.4C66.7 22 62.9 16 61 14.2c-.7-.7-1.3-1.1-1.6-1.3-.4-.6-.2-.5 1-.6" class="st96"/><linearGradient id="SVGID_94_" x1="119.688" x2="117.205" y1="23.901" y2="39.579" gradientUnits="userSpaceOnUse"><stop offset="0" stop-color="#848484"/><stop offset=".8" stop-color="#fff"/><stop offset="1" stop-color="#fff"/></linearGradient><path d="M158.6 31c.4.1.7.2 1.1.3-.5 2-.9 4-1.2 6.1-6.1-1.2-12.9-1.8-20.4-2.1-13.8-.4-28.4 2.6-38.6 1.4-14-1.6-17.8-7.6-19.6-9.4-.7-.7-1.3-1.1-1.6-1.3-.1-.1-.2-.2-.2-.3l.2.1H80l.3.1h.4l.4.1h.1l.5.1h.2c.2 0 .4.1.6.1 10.2 1.5 23.5-1.6 37.2-1.1H127.6c10.3.7 20.6 2.2 30.6 4.9h.1l.3 1z" class="st97"/><linearGradient id="SVGID_95_" x1="108.336" x2="128.335" y1="48.534" y2="17.738" gradientUnits="userSpaceOnUse"><stop offset="0" stop-color="#848484"/><stop offset=".565" stop-color="#fff"/><stop offset=".752" stop-color="#fff"/><stop offset="1" stop-color="#AEAEAE"/></linearGradient><path d="M78.4 26c.3.2.8.6 1.6 1.3 1.9 1.8 5.7 7.8 19.6 9.4 10.2 1.1 24.8-1.9 38.6-1.4 7.5.2 14.3.9 20.4 2.1-.1.9-.2 1.9-.2 2.8-6.7-.9-13.4-1.4-20.1-1.6-13.8-.5-27 2.6-37.2 1.1-14-2.1-19.1-9.2-21-11.7l-.1-.2c-.8-.9-1.3-1.4-1.6-1.8" class="st98"/><linearGradient id="SVGID_96_" x1="97.181" x2="119.781" y1="40.448" y2="5.648" gradientUnits="userSpaceOnUse"><stop offset="0" stop-color="#848484"/><stop offset=".5" stop-color="#fff"/><stop offset=".65" stop-color="#fff"/><stop offset="1" stop-color="#848484"/></linearGradient><path d="M59.5 12.9c.3.2.8.6 1.6 1.3C63 16 66.8 22 80.7 23.6c10.2 1.1 24.8-1.9 38.6-1.4 16.7.5 30.1 3.1 39.7 8.9-12.9-3.7-26.3-5.1-39.7-5.6-13.8-.5-27 2.6-37.2 1.1-14-2.1-19.1-9.2-21-11.7l-.1-.2c-.8-1-1.3-1.5-1.5-1.8" class="st99"/><linearGradient id="SVGID_97_" x1="120.626" x2="135.975" y1="57.358" y2="33.723" gradientUnits="userSpaceOnUse"><stop offset="0" stop-color="#848484"/><stop offset=".82" stop-color="#fff"/><stop offset="1" stop-color="#fff"/></linearGradient><path d="M97.3 39.2c.3.2.8.6 1.6 1.3 1.9 1.8 5.7 7.8 19.6 9.4 10.2 1.1 24.8-1.9 38.6-1.4.6 0 1.1 0 1.6.1.2 1.1.4 2.2.6 3.3-.8 0-1.5-.1-2.3-.1-13.8-.5-27 2.6-37.2 1.1-14-2.1-19.1-9.2-21-11.7l-.1-.2c-.6-1-1.1-1.5-1.4-1.8" class="st100"/><linearGradient id="SVGID_98_" x1="200.01" x2="200.01" y1="79.629" y2="4.88" gradientUnits="userSpaceOnUse"><stop offset="0" stop-color="#1E2A5B"/><stop offset="1" stop-color="#273B7C"/></linearGradient><path d="M197.9 23.3c-9.5 1.1-16.9 9.1-16.9 18.9 0 9.8 7.4 17.8 16.9 18.9v18.5c-19.7-1.1-35.3-17.4-35.3-37.4s15.6-36.3 35.3-37.4v18.5zm4.2 37.9c9.5-1.1 16.9-9.1 16.9-18.9 0-9.8-7.4-17.8-16.9-18.9V4.9c19.7 1.1 35.3 17.4 35.3 37.4s-15.6 36.3-35.3 37.4V61.2z" class="st101"/><linearGradient id="SVGID_99_" x1="197.88" x2="165.52" y1="72.737" y2="72.737" gradientUnits="userSpaceOnUse"><stop offset="0" stop-color="#1E2A5B"/><stop offset="1" stop-color="#273B7C"/></linearGradient><path d="M197.9 79.8c-3.8.4-7.3 2-10.1 4.3h-22.3c5.4-12.8 17.8-22 32.4-22.8v18.5z" class="st102"/><linearGradient id="SVGID_100_" x1="202.139" x2="234.499" y1="72.737" y2="72.737" gradientUnits="userSpaceOnUse"><stop offset="0" stop-color="#1E2A5B"/><stop offset="1" stop-color="#273B7C"/></linearGradient><path d="M212.2 84.1c-2.8-2.3-6.3-3.9-10.1-4.3V61.3c14.6.8 26.9 10 32.4 22.8h-22.3z" class="st103"/></svg>