<svg xmlns="http://www.w3.org/2000/svg" viewBox="0 0 285 89" enable-background="new 0 0 285 89"><style type="text/css">.st0{fill:#FFFFFF;} .st1{fill:url(#SVGID_1_);} .st2{fill:#2B2B2B;} .st3{fill:url(#SVGID_2_);} .st4{fill:url(#SVGID_3_);} .st5{fill:url(#SVGID_4_);} .st6{fill:url(#SVGID_5_);}</style><path d="M43.8 58.6c-1.6 0-2.9-.3-4.1-.9-1.2-.6-2-1.5-2.3-2.5-.4-.9-.5-2.2-.5-3.9v-2h5c-.2-.1-.4-.3-.6-.4-1.4-.9-2.3-1.6-2.8-2-.5-.5-.9-1.1-1.3-1.9-.3-.8-.5-1.8-.5-3 0-1.7.2-3 .7-3.9.5-.9 1.3-1.6 2.3-2 1-.5 2.2-.7 3.6-.7 1.5 0 2.8.3 3.9.7 1.1.5 1.9 1.2 2.3 2.1.4.8.5 2.1.5 3.8v1.5h-5.5c2.5 1.5 4.1 2.7 4.8 3.8.7 1.1 1.1 2.6 1.1 4.9 0 1.6-.2 2.8-.6 3.6-.4.8-1.2 1.5-2.3 2.1-1 .5-2.3.7-3.7.7zm-.4-4.9s.1 0 .2 0c.2 0 .2 0 .2-.1.1-.1.2-.4.2-.9 0-1.5-.3-1.9-.3-2-.1-.1-.2-.2-.4-.4v2.2c0 1 .1 1.2.1 1.2zm.1-13.4c-.1 0-.1 0-.2.1s-.2.3-.2.9c0 .7.1 1.1.2 1.3 0 .1.1.2.3.4v-1.6c.1-.8 0-1.1-.1-1.1.1 0 0 0 0 0z" class="st0"/><path d="M43.3 36c1.4 0 2.6.2 3.6.7 1 .5 1.7 1 2 1.7.3.7.5 1.9.5 3.6v.8h-5.1v-1.6c0-.7-.1-1.2-.2-1.4-.1-.2-.3-.3-.7-.3-.3 0-.6.1-.7.4-.2.3-.3.7-.3 1.2 0 .7.1 1.2.3 1.6.2.4.7.8 1.5 1.3 2.4 1.4 4 2.6 4.6 3.6.6.9.9 2.4.9 4.5 0 1.5-.2 2.6-.5 3.3-.4.7-1 1.3-2 1.8s-2.2.7-3.5.7c-1.5 0-2.7-.3-3.8-.8-1-.6-1.7-1.3-2-2.1-.3-.9-.5-2.1-.5-3.7V50h5.1v2.6c0 .8.1 1.3.2 1.5.1.2.4.3.8.3s.6-.1.8-.4c.2-.3.3-.7.3-1.3 0-1.2-.2-2.1-.5-2.4-.3-.4-1.2-1-2.6-1.9-1.4-.9-2.3-1.6-2.7-2-.4-.4-.8-1-1.1-1.7-.3-.7-.4-1.6-.4-2.8 0-1.6.2-2.8.6-3.5.4-.7 1.1-1.3 2-1.8 1-.4 2.1-.6 3.4-.6m0-1.3c-1.5 0-2.8.3-3.9.8-1.2.5-2.1 1.3-2.6 2.3-.5 1-.8 2.3-.8 4.2 0 1.3.2 2.4.5 3.3.4.9.8 1.6 1.4 2.2.3.3.9.7 1.7 1.3h-3.5V51.4c0 1.8.2 3.1.6 4.1.4 1.2 1.3 2.1 2.7 2.8 1.2.7 2.7 1 4.4 1 1.5 0 2.9-.3 4.1-.9 1.3-.6 2.2-1.4 2.7-2.4.4-.9.7-2.2.7-3.9 0-2.4-.4-4.1-1.2-5.2-.6-.8-1.6-1.7-3.1-2.7h3.8V42c0-1.9-.2-3.2-.6-4.1-.5-1-1.4-1.8-2.6-2.4-1.3-.5-2.7-.8-4.3-.8z"/><path d="M58.5 58.2l-.3-3.8h-.7l-.3 3.8h-7l3-22.3-1.8-1.2.3-.5c1.1-1.9 2.4-2.9 3.8-2.9.7 0 1.5.2 2.3.5l.8.3c.9.3 1.1.3 1.1.3.4 0 .6-.1.8-.7l.3-.9 3.3 2.3-.2.5c-.5 1-1 1.7-1.7 2.1 0 0-.1 0-.1.1h.3l3.3 22.4h-7.2zm-.5-8.8c-.1-.6-.1-1.3-.2-2-.1.8-.2 1.4-.2 2h.4zm-.3-13.6l-.8-.3c-.7-.3-1-.3-1.1-.3-.1 0-.5 0-.8.6h2.7z" class="st0"/><path d="M61 31.8l2.1 1.5c-.4.9-.9 1.5-1.5 1.8-.6.3-1.1.5-1.5.5-.6 0-1.3-.1-2-.4l-1-.4c-.6-.3-1.1-.4-1.4-.4-.6 0-1.2.4-1.6 1.3L52 34.3c1-1.7 2-2.5 3.2-2.5.6 0 1.3.1 2 .4l.8.3c.7.3 1.1.4 1.4.4.9.1 1.4-.3 1.6-1.1m.6 4.7l3.1 21.1h-5.6l-.3-3.8h-2l-.3 3.8h-5.7l2.8-21.1h8M56.8 50h1.9c-.3-2.4-.6-5.3-.8-8.8-.6 4-.9 7-1.1 8.8m3.5-20.3l-.5 1.8c0 .1-.1.2-.1.2-.1 0-.3-.1-.9-.3l-.8-.3c-.9-.3-1.7-.5-2.5-.5-1.7 0-3.2 1.1-4.4 3.2l-.6 1.1 1 .7 1 .6v.1l-2.8 21.1-.2 1.5h8.4l.1-.9.1.9h8.3l-.4-1.6-3.1-21.1v-.3c.6-.5 1.1-1.2 1.5-2.1l.5-1-.9-.6-2.1-1.5-1.6-1z"/><path d="M72.4 58.6c-1.2 0-2.3-.2-3.3-.6-1-.4-1.8-1-2.4-1.9-.6-.8-1-1.7-1.1-2.7-.1-.9-.2-2.4-.2-4.6v-3.6c0-2.2 0-3.7.2-4.6.1-1 .5-1.9 1.1-2.7.6-.8 1.4-1.5 2.4-1.9 1-.4 2.1-.6 3.4-.6 1.2 0 2.3.2 3.3.6 1 .4 1.8 1 2.4 1.9.6.8 1 1.7 1.1 2.7.1.9.2 2.4.2 4.6v3.6c0 2.2 0 3.7-.2 4.6-.1 1-.5 1.9-1.1 2.7-.6.8-1.4 1.5-2.4 1.9-1 .4-2.1.6-3.4.6zm0-4.8s.1-.1 0 0c.1-.2.2-.6.2-2.2v-9.7c0-1.2-.1-1.6-.1-1.6s0 0-.1 0-.1 0-.1 0-.1.3-.1 1.6v9.8c0 1.5.1 2 .2 2.1-.1 0-.1 0 0 0z" class="st0"/><path d="M72.4 36c1.1 0 2.1.2 3 .6.9.4 1.6.9 2.2 1.7.5.7.9 1.5 1 2.4.1.9.2 2.4.2 4.6v3.6c0 2.1 0 3.6-.1 4.5-.1.9-.4 1.7-.9 2.4s-1.2 1.3-2.1 1.7c-.9.4-1.9.6-3.1.6-1.1 0-2.1-.2-3-.6-.9-.4-1.6-.9-2.2-1.7-.5-.7-.9-1.5-1-2.4-.3-.9-.4-2.4-.4-4.6v-3.6c0-2.1 0-3.6.1-4.5.1-.9.4-1.7.9-2.4s1.2-1.3 2.1-1.7c1-.4 2.1-.6 3.3-.6m0 18.4c.4 0 .6-.2.7-.5.1-.3.2-1.1.2-2.4v-9.7c0-1-.1-1.6-.2-1.9-.1-.3-.3-.4-.7-.4-.3 0-.5.1-.7.3-.2.2-.2.9-.2 2v9.8c0 1.2.1 2 .2 2.3.1.4.3.5.7.5m0-19.7c-1.4 0-2.6.2-3.7.7-1.1.5-2 1.2-2.7 2.1-.7.9-1.1 1.9-1.2 3-.1.9-.2 2.5-.2 4.6v3.6c0 2.2.1 3.8.2 4.7.1 1.1.5 2.1 1.2 3 .7.9 1.6 1.6 2.7 2.1 1.1.4 2.2.7 3.5.7 1.4 0 2.6-.2 3.7-.7 1.1-.5 2-1.2 2.7-2.1.7-.9 1.1-1.9 1.2-3 .2-.9.2-2.4.2-4.6v-3.6c0-2.2-.1-3.8-.2-4.7-.1-1.1-.5-2.1-1.2-3-.7-.9-1.6-1.6-2.7-2.1-1-.5-2.2-.7-3.5-.7z"/><path d="M85.9 58.2V35.8H92c1.6 0 2.8.1 3.6.4.9.3 1.6.7 2.1 1.2s.8 1.2 1 1.9c.2.7.3 1.7.3 3.1v1.8c0 1.5-.2 2.5-.5 3.2-.3.8-1 1.4-1.9 1.8-.8.4-1.9.6-3.2.6h-.8v8.5h-6.7zm6.8-13.4c.2 0 .2-.1.3-.1 0 0 .2-.2.2-1.1v-1.7c0-.7-.1-.9-.1-.9s-.1 0-.3-.1v3.9z" class="st0"/><path d="M92 36.5c1.5 0 2.6.1 3.4.4.8.2 1.4.6 1.8 1 .4.4.7 1 .8 1.6.1.6.2 1.6.2 2.9v1.8c0 1.3-.1 2.3-.4 2.9-.3.6-.8 1.1-1.5 1.4-.7.3-1.7.5-2.9.5H92v8.5h-5.5v-21H92m.4 9c.5 0 .9-.1 1-.4.2-.2.3-.8.3-1.5v-1.7c0-.7-.1-1.2-.3-1.4-.2-.2-.7-.3-1.4-.3v5.4c.2-.2.3-.1.4-.1M92 35.1h-6.8V58.8h8.1v-8.5h.1c1.4 0 2.5-.2 3.4-.6 1-.5 1.8-1.2 2.2-2.1.4-.8.5-1.9.5-3.5v-1.8c0-1.4-.1-2.5-.2-3.2-.2-.9-.6-1.6-1.1-2.2-.6-.6-1.4-1.1-2.4-1.4-.9-.2-2.1-.4-3.8-.4z"/><path d="M106.2 58.2l-.3-3.8h-.7l-.3 3.8h-7l3-22.4h9.1l3.3 22.4h-7.1zm-.6-8.8c-.1-.6-.1-1.3-.2-2-.1.8-.2 1.4-.2 2h.4z" class="st0"/><path d="M109.2 36.5l3.1 21.1h-5.6l-.3-3.8h-2l-.3 3.8h-5.7l2.8-21.1h8M104.4 50h1.9c-.3-2.4-.6-5.3-.8-8.8-.6 4-.9 7-1.1 8.8m6-14.9h-10.2l-.2 1.2-2.8 21.1-.2 1.5h8.4l.1-.9.1.9h8.3l-.2-1.5-3.1-21.1-.2-1.2z"/><path d="M120.2 58.6c-1.3 0-2.6-.2-3.6-.7-1.1-.5-1.9-1.1-2.4-1.8-.5-.8-.9-1.6-1-2.4-.1-.8-.1-2.3-.1-4.8V35.8h6.8v16.5c0 1 .1 1.4.1 1.5.1 0 .1 0 .1 0s.1-.4.1-1.7V35.8h6.8v14.7c0 1.6-.1 2.8-.2 3.5-.1.7-.5 1.5-1 2.3-.6.8-1.4 1.4-2.3 1.8-1 .4-2.1.5-3.3.5z" class="st0"/><path d="M126.3 36.5v14.1c0 1.6-.1 2.7-.2 3.4-.1.6-.4 1.3-.9 2s-1.2 1.2-2 1.5c-.8.4-1.8.5-3 .5-1.3 0-2.4-.2-3.3-.6-1-.4-1.7-1-2.2-1.6-.5-.7-.8-1.4-.8-2.1-.1-.7-.1-2.3-.1-4.7V36.5h5.5v15.8c0 .9 0 1.5.1 1.8.1.3.3.4.6.4s.6-.1.7-.4c.1-.3.2-.9.2-2V36.5h5.4m1.3-1.4H112.5v13.8c0 2.4 0 4 .1 4.8.1 1 .5 1.9 1.1 2.7.6.9 1.5 1.6 2.7 2.1 1.1.5 2.4.7 3.9.7 1.3 0 2.5-.2 3.5-.6 1.1-.4 1.9-1.1 2.6-2 .6-.9 1-1.7 1.2-2.6.1-.7.2-1.9.2-3.6V35.1h-.2z"/><path d="M128.3 58.2V35.8h6.8v16.9h3.3v5.5z" class="st0"/><path d="M134.4 36.5v16.9h3.3v4.2h-8.8V36.5h5.5m1.3-1.4h-8.1V58.8H139V52h-3.3V35.1z"/><path d="M145.4 58.6c-1.2 0-2.3-.2-3.3-.6-1-.4-1.8-1-2.4-1.9-.6-.8-1-1.7-1.1-2.7-.1-.9-.2-2.5-.2-4.6v-3.6c0-2.1.1-3.7.2-4.6.1-1 .5-1.9 1.1-2.7.6-.8 1.4-1.5 2.4-1.9 1-.4 2.1-.6 3.4-.6 1.2 0 2.3.2 3.3.6 1 .4 1.8 1 2.4 1.9.6.8 1 1.7 1.1 2.7.1.9.2 2.4.2 4.6v3.6c0 2.1-.1 3.7-.2 4.6-.1 1-.5 1.9-1.1 2.7-.6.8-1.4 1.5-2.4 1.9-1 .4-2.1.6-3.4.6zm0-4.8s.1-.1 0 0c.1-.2.2-.6.2-2.2v-9.7c0-1.2-.1-1.5-.1-1.6 0 0 0 0-.1 0s-.1 0-.1 0-.1.3-.1 1.6v9.8c0 1.6.1 2 .2 2.1-.1 0-.1 0 0 0z" class="st0"/><path d="M145.4 36c1.1 0 2.1.2 3 .6.9.4 1.6.9 2.2 1.7.5.7.9 1.5 1 2.4.1.9.2 2.4.2 4.6v3.6c0 2.1-.1 3.6-.2 4.5-.1.9-.4 1.7-.9 2.4s-1.2 1.3-2.1 1.7c-.9.4-1.9.6-3.1.6-1.1 0-2.1-.2-3-.6-.9-.4-1.6-.9-2.2-1.7-.5-.7-.9-1.5-1-2.4-.1-.9-.2-2.4-.2-4.6v-3.6c0-2.1.1-3.6.2-4.5.1-.9.4-1.7.9-2.4s1.2-1.3 2.1-1.7c.9-.4 1.9-.6 3.1-.6m0 18.4c.4 0 .6-.2.7-.5.1-.3.2-1.1.2-2.4v-9.7c0-1-.1-1.6-.2-1.9-.1-.3-.3-.4-.7-.4-.3 0-.5.1-.7.3-.2.2-.2.9-.2 2v9.8c0 1.2 0 2 .2 2.3.1.4.3.5.7.5m0-19.7c-1.4 0-2.6.2-3.7.7-1.1.5-2 1.2-2.7 2.1-.7.9-1.1 1.9-1.2 3-.1.9-.2 2.5-.2 4.6v3.6c0 2.2.1 3.8.2 4.7.1 1.1.5 2.1 1.2 3 .7.9 1.6 1.6 2.7 2.1 1.1.4 2.2.7 3.5.7 1.4 0 2.6-.2 3.7-.7 1.1-.5 2-1.2 2.7-2.1.7-.9 1.1-1.9 1.2-3 .1-.9.2-2.5.2-4.6v-3.6c0-2.2-.1-3.8-.2-4.7-.1-1.1-.5-2.1-1.2-3-.7-.9-1.6-1.6-2.7-2.1-1-.5-2.2-.7-3.5-.7z"/><path d="M165.5 58.6c-1.6 0-2.9-.3-4.1-.9-1.2-.6-2-1.5-2.3-2.5-.4-.9-.5-2.2-.5-3.9v-2h5c-.2-.1-.4-.3-.6-.4-1.4-.9-2.3-1.6-2.8-2-.5-.5-.9-1.1-1.3-1.9-.3-.8-.5-1.8-.5-3 0-1.7.2-3 .7-3.9.5-.9 1.3-1.6 2.3-2 1-.5 2.2-.7 3.6-.7 1.5 0 2.8.3 3.9.7 1.1.5 1.9 1.2 2.3 2.1.4.8.5 2 .5 3.8v1.5h-5.5c2.5 1.5 4.1 2.7 4.8 3.8.7 1 1.1 2.6 1.1 4.9 0 1.6-.2 2.8-.6 3.6-.4.8-1.2 1.5-2.3 2.1-1 .5-2.3.7-3.7.7zm-.4-4.9s.1 0 .2 0c.2 0 .2 0 .3-.1.1-.1.2-.4.2-.9 0-1.5-.3-1.9-.3-2-.1-.1-.2-.2-.4-.4v2.2c-.1 1 0 1.2 0 1.2zm.1-13.4c-.1 0-.1 0-.2.1s-.2.3-.2.9c0 .7.1 1.1.2 1.3 0 .1.1.2.3.4v-1.6c.1-.8 0-1.1-.1-1.1.1 0 .1 0 0 0 .1 0 0 0 0 0z" class="st0"/><path d="M165 36c1.4 0 2.6.2 3.6.7 1 .5 1.7 1 2 1.7.3.7.5 1.9.5 3.6v.8H166v-1.6c0-.7-.1-1.2-.2-1.4-.1-.2-.3-.3-.7-.3-.3 0-.6.1-.7.4-.2.3-.3.7-.3 1.2 0 .7.1 1.2.3 1.6.2.4.7.8 1.5 1.3 2.4 1.4 4 2.6 4.6 3.6.6.9.9 2.4.9 4.5 0 1.5-.2 2.6-.5 3.3-.4.7-1 1.3-2 1.8s-2.2.7-3.5.7c-1.5 0-2.7-.3-3.8-.8-1-.6-1.7-1.3-2-2.1-.3-.9-.5-2.1-.5-3.7V50h5.1v2.6c0 .8.1 1.3.2 1.5.1.2.4.3.8.3s.6-.1.8-.4c.2-.3.3-.7.3-1.3 0-1.2-.2-2.1-.5-2.4-.3-.4-1.2-1-2.6-1.9-1.4-.9-2.3-1.6-2.7-2-.4-.4-.8-1-1.1-1.7-.3-.7-.4-1.6-.4-2.8 0-1.6.2-2.8.6-3.5.4-.7 1.1-1.3 2-1.8 1-.4 2.1-.6 3.4-.6m0-1.3c-1.5 0-2.8.3-3.9.8-1.2.5-2.1 1.3-2.6 2.3-.5 1-.8 2.3-.8 4.2 0 1.3.2 2.4.5 3.3.4.9.8 1.6 1.4 2.2.3.3.9.7 1.7 1.3h-3.5V51.4c0 1.8.2 3.1.6 4.1.4 1.2 1.3 2.1 2.7 2.8 1.2.7 2.7 1 4.4 1 1.5 0 2.9-.3 4.1-.9 1.3-.6 2.2-1.4 2.7-2.4.4-.9.7-2.2.7-3.9 0-2.4-.4-4.1-1.2-5.2-.6-.8-1.6-1.7-3.1-2.7h3.8V42c0-1.9-.2-3.2-.6-4.1-.5-1-1.3-1.8-2.6-2.4-1.3-.5-2.7-.8-4.3-.8z"/><path d="M180.2 58.2l-.3-3.8h-.7l-.3 3.8h-7l3-22.3-1.8-1.2.3-.5c1.1-1.9 2.4-2.9 3.8-2.9.7 0 1.5.2 2.3.5l.8.3c.9.3 1.1.3 1.1.3.4 0 .6-.1.8-.7l.3-.9 3.3 2.3-.2.5c-.5 1-1 1.7-1.7 2.1 0 0-.1 0-.1.1h.3l3.3 22.4h-7.2zm-.5-8.8c-.1-.6-.1-1.3-.2-2-.1.8-.2 1.4-.2 2h.4zm-.3-13.6l-.8-.3c-.7-.3-1-.3-1.1-.3-.1 0-.5 0-.8.6h2.7z" class="st0"/><path d="M182.7 31.8l2.1 1.5c-.4.9-.9 1.5-1.5 1.8s-1.1.5-1.5.5c-.6 0-1.3-.1-2-.4l-1-.4c-.6-.3-1.1-.4-1.4-.4-.6 0-1.2.4-1.6 1.3l-2.1-1.4c1-1.7 2-2.5 3.2-2.5.6 0 1.3.1 2 .4l.8.3c.7.3 1.1.4 1.4.4.9.1 1.4-.3 1.6-1.1m.6 4.7l3.1 21.1h-5.6l-.3-3.8h-2l-.3 3.8h-5.7l2.8-21.1h8M178.5 50h1.9c-.3-2.4-.6-5.3-.8-8.8-.6 4-.9 7-1.1 8.8m3.5-20.3l-.5 1.8c0 .1-.1.2-.1.2-.1 0-.3-.1-.9-.3l-.8-.3c-.9-.3-1.7-.5-2.5-.5-1.7 0-3.2 1.1-4.4 3.2l-.6 1.1 1 .7 1 .6v.1l-2.8 21.1-.2 1.5h8.4l.1-.9.1.9h8.3l-.2-1.5-3.1-21.1V36c.6-.5 1.1-1.2 1.5-2.1l.5-1-.9-.6-2.1-1.5-1.8-1.1z"/><path d="M194.1 58.6c-1.2 0-2.3-.2-3.3-.6-1-.4-1.8-1-2.4-1.9-.6-.8-1-1.7-1.1-2.7-.1-.9-.2-2.5-.2-4.6v-3.6c0-2.1.1-3.7.2-4.6.1-1 .5-1.9 1.1-2.7.6-.8 1.4-1.5 2.4-1.9 1-.4 2.1-.6 3.4-.6 1.2 0 2.3.2 3.3.6 1 .4 1.8 1 2.4 1.9.6.8 1 1.7 1.1 2.7.1.9.2 2.4.2 4.6v3.6c0 2.1-.1 3.7-.2 4.6-.1 1-.5 1.9-1.1 2.7-.6.8-1.4 1.5-2.4 1.9-1 .4-2.1.6-3.4.6zm0-4.8s.1-.1 0 0c.1-.2.2-.6.2-2.2v-9.7c0-1.2-.1-1.5-.1-1.6 0 0 0 0-.1 0s-.1 0-.1 0-.1.3-.1 1.6v9.8c0 1.6.1 2 .2 2.1-.1 0-.1 0 0 0z" class="st0"/><path d="M194.1 36c1.1 0 2.1.2 3 .6.9.4 1.6.9 2.2 1.7.5.7.9 1.5 1 2.4.1.9.2 2.4.2 4.6v3.6c0 2.1-.1 3.6-.2 4.5-.1.9-.4 1.7-.9 2.4s-1.2 1.3-2.1 1.7c-.9.4-1.9.6-3.1.6-1.1 0-2.1-.2-3-.6-.9-.4-1.6-.9-2.2-1.7-.5-.7-.9-1.5-1-2.4-.1-.9-.2-2.4-.2-4.6v-3.6c0-2.1.1-3.6.2-4.5.1-.9.4-1.7.9-2.4s1.2-1.3 2.1-1.7c.9-.4 1.9-.6 3.1-.6m0 18.4c.4 0 .6-.2.7-.5.1-.3.2-1.1.2-2.4v-9.7c0-1-.1-1.6-.2-1.9-.1-.3-.3-.4-.7-.4-.3 0-.5.1-.7.3-.2.2-.2.9-.2 2v9.8c0 1.2 0 2 .2 2.3.1.4.3.5.7.5m0-19.7c-1.4 0-2.6.2-3.7.7-1.1.5-2 1.2-2.7 2.1-.7.9-1.1 1.9-1.2 3-.1.9-.2 2.5-.2 4.6v3.6c0 2.2.1 3.8.2 4.7.1 1.1.5 2.1 1.2 3 .7.9 1.6 1.6 2.7 2.1 1.1.4 2.2.7 3.5.7 1.4 0 2.6-.2 3.7-.7 1.1-.5 2-1.2 2.7-2.1.7-.9 1.1-1.9 1.2-3 .1-.9.2-2.5.2-4.6v-3.6c0-2.2-.1-3.8-.2-4.7-.1-1.1-.5-2.1-1.2-3-.7-.9-1.6-1.6-2.7-2.1-1-.5-2.2-.7-3.5-.7z"/><path d="M207.6 58.2V35.8h6.2c1.6 0 2.8.1 3.6.4.9.3 1.6.7 2.1 1.2s.8 1.2 1 1.9c.2.7.2 1.7.2 3.1v1.8c0 1.5-.2 2.5-.5 3.2-.3.8-1 1.4-1.9 1.8-.8.4-1.9.6-3.2.6h-.8v8.5h-6.7zm6.8-13.4c.2 0 .2-.1.3-.1 0 0 .1-.2.1-1.1v-1.7c0-.7-.1-.9-.1-.9s-.1 0-.3-.1v3.9z" class="st0"/><path d="M213.7 36.5c1.5 0 2.6.1 3.4.4.8.2 1.4.6 1.8 1 .4.4.7 1 .8 1.6.1.6.2 1.6.2 2.9v1.8c0 1.3-.1 2.3-.4 2.9-.3.6-.8 1.1-1.5 1.4-.7.3-1.7.5-2.9.5h-1.5v8.5h-5.5v-21h5.6m.4 9c.5 0 .9-.1 1-.4.2-.2.3-.8.3-1.5v-1.7c0-.7-.1-1.2-.3-1.4-.2-.2-.7-.3-1.4-.3v5.4c.2-.2.3-.1.4-.1m-.4-10.4h-6.8V58.8h8.1v-8.5h.1c1.4 0 2.5-.2 3.4-.6 1-.5 1.8-1.2 2.2-2.1.4-.8.5-1.9.5-3.5v-1.8c0-1.4-.1-2.5-.2-3.2-.2-.9-.6-1.6-1.1-2.2-.6-.6-1.4-1.1-2.4-1.4-.9-.2-2.1-.4-3.8-.4z"/><path d="M221.5 58.2V35.8h10.4v5.6h-3.6V44h3.4v5.4h-3.4v3.3h4v5.5z" class="st0"/><path d="M231.3 36.5v4.2h-3.7v4h3.4v4h-3.4v4.6h4v4.2h-9.5v-21h9.2m1.3-1.4H220.9V58.8H233V52h-4v-2H232.4v-6.6h-3.5V42H232.5v-6.9h.1z"/><path d="M233.1 58.2V35.8h4.8c2.7 0 4.5.1 5.5.4 1.1.3 1.9.7 2.5 1.4.6.6.9 1.4 1.1 2.2.1.7.2 2.1.2 4.1v7.4c0 2-.1 3.3-.3 4-.2.8-.6 1.4-1.2 1.8-.5.4-1.2.7-1.9.9-.7.2-1.7.2-3.1.2h-7.6zm6.8-5c.2 0 .2-.1.2-.1s.2-.4.2-2.2v-8.2c0-1.2-.1-1.6-.1-1.7 0-.1-.1-.1-.1-.2 0 0-.1 0-.2-.1v12.5z" class="st0"/><path d="M237.8 36.5c2.6 0 4.4.1 5.4.4.9.2 1.6.6 2.1 1.2s.8 1.2.9 1.9c.1.7.2 2 .2 4v7.4c0 1.9-.1 3.2-.3 3.8-.2.6-.5 1.1-.9 1.5-.4.4-1 .6-1.6.8-.6.1-1.6.2-2.9.2h-6.9V36.5h4m1.4 17.4c.8 0 1.3-.2 1.5-.5.2-.3.3-1.2.3-2.6v-8.2c0-1 0-1.6-.1-1.8-.1-.3-.2-.5-.4-.6-.2-.1-.6-.2-1.2-.2v13.9m-1.5-18.8H232.4V58.8H240.6c1.4 0 2.5-.1 3.2-.2.9-.2 1.6-.5 2.2-1 .7-.5 1.1-1.3 1.4-2.2.1-.5.3-1.4.3-4.2v-7.4c0-2.1-.1-3.5-.2-4.2-.2-.9-.6-1.8-1.2-2.5-.7-.8-1.6-1.3-2.8-1.6-1-.2-2.9-.4-5.7-.4z"/><path d="M255.5 58.2v-7.7c0-1.4-.1-1.7-.2-1.7 0 0-.1 0-.2 0v9.4h-6.8V35.8h4.5c2.7 0 4.4.1 5.4.3 1.1.2 2 .8 2.6 1.8.7.9 1 2.4 1 4.3 0 1.8-.2 3-.7 3.7-.2.3-.5.5-.9.7.2.2.5.3.6.5.4.5.7 1 .8 1.5.1.3.2.9.2 3.3v6.2h-6.3zm-.3-14.2c.1 0 .2 0 .2-.1s.1-.4.1-1.1v-1.2c0-.7-.1-.8-.1-.8s-.1 0-.2-.1V44z" class="st0"/><path d="M252.9 36.5c2.6 0 4.3.1 5.3.3.9.2 1.7.7 2.2 1.5.6.8.9 2.1.9 3.9 0 1.6-.2 2.7-.6 3.3-.4.6-1.2.9-2.4 1 1.1.3 1.8.6 2.2 1.1.4.5.6.9.7 1.2.1.4.1 1.4.1 3.1v5.6h-5.1v-7c0-1.1-.1-1.8-.3-2.1-.2-.3-.6-.4-1.4-.4v9.5H249v-21h3.9m1.6 8.3c.6 0 1-.1 1.3-.3.2-.2.4-.7.4-1.6v-1.2c0-.7-.1-1.1-.4-1.3-.2-.2-.7-.3-1.3-.3v4.7m-1.6-9.7h-5.2V58.8h14.8V52c0-2.4-.1-3.1-.2-3.4-.1-.6-.5-1.2-1-1.8 0 0 0-.1-.1-.1.1-.1.2-.3.3-.4.6-.8.9-2.1.9-4.1 0-2.1-.4-3.6-1.1-4.7-.8-1.1-1.8-1.8-3-2.1-.9-.1-2.7-.3-5.4-.3z"/><path d="M270.1 58.6c-1.2 0-2.3-.2-3.3-.6-1-.4-1.8-1-2.4-1.9-.6-.8-1-1.7-1.1-2.7-.1-.9-.2-2.4-.2-4.6v-3.6c0-2.2 0-3.7.2-4.6.1-1 .5-1.9 1.1-2.7.6-.8 1.4-1.5 2.4-1.9 1-.4 2.1-.6 3.4-.6 1.2 0 2.3.2 3.3.6 1 .4 1.8 1 2.4 1.9.6.8 1 1.7 1.1 2.7.1.9.2 2.4.2 4.6v3.6c0 2.2 0 3.7-.2 4.6-.1 1-.5 1.9-1.1 2.7-.6.8-1.4 1.5-2.4 1.9-1 .4-2.1.6-3.4.6zm0-4.8s.1-.1 0 0c.1-.2.2-.6.2-2.2v-9.7c0-1.2-.1-1.6-.1-1.6s0 0-.1 0-.1 0-.1 0-.1.3-.1 1.6v9.8c0 1.5.1 2 .2 2.1-.1 0-.1 0 0 0z" class="st0"/><path d="M270.1 36c1.1 0 2.1.2 3 .6.9.4 1.6.9 2.2 1.7.5.7.9 1.5 1 2.4.1.9.2 2.4.2 4.6v3.6c0 2.1 0 3.6-.1 4.5-.1.9-.4 1.7-.9 2.4s-1.2 1.3-2.1 1.7c-.9.4-1.9.6-3.1.6-1.1 0-2.1-.2-3-.6-.9-.4-1.6-.9-2.2-1.7-.5-.7-.9-1.5-1-2.4-.1-.9-.2-2.4-.2-4.6v-3.6c0-2.1 0-3.6.1-4.5.1-.9.4-1.7.9-2.4s1.2-1.3 2.1-1.7c.8-.4 1.9-.6 3.1-.6m0 18.4c.4 0 .6-.2.7-.5.1-.3.2-1.1.2-2.4v-9.7c0-1-.1-1.6-.2-1.9-.1-.3-.3-.4-.7-.4-.3 0-.5.1-.7.3-.2.2-.2.9-.2 2v9.8c0 1.2.1 2 .2 2.3.1.4.3.5.7.5m0-19.7c-1.4 0-2.6.2-3.7.7-1.1.5-2 1.2-2.7 2.1-.7.9-1.1 1.9-1.2 3-.1.9-.2 2.5-.2 4.6v3.6c0 2.2.1 3.8.2 4.7.1 1.1.5 2.1 1.2 3 .7.9 1.6 1.6 2.7 2.1 1.1.4 2.2.7 3.5.7 1.4 0 2.6-.2 3.7-.7 1.1-.5 2-1.2 2.7-2.1.7-.9 1.1-1.9 1.2-3 .1-.9.2-2.5.2-4.6v-3.6c0-2.2-.1-3.8-.2-4.7-.1-1.1-.5-2.1-1.2-3-.7-.9-1.6-1.6-2.7-2.1-1-.5-2.2-.7-3.5-.7z"/><linearGradient id="SVGID_1_" x1="19.557" x2="19.557" y1="35.723" y2="58.269" gradientUnits="userSpaceOnUse"><stop offset="0" stop-color="#74C3E9"/><stop offset="1" stop-color="#006397"/></linearGradient><path d="M29 58.3H10.2c-1.2 0-2.2-1-2.2-2.2V37.9c0-1.2 1-2.2 2.2-2.2H29c1.2 0 2.2 1 2.2 2.2V56c0 1.3-1 2.3-2.2 2.3z" class="st1"/><path d="M29 58.6H10.2c-1.4 0-2.6-1.1-2.6-2.6V37.9c0-1.4 1.2-2.6 2.6-2.6H29c1.4 0 2.6 1.2 2.6 2.6V56c-.1 1.5-1.2 2.6-2.6 2.6zM10.2 36.1c-1 0-1.9.8-1.9 1.9v18.1c0 1 .8 1.9 1.9 1.9H29c1 0 1.9-.8 1.9-1.9V37.9c0-1-.8-1.9-1.9-1.9H10.2z" class="st2"/><g id="iN2Ra5_6_"><path d="M20 37.5c.7.2 1.1.8 1.5 1.3.5.7.8 1.5 1.1 2.3 0 .1.1.2.1.3.1.2.2.3.4.4.7.4 1.3.9 1.7 1.6.3.4.5.8.8 1.3.1.1.1.3.1.4 0 .3-.3.4-.5.3-.2-.2-.4-.4-.4-.7 0 0 0-.1 0-.1-.4-.6-.8-1.2-1.4-1.6 0 0 0 0-.1 0 0 0 0 0-.1 0 0 .1.1.2.1.3 0 .1.1.3-.1.4-.1.1-.2.1-.4.1s-.3-.1-.3-.3c0-.1-.1-.2 0-.3.1-.2 0-.4 0-.6 0 0-.1-.1-.1-.1-.4-.2-.9-.3-1.4-.3-1.4 0-2.7.3-3.8 1-.7.4-1.4.9-2.1 1.3-.1 0-.1.1-.2.1.2-.2.4-.4.6-.5.8-.7 1.7-1.3 2.7-1.8.8-.4 1.7-.6 2.6-.7.5 0 1 0 1.5.1 0 0 .1 0 .1 0 0-.4-1.1-2.8-1.6-3.1 0 .1 0 .1 0 .2.1.5.2 1 .4 1.5 0 0 0 .1 0 .1 0 .1 0 .2-.1.2 0 0-.2 0-.2-.1-.2-.2-.4-.4-.5-.5-.4-.4-.7-.8-1.1-1.2-.2-.2-.4-.3-.6-.5 0 0 0 0-.1 0 0 .1.1.1.1.2.2.3.4.6.4.9 0 .2 0 .4 0 .6 0 .1-.1.2-.1.2-.1 0-.2 0-.3-.1-.2-.3-.4-.5-.6-.8-.2-.3-.5-.6-.9-.8 0 0-.1-.1-.1-.1s.1 0 .1 0c.3.1.6.3.8.5.1.2.3.3.4.4 0 0 .1 0 .2.1 0-.1.1-.1.1-.2-.1-.5-.2-.9-.5-1.2 0-.1-.1-.1-.1-.2.1 0 .1-.1.2-.1.2 0 .3.1.5.1.6.3 1 .8 1.5 1.3.1.1.1.2.2.3.1 0 .1.1.2.1 0-.1 0-.1 0-.2-.1-.5-.2-.9-.5-1.3-.1-.1-.2-.2-.3-.3 0 0 0-.1-.1-.2 0 0 .1 0 .2 0zm3.1 5.2c0-.1 0-.1 0-.2-.1-.2-.1-.4-.2-.6-.1-.2-.2-.3-.4-.3 0 .2 0 .4.1.7 0 0 0 .1.1.1 0 .1.2.2.4.3zM25.8 46.4c0 .1 0 .2-.1.3-.3 1.1-.9 2-1.9 2.7-.4.3-.9.5-1.4.5-.6.1-1.1 0-1.7-.2-.3-.1-.6-.2-.9-.4-.3-.1-.5-.1-.7.2-.1.2-.2.4-.4.7-.2.3-.4.6-.8.8-.1.1-.2.1-.3.1 0 0 0 0 0-.1s.1-.1.1-.2c.2-.3.4-.6.4-.9 0-.1 0-.1 0-.2-.1 0-.1 0-.2.1-.2.2-.4.5-.7.7-.2.2-.4.3-.6.4-.1 0-.2 0-.2 0-.1-.1 0-.1.1-.2.1-.2.2-.5.3-.7 0 0 0-.1 0-.1s-.1 0-.1 0c-.2.2-.4.4-.7.6-.1 0-.1.1-.2.1.1-.1.1-.1.2-.2.3-.3.5-.6.8-.9 0 0 .1-.1.1-.1.1-.1.2-.1.3.1.1.2 0 .4-.1.6-.1.1-.1.3-.2.4 0 .1-.1.1-.1.2.1-.1.3-.2.4-.3.3-.3.5-.5.7-.8.1-.1.2-.2.3-.3 0 0 .1-.1.1 0 0 0 .1.1.1.1 0 .1 0 .3-.1.4 0 .2-.1.4-.1.6 0 0 0 .1 0 .1.1-.1.1-.2.2-.3.1-.2.3-.5.4-.7.1-.2.1-.4.4-.4-1.6-1-3-2.2-4.4-3.4 0 0 0 0 0-.1.1 0 .1.1.2.1s.1.1.2.1c.9.7 1.8 1.4 2.7 2.1.9.6 1.8 1.1 2.8 1.4 1 .3 1.9 0 2.8-.5.6-.4 1-.9 1.3-1.4 0 0 0-.1.1-.2-.2 0-.4.1-.5.1-.6.1-1.2 0-1.7-.2-.1 0-.2-.1-.1-.2.2 0 .3.1.5.1.8.2 1.6.1 2.3-.3.1-.1.2-.1.3-.2 0-.1.1-.1.1-.1zM11.5 39.4c0 .1.1.2.1.2.2.4.5.8.7 1.2.1.2.1.3.2.5 0 .1-.1.2-.2.1-.2-.1-.3-.3-.3-.5 0-.3-.1-.6-.3-.9-.2-.4-.4-.7-.7-1 0 0 0-.1-.1-.1.1 0 .2 0 .3 0 .5.1.8.4 1.1.7.9.9 1.7 2 2.3 3.2.1.2.3.4.4.7.1.1.1.3.2.5 0 .1 0 .1-.1.2-.2.2-.6.2-.7 0-.1-.1-.1-.2 0-.4.1-.1.1-.2 0-.4-.3-.9-.8-1.7-1.3-2.5-.4-.6-.9-1.1-1.4-1.5-.1 0-.2 0-.2 0zM14 48.5c0 .4 0 .8-.1 1.2.1-.1.1-.2.2-.3.2-.6.3-1.2.5-1.8.1-.3.1-.6.1-.9 0-.1 0-.2-.1-.3-.1-.1-.1-.2 0-.3.1-.1.2-.2.3-.1.1 0 .2.1.1.3-.1.5-.1 1-.2 1.4-.1.7-.3 1.3-.6 1.9-.2.4-.4.6-.7.9 0 0-.1 0-.1.1 0 0-.1 0-.1 0s0-.1 0-.1c0-.1.1-.1.2-.2.2-.4.3-.8.3-1.2 0-.1 0-.2 0-.4 0-.1 0-.1.2-.2-.1 0-.1 0 0 0zM22.4 48.3c-.1-.2-.2-.3-.3-.5-.5-.8-.9-1.6-1.1-2.5-.2-.9 0-1.7.3-2.6.1-.2.4-.3.6-.2 0 0 .1.1.1.1s-.1.1-.1.1c-.3.1-.4.3-.5.5-.3.7-.3 1.3-.2 2 .2 1 .6 1.8 1 2.7.1.2.2.3.2.4zM20 47.3c0-.4.1-.3-.5-1 .7-.1 1.9.9 2 1.7-.4-.4-.8-.8-1.5-.7zM12.1 43c.6.3 1.3.5 1.9 1.1.2.2.3.4.3.6 0 .1 0 .2-.1.3-.1 0-.2 0-.3 0-.2-.1-.2-.2-.2-.4 0-.5-.3-.8-.7-1-.2-.1-.5-.3-.7-.4-.1-.1-.1-.1-.2-.2zM23.1 44.7c0 .2-.2.4-.4.2-.2-.1-.4-.4-.4-.6 0-.2.1-.3.3-.2.3 0 .5.3.5.6zM12.9 45.8c.1 0 .2-.1.3-.1.3-.1.6-.1.9-.2.1 0 .2 0 .2 0 .1 0 .1.1.1.2s-.1.2-.2.1c-.3 0-.6 0-.9 0 0 0-.2 0-.4 0z" class="st0"/></g><g id="iN2Ra5_5_"><path d="M24.6 49.4c.4.1.6.4.8.7.3.4.5.8.6 1.3 0 .1 0 .1.1.2 0 .1.1.2.2.2.4.2.7.5 1 .9.2.2.3.5.4.7 0 .1 0 .1 0 .2 0 .2-.2.2-.3.1-.1-.1-.2-.2-.2-.4 0 0 0-.1 0-.1-.2-.4-.5-.7-.8-.9 0 .1 0 .1 0 .2s0 .1 0 .2c-.1.1-.1.1-.2 0-.1 0-.2-.1-.2-.2 0 0 0-.1 0-.2.1-.1 0-.2 0-.3 0 0 0 0-.1-.1-.2-.1-.5-.2-.8-.2-.8 0-1.5.2-2.1.6-.4.2-.8.5-1.2.7 0 0-.1 0-.1.1.1-.1.2-.2.3-.3.5-.4.9-.7 1.5-1 .5-.2.9-.4 1.4-.4.3 0 .6 0 .8.1 0 0 0 0 .1 0 0-.2-.6-1.6-.9-1.8 0 0 0 .1 0 .1.1.3.1.5.2.8 0 0 0 .1 0 .1s-.1 0-.1 0c-.1-.1-.2-.2-.3-.3-.2-.2-.4-.5-.6-.7-.1-.1-.2-.2-.3-.3 0 0 0 .1.1.1.1.2.2.3.2.5 0 .1 0 .2 0 .3 0 0 0 .1-.1.1s-.1 0-.2-.1-.2-.3-.3-.4c-.1-.2-.3-.3-.5-.4 0 0 0 0-.1-.1 0 0 .1 0 .1 0 .2.1.3.2.4.3.1.1.2.2.2.3 0 0 .1 0 .1 0s0-.1 0-.1c0-.3-.1-.5-.3-.7 0 0 0-.1-.1-.1 0 0 .1 0 .1 0 .1 0 .2 0 .3.1.4.2.6.5.8.7 0 .1.1.1.1.2 0 0 .1 0 .1 0s0-.1 0-.1c0-.3-.1-.5-.3-.7-.1-.1-.1-.1-.2-.2 0 0 0-.1 0-.1.3.4.4.4.4.4zm1.8 2.9s0-.1 0 0c-.1-.2-.1-.3-.1-.4 0-.1-.1-.2-.2-.2 0 .1 0 .2 0 .4 0 0 0 0 0 .1.1 0 .2 0 .3.1zM27.9 54.4c0 .1 0 .1 0 .2-.2.6-.5 1.1-1.1 1.5-.2.1-.5.3-.8.3-.3 0-.6 0-.9-.1-.2-.1-.3-.1-.5-.2s-.3 0-.4.1c-.1.1-.1.2-.2.4s-.2.3-.4.5c0 0-.1 0-.2.1 0 0 0-.1.1-.1.1-.2.2-.3.2-.5 0 0 0-.1 0-.1s-.1 0-.1 0c-.1.1-.2.3-.4.4-.1.1-.2.2-.3.2 0 0-.1 0-.1 0s0-.1 0-.1c.1-.1.1-.3.2-.4 0 0 0-.1 0-.1s-.1 0-.1 0c-.1.1-.2.2-.4.3 0 0-.1 0-.1.1 0 0 .1-.1.1-.1.1-.2.3-.3.4-.5 0 0 0 0 .1-.1s.1 0 .1 0c0 .1 0 .2 0 .3 0 .1-.1.2-.1.2s0 .1 0 .1c.1-.1.2-.1.2-.2.1-.1.3-.3.4-.4.1-.1.1-.1.2-.2 0 0 .1 0 .1 0s0 .1 0 .1c0 .1 0 .1 0 .2s-.1.2-.1.3c0 0 0 0 0 .1 0-.1.1-.1.1-.2.1-.1.2-.3.2-.4.1-.1.1-.2.2-.3-.9-.5-1.7-1.2-2.4-1.9 0 0 .1 0 .1.1 0 0 .1.1.1.1.5.4 1 .8 1.5 1.1.5.3 1 .6 1.6.8.6.1 1.1 0 1.5-.3.3-.2.5-.5.7-.8 0 0 0-.1 0-.1-.1 0-.2 0-.3 0-.3 0-.6 0-1-.1 0 0-.1 0-.1-.1.1 0 .2 0 .3.1.4.1.9 0 1.3-.2.1 0 .1-.1.2-.1 0 0 .1 0 .1 0 0-.1 0 0 0 0zM19.9 50.4s0 .1.1.1c.1.2.3.4.4.6 0 .1.1.2.1.3 0 .1 0 .1-.1.1-.1-.1-.2-.2-.2-.3 0-.2-.1-.3-.1-.5-.1-.2-.2-.4-.4-.6 0 0 0 0 0-.1.1 0 .1 0 .1 0 .3.1.5.2.6.4.5.5.9 1.1 1.3 1.8.1.1.2.2.2.4 0 .1.1.2.1.3 0 0 0 .1 0 .1-.1.1-.3.1-.4 0-.1-.1-.1-.1 0-.2 0-.1 0-.1 0-.2-.2-.5-.4-1-.7-1.4-.4-.2-.7-.5-1-.8zM21.3 55.5c0 .2 0 .5 0 .7 0-.1.1-.1.1-.2.1-.3.2-.7.3-1 0-.2 0-.3.1-.5 0-.1 0-.1 0-.2s0-.1 0-.2c.1-.1.1-.1.2-.1s.1.1.1.1c0 .3-.1.5-.1.8-.1.4-.2.7-.3 1.1-.1.2-.2.4-.4.5 0 0 0 0-.1 0 0 0 0 0 0-.1 0 0 .1-.1.1-.1.1-.2.2-.4.1-.7 0-.1 0-.1 0-.2-.2.2-.2.2-.1.1zM26 55.4c-.1-.1-.1-.2-.2-.3-.3-.4-.5-.9-.6-1.4-.1-.5 0-1 .2-1.4.1-.1.2-.2.3-.1 0 0 0 0 0 .1 0 0 0 0-.1.1-.1 0-.2.1-.3.3-.2.4-.2.7-.1 1.1.1.5.3 1 .6 1.5.1 0 .2.1.2.1zM24.7 54.9c0-.2.1-.2-.3-.6.4-.1 1.1.5 1.1.9-.2-.2-.5-.4-.8-.3zM20.3 52.4c.4.2.8.3 1 .6.1.1.2.2.2.3 0 .1 0 .1 0 .2 0 0-.1 0-.2 0s-.1-.1-.1-.2c0-.3-.2-.4-.4-.6-.2 0-.3-.1-.5-.3 0 .1 0 .1 0 0 0 .1 0 .1 0 0zM26.4 53.4c0 .1-.1.2-.2.1s-.2-.2-.2-.4c0-.1.1-.2.2-.1s.2.3.2.4zM20.7 54c.1 0 .1 0 .2-.1.2 0 .3-.1.5-.1 0 0 .1 0 .1 0s.1.1.1.1c0 .1 0 .1-.1.1-.2 0-.3 0-.5 0-.1 0-.2 0-.3 0z" class="st0"/></g></svg>