<svg xmlns="http://www.w3.org/2000/svg" viewBox="0 0 608 190" enable-background="new 0 0 608 190"><style type="text/css">.st0{fill:#E9E037;} .st1{fill:#93B5DE;} .st2{fill:#1C1E1C;}</style><g id="NqCWai.tif_1_"><path d="M230 49.8c122.8 0 245.7 0 368.5-.1 2.4 0 3 .5 3 3-.1 29-.1 57.9-.1 86.8-1.3.1-2.6.2-3.9.2-127.7 0-255.3 0-383.1 0-1.4 0-2.8.2-4.2-.4 11.8-9.7 21.1-21.4 26.3-35.9 6.7-18.9 4.8-36.6-7-53.1.1-.2.3-.3.5-.5zm262.6 63.4c-1.5-.4-1.9.7-2.3 1.9-1.7.8-3.4 3.1-5.3.5-2.5-3.5-5.1-7.1-7.4-10.8-1-1.5-1.3-2.8 1.4-3.4 3.8-.9 7.2-3.1 10-5.8 3.5-3.4 2.8-7-1.5-9.1-2.3-1.1-5-1.7-7.5-2-14.4-1.5-28.7-.5-43.1-.7-.5 0-.8.2-.8.8 1.6 1.2 4.2-.4 5.5 1.8-3.2 0-6.6 0-9.8 0 .7-2.3-.2-2.8-2.4-2.8-16.4.1-32.9.1-49.4 0-2.5 0-4.2.6-5.1 2.9-2.6-.5-4.4.3-5 3.1-.2.9-.8 1.8-1 2.7-.3 1-1.8 2.3-.5 3.1 1.4.9 2.9 0 3.7-1.6.3-.5.8-1 1.3-1.5 2.6.4 3.5-2.2 5.3-3.2 2.6 0 5.3 0 7.9-.2 2.2-.1 2.3.6 1.6 2.4-3.2 8.1-6.3 16.3-9.5 24.5-.5 1-1.5 1.1-2.4 1.3-.9.2-1.4.5-.7 1.5-1 .6-2.2 1-3.3 1.2-.9.1-2.3-.1-2.3 1.3.1 1.4 1.5.8 2.4.8 9.8.1 19.6 0 29.4 0 .5 0 .9 0 1.3 0 .7 0 1.3-.4 1.4-1.2 0-.9-.8-.8-1.4-.9-1.5 0-3.1 0-4.2-1.2 3.3-.8 6.9.5 10.1-1-1.2-.5-2.3-.8-3.4-1.1-2.3-.5-3.2-2-2.4-4.1 2.9-7.9 5.5-16 9-23.7.7 0 1.5.1 2.3.1 5.5.1 6 .5 7.9 5.7.2.6.5.9 1.1 1 .9.2 1.5-.2 1.8-1 .7-1.7 1.4-3.4 2-5.1.6.7 0 2.4 1.4 2.5 1.7.2 1.4-1.6 1.9-2.4.3-.5.5-.9.7-1.4 6.4.4 6.9 1 4.5 7-2.8 7-5.6 14.2-8.3 21.2-.9.3-1.8.5-2.8.7-.5.1-1.2.3-1 .9.1.4.9.5 1.4.6-1.2.8-2.5 1.1-4 1.2-1.1 0-2.7-.2-2.6 1.2 0 1.7 1.7.8 2.5.8 8.8.1 17.4.1 26.2 0 1.6 0 3.2 0 4.9 0 .6 0 1.1-.3 1.2-.9.1-.6-.5-.9-1.1-.9-1.6-.2-3.2-.2-4.6-1.4 3.3-.7 7 .5 11-.9-7.8-2-8.3-3.2-4.7-10 .1-.1.1-.2.2-.3 2.2 3.9 4.4 7.7 6.5 11.6 1 2 2.3 2.8 4.5 2.7 5-.2 10 0 15 0 5.7 0 11.3-.1 17-.1.7 0 1.7.2 1.7-.9s-.9-1-1.6-1.1c-1.4-.2-3.2.3-4.2-1.3 3.4-.6 7 .4 11-.7-.8-.5-1.1-.7-1.4-.7-1.8-.3-4.3.3-4.9-1.8-.6-2.1 1.8-3.2 3.2-4.6.2-.2.4-.3.5-.4 2.4 0 4.8.1 7.2.1 6.8 0 6.8 0 8.5 6.4-.9.5-2.2-.4-2.8.9.6.9 1.6.4 2.3.7-1.7 1.9-4 1.3-6 1.5-.7.1-1.7-.2-1.6 1 .1.9.9.7 1.5.7 9.6 0 19.1 0 28.8 0 .8 0 1.7 0 1.9-.9.3-1.3-.9-1-1.5-1.1-.9-.2-1.6-.5-2.2-1.4 2.7-.5 5.6.4 9.2-.9-4.9-.9-5.9-4.1-6.8-7.3-2.1-7.4-4.3-14.8-6.5-22.3-1.4-5-2.3-5.4-7.3-4.7-2.1.3-2.9 2.3-4.5 3.1-1.3-.4-2 .4-2.8 1.2-8.2 7.9-16.5 15.7-24.6 23.6-.9 1.1-2.4 1.4-1.6 2.6zM351.1 88.7c1.2-.1 2.3-.2 3.5-.3.7-.1 1.3-.4 1.3-1.2 0-.9-.8-.7-1.4-.8-.5-.1-1.1-.1-1.6-.1 2.1-1.9 5.2-.5 7.9-2.3-11.6 0-22.6 0-34.3 0 2.2 1.7 4.6.5 5.9 2.3-2.7 0-5.4 0-8.2.1-.9 0-2.3-.3-2.3 1.1-.2 1.7 1.4.9 2.2 1 4.2.9 4.2.9 2.8 4.8-2.7 7.8-5.3 15.4-8 23.2-.5.6-1.4.6-2.1.7-.5.1-1.3.1-1.2.7.1.8 1 .5 1.5.8-1.1.8-2.3 1-3.7 1.2-1.2.2-3.3-.5-3.2 1.2.1 2 2.3.8 3.4.9 14 .1 28.1 0 42.1.1 2.8 0 4.6-.5 5.5-3.3 1.3-.5 2.8.3 3.7-1.4 1.9-3.5 3.9-7 5.9-10.5.3-.5.9-1.2 0-1.6-.6-.4-1.3-.1-1.8.4-1.1.8-1.6 2.3-3.2 2.6-2.8-.4-3.4 1.7-4.1 3.7-4.7 4.1-10.3 4.8-16.2 4.1-3.2-.4-3.9-1.5-2.8-4.7 1.4-4.2 2.9-8.5 4.5-12.6 1.2-3.5 1.7-7.1 3.9-10.1zm-65.7-2.4c2.3-1.9 5.4-.5 8.4-2.3-11.9 0-23 0-34.9 0 2.3 1.6 4.6.7 6 2.3-2.7 0-5.4 0-8.1.1-.9 0-2.3-.4-2.4 1-.2 1.7 1.4.9 2.2 1.1 4.2 1 4.4 1.2 3 5.5-1.9 5.6-3.8 11.1-5.6 16.7-1.4 4.5-.5 6.9 3.8 9.1 3.6 2 7.7 2.6 11.6 2.9 8.4.5 16.9.9 24.4-4.2 8-3.3 13.6-8.7 15.9-17.5 1.1-4.2 2.3-8.3 4.4-12.2.9-.1 1.7-.2 2.6-.4.9-.2 2.3.1 2.2-1.3-.2-1.4-1.6-.5-2.4-.9 2-1.4 4.8-.5 7-2.2-6.7 0-12.8 0-19 0 1.4 1.4 3.5.5 4.6 2.3-2.7 0-5.4.1-8.1.1-.9 0-1.9 0-2 1.2 0 1.2 1.1.7 1.7.8 2.1.5 4.7.5 3.6 3.6-2.4 7.1-4.2 14.4-7.9 21.2-.6.7-1.2 1.7-2 2-4.8 1.9-9.7 2.1-14.6.5-2.6-.8-4.1-3.2-3.3-6 1.9-7.2 4.2-14.4 7.3-21.1.6-.1 1.3-.1 1.9-.3 1.2-.4 3.4.7 3.3-1.4-.3-1.1-2.4-.1-3.6-.6zM6.6 139.5c0-29.1 0-58.2-.1-87.3 0-2.1.5-2.5 2.5-2.5 31.7.1 63.5.1 95.1.1.2.2.3.3.3.5-1.5.8-3.1 1.6-4.6 2.5C84.7 62 72.9 74.1 67.2 91.1c-5.7 16.7-1.8 30.2 11 40.1 4.4 3.4 9.4 5.9 14.4 8.1-1.2.5-2.3.4-3.5.4-26.4 0-52.8 0-79.2 0-1.1 0-2.2-.1-3.3-.2zm157.2-89.7c17.9 0 35.8 0 53.7 0 0 .2 0 .3 0 .5-12.4 0-24.7 0-37.9 0 1.4 1.6 2.2 2.4 3 3.3 4.6 5.1 6.4 11 5.7 17.8-.7 6.5-3.2 12.5-6.8 17.9-10.2 15.8-23.9 27.6-40.1 36.7-6.3 3.6-12.9 7-20.5 7-11.1 0-18.1-9.7-14.7-20.2.5-1.4 1-1.8 2.5-1.5 2.3.4 4.6 1.2 7.4 1-2.9-6.8-5.9-13.4-8.6-19.9-1-2.5-1.9-3.2-4.3-1.4-2.7 2-5.7 3.5-8.6 5.2-.2-.3-.3-.5-.5-.7C105 79.2 118.7 66 136.9 58c7.7-3.3 15.8-4.9 23.8-6.9 1-.7 2-1.1 3.1-1.3z" class="st0"/><path d="M6.6 139.5c1.1.1 2.2.2 3.2.2 26.4 0 52.8 0 79.2 0 1.2 0 2.4.2 3.5-.4 1.6.5 3.2.5 4.9.5 30.7-.1 61.5-.2 92.2-.3 6.9 0 13.7-.1 20.6-.2 1.4.5 2.8.4 4.2.4 127.7 0 255.3 0 383.1 0 1.3 0 2.6-.1 3.9-.2-.2.2.4.7-.4.6-.9 0-1.7 0-2.6 0-196.3 0-392.6 0-589 0-.8 0-2.1.7-2.8-.6zm157.2-89.7c-1 .4-2 .7-3.1 1-.5-.7-1.4-.6-2.1-.6-18.1 0-36.1.1-54.2.1 0-.2-.1-.4-.3-.5 19.9 0 39.9 0 59.7 0zm53.6.4c0-.2 0-.3 0-.5 4.2 0 8.3 0 12.5 0-.2.2-.4.5-.5.6-3.9 0-7.9-.1-12-.1z" class="st1"/><path d="M217.4 50.2c4 .1 8 .1 12 .2 11.8 16.4 13.7 34.2 7 53.1-5.1 14.6-14.4 26.2-26.3 35.9-6.9.1-13.7.2-20.6.2-30.7.1-61.5.2-92.2.3-1.6 0-3.2 0-4.9-.5-5.1-2.3-10-4.7-14.4-8.1-12.7-9.8-16.7-23.4-11-40.1C72.9 74.1 84.8 62 99.8 52.9c1.5-.9 3.1-1.7 4.6-2.5 18.1 0 36.1-.1 54.2-.1.7 0 1.5-.2 2.1.6-8 2-16.2 3.5-23.8 6.9-18.2 8-32 21.2-42.8 37.5.2.3.3.5.5.7 2.9-1.7 5.9-3.2 8.6-5.2 2.4-1.8 3.3-1.1 4.3 1.4 2.7 6.7 5.6 13.2 8.6 19.9-2.8.3-5.1-.5-7.4-1-1.5-.3-2.1.2-2.5 1.5-3.4 10.6 3.6 20.2 14.7 20.2 7.6 0 14.2-3.3 20.5-7 16.2-9.2 30-21 40.1-36.7 3.5-5.5 6-11.4 6.8-17.9.7-6.8-1.1-12.7-5.7-17.8-.8-.9-1.5-1.7-3-3.3 13.1.1 25.5.1 37.8.1zM143 52.3c-12.2 0-24.5 0-36.6 0-1.2 0-2.1.5-3.1 1-8.3 4.6-15.5 10.2-21.7 17.2-7.9 8.9-13.4 19-14.6 31-1.7 15.8 11.9 33.6 27.8 36 .5.1.9.1 1.3.1 37-.1 74-.1 111-.2 1.4 0 2.4-.5 3.5-1.4 10.8-9.3 19.1-20.3 23.9-33.8 5.8-16.3 4.6-32.1-4.3-47.2-1.2-2-2.4-3-4.9-2.8-3.8.3-7.7.3-11.5 0-3-.2-3.2.7-2.2 3.2 4.2 11.3 5.1 22.9 2.6 34.8-2.2 10.7-6.8 20.3-12.7 29.2-1.2 1.7-1.2 2.7.5 4 1.5 1.1 3.3 2 4.3 4-8.3 2.4-16.5 4.7-24.6 7.1-2.3.7-2.5-.2-2.6-2.1-.3-7.4-.7-14.8-1.1-22.2 0-.5-.4-1.4.7-1.8 1.9 1.2 4 2.3 6 3.8 1.4 1.1 2.3.7 3.6-.4 15.3-14.3 22.5-31.6 19.2-52.7-1-6.9-1-6.9-7.8-6.9-4.9 0-9.7 0-15.3 0 7 8.9 7.1 18 3.9 27.3-1.4 3.9-3.2 7.6-5.5 11.1-9 13.9-21 24.7-34.8 33.6-7 4.5-14.2 8.7-22.5 10.2-15.2 2.9-25.7-8.4-21.5-22.9.7-2.5 1.8-3.8 4.6-2.8 1 .4 2.3.9 3.5 0-2.2-5.1-4.4-10.2-6.6-15.3-.5-1.2-1.1-1.2-2-.5-5.1 3.2-10.4 6.3-15.6 9.6 1.2 1.2 2.4 1.4 3.5 1.5 2.9.4 3.3 1.7 2.6 4.3-1.6 5.9-.7 11.5 2.2 16.8.6 1.2 1.9 2.3 1.1 4-7-3.7-9.7-10-10-17.2-.2-4.2-.2-7.8-5.8-7.9.7-1.4 1.8-1.8 2.7-2.3 3.4-1.7 5.9-4.2 7.9-7.5 5.9-9.3 13-17.5 21.4-24.6 8.9-7.4 18.6-13 29.5-17.3zm59.8 73.9c-1.3-.7-1.7-1-2.2-1.3-3.4-1.7-3-3.6-1-6.5 6.3-9.3 10.9-19.4 12.9-30.6 1.3-7.4 1.1-14.6-.5-21.9-.5-2.5-.3-5.2-2-7.6 0 .5-.1.8-.1 1.1 3 21.2-4.1 38.7-19.3 53.4-2.5 2.4-4.6 3.7-7.6.9-.5-.5-1.3-1.2-2.6-.9.3 6 .6 12.1.9 18.1.1.9.4 1.4 1.4 1.1 6.3-1.8 12.7-3.6 20.1-5.8zm-112.1-9c.5-3.1.5-6.1 1.2-9.1.3-1 .2-1.7-1-2-.8-.2-1.5-.1-1.6 1-.1 3.4.1 6.8 1.4 10.1z" class="st2"/><path d="M516.3 118.6c-.7-.4-1.7.2-2.3-.7.6-1.3 2-.4 2.8-.9 2.2.2 4.7.4 5.2-2.4.9-4.5-2.1-7.6-6.7-7.4-.5 0-.8.2-1.3.3-3.4-.1-7-1.1-10.3.5-1.1.6-2 1.4-2.6 2.5-.2.1-.4.2-.5.4-1.4 1.4-3.7 2.5-3.2 4.6.5 2 3.1 1.4 4.9 1.8.3.1.5.3 1.4.7-4 1-7.6.1-11 .7-7.6-.1-15.3-.2-22.8-.2-2.1 0-3.3-.5-4.3-2.4-1.9-3.9-4.2-7.7-6.2-11.5-.5-.9-1-2-2.4-1.8-1.4.2-2.1 1-2.5 2.2-.3.8-.5 1.7-.6 2.5-.1.1-.2.2-.2.3-3.5 6.8-3.1 8 4.7 10-4.1 1.3-7.6.1-11 .9-7.5-.4-15-.4-22.4 0-.5-.2-1.3-.4-1.4-.6-.2-.6.5-.7 1-.9.9-.2 1.8-.5 2.8-.7 3.2.2 4.7-1.9 5.7-4.4 3-7.3 5.8-14.7 8.7-22.1.5-1.2 1.2-2.4-.1-3.6-1.3-2.2-3.9-.6-5.5-1.8 0-.6.4-.8.8-.8 14.4.2 28.7-.8 43.1.7 2.6.3 5.1.8 7.5 2 4.4 2.1 5.1 5.6 1.5 9.1-2.8 2.7-6.1 4.9-10 5.8-2.7.6-2.3 1.9-1.4 3.4 2.3 3.7 4.8 7.3 7.4 10.8 1.9 2.6 3.6.4 5.3-.5 1-.4 1.9-.7 2.3-1.9l-.1.1c.4-.2.8-.3 1.1-.5 9.2-8.8 18.4-17.4 27.6-26.2 1.7-.7 2.4-2.8 4.5-3.1 5.1-.6 5.9-.2 7.3 4.7 2.2 7.4 4.4 14.8 6.5 22.3.9 3.3 2 6.4 6.8 7.3-3.7 1.3-6.5.4-9.2.9-6.9-.2-14-.3-20.9-.1zm-3.1-13.4c1.6.1 3.2.2 4.9.2.9 0 1.4-.2 1.1-1.3-.8-2.7-1.5-5.4-2.3-8.4-2 1.7-3.7 3.1-4.9 4.9-2 1.1-3.4 2.7-5.1 4.8 2.4 0 4.3.2 6.3-.2zm-42.8-18.4c-1.8-1.6-4.1-1.5-6.3-1.6-1 0-2.5-.6-2.7 1.3-.5.7-.9 1.4-.8 2.4-1.9 3.1-2.6 6.6-4 9.8-.4.8-.4 1.6.8 1.5 2.6-.2 5.4.6 7.8-1.4 3.7-.8 7.1-5.5 7-9.3-.1-1.2-.5-2.2-1.8-2.7zm-205.6-.4c-1.4-1.6-3.6-.7-6-2.3 11.9 0 23.1 0 34.9 0-3.1 1.8-6.2.5-8.4 2.3-1.1.5-1.9 1.2-1.9 2.4-3.2 6.8-5.4 13.9-7.3 21.1-.7 2.8.7 5.1 3.3 6 4.9 1.5 9.8 1.4 14.6-.5.8-.4 1.4-1.4 2-2 3.9-.4 5.7-3.2 7-6.4 2.2-5.7 4.1-11.5 6-17.2.4-1.1.8-2.3-.4-3.3-1.1-1.8-3.2-.9-4.6-2.3 6.2 0 12.5 0 19 0-2.3 1.7-5.1.7-7 2.2-1.4.4-2.3 1.1-2.3 2.6-2.1 3.8-3.3 8-4.4 12.2-2.3 8.8-7.9 14.1-15.9 17.5-1.7 0-3.4 0-5.1.3-7.9 1.5-15.8.9-23.5-1.4-6-1.9-7.5-5.1-5.5-11 1.7-5.2 3.6-10.5 5.3-15.8.7-1.5 1.6-3 .2-4.4zm113.9 2.7c-1.7 1.1-2.7 3.6-5.3 3.2-.3-2.2 1.5-3.8 1.5-5.9.9-2.3 2.5-2.9 5.1-2.9 16.4.1 32.9.1 49.4 0 2.3 0 3.2.5 2.4 2.8-.5.5-.7 1.2-.6 1.9-.3.5-.5.9-.7 1.4-.5.9-.2 2.6-1.9 2.4-1.4-.1-.8-1.8-1.4-2.5 0-2.3-1.5-3-3.4-3.3-2.7-1.2-5.6-.8-8.4-1-.9-.1-2-.3-2.3 1.1-.6.7-.9 1.5-.9 2.5-3.4 7.8-6 15.8-9 23.7-.8 2.2.2 3.6 2.4 4.1 1.2.3 2.3.5 3.4 1.1-3.2 1.4-6.9.2-10.1 1-7.7-.4-15.4-.4-23.1 0-.6-.9-.2-1.4.7-1.5.9-.2 2-.3 2.4-1.3 2.7.3 4.5-1.3 5.4-3.4 3.4-8.6 7-17.1 9.7-26 .5-.6.2-1.2-.5-1.1-3 .2-6-.3-8.9.9-2.3.4-4.5.7-5.9 2.8zM317 118.7c-.5-.3-1.4 0-1.5-.8-.1-.6.6-.6 1.2-.7.7-.1 1.5-.1 2.1-.7 2.9.5 4.4-1 5.3-3.5 2.7-7.9 5.5-15.7 8.3-23.6.4-1 .9-2.1 0-3.1-1.2-1.8-3.6-.6-5.9-2.3 11.7 0 22.7 0 34.3 0-2.7 1.9-5.8.4-7.9 2.3-1 .5-1.9 1.1-1.8 2.3-2.2 3-2.7 6.6-4 9.9-1.6 4.2-3.1 8.4-4.5 12.6-1.1 3.1-.5 4.2 2.8 4.7 5.9.7 11.5 0 16.2-4.1 1.9-.6 3.4-1.6 4.1-3.7 1.5-.3 2.1-1.8 3.2-2.6.5-.5 1.2-.7 1.8-.4.8.5.3 1.1 0 1.6-2 3.5-4 7-5.9 10.5-.9 1.7-2.4 1-3.7 1.4-1.6-.1-3.2-.1-4.9-.2-5.1-.5-10.1 1.3-15.3.6-7.8-.9-15.9-.3-23.9-.2z" class="st1"/><path d="M264.8 86.4c1.4 1.4.5 2.9-.1 4.2-1.7 5.2-3.6 10.5-5.3 15.8-2 6-.5 9.1 5.5 11 7.7 2.4 15.6 3.1 23.5 1.4 1.7-.4 3.4-.4 5.1-.3-7.5 5.1-16 4.7-24.4 4.2-4-.2-8-.9-11.6-2.9-4.2-2.3-5.2-4.6-3.8-9.1 1.8-5.6 3.8-11.1 5.6-16.7 1.4-4.3 1.3-4.5-3-5.5-.7-.2-2.3.5-2.2-1.1.2-1.4 1.4-1 2.4-1 2.9 0 5.6 0 8.3 0zm188.9 21.2c.2-.8.4-1.7.6-2.5.4-1.3 1.1-2.1 2.5-2.2 1.4-.2 1.9.8 2.4 1.8 2.1 3.8 4.3 7.5 6.2 11.5 1 2 2.3 2.5 4.3 2.4 7.6-.1 15.3.1 22.8.2 1.1 1.5 2.7 1.1 4.2 1.3.7.1 1.7 0 1.6 1.1 0 1.1-1 .9-1.7.9-5.7.1-11.3.1-17 .1-5 0-10-.2-15 0-2.3.1-3.5-.8-4.5-2.7-1.9-4.2-4.2-8-6.4-11.9zM332.3 86.4c.9 1 .4 2.1 0 3.1-2.7 7.9-5.5 15.7-8.3 23.6-.9 2.5-2.4 4.1-5.3 3.5 2.7-7.8 5.4-15.4 8-23.2 1.4-3.9 1.3-4-2.8-4.8-.7-.2-2.3.6-2.2-1 .1-1.4 1.4-1 2.3-1.1 2.8-.1 5.5-.1 8.3-.1zM317 118.7c8-.1 16-.7 24 .4 5.1.7 10.1-1.1 15.3-.6 1.6.2 3.2.2 4.9.2-.8 2.7-2.7 3.3-5.5 3.3-14-.2-28.1 0-42.1-.1-1.2 0-3.3 1.1-3.4-.9-.1-1.7 2.1-.9 3.2-1.2 1.3-.1 2.5-.3 3.6-1.1zm76.9-32.2c-2.8 8.8-6.2 17.4-9.7 26-.9 2.2-2.7 3.7-5.4 3.4 3.2-8.2 6.2-16.3 9.5-24.5.7-1.8.5-2.5-1.6-2.4-2.6.2-5.3.1-7.9.2 1.4-2.2 3.6-2.4 5.9-2.8 3 0 6.1 0 9.2.1zm37.2 1.8c0-.7.2-1.4.6-1.9 3.2 0 6.6 0 9.8 0 1.2 1.2.5 2.4.1 3.6-2.9 7.4-5.7 14.7-8.7 22.1-1 2.5-2.5 4.6-5.7 4.4 2.8-7 5.6-14.2 8.3-21.2 2.4-6 2.1-6.6-4.4-7zm-122.3-1.9c1.2 1 .7 2.2.4 3.3-2 5.8-3.8 11.6-6 17.2-1.2 3.2-3 6-7 6.4 3.6-6.7 5.4-14.1 7.9-21.2 1-3.1-1.6-3.2-3.6-3.6-.6-.1-1.8.4-1.7-.8 0-1.2 1.1-1.2 2-1.2 2.6-.1 5.3-.1 8-.1zm66.9 32.3c7.7-.4 15.4-.4 23.1 0 1.2 1.2 2.7 1.2 4.2 1.2.6 0 1.4-.1 1.4.9 0 .7-.5 1.1-1.4 1.2-.5 0-.9 0-1.3 0-9.8 0-19.6 0-29.4 0-.8 0-2.3.6-2.4-.8-.1-1.3 1.4-1.2 2.3-1.3 1.3-.2 2.4-.5 3.5-1.2zm49.2 0c7.5-.4 15-.4 22.4 0 1.4 1.2 3 1.2 4.6 1.4.5.1 1.2.3 1.1.9-.1.6-.5.9-1.2.9-1.6 0-3.2 0-4.9 0-8.8 0-17.4 0-26.2 0-.9 0-2.5.9-2.5-.8 0-1.4 1.6-1.2 2.6-1.2 1.5-.1 2.9-.3 4.1-1.2zm91.4-.1c7-.3 13.9-.3 20.9 0 .5.8 1.3 1.1 2.2 1.4.6.2 1.8-.2 1.5 1.1-.2.9-1.1.9-1.9.9-9.6 0-19.1 0-28.8 0-.6 0-1.4.2-1.5-.7-.1-1.2.9-.9 1.6-1 2-.3 4.4.2 6-1.7zm-2.3-11.1c.5-.1.8-.3 1.3-.3 4.6-.3 7.6 2.9 6.7 7.4-.5 2.8-3 2.6-5.2 2.4-1.8-6.4-1.8-6.3-8.5-6.4-2.4 0-4.8-.1-7.2-.1.6-1.1 1.6-1.9 2.6-2.5 3.5-.1 7 .7 10.3-.5zm-90.4-21.2c1.9.4 3.4 1.1 3.4 3.3-.6 1.7-1.3 3.4-2 5.1-.4.8-.9 1.2-1.8 1-.5-.1-.8-.5-1.1-1-1.8-5.2-2.3-5.6-7.9-5.7-.7 0-1.5-.1-2.3-.1 0-1 .3-1.8.9-2.5 3.7 0 7.3-.1 10.8-.1zm97.7.2c-9.2 8.8-18.4 17.5-27.6 26.2-.3.3-.7.4-1.1.5-.7-1.4.7-1.5 1.3-2.1 8.2-7.9 16.4-15.7 24.6-23.6.8-.6 1.6-1.4 2.8-1zm-146.4 0c0 2.1-1.8 3.7-1.5 5.9-.5.5-.9.9-1.3 1.5-.8 1.5-2.3 2.5-3.7 1.6-1.3-.8.3-2.1.5-3.1.3-.9.8-1.8 1-2.7.6-2.8 2.3-3.7 5-3.2zm-91.4 2.3c0-1.4.8-2 1.9-2.4 1.1.5 3.2-.6 3.3.8.1 2-2.2 1-3.3 1.4-.5.1-1.3.1-1.9.2zm30.3.1c.1-1.4 1-2.2 2.3-2.6.8.4 2.3-.5 2.4.9.2 1.4-1.4 1.1-2.2 1.3-.7.2-1.6.3-2.5.4zm37.3-.2c-.1-1.3.8-1.9 1.8-2.3.5 0 1.1.1 1.6.1.6.1 1.4-.2 1.4.8 0 .7-.5 1.1-1.3 1.2-1.1 0-2.3.1-3.5.2zm14.6 19.5c-.6 2-2.2 3.1-4.1 3.7.7-2 1.3-4.2 4.1-3.7zm126.9 5c-.4 1.1-1.3 1.4-2.3 1.9.4-1.2.8-2.2 2.3-1.9z" class="st2"/><path d="M143 52.3c-10.8 4.3-20.6 9.9-29.3 17.3-8.4 7.1-15.5 15.3-21.4 24.6-2.1 3.2-4.5 5.8-7.9 7.5-.9.5-2 .8-2.7 2.3 5.5.1 5.6 3.6 5.8 7.9.4 7.3 3 13.6 10 17.2.8-1.7-.5-2.8-1.1-4-2.8-5.3-3.8-10.9-2.2-16.8.7-2.7.3-4-2.6-4.3-1.1-.2-2.3-.3-3.5-1.5 5.3-3.2 10.5-6.4 15.6-9.6.9-.5 1.4-.5 2 .5 2.2 5.1 4.3 10.2 6.6 15.3-1.4.9-2.5.4-3.5 0-2.8-1-3.9.3-4.6 2.8-4.2 14.5 6.3 25.8 21.5 22.9 8.3-1.6 15.5-5.8 22.5-10.2 13.8-8.8 25.8-19.7 34.8-33.6 2.3-3.5 4.2-7.2 5.5-11.1 3.2-9.4 3.1-18.4-3.9-27.3 5.6 0 10.4 0 15.3 0 6.8 0 6.8 0 7.8 6.9 3.2 21.1-3.9 38.4-19.2 52.7-1.3 1.2-2.2 1.4-3.6.4-1.9-1.4-4.1-2.5-6-3.8-1.1.5-.7 1.2-.7 1.8.4 7.4.7 14.8 1.1 22.2.1 1.9.4 2.8 2.6 2.1 8.1-2.4 16.3-4.8 24.6-7.1-1-2-2.8-2.9-4.3-4-1.7-1.3-1.7-2.3-.5-4 6-8.9 10.6-18.6 12.7-29.2 2.4-11.8 1.6-23.5-2.6-34.8-.9-2.5-.7-3.4 2.2-3.2 3.8.2 7.7.2 11.5 0 2.4-.2 3.7.9 4.9 2.8 9 15.1 10.1 30.9 4.3 47.2-4.8 13.5-13.1 24.6-23.9 33.8-1.1.9-2.2 1.4-3.5 1.4-37 0-74 .1-111 .2-.5 0-.9 0-1.3-.1-15.9-2.4-29.5-20.2-27.8-36 1.4-12.1 6.9-22.1 14.6-31 6.1-7 13.4-12.7 21.7-17.2 1-.5 1.9-1 3.1-1 11.9 0 24.2 0 36.4 0z" class="st1"/><path d="M202.8 126.2c-7.4 2.2-13.7 4-20.1 5.9-1.1.3-1.4-.2-1.4-1.1-.3-6-.6-12.1-.9-18.1 1.4-.3 2.1.4 2.6.9 2.9 2.8 5 1.6 7.6-.9 15.3-14.6 22.3-32.2 19.3-53.4 0-.3 0-.6.1-1.1 1.7 2.4 1.4 5.1 2 7.6 1.6 7.3 1.9 14.5.5 21.9-2 11.2-6.6 21.3-12.9 30.6-2 2.9-2.4 4.8 1 6.5.5.2 1 .5 2.2 1.2zm-112.1-9c-1.3-3.2-1.4-6.6-1.4-10 0-1.1.7-1.2 1.6-1 1.2.3 1.3 1 1 2-.7 2.9-.7 5.9-1.2 9zm374.5-18.3c-2.3 2-5.1 1.3-7.8 1.4-1.2.1-1.2-.8-.8-1.5 1.4-3.2 2.1-6.9 4-9.8 6.1.5 7.6 2.9 5.1 8-.1.5-.9 1.1-.5 1.9z" class="st0"/><path d="M465.2 98.9c-.4-.8.3-1.4.6-2.1 2.4-5.1.9-7.5-5.1-8-.1-.9.2-1.7.8-2.4 3 .1 6 .3 8.9.4 1.3.5 1.7 1.5 1.8 2.8.2 3.9-3.3 8.5-7 9.3zm46.7 1.6c1.3-1.8 2.9-3.2 4.9-4.9.8 3 1.5 5.7 2.3 8.4.4 1.2-.3 1.4-1.1 1.3-1.6-.1-3.2-.2-4.9-.2-.3-1.5-.8-3.1-1.2-4.6z" class="st2"/><path d="M511.9 100.5c.5 1.5.9 3.1 1.4 4.6-2 .5-4 .3-6.5.2 1.6-2.1 3.1-3.6 5.1-4.8zm-41.5-13.7c-3-.1-6-.3-8.9-.4.2-1.9 1.6-1.3 2.7-1.3 2.1.1 4.3.1 6.2 1.7zm43.6 20.7c-3.4 1.3-6.9.4-10.3.5 3.4-1.5 6.9-.5 10.3-.5zm-90.4-21.2c-3.5 0-7.1.1-10.7.1.3-1.4 1.4-1.2 2.3-1.1 2.8.2 5.7-.1 8.4 1zm-29.7.2c-3.2-.1-6.2-.2-9.4-.2 2.9-1.2 6-.6 8.9-.9.7 0 1 .5.5 1.1z" class="st0"/></g></svg>