<svg id="Camada_1" data-name="Camada 1" xmlns="http://www.w3.org/2000/svg" viewBox="0 0 400 96.16"><defs><style>.cls-1{fill:#9b9b9a;}.cls-2{fill:#d8d8d8;}.cls-3{fill:#9c9c9b;}.cls-4{fill:#d7d7d7;}.cls-5{fill:#9d9c9b;}.cls-6{fill:#d6d6d6;}.cls-7{fill:#010101;}.cls-8{fill:#030302;}.cls-9{fill:#d57b1d;}.cls-10{fill:#f8ea37;}.cls-11{fill:#c10e1a;}</style></defs><path class="cls-1" d="M226,13.78c3.44-.08,6.86.08,10.29.22,2.26.09,4.52.11,6.77.2q6.06.24,12.1.54c3.18.16,6.35.33,9.53.53q6.92.45,13.83.95c4.3.33,8.59.68,12.88,1.08q8.25.78,16.48,1.71c7,.8,14.05,1.7,21.05,2.76,11.46,1.72,22.86,3.78,34.11,6.56a150.33,150.33,0,0,1,22,7,43.27,43.27,0,0,1,10.66,6,14.05,14.05,0,0,1,3.13,3.35,6.48,6.48,0,0,1-.2,7.77,20.31,20.31,0,0,1-6.4,5.44,76.52,76.52,0,0,1-15.78,6.72,239.61,239.61,0,0,1-28.32,7c-5.89,1.16-11.8,2.17-17.72,3.08-4.7.72-9.41,1.39-14.13,1.95-4.39.52-8.77,1.08-13.16,1.57-3.38.37-6.78.68-10.17,1-3.88.36-7.76.72-11.65,1-2.7.22-5.4.4-8.1.58-3.89.26-7.79.53-11.68.77-2.07.13-4.15.21-6.22.31-4.35.22-8.7.43-13.05.58l-7.37.26c-3.66.12-7.31.19-11,.29-2.28.06-4.56.05-6.84.11-7.81.2-15.63.13-23.44.11-5.42,0-10.84-.07-16.26-.18-1.6,0-3.21,0-4.81-.12-.13-.11-.26-.24-.41-.35-5.55-3.84-11.12-7.67-16.66-11.52a14,14,0,0,1-2.07-1.5h0a3.11,3.11,0,0,1,.61,0,25.68,25.68,0,0,0,8.39.27,27,27,0,0,0,10.68-3.78,24.82,24.82,0,0,0,5.2-4.39.59.59,0,0,1,.95-.08c.5.39,1,.73,1.55,1.09,4.83,3.35,9.67,6.69,14.48,10.08.52.36.74.24,1.11-.13,2.89-2.85,5.73-5.75,8.66-8.57,3.27-3.15,6.43-6.41,9.66-9.6.39-.39.33-.53-.1-.82q-8-5.51-15.95-11.05c-.79-.55-.8-.55-.1-1.25l26.78-26.77A2.46,2.46,0,0,0,226,13.78Zm38.34,44.76.12.11c-.23.41-.47.82-.67,1.25a5.41,5.41,0,0,0,3.93,7.89,22.57,22.57,0,0,0,4.78.32c8.16,0,16.32.07,24.47,0a90.93,90.93,0,0,0,13.29-1,39.23,39.23,0,0,0,13-4.07,19.18,19.18,0,0,0,7.94-7.72c.15-.27.38-.51.31-.87.09-.07.21-.12.25-.21,1.65-3.67,1.42-7.91-2.07-10.8-.37-.31-.36-.55-.06-.87a13.52,13.52,0,0,0,1.74-2.32c1.74-2.91,2.22-5.93.57-9-1.3-2.47-3.58-3.81-6.05-4.84a29.84,29.84,0,0,0-11.24-2c-7.68-.1-15.36-.07-23,0-5.82,0-11.65-.18-17.47.13a10,10,0,0,0-4.76,1.39,6.16,6.16,0,0,0-3.3,6,1.88,1.88,0,0,1-.82,1.91c-1.28,1-2.49,2.08-3.73,3.12L258,39.78a21.39,21.39,0,0,1,.07-2.32,1,1,0,0,1,.76-1,8.51,8.51,0,0,0,3.87-2.73,5.58,5.58,0,0,0-1.36-8.39,8.34,8.34,0,0,0-4.5-1c-7.77,0-15.54-.21-23.3.12a7.94,7.94,0,0,0-6,2.74,6,6,0,0,0-1.5,5.51,5.38,5.38,0,0,0,2.53,3.45c.28.17.59.29.58.74,0,1.55,0,3.11.11,4.66.11,1.77,0,3.55.11,5.33.12,2.52,0,5.05.17,7.57s0,5.23.17,7.84c.19,3.06,1.45,4.79,4.3,5.56a11.73,11.73,0,0,0,2.89.25c3.77,0,7.54,0,11.31,0a10,10,0,0,0,6.52-2l4-3.19Z"/><path class="cls-2" d="M53,25a29.23,29.23,0,0,1,3.94-.79C60.26,23.58,63.62,23,67,22.45c3.19-.51,6.39-.93,9.58-1.39L84.08,20a6.26,6.26,0,0,1,.75,0,2.37,2.37,0,0,0,.28.27q9,6.22,18,12.46a17.42,17.42,0,0,1,2.9,2.15l14,9.7a.57.57,0,0,0,.89-.06q4.67-4.66,9.36-9.3c.14-.14.26-.31.39-.46s.38-.3.56-.47c1.79-1.75,3.47-3.61,5.35-5.26.26-.24.22-.39-.06-.58-.56-.37-1.09-.77-1.66-1.14-1.6-1-3.17-2.12-4.72-3.22-2.24-1.58-4.53-3.07-6.74-4.69-1.36-1-2.84-1.82-4.13-2.9,2.43-.27,4.88-.4,7.32-.57,2.78-.2,5.56-.39,8.34-.55,2.31-.13,4.62-.28,6.93-.4,2.74-.15,5.48-.31,8.22-.42l6.14-.26c2.56-.11,5.13-.18,7.69-.29,1.33-.06,2.66,0,4-.11,1.92-.16,3.84,0,5.75-.16s3.51,0,5.27-.11c4.26-.19,8.53-.13,12.79-.11-1.09,1.26-2.31,2.4-3.48,3.6-3.82,3.9-7.71,7.74-11.58,11.6-.19.19-.36.41-.68.35a43.53,43.53,0,0,0-6.45-4.29A25.22,25.22,0,0,0,153.37,22a22.61,22.61,0,0,0-10,4.1c-3.3,2.44-5.92,5.61-8.85,8.44,0,0,0,.08-.05.12-.26,0-.41.26-.59.43l-8.69,8.65c-1.27,1.25-2.54,2.5-3.78,3.78a.52.52,0,0,1-.83.07c-1-.74-2.07-1.45-3.11-2.16a26.2,26.2,0,0,0-16.79-5A22.58,22.58,0,0,0,86.42,46.1c-2.88,2.6-5.52,5.46-8.27,8.21-.1.09-.2.19-.15.34-.3,0-.4.26-.57.42L60,72.45c-.14.15-.26.31-.39.46a12.25,12.25,0,0,1-2.74-.57c.05-.29.31-.43.49-.62q3.49-3.51,7-7c1-1,1-1-.17-1.82l-18-12.54q-10.8-7.55-21.62-15.09A34.79,34.79,0,0,1,21.5,33l2.44-.85a29.4,29.4,0,0,0,3.69,2.58.58.58,0,0,0,.13.14l28,19.5a1.81,1.81,0,0,0,.75.28c0,.28.21.38.39.51,3.11,2.16,6.22,4.31,9.32,6.49a.6.6,0,0,0,1-.09c2.32-2.35,4.66-4.67,7-7,2.78-2.77,5.56-5.54,8.37-8.28.44-.43.29-.59-.11-.86q-7.35-5.07-14.68-10.16a2.64,2.64,0,0,0-1-.61c0-.19-.16-.25-.28-.34-2.23-1.54-4.45-3.07-6.67-4.62Z"/><path class="cls-3" d="M21.5,33a34.79,34.79,0,0,0,3.12,2.25q10.8,7.56,21.62,15.09l18,12.54c1.16.81,1.17.81.17,1.82q-3.48,3.51-7,7c-.18.19-.44.33-.49.62a17.61,17.61,0,0,1-3.39-.54c-7.66-1.46-15.27-3.13-22.78-5.25a105.44,105.44,0,0,1-20.5-7.61,27.21,27.21,0,0,1-7.15-5.06A8.47,8.47,0,0,1,.46,49a6.31,6.31,0,0,1,1-4.17,17.31,17.31,0,0,1,5.69-5.31,66,66,0,0,1,13.35-6.19C20.85,33.18,21.13,32.93,21.5,33Z"/><path class="cls-4" d="M153.45,69.54a14,14,0,0,0,2.07,1.5c5.54,3.85,11.11,7.68,16.66,11.52.15.11.28.24.41.35l-3.7-.11a1.26,1.26,0,0,0-.22-.24q-13.47-9.33-26.93-18.67c-.55-.39-.86-.3-1.31.15q-7,7-14,14c-.39.38-.76.78-1.16,1.14s-.41.49,0,.76a12.71,12.71,0,0,1,1.14.83c-2-.14-4.09-.36-6.14-.4l19.58-19.58c.18-.18.35-.36.64-.3l.26.15a41.07,41.07,0,0,0,8.43,5.2,25.93,25.93,0,0,0,9.58,2.09,24.2,24.2,0,0,0,16.91-6.49q3.15-3.12,6.28-6.27c.17-.17.41-.29.44-.57.14-.12.28-.22.41-.35L200.8,36.3c.5-.51,1-1,1.48-1.56.51-.1.64-.6.95-.9,2.59-2.56,5.14-5.15,7.74-7.69.5-.48.37-.67-.11-1-4.11-2.78-8.2-5.59-12.29-8.39l-4.77-3.32a6.2,6.2,0,0,1,.74-.08c1.06,0,2.12,0,3.18,0,7.15-.08,14.29.14,21.44.18,2.11,0,4.23,0,6.34.1.18,0,.37,0,.49.15a2.46,2.46,0,0,1-.62.78L198.59,41.33c-.7.7-.69.7.1,1.25q8,5.54,15.95,11.05c.43.29.49.43.1.82-3.23,3.19-6.39,6.45-9.66,9.6-2.93,2.82-5.77,5.72-8.66,8.57-.37.37-.59.49-1.11.13-4.81-3.39-9.65-6.73-14.48-10.08-.52-.36-1.05-.7-1.55-1.09a.59.59,0,0,0-.95.08,24.82,24.82,0,0,1-5.2,4.39,27,27,0,0,1-10.68,3.78,25.68,25.68,0,0,1-8.39-.27,3.11,3.11,0,0,0-.61,0l-.07-.06s0,0,0,0Zm32.78-15c-.18.21-.33.42-.52.61-1.42,1.43-2.82,2.87-4.28,4.25-.48.46-.41.69.09,1q6.94,4.81,13.88,9.66c.44.31.66.21,1-.13,2.62-2.62,5.23-5.25,7.87-7.84,2-2,4-4.07,6.08-6a4.22,4.22,0,0,0,1.28-1.44c.48-.23.53-.42,0-.77-4.74-3.25-9.46-6.53-14.18-9.8-.25-.17-.44-.4-.79,0Q191.47,49.28,186.23,54.5Z"/><path class="cls-2" d="M117.54,80c-2.2-.07-4.39-.26-6.57-.51-1.14-.14-2.28-.19-3.42-.3l-5.08-.52-4.55-.43c-1.25-.13-2.49-.28-3.74-.42.18-.2.36-.41.55-.6l21.88-21.85c.19-.2.5-.34.5-.68l.39-.2c.21.26.5.14.75.14H143a6,6,0,0,1-.38.47L118,79.57Z"/><path class="cls-2" d="M84.68,76.58A44.34,44.34,0,0,1,79.53,76c-1.83-.22-3.65-.5-5.47-.77l-5.66-.84-5.57-.92a1.21,1.21,0,0,1-.51-.15c.45-.5.87-1,1.35-1.5L80.14,55.34c.2-.19.5-.34.5-.68L81,54.5l.88,0h23.91l.81,0c-.1.12-.19.25-.3.36L85.14,76.2A5.45,5.45,0,0,1,84.68,76.58Z"/><path class="cls-2" d="M88.23,19.7c.21-.25.51-.23.8-.27,1.8-.2,3.6-.43,5.4-.63,1.45-.16,2.9-.29,4.35-.45,1.89-.2,3.78-.46,5.67-.61,1.14-.1,2.28-.22,3.42-.33l7.09-.65c.31,0,.63,0,1,0a1.7,1.7,0,0,0,.22.24c5.65,3.9,11.29,7.81,17,11.66.52.36.32.46,0,.73L128.4,34.1c-.17.17-.41.3-.45.57l-.33.08-.4,0H110.35c-.15,0-.31,0-.47,0l-.36-.09c0-.19-.16-.25-.29-.34q-8.82-6.09-17.62-12.19A30.23,30.23,0,0,1,88.23,19.7Z"/><path class="cls-2" d="M164.88,82.62a16,16,0,0,1-3.17-.08c-3-.09-6-.14-9-.29-2-.1-4-.14-6-.28-2.74-.19-5.48-.27-8.21-.47-1.73-.13-3.46-.27-5.19-.32-1,0-2-.1-3-.16-.34-.69-1.06-.92-1.63-1.31s-.48-.53-.07-.93c3.78-3.71,7.54-7.45,11.31-11.17a9,9,0,0,0,.81-.82c.38-.52.71-.46,1.21-.11,6.32,4.4,12.66,8.77,19,13.17C162.29,80.76,163.67,81.58,164.88,82.62Z"/><path class="cls-2" d="M26.8,31.37a5,5,0,0,1,2-.73c6.93-2,14-3.64,21-5.09a.69.69,0,0,1,.2,0c3.52,2.45,7,4.89,10.56,7.36A15.08,15.08,0,0,1,63,34.7l-.88,0H32.33c-.28,0-.59-.1-.85.09l-.33-.15c0-.24-.22-.33-.38-.44-.62-.43-1.27-.84-1.88-1.3A15.14,15.14,0,0,1,26.8,31.37Z"/><path class="cls-4" d="M91.51,77.51c-1.37-.18-2.75-.26-4.11-.53.14-.15.27-.31.41-.45l21.08-21.18c.2-.2.5-.34.5-.69a1.19,1.19,0,0,0,.65-.45c1.53-1.53,3-3.07,4.59-4.6a7.5,7.5,0,0,1,3-1.93,4.16,4.16,0,0,1,3.39.37l-6.62,6.46a13.62,13.62,0,0,1-1.58,1.55L91.89,77c-.08.08-.17.16-.24.24A1.09,1.09,0,0,0,91.51,77.51Z"/><path class="cls-5" d="M193.8,13.44l4.77,3.32c4.09,2.8,8.18,5.61,12.29,8.39.48.33.61.52.11,1-2.6,2.54-5.15,5.13-7.74,7.69-.31.3-.44.8-.95.9l-2.75-.07c.06-.26.29-.39.46-.56q3.85-3.87,7.73-7.7c.37-.38.36-.54-.08-.84q-7.09-4.84-14.16-9.72a.71.71,0,0,0-1.12.1q-9,9.11-18.14,18.17c-.17.17-.4.3-.43.58l-.29.09c-.89-.18-1.8,0-2.7-.12,0-.28.27-.4.44-.57,1.48-1.49,3-3,4.45-4.45.15-.16.45-.27.27-.59h0c.32.06.49-.16.68-.35,3.87-3.86,7.76-7.7,11.58-11.6,1.17-1.2,2.39-2.34,3.48-3.6A5.71,5.71,0,0,1,193.8,13.44Z"/><path class="cls-5" d="M164.88,82.62c-1.21-1-2.59-1.86-3.89-2.77-6.33-4.4-12.67-8.77-19-13.17-.5-.35-.83-.41-1.21.11a9,9,0,0,1-.81.82c-3.77,3.72-7.53,7.46-11.31,11.17-.41.4-.43.58.07.93s1.29.62,1.63,1.31l-3.88-.27a12.71,12.71,0,0,0-1.14-.83c-.46-.27-.36-.47,0-.76s.77-.76,1.16-1.14q7-7,14-14c.45-.45.76-.54,1.31-.15q13.45,9.35,26.93,18.67a1.26,1.26,0,0,1,.22.24A35.76,35.76,0,0,1,164.88,82.62Z"/><path class="cls-1" d="M117.54,80l.46-.4,24.64-24.48a6,6,0,0,0,.38-.47l.14-.1,2.71.06c.08.34-.21.47-.39.65L141,59.75c-.21.2-.46.38-.41.72h0c-.29-.06-.46.12-.64.3L120.35,80.35l-2.18-.25C118,80.07,117.71,80.17,117.54,80Z"/><path class="cls-5" d="M91.51,77.51a1.09,1.09,0,0,1,.14-.23c.07-.08.16-.16.24-.24l20.91-21a13.62,13.62,0,0,0,1.58-1.55c.23.15.48.06.73.08a12.16,12.16,0,0,1,2,.07c0,.34-.31.48-.5.68L94.73,77.19c-.19.19-.37.4-.55.6Z"/><path class="cls-5" d="M109.39,54.66c0,.35-.3.49-.5.69L87.81,76.53c-.14.14-.27.3-.41.45a10,10,0,0,1-2.72-.4,5.45,5.45,0,0,0,.46-.38l21.19-21.28c.11-.11.2-.24.3-.36a.13.13,0,0,1,.13,0C107.62,54.72,108.52,54.46,109.39,54.66Z"/><path class="cls-5" d="M128,34.67c0-.27.28-.4.45-.57l4.73-4.73c.28-.27.48-.37,0-.73-5.67-3.85-11.31-7.76-17-11.66a1.7,1.7,0,0,1-.22-.24,28.89,28.89,0,0,1,3.36-.26c1.29,1.08,2.77,1.91,4.13,2.9,2.21,1.62,4.5,3.11,6.74,4.69,1.55,1.1,3.12,2.18,4.72,3.22.57.37,1.1.77,1.66,1.14.28.19.32.34.06.58-1.88,1.65-3.56,3.51-5.35,5.26-.18.17-.31.39-.56.47Z"/><path class="cls-5" d="M88.23,19.7a30.23,30.23,0,0,0,3.38,2.44q8.79,6.12,17.62,12.19c.13.09.28.15.29.34-.78,0-1.57,0-2.35.06-.39,0-.8-.16-1.16.13a17.42,17.42,0,0,0-2.9-2.15q-9-6.26-18-12.46a2.37,2.37,0,0,1-.28-.27A10.81,10.81,0,0,1,88.23,19.7Z"/><path class="cls-1" d="M80.64,54.66c0,.34-.3.49-.5.68L63.67,71.82c-.48.47-.9,1-1.35,1.5a15.09,15.09,0,0,1-2.68-.41c.13-.15.25-.31.39-.46l17.4-17.38c.17-.16.27-.43.57-.42A10.6,10.6,0,0,1,80.64,54.66Z"/><path class="cls-3" d="M63,34.7a15.08,15.08,0,0,0-2.44-1.78c-3.51-2.47-7-4.91-10.56-7.36A20,20,0,0,1,53,25l6.75,4.72c2.22,1.55,4.44,3.08,6.67,4.62.12.09.28.15.28.34l-3.4.08Z"/><path class="cls-1" d="M26.8,31.37a15.14,15.14,0,0,0,2.09,1.56c.61.46,1.26.87,1.88,1.3.16.11.36.2.38.44l-3.52.07a29.4,29.4,0,0,1-3.69-2.58A10.68,10.68,0,0,1,26.8,31.37Z"/><path class="cls-6" d="M229.51,54.47c-.12-2.52,0-5-.17-7.57-.08-1.78,0-3.56-.11-5.33-.1-1.55-.13-3.11-.11-4.66,0-.45-.3-.57-.58-.74A5.38,5.38,0,0,1,226,32.72a6,6,0,0,1,1.5-5.51,7.94,7.94,0,0,1,6-2.74c7.76-.33,15.53-.1,23.3-.12a8.34,8.34,0,0,1,4.5,1,5.58,5.58,0,0,1,1.36,8.39,8.51,8.51,0,0,1-3.87,2.73,1,1,0,0,0-.76,1,21.39,21.39,0,0,0-.07,2.32l3.49-2.92c1.24-1,2.45-2.12,3.73-3.12a1.88,1.88,0,0,0,.82-1.91,6.16,6.16,0,0,1,3.3-6,10,10,0,0,1,4.76-1.39c5.82-.31,11.65-.1,17.47-.13,7.68,0,15.36-.07,23,0a29.84,29.84,0,0,1,11.24,2c2.47,1,4.75,2.37,6.05,4.84,1.65,3.1,1.17,6.12-.57,9a13.52,13.52,0,0,1-1.74,2.32c-.3.32-.31.56.06.87,3.49,2.89,3.72,7.13,2.07,10.8,0,.09-.16.14-.25.21l-5.41,0a10,10,0,0,0,1.66-3.3,3.69,3.69,0,0,0-1.32-4.16,17,17,0,0,0-3.65-2.17,36.26,36.26,0,0,0-4-1.42,41.81,41.81,0,0,0,4.84-2.12,9.06,9.06,0,0,0,4.22-4.84,3.27,3.27,0,0,0-.87-3.78,11.06,11.06,0,0,0-5-2.47,36.83,36.83,0,0,0-9.53-1H277.11c-.77,0-1.54,0-2.31.07a6.44,6.44,0,0,0-3.09.86c-1.17.76-1.14,1.76,0,2.48,1.37.83,1.37.85.16,1.87L255,48.65l-2.54,2.11V50.3c.32-5,.67-10.07,1-15.11A2.43,2.43,0,0,1,255,32.82c.78-.31,1.56-.61,2.32-.94a3.56,3.56,0,0,0,1.58-1.12c.54-.77.33-1.27-.58-1.43a18.4,18.4,0,0,0-3.31-.2H236.59a17.12,17.12,0,0,0-3.91.32,2.73,2.73,0,0,0-1.87,1.43.84.84,0,0,0,.43,1.28c.57.28,1.15.53,1.72.8a1.46,1.46,0,0,1,.91,1.44c0,1.22,0,2.43.06,3.65.11,5.45.32,10.91.33,16.36v0Z"/><path class="cls-7" d="M326.07,54.4l5.41,0c.07.36-.16.6-.31.87A19.18,19.18,0,0,1,323.23,63a39.23,39.23,0,0,1-13,4.07,90.93,90.93,0,0,1-13.29,1c-8.15.1-16.31,0-24.47,0a22.57,22.57,0,0,1-4.78-.32,5.41,5.41,0,0,1-3.93-7.89c.2-.43.44-.84.67-1.25l.09-.18.06-.13c-.08,0-.1,0-.11.09l-.16.11-5.6,4.37-4,3.19a10,10,0,0,1-6.52,2c-3.77,0-7.54,0-11.31,0a11.73,11.73,0,0,1-2.89-.25c-2.85-.77-4.11-2.5-4.3-5.56-.16-2.61-.12-5.23-.17-7.84l4.75-.08a1.28,1.28,0,0,1,.06.33c.06,2.39.12,4.77.16,7.16,0,1.15.24,1.4,1.38,1.41h13.2a4,4,0,0,0,2.51-.85c3.36-2.63,6.69-5.29,10-7.93l.26-.13c2.44.13,4.89,0,7.34,0,.09.32-.22.35-.36.49-.38.39-.94.58-1.2,1.1l-.17,0,0,.07.13-.1,4-1.1a2,2,0,0,0,.87-.48c1.78,0,3.57.07,5.35,0,.09.21-.06.34-.15.49-.5.83-1,1.65-1.5,2.49a4,4,0,0,1-2.52,1.9c-1.13.31-2.27.6-3.4.9a3.15,3.15,0,0,0-1.63.91c-.4.46-.87,1-.6,1.62s.88.45,1.39.49c2.8.21,5.6.13,8.4.1,8.49-.07,17,.26,25.47-.26a51.49,51.49,0,0,0,13.86-2.57,18.32,18.32,0,0,0,8.33-5.35c.16-.19.51-.34.35-.72Z"/><path class="cls-8" d="M80.64,54.66a10.6,10.6,0,0,0-2.64,0c0-.15,0-.25.15-.34,2.75-2.75,5.39-5.61,8.27-8.21a22.58,22.58,0,0,1,14.23-5.69,26.2,26.2,0,0,1,16.79,5c1,.71,2.08,1.42,3.11,2.16a.52.52,0,0,0,.83-.07c1.24-1.28,2.51-2.53,3.78-3.78l8.69-8.65c.18-.17.33-.38.59-.43.91.15,1.84-.06,2.75.12l-16.9,16.84c-.94.94-1.93,1.82-2.79,2.83l-.39.2a12.16,12.16,0,0,0-2-.07c-.25,0-.5.07-.73-.08L121,48.05a4.16,4.16,0,0,0-3.39-.37,7.5,7.5,0,0,0-3,1.93c-1.54,1.53-3.06,3.07-4.59,4.6a1.19,1.19,0,0,1-.65.45c-.87-.2-1.77.06-2.63-.14,2.75-2.7,5.27-5.63,8.3-8.08a21.25,21.25,0,0,0-2.88-1.59c-7.77-3.55-15.35-3.25-22.54,1.46C86.3,48.5,83.87,51.73,81,54.5Z"/><path class="cls-3" d="M137.19,34.79c-.91-.18-1.84,0-2.75-.12,0,0,0-.09.05-.12,2.93-2.83,5.55-6,8.85-8.44a22.61,22.61,0,0,1,10-4.1,25.22,25.22,0,0,1,16.14,2.75A43.53,43.53,0,0,1,176,29.05h0c-2.32-.76-4.18.08-5.81,1.66-1.22,1.19-2.42,2.42-3.63,3.62-.16.15-.27.37-.52.4-.89-.08-1.79.07-2.67-.08.12-.36.44-.56.7-.81a83.89,83.89,0,0,1,6.38-6.1l-.21-.14a23.83,23.83,0,0,0-14.45-3.74,21.79,21.79,0,0,0-10.62,3.61c-2.95,2-5.16,4.76-7.67,7.22Z"/><path class="cls-8" d="M27.63,34.74l3.52-.07.33.15.81.6L59.64,54.49c-.22.17-.48.08-.72.1a17.94,17.94,0,0,0-2.43.07,1.81,1.81,0,0,1-.75-.28l-28-19.5A.58.58,0,0,1,27.63,34.74Z"/><path class="cls-8" d="M63.27,34.75l3.4-.08a2.64,2.64,0,0,1,1,.61q7.34,5.07,14.68,10.16c.4.27.55.43.11.86-2.81,2.74-5.59,5.51-8.37,8.28l-3,0c.18-.2.35-.4.54-.59q3.72-3.7,7.45-7.39c.39-.38.36-.53-.07-.83q-4.63-3.16-9.25-6.38C67.65,37.83,65.46,36.28,63.27,34.75Z"/><path class="cls-8" d="M106,34.86c.36-.29.77-.11,1.16-.13.78,0,1.57,0,2.35-.06l.36.09a4,4,0,0,0,.31.27L119,41.14c.41.29.81.77,1.23.79s.78-.61,1.14-1c2.08-2.06,4.15-4.14,6.22-6.21l.33-.08,2.72.07c-.13.15-.25.32-.39.46q-4.68,4.65-9.36,9.3a.57.57,0,0,1-.89.06Z"/><path class="cls-1" d="M71.18,54.55l3,0c-2.33,2.32-4.67,4.64-7,7a.6.6,0,0,1-1,.09c-3.1-2.18-6.21-4.33-9.32-6.49-.18-.13-.41-.23-.39-.51a17.94,17.94,0,0,1,2.43-.07c.24,0,.5.07.72-.1l.38.13c2,1.54,4.12,2.9,6.17,4.37a.39.39,0,0,0,.59-.06L71,54.65Z"/><path class="cls-1" d="M182.47,54.58c0,.28-.27.4-.44.57q-3.14,3.15-6.28,6.27a24.2,24.2,0,0,1-16.91,6.49,25.93,25.93,0,0,1-9.58-2.09,41.07,41.07,0,0,1-8.43-5.2l0,0a5.55,5.55,0,0,0,5.62-1.69c1.48-1.44,2.91-2.93,4.36-4.4.23.15.49.07.73.09a15.3,15.3,0,0,1,2,.06c0,.26-.21.39-.37.54-2.3,2.19-4.36,4.62-6.9,6.61a1.46,1.46,0,0,0,.21.16,23.22,23.22,0,0,0,16.08,3.54A21.11,21.11,0,0,0,175,59.22c1.34-1.38,2.72-2.72,4.07-4.08.15-.16.37-.27.41-.52l.16-.09Z"/><path class="cls-3" d="M211.62,54.65a4.22,4.22,0,0,1-1.28,1.44c-2.11,1.92-4.05,4-6.08,6-2.64,2.59-5.25,5.22-7.87,7.84-.33.34-.55.44-1,.13q-6.93-4.86-13.88-9.66c-.5-.34-.57-.57-.09-1,1.46-1.38,2.86-2.82,4.28-4.25.19-.19.34-.4.52-.61.22.15.47.08.71.09a15.45,15.45,0,0,1,2,.06c0,.3-.24.42-.41.59q-2,2-4,4c-.28.28-.28.43.05.66q5.28,3.64,10.55,7.33a.66.66,0,0,0,1-.09q6-6.06,12.12-12.1c.16-.16.35-.3.38-.55C209.64,54.71,210.64,54.47,211.62,54.65Z"/><path class="cls-8" d="M189,54.65a15.45,15.45,0,0,0-2-.06c-.24,0-.49.06-.71-.09q5.24-5.23,10.46-10.47c.35-.35.54-.12.79,0,4.72,3.27,9.44,6.55,14.18,9.8.49.35.44.54,0,.77-1-.18-2,.06-3-.14h0s0,0,0-.06q-5.55-3.87-11.11-7.74c-.31-.21-.44,0-.61.15l-3.21,3.21-4.44,4.45Z"/><path class="cls-7" d="M182.47,54.58l-2.86,0c.14-.17.29-.35.44-.51L196,38.08c1.1-1.1,2.18-2.22,3.26-3.33l.28-.08,2.75.07c-.49.52-1,1-1.48,1.56L182.88,54.23C182.75,54.36,182.61,54.46,182.47,54.58Z"/><path class="cls-1" d="M140.83,60.62l-.26-.15h0a.28.28,0,0,1,.29.12Z"/><path class="cls-1" d="M153.45,69.54l-.06,0s0,0,0,0l.07.06Z"/><path class="cls-9" d="M137.19,34.79l.27-.09.82,0h23.87l.81,0a.91.91,0,0,1-.11.16l-17.78,17.7-1.91,1.91-.14.1H118.25c-.25,0-.54.12-.75-.14.86-1,1.85-1.89,2.79-2.83Z"/><path class="cls-10" d="M81,54.5c2.84-2.77,5.27-6,8.61-8.19,7.19-4.71,14.77-5,22.54-1.46a21.25,21.25,0,0,1,2.88,1.59c-3,2.45-5.55,5.38-8.3,8.08a.13.13,0,0,0-.13,0l-.81,0H81.91Z"/><path class="cls-11" d="M127.62,34.75c-2.07,2.07-4.14,4.15-6.22,6.21-.36.36-.66,1-1.14,1s-.82-.5-1.23-.79L110.19,35a4,4,0,0,1-.31-.27c.16,0,.32,0,.47,0h16.87Z"/><path class="cls-9" d="M60,54.62l-.38-.13L32.29,35.42l-.81-.6c.26-.19.57-.09.85-.09H62.14l.88,0,.25,0c2.19,1.53,4.38,3.08,6.58,4.61q4.62,3.21,9.25,6.38c.43.3.46.45.07.83Q75.44,50.25,71.72,54c-.19.19-.36.39-.54.59l-.17.1Z"/><path class="cls-11" d="M199.25,34.75c-1.08,1.11-2.16,2.23-3.26,3.33L180.05,54c-.15.16-.3.34-.44.51l-.16.09-.47,0H153.84c.07-.29.33-.43.51-.61q9.57-9.6,19.15-19.18l.29-.09.81,0h23.91C198.76,34.72,199,34.74,199.25,34.75Z"/><path class="cls-2" d="M199.25,34.75c-.24,0-.49,0-.74,0H174.6l-.81,0c0-.28.26-.41.43-.58Q183.3,25,192.36,16a.71.71,0,0,1,1.12-.1q7.07,4.89,14.16,9.72c.44.3.45.46.08.84q-3.89,3.82-7.73,7.7c-.17.17-.4.3-.46.56Z"/><path class="cls-6" d="M140.85,60.59a.28.28,0,0,0-.29-.12c-.05-.34.2-.52.41-.72l4.51-4.52c.18-.18.47-.31.39-.65.37.08.5-.25.69-.44l13.95-13.89c1.84-1.83,3.66-3.67,5.49-5.51.25,0,.36-.25.52-.4,1.21-1.2,2.41-2.43,3.63-3.62,1.63-1.58,3.49-2.42,5.81-1.66.18.32-.12.43-.27.59-1.48,1.49-3,3-4.45,4.45-.17.17-.41.29-.44.57-.33,0-.5.29-.71.49q-7.65,7.67-15.31,15.34c-1.33,1.33-2.63,2.67-3.95,4s-2.88,3-4.36,4.4A5.55,5.55,0,0,1,140.85,60.59Z"/><path class="cls-8" d="M150.83,54.5c1.32-1.33,2.62-2.67,3.95-4q7.65-7.68,15.31-15.34c.21-.2.38-.46.71-.49.9.15,1.81-.06,2.7.12Q163.93,44.38,154.35,54c-.18.18-.44.32-.51.61l-.25.07a15.3,15.3,0,0,0-2-.06C151.32,54.57,151.06,54.65,150.83,54.5Z"/><path class="cls-7" d="M166,34.74c-1.83,1.84-3.65,3.68-5.49,5.51L146.56,54.14c-.19.19-.32.52-.69.44l-2.71-.06,1.91-1.91,17.78-17.7a.91.91,0,0,0,.11-.16l.37-.09C164.21,34.81,165.11,34.66,166,34.74Z"/><path d="M326.07,54.4h-.2c-.13,0-.26,0-.4,0H307.2a4.93,4.93,0,0,1-.54,0A9.66,9.66,0,0,0,309,50.88a3.77,3.77,0,0,0-2.25-5,10.17,10.17,0,0,0-5.38-.58,3.65,3.65,0,0,0-2.78,1.8q-2.08,3.43-4.16,6.87c-.1.17-.29.31-.19.55h-.14c-.27,0-.53,0-.8,0H278.84c-.27,0-.53,0-.8-.06,2.8-4.62,5.62-9.23,8.4-13.86,1.15-1.9,2.41-3.75,3.4-5.75.4-.8.27-1-.56-1.33a1.07,1.07,0,0,0-1.07.21c-.68.44-1.36.89-2,1.39L267.54,49.81c-1.91,1.51-3.8,3-5.69,4.57l-.26.13a2,2,0,0,0-.8-.06H242.51l-8.25,0c0-5.45-.22-10.91-.33-16.36,0-1.22-.08-2.43-.06-3.65A1.46,1.46,0,0,0,233,33c-.57-.27-1.15-.52-1.72-.8a.84.84,0,0,1-.43-1.28,2.73,2.73,0,0,1,1.87-1.43,17.12,17.12,0,0,1,3.91-.32H255a18.4,18.4,0,0,1,3.31.2c.91.16,1.12.66.58,1.43a3.56,3.56,0,0,1-1.58,1.12c-.76.33-1.54.63-2.32.94a2.43,2.43,0,0,0-1.65,2.37c-.28,5-.63,10.08-1,15.11v.46L255,48.65l17-14.24c1.21-1,1.21-1-.16-1.87-1.18-.72-1.21-1.72,0-2.48a6.44,6.44,0,0,1,3.09-.86c.77-.06,1.54-.07,2.31-.07h35.37a36.83,36.83,0,0,1,9.53,1,11.06,11.06,0,0,1,5,2.47,3.27,3.27,0,0,1,.87,3.78,9.06,9.06,0,0,1-4.22,4.84,41.81,41.81,0,0,1-4.84,2.12,36.26,36.26,0,0,1,4,1.42,17,17,0,0,1,3.65,2.17,3.69,3.69,0,0,1,1.32,4.16A10,10,0,0,1,326.07,54.4ZM303.28,41.51a10.72,10.72,0,0,0,5.38-1.87,6.38,6.38,0,0,0,2.25-2.73,1.8,1.8,0,0,0-.08-1.87,3.23,3.23,0,0,0-4.94.05c-1.14,1.75-2.2,3.56-3.27,5.36C302.2,41.16,302.41,41.5,303.28,41.51Z"/><path class="cls-2" d="M234.26,54.41l8.25,0h18.28a2,2,0,0,1,.8.06c-3.33,2.64-6.66,5.3-10,7.93a4,4,0,0,1-2.51.85h-13.2c-1.14,0-1.36-.26-1.38-1.41,0-2.39-.1-4.77-.16-7.16a1.28,1.28,0,0,0-.06-.33Z"/><path class="cls-4" d="M306.66,54.39a4.93,4.93,0,0,0,.54,0h18.27c.14,0,.27,0,.4,0,.16.38-.19.53-.35.72a18.32,18.32,0,0,1-8.33,5.35A51.49,51.49,0,0,1,303.33,63c-8.48.52-17,.19-25.47.26-2.8,0-5.6.11-8.4-.1-.51,0-1.17,0-1.39-.49s.2-1.16.6-1.62a3.15,3.15,0,0,1,1.63-.91c1.13-.3,2.27-.59,3.4-.9a4,4,0,0,0,2.52-1.9c.49-.84,1-1.66,1.5-2.49.09-.15.24-.28.15-.49l.17,0c.27,0,.53.06.8.06H293.3c.27,0,.53,0,.8,0-.6,1-1.21,1.94-1.78,2.94s-.36,1.52.84,1.65c.13,0,.27,0,.4,0a20.55,20.55,0,0,0,6.53-.86,14.84,14.84,0,0,0,6.38-3.75Z"/><path class="cls-4" d="M278,54.38l-.17,0c-1.78.09-3.57.05-5.35,0a.49.49,0,0,1,.1-.38c.51-.82,1-1.64,1.51-2.48a2.76,2.76,0,0,0,.62-1.32c-1.24,1-2.37,1.9-3.54,2.78a6.27,6.27,0,0,1-2,1.4c-2.45,0-4.9.09-7.34,0,1.89-1.52,3.78-3.06,5.69-4.57L286.21,35c.64-.5,1.32-.95,2-1.39a1.07,1.07,0,0,1,1.07-.21c.83.34,1,.53.56,1.33-1,2-2.25,3.85-3.4,5.75C283.66,45.15,280.84,49.76,278,54.38Z"/><path class="cls-1" d="M269.19,54.42a6.27,6.27,0,0,0,2-1.4c1.17-.88,2.3-1.8,3.54-2.78a2.76,2.76,0,0,1-.62,1.32c-.48.84-1,1.66-1.51,2.48a.49.49,0,0,0-.1.38,2,2,0,0,1-.87.48l-4,1.1h0c.26-.52.82-.71,1.2-1.1C269,54.77,269.28,54.74,269.19,54.42Z"/><path class="cls-1" d="M267.62,56l-.13.1,0-.07.17,0Z"/><path class="cls-1" d="M264.49,58.43c0-.06,0-.12.11-.09l-.06.13Z"/><path class="cls-1" d="M264.54,58.47l-.09.18-.12-.11.16-.11Z"/><path class="cls-2" d="M163.33,34.66l-.37.09-.81,0H138.28l-.82,0c2.51-2.46,4.72-5.25,7.67-7.22a21.79,21.79,0,0,1,10.62-3.61,23.83,23.83,0,0,1,14.45,3.74l.21.14a83.89,83.89,0,0,0-6.38,6.1C163.77,34.1,163.45,34.3,163.33,34.66Z"/><path class="cls-2" d="M60,54.62l11,0-4.23,4.28a.39.39,0,0,1-.59.06C64.14,57.52,62,56.16,60,54.62Z"/><path class="cls-2" d="M153.59,54.65l.25-.07H179l.47,0c0,.25-.26.36-.41.52-1.35,1.36-2.73,2.7-4.07,4.08a21.11,21.11,0,0,1-12.36,6.28A23.22,23.22,0,0,1,146.53,62a1.46,1.46,0,0,1-.21-.16c2.54-2,4.6-4.42,6.9-6.61C153.38,55,153.59,54.91,153.59,54.65Z"/><path class="cls-2" d="M189,54.65l.27-.13a.84.84,0,0,0,.58.08l18.55-.07.27,0h0c0,.25-.22.39-.38.55q-6.06,6-12.12,12.1a.66.66,0,0,1-1,.09q-5.26-3.68-10.55-7.33c-.33-.23-.33-.38-.05-.66q2-2,4-4C188.74,55.07,189,55,189,54.65Z"/><path class="cls-9" d="M208.65,54.5l-.27,0-18.55.07a.84.84,0,0,1-.58-.08l4.44-4.46,3.21-3.21c.17-.18.3-.36.61-.15q5.55,3.88,11.11,7.74S208.64,54.48,208.65,54.5Z"/><path class="cls-4" d="M306.66,54.39l-.19.12c-.24,0-.49-.06-.73-.06q-3.45,0-6.9,0c-1.54,0-3.07,0-4.6,0-.1-.24.09-.38.19-.55q2.07-3.44,4.16-6.87a3.65,3.65,0,0,1,2.78-1.8,10.17,10.17,0,0,1,5.38.58,3.77,3.77,0,0,1,2.25,5A9.66,9.66,0,0,1,306.66,54.39ZM301,52.62a8.68,8.68,0,0,0,2.83-2.24c.11-.12.18-.25,0-.39s-1.29-.11-1.41.11A14.45,14.45,0,0,0,301,52.61l-.06.07Z"/><path class="cls-7" d="M294.24,54.49c1.53,0,3.06,0,4.6,0q3.45,0,6.9,0c.24,0,.49,0,.73.06a14.84,14.84,0,0,1-6.38,3.75,20.55,20.55,0,0,1-6.53.86c-.13,0-.27,0-.4,0-1.2-.13-1.45-.6-.84-1.65s1.18-2,1.78-2.94Z"/><path class="cls-6" d="M303.28,41.51c-.87,0-1.08-.35-.66-1.06,1.07-1.8,2.13-3.61,3.27-5.36a3.23,3.23,0,0,1,4.94-.05,1.8,1.8,0,0,1,.08,1.87,6.38,6.38,0,0,1-2.25,2.73A10.72,10.72,0,0,1,303.28,41.51Z"/><path class="cls-5" d="M301,52.61a14.45,14.45,0,0,1,1.42-2.51c.12-.22,1.19-.26,1.41-.11s.12.27,0,.39A8.68,8.68,0,0,1,301,52.62Z"/><path class="cls-5" d="M301,52.62l-.07.06.06-.07Z"/></svg>